<?xml version="1.0" encoding="utf-8"?>
<!-- Generator: Adobe Illustrator 24.0.2, SVG Export Plug-In . SVG Version: 6.00 Build 0)  -->
<svg version="1.1" id="Layer_1" xmlns="http://www.w3.org/2000/svg" xmlns:xlink="http://www.w3.org/1999/xlink" x="0px" y="0px"
	 viewBox="0 0 419 519" style="enable-background:new 0 0 419 519;" xml:space="preserve">
<style type="text/css">
	.st0{opacity:0.1;}
	.st1{fill:#FFFFFF;}
	.st2{fill:none;}
</style>
<g id="Layer_1_1_">
</g>
<g id="Layer_4">
</g>
<g id="Layer_3">
</g>
<g id="Layer_2_1_">
	<g class="st0">
		<g>
			<g>
				<path class="st1" d="M328.2,450.9c-40.7,1.1-74.6-31.2-75.7-71.9s31.2-74.6,71.9-75.7s74.6,31.2,75.7,71.9
					S368.8,449.9,328.2,450.9z M324.5,309.8c-37.1,1-66.5,32-65.6,69.1s32,66.5,69.1,65.6c37.1-1,66.5-32,65.6-69.1
					S361.6,308.9,324.5,309.8z"/>
				<path class="st1" d="M96.5,449.9C55.8,451,21.9,418.7,20.8,378s31.2-74.6,71.9-75.7s74.6,31.2,75.7,71.9S137.2,448.9,96.5,449.9
					z M92.8,308.8c-37.1,1-66.5,32-65.6,69.1c1,37.1,32,66.5,69.1,65.6c37.1-1,66.5-32,65.6-69.1S130,307.8,92.8,308.8z"/>
				<path class="st1" d="M192.1,395l-0.5-0.1c-3.9-0.4-14.9-2.4-28.8-4.8c-22.4-4-53.2-9.4-68-10.7l-1.8-0.2l0.9-1.6
					c3.8-6.9,19-29.3,33.7-51.1c12.8-18.9,24.8-36.7,29.8-44.7l0.4-0.6h0.7c11.1,0.5,28.6,1.1,47.2,1.8c37.4,1.4,79.8,3,86,3.7
					l2.7,0.3l-2.1,1.7c-4.3,3.5-25,26-47,49.8c-22.5,24.4-45.8,49.7-52.7,55.9L192.1,395z M96.8,377.3c15.5,1.6,44.8,6.8,66.4,10.6
					c13.3,2.3,23.9,4.2,28.1,4.7c7.3-6.7,30.1-31.4,52.2-55.4c19.6-21.3,38.3-41.5,45.2-48.2c-11.3-0.8-49.3-2.2-83.2-3.5
					c-18.2-0.7-35.3-1.3-46.5-1.8c-5.2,8.3-17,25.8-29.5,44.2C115.8,348.2,101.7,369.1,96.8,377.3z"/>
				<path class="st1" d="M325.2,378.8c-5.8-13.7-40.9-105.1-43-115.3l-0.2-1.2l1.2-0.2c23.8-4.3,56.2,10,68.2,25.2
					c4.6,5.9,6,11.5,3.9,16.2c-3.3,7.6-14.8,12.2-34.2,13.6l-0.2-2.3c23-1.7,30.2-7.6,32.3-12.3c2.2-4.9-0.8-10.3-3.6-13.9
					c-11.5-14.5-42-28.1-64.8-24.6c3.9,14.3,37.1,100.8,42.6,113.7L325.2,378.8z"/>
				<path class="st1" d="M296.4,298.1l-0.7-2.2c10.6-3.4,16.8-8.1,18-13.5c0.8-3.9-1-8-5.1-11.7c-6.8-6.1-17.5-8.8-24.8-6.4
					l-0.7-2.2c9.3-3.1,20.7,1.1,27.1,6.9c4.8,4.3,6.8,9.2,5.8,13.9C315,287.2,310.8,293.4,296.4,298.1z"/>
				<path class="st1" d="M189.4,409.7c-11.3,0.3-20.6-8.6-20.9-19.9c-0.3-11.3,8.6-20.6,19.9-20.9s20.6,8.6,20.9,19.9
					C209.6,400,200.7,409.4,189.4,409.7z M188.4,371.2c-10,0.3-17.9,8.6-17.6,18.6c0.3,10,8.6,17.9,18.6,17.6s17.9-8.6,17.6-18.6
					C206.7,378.8,198.4,370.9,188.4,371.2z"/>
				<path class="st1" d="M114.4,223.6c1.1,0.3,2.1,0.7,3.1,1c1,0.4,2,0.7,2.9,1.1c1.9,0.8,3.8,1.6,5.7,2.5c3.8,1.7,7.5,3.6,11,5.8
					c3.6,2.2,7.1,4.6,10.2,7.6c1.6,1.5,3.1,3.2,4.3,5.2c0.3,0.5,0.6,1,0.9,1.6l0.4,0.9l0.2,0.4l0.1,0.5l0.3,0.9l0.2,0.7l0.4,1.5
					c2,7.8,4.1,15.6,6.1,23.4l6.2,23.4L179,347c4.2,15.6,8.4,31.2,12.7,46.8c-4.9-15.4-9.6-30.9-14.4-46.4L163.2,301l-7.1-23.2
					c-2.3-7.8-4.7-15.5-7-23.3l-0.4-1.5l-0.2-0.7l-0.2-0.5l-0.1-0.3l-0.1-0.3l-0.2-0.5c-0.2-0.4-0.4-0.7-0.6-1.1
					c-0.9-1.4-2.2-2.7-3.6-4c-2.8-2.5-6.1-4.6-9.5-6.5s-7-3.6-10.6-5.1c-1.8-0.8-3.7-1.5-5.5-2.1c-0.9-0.3-1.8-0.7-2.8-0.9
					c-0.9-0.3-1.8-0.6-2.7-0.8c-1.9-0.5-3-2.4-2.5-4.2c0.5-1.9,2.4-3,4.2-2.5C114.3,223.6,114.4,223.6,114.4,223.6L114.4,223.6z"/>
				
					<ellipse transform="matrix(0.9997 -2.597030e-02 2.597030e-02 0.9997 -9.7359 2.5837)" class="st1" cx="94.6" cy="376.1" rx="5.1" ry="5.6"/>
				
					<ellipse transform="matrix(0.9997 -2.597030e-02 2.597030e-02 0.9997 -9.6838 8.599)" class="st1" cx="326.2" cy="377.1" rx="5.1" ry="5.6"/>
			</g>
			
				<rect x="255.7" y="376.9" transform="matrix(0.9997 -2.597030e-02 2.597030e-02 0.9997 -9.6902 8.6017)" class="st1" width="141.2" height="0.9"/>
			
				<rect x="325.8" y="306.7" transform="matrix(0.6885 -0.7252 0.7252 0.6885 -172.0328 354.1154)" class="st1" width="0.9" height="141.2"/>
			<g>
				<line class="st2" x1="324.4" y1="306.8" x2="328.1" y2="447.9"/>
				
					<rect x="325.8" y="306.7" transform="matrix(0.9997 -2.597030e-02 2.597030e-02 0.9997 -9.6889 8.6004)" class="st1" width="0.9" height="141.2"/>
			</g>
			
				<rect x="255.7" y="376.9" transform="matrix(0.6885 -0.7252 0.7252 0.6885 -172.0094 354.1661)" class="st1" width="141.2" height="0.9"/>
			
				<rect x="24" y="376" transform="matrix(0.9997 -2.597030e-02 2.597030e-02 0.9997 -9.745 2.5839)" class="st1" width="141.2" height="0.9"/>
			
				<rect x="94.1" y="305.8" transform="matrix(0.6885 -0.7252 0.7252 0.6885 -243.5495 185.8078)" class="st1" width="0.9" height="141.2"/>
			
				<rect x="94.1" y="305.8" transform="matrix(0.9997 -2.597030e-02 2.597030e-02 0.9997 -9.7437 2.5825)" class="st1" width="0.9" height="141.2"/>
			
				<rect x="24" y="376" transform="matrix(0.6885 -0.7252 0.7252 0.6885 -243.5261 185.8585)" class="st1" width="141.2" height="0.9"/>
		</g>
		<g>
			<path class="st1" d="M284.1,247.3c0.1,2.3,4.4,8.4,6.5,10.9c2.1,2.5,7.9,12.5,11.4,13.3s3.2-0.7,7.6-0.2s2.1-8.1-0.3-12.2
				s-11.4-13.1-14.2-14.2C292.3,243.9,284.1,247.3,284.1,247.3z"/>
			<path class="st1" d="M238.7,178.8c0,0,7.2-6,10.5-5.1s9,10.1,11.2,13.6s32.3,53.8,31.9,56.6c-0.4,2.8-5.6,5.8-8.2,3.4
				c-5.9-5.4-33.9-34.7-34-48.7c0-2.4-7.5-6.3-11.3-18.9"/>
			<path class="st1" d="M168.2,303c1.8-2.9-16.8,5.4-16.6,14.3s14,12.3,16.7,16.8s4.5,14.3,10.1,19.4c5.7,5.1,15.2,7.9,9.4-10.7
				C181.9,324.2,164.1,309.6,168.2,303z"/>
			<g>
				<path class="st1" d="M151.7,315.6c-0.6,7.1,7.2,11,15.7,17.3c1.7,6.1,15,32,29.2,32.2"/>
				<path class="st1" d="M151.7,315.6c0.2,2.1,1.1,3.9,2.3,5.3c1.3,1.4,2.8,2.6,4.5,3.7c1.6,1.1,3.4,2.1,5.1,3.2
					c1.7,1.1,3.5,2.2,5.2,3.3l0.5,0.4l0.3,0.9c0.5,1.5,1.3,3.2,2.1,4.8c0.8,1.6,1.7,3.3,2.6,4.9c1.8,3.2,3.8,6.3,5.9,9.3
					c2.1,3,4.4,5.9,7,8.4s5.6,4.7,9.4,5.5c-1.9,0.3-3.9,0.1-5.9-0.5c-1.9-0.6-3.7-1.5-5.4-2.6c-3.4-2.2-6.2-5-8.7-8
					s-4.7-6.3-6.6-9.6c-0.9-1.7-1.9-3.4-2.7-5.2c-0.8-1.8-1.5-3.6-2.1-5.7l0.8,1.2c-3.1-2.5-6.4-4.9-9.5-7.8c-1.5-1.5-3-3.1-4-5
					c-0.5-1-0.9-2-1-3.1C151.4,317.7,151.5,316.6,151.7,315.6z"/>
			</g>
			<path class="st1" d="M192.9,205.5c4,1.4,58.5,14.8,56.3,35.1C247,261,197.4,308.5,190,325c-7.4,16.4-22.2-13.6-22.5-17.6
				s6.6-9.7,10.4-15.3L192.9,205.5z"/>
			<path class="st1" d="M280.7,177.1c2.5,9.5-0.8,13.8,10.6,27.7c13.4,16.3,23.3,40.6,27.1,47c3.8,6.4-7,12.5-11,10
				c-3.9-2.5-21.1-22.1-27.4-28.4c-6.3-6.3-9.3-27.8-12.8-31.7s-10.8-20.3-16.8-21.7C257.4,174.6,280.7,177.1,280.7,177.1z"/>
			<path class="st1" d="M319.2,251.6c2.9,1.5,7.5,4.3,10.2,6c2.7,1.7,11,6.9,7,15.5s-11.6,6.3-13.7,5.7c-2.1-0.6-10.4-8.1-11.6-10.6
				s-3.7-5.2-3.6-5.8C307.5,261.8,318.3,251.2,319.2,251.6z"/>
			<path class="st1" d="M124,193.1c-2.9,5.3-8.7,18.6-3.2,28.5s23.9,20.3,30.3,30.1c6.4,9.7,18.7,31.9,21.2,44.7
				c2.5,12.9,0.4,92-2.3,102.2c1.7,3,15.2,13.1,22.9,4c2.2-12,22.5-81.8,22.9-91s-18.1-91.2-25.8-102.4
				C182.3,198.1,124,193.1,124,193.1z"/>
			<path class="st1" d="M170.6,398c-2-4.5-14.1,14.9-8.4,22.5c5.7,7.5,17.4,7.2,20,10.9c2.6,3.6,31.2,17.5,41,14.2
				c9.8-3.2-4.3-13-9.1-16.9s-18.1-20.5-21.3-25.9C187.5,403.5,175.7,409,170.6,398z"/>
			<g>
				<path class="st1" d="M160.8,416.6c1,1.8,2.4,3.3,4.1,4.4c1.6,1.1,3.4,1.9,5.3,2.6c3.7,1.3,7.7,2.1,11.7,2.9l0.7,0.1l0.7,0.8
					c0.1,0.2,0.4,0.5,0.8,0.7c0.3,0.3,0.7,0.6,1.1,0.8c0.7,0.6,1.5,1.1,2.3,1.6c1.6,1.1,3.3,2.1,5,3.1c3.4,2,6.9,3.8,10.5,5.4
					s7.3,3.1,11,4.2c3.8,1,7.7,1.8,11.7,0.9c-1.7,1.1-3.8,1.7-5.9,2c-2.1,0.3-4.2,0.3-6.3,0.1c-4.2-0.4-8.3-1.5-12.2-3
					c-3.9-1.4-7.7-3.2-11.3-5.3c-1.8-1.1-3.6-2.1-5.3-3.4c-0.9-0.6-1.7-1.3-2.6-2c-0.4-0.4-0.8-0.7-1.3-1.1
					c-0.4-0.4-0.8-0.8-1.3-1.5l1.3,0.9c-4.1-1.1-8.2-2.4-12-4.6c-1.9-1.1-3.7-2.4-5.2-4C162.2,420.7,161.1,418.7,160.8,416.6z"/>
			</g>
			<path class="st1" d="M248.2,180.4c4,0.3,31.8-0.6,33.1-0.9c1.3-0.3-3.3-15.6-3.8-18.8s-2.4-13.1-5.3-17.9
				c-2.9-4.8-6.2-9.5-7.2-12.3c-1-2.7,3.1-4.9,3.1-6.3s-5.3-4.5-4.7-6.8c0.6-2.3-4.1-5.4-11.1-6.2c-6.9-0.7-22.4-1-49.8,11
				c-27.1,11.8-46.8,28.2-60.1,41.9c-4.1,4.2-16.1,20.3-18.3,25.2c-2.2,4.9,20.1,11.7,26.2,15.2c6.1,3.5,21.9,16.5,28.1,15.4
				c6.2-1.1,16.4-8.5,16.9-15.7c7.5-4.3,44.3-29,51-27.4L248.2,180.4z"/>
			<path class="st1" d="M247.9,106.2c-4.6-7.3-2.9-23.9,10.9-35.1c11.5-9.3,43.7-1.1,40.3,11.7c-5.2,19.4-8.7-3.9-9,2.3
				c-0.3,7.6-9.6,21.3-9.6,15.5c0-8.9-7.6-10.3-12.7,1.9c-3.7,8.8-0.6-7.1-13.5,5.9C250.7,112.1,248.8,107.7,247.9,106.2z"/>
			<g>
				<path class="st1" d="M297.5,83.4c0,0-22.5-1.1-26.4,4.8c-1.9,2.9-18.2,14.2-18.3,18.8c-0.2,4.6,5.3,16.2,12.3,21.7
					c1.1,0.8,2.2,1.6,3.4,2.2c0.5-1.3,1.3-2.7,2.6-3.8c2.8-2.6,4.6-4.9,5.9-9.6c1.6-5.5,1.4-9.3,1.3-10.7c0-0.1,0-0.3,0-0.4
					c-0.3,0.1-0.6,0.2-0.9,0.2c-1.4,0-2.5-1.1-2.6-2.4c0-0.7,0.3-1.4,0.8-1.9c0-0.1,0-0.1,0-0.2c0-0.3,0.1-0.5,0.2-0.8
					c0.2-0.5,0.4-1,0.4-1.5s-0.2-1-0.5-1.4c-0.1-0.2-0.3-0.4-0.5-0.3s-0.2,0.4-0.3,0.6c-0.3,1-0.3,2-0.4,3.1c-0.1,0.5-0.1,1-0.2,1.6
					c0,0.3-0.1,0.5-0.1,0.8c0,0.2,0,0.5,0.1,0.8c0.2,1,0.5,2,0.9,2.9c0.2,0.5,0.4,0.9,0.7,1.4c0.2,0.4,0.5,0.8,0.7,1.2
					c0-0.1,0-0.1,0.1-0.2l0,0l0,0c0,0,0,0,0-0.1c0.1,0,0-0.1,0.2-0.1c0.2,0.1,0.2,0.2,0.2,0.2l0,0l0,0l0,0v0.1v0.2
					c0,0.1,0,0.1,0,0.2c0,0,0,0.1,0,0.2s-0.1,0.2-0.2,0.2s-0.1,0-0.2,0l-0.1,0.1c-0.1,0.1-0.3,0.1-0.5,0.1c-0.3-0.1-0.6-0.2-0.8-0.4
					c-0.4-0.3-0.8-0.8-1.1-1.2c-0.3-0.4-0.6-0.8-0.9-1.3c-1.2-1.8-1.9-3.8-1.9-6c0-2.1,0.5-4.3,1.8-6c0.6-0.8,1.5-1.6,2.5-1.9
					c0.3-0.1,0.5-0.1,0.8-0.1c0.1,0,0.3,0,0.4,0l0.4,0.1c0.5,0.1,1,0.4,1.4,0.8c0.2,0.2,0.3,0.4,0.5,0.6c0.1,0.2,0.3,0.5,0.4,0.7
					c0.2,0.5,0.4,1,0.5,1.5c0.2,1,0.3,1.9,0.4,2.9c0,0.1,0,0.1,0,0.2l-1.8,0.7c0.8,0.4,1.3,1.2,1.4,2.2c0,0.7-0.3,1.4-0.7,1.8
					c0,0.3,0.1,0.6,0.1,0.9c0.1,1.4,0.2,5.4-1.4,11c-1.4,4.9-3.3,7.4-6.2,10c-1.1,1-1.8,2.3-2.3,3.5c6.6,3.1,14.4,3.3,17.2,2.2
					c3.5-1.3,3.4-10.1,4-12.7c0.5-2.6,5.8-3.5,6.9-5.7c-1-2.3-2.2-9.6-0.3-12.8C299,99.2,297.8,86.4,297.5,83.4z"/>
				<path class="st1" d="M276.6,110.2L276.6,110.2L276.6,110.2L276.6,110.2L276.6,110.2z"/>
			</g>
		</g>
	</g>
</g>
</svg>
