<?xml version="1.0" encoding="utf-8"?>
<!-- Generator: Adobe Illustrator 24.0.2, SVG Export Plug-In . SVG Version: 6.00 Build 0)  -->
<svg version="1.1" xmlns="http://www.w3.org/2000/svg" xmlns:xlink="http://www.w3.org/1999/xlink" x="0px" y="0px"
	 viewBox="0 0 457 519" style="enable-background:new 0 0 457 519;" xml:space="preserve">
<style type="text/css">
	.st0{opacity:0.1;}
	.st1{fill:#FFFFFF;}
	.st2{opacity:0.1;fill:#FFFFFF;}
</style>
<g id="Layer_1">
	<g class="st0">
		<path class="st1" d="M265.5,208H214c-5.8,0-10.5,4.7-10.5,10.5V270c0,5.8,4.7,10.5,10.5,10.5h51.5c5.8,0,10.5-4.7,10.5-10.5v-51.5
			C276,212.7,271.3,208,265.5,208z M239.8,257.4c-7.3,0-13.2-5.9-13.2-13.2s5.9-13.2,13.2-13.2s13.2,5.9,13.2,13.2
			S247,257.4,239.8,257.4z"/>
		<circle class="st1" cx="239.8" cy="244.3" r="10.2"/>
		<path class="st1" d="M296.3,225.5h-5c-2.3,0-4.3-1.9-4.3-4.3v-24c0-2.3-1.9-4.3-4.3-4.3H127.3c-2.3,0-4.3,1.9-4.3,4.3v107.5
			c0,2.3,1.9,4.3,4.3,4.3h155.5c2.3,0,4.3-1.9,4.3-4.3c0-2.3,1.9-4.3,4.3-4.3h5c2.3,0,4.3-1.9,4.3-4.3v-66.5
			C300.5,227.4,298.6,225.5,296.3,225.5z M279,270c0,7.4-6.1,13.5-13.5,13.5H214c-7.4,0-13.5-6.1-13.5-13.5v-51.5
			c0-7.4,6.1-13.5,13.5-13.5h51.5c7.4,0,13.5,6.1,13.5,13.5V270z"/>
	</g>
	<polygon class="st2" points="88,258 88,259.6 118,259.6 118,244.3 88,244.3 88,246.1 70,238 70,265.5 	"/>
	<polygon class="st2" points="275,451 218.3,379.3 226.3,379.3 226.3,364.7 215,364.7 215,354.7 237.9,354.7 237.9,348 180.9,348 
		180.9,354.7 203.8,354.7 203.8,364.7 192.1,364.7 192.1,379.3 199.7,379.3 143,451 158.4,451 201.3,396.7 201.3,441.3 216.7,441.3 
		216.7,396.7 259.6,451 	"/>
	<path class="st2" d="M178,314c0.5,17.2,14.6,31,32,31s31.4-13.8,32-31H178z M210,342c-5.5,0-10-4.5-10-10c0-5.5,4.5-10,10-10
		s10,4.5,10,10C220,337.5,215.5,342,210,342z"/>
	<g class="st0">
		
			<rect x="115.8" y="336.5" transform="matrix(0.9621 -0.2725 0.2725 0.9621 -86.4137 52.8365)" class="st1" width="62.4" height="2"/>
		
			<rect x="78.1" y="346.5" transform="matrix(0.9623 -0.2719 0.2719 0.9623 -91.4733 40.9482)" class="st1" width="47.8" height="8"/>
	</g>
</g>
<g id="Layer_4">
	<polygon class="st2" points="322,242 322,237 305,237 305,288 322,288 322,282 395,309 395,217 	"/>
</g>
<g id="Layer_3">
	<path class="st2" d="M268.7,72.1c-31.3,0-56.6,25.4-56.6,56.6s25.4,56.6,56.6,56.6s56.6-25.4,56.6-56.6S300,72.1,268.7,72.1z
		 M299.1,98c6.8,0,12.4,5.5,12.4,12.4s-5.5,12.4-12.4,12.4s-12.4-5.5-12.4-12.4S292.2,98,299.1,98z M237.3,98.7
		c6.8,0,12.4,5.5,12.4,12.4c0,6.8-5.5,12.4-12.4,12.4s-12.4-5.5-12.4-12.4C224.9,104.2,230.5,98.7,237.3,98.7z M238,158.4
		c-6.8,0-12.4-5.5-12.4-12.4c0-6.8,5.5-12.4,12.4-12.4s12.4,5.5,12.4,12.4C250.3,152.8,244.8,158.4,238,158.4z M268.2,176.2
		c-6.8,0-12.4-5.5-12.4-12.4c0-6.8,5.5-12.4,12.4-12.4s12.4,5.5,12.4,12.4C280.5,170.7,275,176.2,268.2,176.2z M261.5,128.7
		c0-4,3.2-7.2,7.2-7.2s7.2,3.2,7.2,7.2c0,4-3.2,7.2-7.2,7.2S261.5,132.7,261.5,128.7z M268.5,105.2c-6.8,0-12.4-5.5-12.4-12.4
		c0-6.8,5.5-12.4,12.4-12.4s12.4,5.5,12.4,12.4C280.9,99.6,275.3,105.2,268.5,105.2z M298.4,158.4c-6.8,0-12.4-5.5-12.4-12.4
		c0-6.8,5.5-12.4,12.4-12.4c6.8,0,12.4,5.5,12.4,12.4C310.7,152.8,305.2,158.4,298.4,158.4z"/>
</g>
<g id="Layer_2">
	<path class="st2" d="M148.7,73.1c-31.3,0-56.6,25.4-56.6,56.6s25.4,56.6,56.6,56.6s56.6-25.4,56.6-56.6S180,73.1,148.7,73.1z
		 M179.1,99c6.8,0,12.4,5.5,12.4,12.4s-5.5,12.4-12.4,12.4c-6.8,0-12.4-5.5-12.4-12.4S172.2,99,179.1,99z M117.3,99.7
		c6.8,0,12.4,5.5,12.4,12.4c0,6.8-5.5,12.4-12.4,12.4s-12.4-5.5-12.4-12.4C104.9,105.2,110.5,99.7,117.3,99.7z M118,159.4
		c-6.8,0-12.4-5.5-12.4-12.4c0-6.8,5.5-12.4,12.4-12.4s12.4,5.5,12.4,12.4C130.3,153.8,124.8,159.4,118,159.4z M148.2,177.2
		c-6.8,0-12.4-5.5-12.4-12.4c0-6.8,5.5-12.4,12.4-12.4s12.4,5.5,12.4,12.4C160.5,171.7,155,177.2,148.2,177.2z M141.5,129.7
		c0-4,3.2-7.2,7.2-7.2s7.2,3.2,7.2,7.2c0,4-3.2,7.2-7.2,7.2S141.5,133.7,141.5,129.7z M148.5,106.2c-6.8,0-12.4-5.5-12.4-12.4
		c0-6.8,5.5-12.4,12.4-12.4s12.4,5.5,12.4,12.4C160.9,100.6,155.3,106.2,148.5,106.2z M178.4,159.4c-6.8,0-12.4-5.5-12.4-12.4
		c0-6.8,5.5-12.4,12.4-12.4s12.4,5.5,12.4,12.4C190.7,153.8,185.2,159.4,178.4,159.4z"/>
</g>
</svg>
