<?xml version="1.0" encoding="utf-8"?>
<!-- Generator: Adobe Illustrator 24.0.2, SVG Export Plug-In . SVG Version: 6.00 Build 0)  -->
<svg version="1.1" id="Layer_1" xmlns="http://www.w3.org/2000/svg" xmlns:xlink="http://www.w3.org/1999/xlink" x="0px" y="0px"
	 viewBox="0 0 50 50" enable-background="new 0 0 50 50" xml:space="preserve">
<g>
	<g>
		<path fill="#FFFFFF" d="M5,49c-1.024,0-2.047-0.391-2.829-1.172c-1.562-1.562-1.562-4.095,0-5.656l40-40
			c1.561-1.562,4.096-1.562,5.656,0c1.563,1.563,1.563,4.095,0,5.657l-40,40C7.047,48.609,6.024,49,5,49z"/>
	</g>
	<g>
		<path fill="#FFFFFF" d="M45,49c-1.023,0-2.048-0.391-2.828-1.172l-40-40c-1.562-1.563-1.562-4.095,0-5.657
			c1.563-1.562,4.095-1.562,5.657,0l40,40c1.563,1.562,1.563,4.095,0,5.656C47.048,48.609,46.023,49,45,49z"/>
	</g>
</g>
</svg>
