<?xml version="1.0" encoding="utf-8"?>
<!-- Generator: Adobe Illustrator 16.0.0, SVG Export Plug-In . SVG Version: 6.00 Build 0)  -->
<!DOCTYPE svg PUBLIC "-//W3C//DTD SVG 1.1//EN" "http://www.w3.org/Graphics/SVG/1.1/DTD/svg11.dtd" [
	<!ENTITY ns_extend "http://ns.adobe.com/Extensibility/1.0/">
	<!ENTITY ns_ai "http://ns.adobe.com/AdobeIllustrator/10.0/">
	<!ENTITY ns_graphs "http://ns.adobe.com/Graphs/1.0/">
	<!ENTITY ns_vars "http://ns.adobe.com/Variables/1.0/">
	<!ENTITY ns_imrep "http://ns.adobe.com/ImageReplacement/1.0/">
	<!ENTITY ns_sfw "http://ns.adobe.com/SaveForWeb/1.0/">
	<!ENTITY ns_custom "http://ns.adobe.com/GenericCustomNamespace/1.0/">
	<!ENTITY ns_adobe_xpath "http://ns.adobe.com/XPath/1.0/">
]>
<svg version="1.1" id="Слой_1" xmlns:x="&ns_extend;" xmlns:i="&ns_ai;" xmlns:graph="&ns_graphs;"
	 xmlns="http://www.w3.org/2000/svg" xmlns:xlink="http://www.w3.org/1999/xlink" x="0px" y="0px" width="92.333px" height="91px"
	 viewBox="0 0 92.333 91" enable-background="new 0 0 92.333 91" xml:space="preserve">
<metadata>
	<sfw  xmlns="&ns_sfw;">
		<slices></slices>
		<sliceSourceBounds  width="81.875" height="74.066" y="-29.528" x="-33.625" bottomLeftOrigin="true"></sliceSourceBounds>
	</sfw>
</metadata>
<path fill="none" stroke="#0D0F0F" stroke-miterlimit="10" d="M17.809,14.182"/>
<g>
	<path fill="none" stroke="#848484" stroke-width="4" stroke-miterlimit="10" d="M21.932,26.388
		c3.153-8.648,12.61-14.926,23.786-14.926c11.12,0,20.538,6.217,23.737,14.798"/>
	<rect x="7.542" y="26.26" fill="none" stroke="#848484" stroke-width="5" stroke-miterlimit="10" width="76.875" height="54.768"/>
</g>
<g>
	<g>
		<g>
			<path fill="#848484" d="M47.747,51.333l0.045-0.19l0.049-0.2l0.029-0.116l0.031-0.111c0.035-0.131,0.068-0.244,0.115-0.386
				c0.043-0.138,0.086-0.279,0.134-0.413c0.368-1.058,0.861-2.075,1.476-3.015c0.615-0.939,1.352-1.807,2.217-2.545
				c0.861-0.735,1.854-1.333,2.932-1.72c0.537-0.197,1.092-0.34,1.658-0.423c0.566-0.081,1.125-0.112,1.703-0.085l0.395,0.019
				c0.139,0.012,0.287,0.032,0.428,0.05c0.293,0.022,0.564,0.084,0.84,0.132c0.547,0.124,1.088,0.274,1.607,0.49
				c0.521,0.202,1.016,0.464,1.494,0.756c0.473,0.296,0.92,0.632,1.334,1.007c0.41,0.375,0.793,0.782,1.127,1.223
				c0.348,0.436,0.629,0.916,0.895,1.399l0.354,0.637l-0.723,0.026L64.5,47.922l-0.25,0.008l-0.127-0.198
				c-0.898-1.433-2.311-2.548-3.938-3.091c-0.406-0.133-0.824-0.235-1.25-0.303c-0.424-0.059-0.852-0.098-1.287-0.086
				c-0.432,0.006-0.854,0.056-1.279,0.148c-0.42,0.089-0.836,0.222-1.232,0.391c-0.795,0.347-1.525,0.843-2.168,1.439
				c-0.645,0.597-1.201,1.293-1.664,2.045c-0.467,0.753-0.846,1.56-1.133,2.403c-0.146,0.418-0.256,0.849-0.35,1.285
				c-0.023,0.117-0.074,0.353-0.074,0.353L47.747,51.333z"/>
		</g>
	</g>
	<g>
		<g>
			<path fill="#848484" d="M39.463,68.425l-0.607-0.009l-0.603-0.049l-0.601-0.088l-0.596-0.13l-0.585-0.167l-0.572-0.209
				l-0.557-0.247l-0.542-0.28l-0.523-0.321l-0.498-0.353l-0.475-0.39l-0.448-0.421l-0.417-0.451l-0.389-0.477l-0.356-0.502
				l-0.321-0.526l-0.146-0.234l0.29-0.016l1.397-0.055l0.097-0.005l0.064,0.089c0.987,1.435,2.465,2.503,4.115,2.987
				c0.412,0.117,0.833,0.207,1.258,0.255c0.427,0.047,0.85,0.068,1.283,0.04c0.427-0.025,0.836-0.087,1.249-0.189
				c0.411-0.104,0.809-0.248,1.189-0.432c0.761-0.36,1.453-0.867,2.055-1.466c0.601-0.601,1.11-1.29,1.534-2.031
				c0.422-0.741,0.761-1.533,1.007-2.349c0.02-0.065,0.076-0.286,0.076-0.286l2.648-1.139c0,0-0.113,0.654-0.176,0.98l-0.049,0.25
				c-0.012,0.044-0.019,0.084-0.035,0.141l-0.028,0.117L49.141,60.7l-0.068,0.25c-0.097,0.336-0.205,0.654-0.321,0.975
				c-0.479,1.278-1.136,2.495-1.997,3.579c-0.213,0.274-0.444,0.534-0.683,0.786c-0.24,0.251-0.492,0.494-0.759,0.724
				c-0.265,0.226-0.539,0.446-0.832,0.643c-0.288,0.203-0.594,0.383-0.904,0.556c-0.316,0.165-0.637,0.32-0.97,0.447
				c-0.167,0.065-0.333,0.129-0.506,0.181c-0.169,0.058-0.34,0.106-0.515,0.148c-0.346,0.094-0.699,0.157-1.056,0.208
				c-0.176,0.025-0.353,0.036-0.533,0.055c-0.178,0.011-0.356,0.018-0.534,0.027V68.425L39.463,68.425z"/>
			<path fill="#848484" d="M47.008,59.43"/>
		</g>
	</g>
	<g>
		<g>
			<path fill="#666666" d="M32.637,58.864l-1.264,0.054c-0.045-1.292-0.083-2.588-0.123-3.88l-0.097-3.883
				c-0.034-1.291-0.059-2.588-0.084-3.881l-0.073-3.883l-0.006-0.413l0.429-0.006h0.003l-0.421,0.419l-0.008-0.606l-0.005-0.424
				l0.436-0.006l6.763-0.069h0.018l0.024,0.001c0.917,0.077,1.825,0.354,2.619,0.82c0.797,0.465,1.489,1.111,2.016,1.867
				c0.524,0.763,0.886,1.64,1.039,2.554c0.076,0.453,0.104,0.937,0.082,1.371c-0.024,0.489-0.094,0.929-0.21,1.38
				c-0.232,0.896-0.654,1.743-1.234,2.468c-0.579,0.725-1.322,1.325-2.166,1.732c-0.423,0.202-0.871,0.355-1.329,0.455
				c-0.23,0.052-0.461,0.085-0.697,0.107l-0.173,0.014l-0.088,0.006h-0.022l-0.045,0.005h-0.04h-0.081h-0.019h-0.01h-0.005
				c-0.026,0,0.028-0.005,0.021-0.004l-0.038,0.004l-0.159,0.005l-2.524,0.103l-0.627,0.025l-0.001-0.622v-0.872l-0.002-0.572
				l0.564-0.028l1.383-0.071l0.69-0.037l0.347-0.021l0.188-0.009l0.172-0.005c0.107-0.008,0.174-0.009,0.278-0.026
				c0.096-0.011,0.191-0.033,0.285-0.054c0.191-0.047,0.379-0.109,0.559-0.187c0.364-0.16,0.704-0.382,1.013-0.646
				c0.616-0.53,1.093-1.245,1.368-2.025c0.137-0.388,0.222-0.796,0.25-1.204c0.006-0.099,0.012-0.21,0.01-0.3l-0.001-0.175
				l-0.01-0.14c-0.018-0.197-0.046-0.404-0.094-0.602c-0.182-0.793-0.613-1.53-1.222-2.081c-0.6-0.559-1.376-0.923-2.195-1.021
				c-0.389-0.046-0.875-0.03-1.332-0.042l-1.384-0.021l-2.768-0.045l0.391-0.391l-0.073,3.716l-0.086,3.715l-0.105,3.716
				L32.637,58.864z"/>
		</g>
	</g>
	<path fill="none" stroke="#0D0F0F" stroke-miterlimit="10" d="M34.601,60.342"/>
	<path fill="none" stroke="#0D0F0F" stroke-miterlimit="10" d="M33.813,44.139"/>
	<polygon fill="#FFFFFF" stroke="#FFFFFF" stroke-miterlimit="10" points="44.922,51.479 53.409,55.611 44.922,55.624 	"/>
	<polygon fill="#FFFFFF" stroke="#FFFFFF" stroke-miterlimit="10" points="44.922,59.769 53.409,55.642 44.922,55.624 	"/>
	<polygon fill="#595959" points="45.425,52.443 52.797,55.635 45.425,55.646 	"/>
	<polygon fill="#A5A5A5" points="45.425,58.851 52.797,55.656 45.425,55.646 	"/>
</g>
</svg>
