<?xml version="1.0" encoding="utf-8"?>
<!-- Generator: Adobe Illustrator 24.0.2, SVG Export Plug-In . SVG Version: 6.00 Build 0)  -->
<svg version="1.1" id="Layer_1" xmlns="http://www.w3.org/2000/svg" xmlns:xlink="http://www.w3.org/1999/xlink" x="0px" y="0px"
	 viewBox="0 0 24 24" style="enable-background:new 0 0 24 24;" xml:space="preserve">
<style type="text/css">
	.st0{opacity:0.8;fill:#FFFFFF;}
</style>
<path class="st0" d="M20,5.9V3.5c0-0.4-0.3-0.8-0.8-0.8h-1.4C17.4,2.7,17,3,17,3.5v1c0,0.2,0.1,0.4,0.2,0.5l1.4,1.4
	C19.2,7,20,6.6,20,5.9z M23.1,12.1L12.4,1.4c-0.2-0.2-0.6-0.2-0.8,0L0.9,12.1C0.6,12.4,0.8,13,1.3,13h1.1C2.8,13,3,13.2,3,13.6v8.9
	C3,22.8,3.2,23,3.6,23h16.9c0.3,0,0.6-0.2,0.6-0.6v-8.9c0-0.3,0.2-0.6,0.6-0.6h1.1C23.2,13,23.4,12.4,23.1,12.1z M19,21H5V10.7
	l7-6.9l7,7V21z M14,21h-4v-3.5c0-0.4,0.5-0.8,1.1-0.8h1.8c0.6,0,1.1,0.4,1.1,0.8C14,17.5,14,21,14,21z"/>
</svg>
