<?xml version="1.0" encoding="utf-8"?>
<!-- Generator: Adobe Illustrator 16.0.0, SVG Export Plug-In . SVG Version: 6.00 Build 0)  -->
<!DOCTYPE svg PUBLIC "-//W3C//DTD SVG 1.1//EN" "http://www.w3.org/Graphics/SVG/1.1/DTD/svg11.dtd" [
	<!ENTITY ns_extend "http://ns.adobe.com/Extensibility/1.0/">
	<!ENTITY ns_ai "http://ns.adobe.com/AdobeIllustrator/10.0/">
	<!ENTITY ns_graphs "http://ns.adobe.com/Graphs/1.0/">
	<!ENTITY ns_vars "http://ns.adobe.com/Variables/1.0/">
	<!ENTITY ns_imrep "http://ns.adobe.com/ImageReplacement/1.0/">
	<!ENTITY ns_sfw "http://ns.adobe.com/SaveForWeb/1.0/">
	<!ENTITY ns_custom "http://ns.adobe.com/GenericCustomNamespace/1.0/">
	<!ENTITY ns_adobe_xpath "http://ns.adobe.com/XPath/1.0/">
]>
<svg version="1.1" id="Слой_1" xmlns:x="&ns_extend;" xmlns:i="&ns_ai;" xmlns:graph="&ns_graphs;"
	 xmlns="http://www.w3.org/2000/svg" xmlns:xlink="http://www.w3.org/1999/xlink" x="0px" y="0px" width="152px" height="118px"
	 viewBox="0 0 152 118" enable-background="new 0 0 152 118" xml:space="preserve">
<metadata>
	<sfw  xmlns="&ns_sfw;">
		<slices></slices>
		<sliceSourceBounds  width="93.761" height="114.328" y="-49.033" x="-39.698" bottomLeftOrigin="true"></sliceSourceBounds>
	</sfw>
</metadata>
<path fill="#595959" stroke="#595959" stroke-width="0.75" stroke-miterlimit="10" d="M66.894,47.905
	c0.667,0.524,0.979,1.061,0.958,1.191c-0.014,0.09-0.599,0.102-1.385-0.374c-0.727-0.441-1.143-1.035-0.975-1.266
	C65.661,47.222,66.228,47.38,66.894,47.905z"/>
<g>
	<g>
		<path fill="#595959" stroke="#595959" stroke-width="0.5" stroke-miterlimit="10" d="M72.177,71.117
			c0.186,0.81,0.347,1.629,0.467,2.453c0.059,0.411,0.108,0.826,0.147,1.241c0.041,0.413,0.063,0.833,0.113,1.236
			c0.027,0.2,0.064,0.4,0.158,0.558c0.087,0.159,0.257,0.243,0.438,0.359c0.179,0.104,0.349,0.195,0.54,0.271
			c0.186,0.08,0.38,0.142,0.575,0.197c0.391,0.109,0.794,0.176,1.201,0.204c0.404,0.026,0.82,0.022,1.213-0.026l0.188-0.022
			l-0.023,0.188c-0.096,0.771-0.085,1.586,0.293,2.24c0.366,0.661,1.072,1.057,1.807,1.28c0.185,0.061,0.374,0.104,0.564,0.147
			l0.589,0.145c0.396,0.114,0.788,0.25,1.164,0.401c0.753,0.311,1.486,0.665,2.168,1.15c0.353,0.233,0.633,0.569,0.89,0.898
			c0.254,0.325,0.478,0.66,0.704,0.996c0.446,0.674,0.869,1.354,1.3,2.027s0.865,1.342,1.341,1.965
			c0.237,0.311,0.488,0.61,0.757,0.86c0.134,0.113,0.303,0.262,0.451,0.371c0.151,0.105,0.298,0.221,0.465,0.314
			c0.643,0.401,1.371,0.624,2.115,0.655c0.746,0.019,1.501-0.135,2.222-0.407c0.72-0.266,1.43-0.63,2.096-1.026
			c0.672-0.405,1.317-0.854,1.938-1.341c1.251-0.966,2.398-2.079,3.697-3.081c0.647-0.503,1.347-0.961,2.104-1.326
			c0.758-0.368,1.576-0.626,2.41-0.765l-0.15,0.051c0.055-0.024,0.112-0.049,0.17-0.069l0.13-0.034
			c0.089-0.022,0.155-0.026,0.234-0.037c0.149-0.013,0.293-0.021,0.432-0.014c0.283,0.002,0.552,0.04,0.82,0.083
			c0.533,0.103,1.046,0.263,1.53,0.479c0.482,0.219,0.948,0.472,1.382,0.768c0.435,0.293,0.845,0.618,1.221,0.975
			c0.382,0.355,0.739,0.729,1.067,1.124c0.336,0.392,0.641,0.805,0.934,1.227c0.292,0.421,0.556,0.855,0.815,1.296
			c0.242,0.447,0.496,0.889,0.707,1.351c0.226,0.454,0.427,0.921,0.619,1.388c0.196,0.468,0.357,0.946,0.535,1.418
			c0.153,0.482,0.321,0.957,0.46,1.441c0.132,0.486,0.288,0.965,0.4,1.455c0.115,0.489,0.255,0.974,0.348,1.467
			c0.094,0.494,0.212,0.982,0.288,1.479c0.084,0.494,0.178,0.987,0.25,1.483l0.201,1.488l-0.089,0.015l-0.316-1.466
			c-0.101-0.489-0.228-0.973-0.341-1.457c-0.107-0.486-0.254-0.965-0.381-1.446c-0.125-0.481-0.276-0.957-0.415-1.433
			c-0.135-0.481-0.31-0.945-0.461-1.417c-0.158-0.471-0.346-0.931-0.516-1.396c-0.196-0.454-0.374-0.917-0.585-1.363
			c-0.206-0.449-0.41-0.898-0.643-1.333c-0.216-0.441-0.473-0.862-0.718-1.288c-0.259-0.414-0.525-0.827-0.813-1.219
			c-0.291-0.394-0.591-0.776-0.914-1.138c-0.321-0.364-0.665-0.703-1.024-1.022c-0.717-0.638-1.514-1.179-2.377-1.555
			c-0.43-0.188-0.878-0.323-1.329-0.406c-0.223-0.036-0.45-0.064-0.669-0.064c-0.11-0.005-0.216,0.002-0.316,0.013
			c-0.046,0.008-0.104,0.01-0.135,0.021l-0.053,0.011c0,0.003,0,0.003-0.004-0.001l-0.151,0.052
			c-0.748,0.115-1.476,0.336-2.166,0.659c-0.688,0.324-1.341,0.741-1.969,1.205c-1.26,0.934-2.442,2.033-3.748,3.005
			c-0.65,0.489-1.331,0.943-2.041,1.353c-0.718,0.406-1.442,0.77-2.233,1.049c-0.78,0.279-1.626,0.446-2.483,0.41
			c-0.856-0.047-1.705-0.325-2.413-0.785c-0.183-0.105-0.353-0.24-0.525-0.367c-0.172-0.132-0.3-0.253-0.471-0.399
			c-0.313-0.302-0.572-0.625-0.817-0.953c-0.486-0.658-0.913-1.342-1.339-2.025c-0.423-0.683-0.833-1.37-1.263-2.039
			c-0.218-0.332-0.434-0.667-0.669-0.978c-0.229-0.303-0.462-0.6-0.781-0.815c-0.616-0.455-1.334-0.814-2.052-1.13
			c-0.365-0.155-0.727-0.287-1.099-0.405l-0.576-0.153c-0.198-0.049-0.398-0.101-0.593-0.169c-0.393-0.133-0.778-0.301-1.129-0.542
			c-0.347-0.243-0.653-0.563-0.856-0.941c-0.417-0.768-0.398-1.649-0.284-2.448l0.164,0.166c-0.433,0.043-0.851,0.037-1.275,0.001
			c-0.422-0.037-0.841-0.112-1.248-0.235c-0.203-0.063-0.404-0.132-0.597-0.22c-0.194-0.081-0.39-0.191-0.567-0.299
			c-0.162-0.109-0.382-0.224-0.497-0.439c-0.116-0.206-0.147-0.427-0.172-0.636c-0.044-0.421-0.056-0.833-0.089-1.247
			c-0.03-0.412-0.071-0.825-0.122-1.235c-0.102-0.823-0.247-1.639-0.416-2.452L72.177,71.117z"/>
		<path fill="#595959" stroke="#595959" stroke-width="0.5" stroke-miterlimit="10" d="M52.524,20.168c0,0-0.008,0.237-0.026,0.682
			c-0.014,0.444-0.02,1.094-0.009,1.924c0.035,1.657,0.173,4.025,0.56,6.839c0.384,2.813,0.998,6.078,1.982,9.482
			c0.5,1.697,1.079,3.436,1.826,5.131c0.741,1.693,1.627,3.366,2.786,4.815c0.285,0.365,0.6,0.703,0.921,1.028l0.505,0.466
			c0.175,0.141,0.384,0.34,0.543,0.525c0.173,0.185,0.313,0.39,0.462,0.571l0.216,0.28c0.071,0.101,0.142,0.219,0.212,0.328
			c0.262,0.44,0.454,0.893,0.615,1.356c0.306,0.926,0.475,1.868,0.58,2.795c0.106,0.929,0.153,1.846,0.163,2.746
			c0.02,1.8-0.078,3.529-0.215,5.159c-0.121,1.631-0.297,3.164-0.392,4.568c-0.042,0.694-0.059,1.367-0.013,1.984
			c0.048,0.613,0.159,1.2,0.428,1.566c0.257,0.369,0.744,0.459,1.219,0.468c0.234,0.005,0.479-0.003,0.693-0.02
			c0.236-0.008,0.439-0.036,0.627-0.064c0.384-0.064,0.728-0.196,1.035-0.298c0.307-0.107,0.573-0.185,0.787-0.252
			c0.435-0.108,0.666-0.166,0.666-0.166l0.027,0.085c0,0-0.219,0.093-0.628,0.263c-0.204,0.091-0.454,0.196-0.741,0.338
			c-0.291,0.136-0.625,0.316-1.052,0.44c-0.218,0.054-0.446,0.102-0.667,0.13c-0.24,0.039-0.477,0.059-0.742,0.072
			c-0.263,0.01-0.547,0.008-0.855-0.068c-0.305-0.071-0.633-0.253-0.861-0.524c-0.459-0.554-0.576-1.237-0.661-1.9
			c-0.076-0.674-0.084-1.367-0.068-2.095c0.042-1.439,0.164-2.977,0.283-4.597c0.106-1.623,0.224-3.328,0.232-5.087
			c0.003-0.878-0.016-1.77-0.1-2.663c-0.081-0.893-0.222-1.789-0.482-2.642c-0.136-0.423-0.304-0.841-0.515-1.214
			c-0.055-0.089-0.101-0.176-0.164-0.269l-0.208-0.286c-0.145-0.185-0.269-0.374-0.417-0.536c-0.148-0.174-0.28-0.308-0.469-0.467
			l-0.53-0.506c-0.338-0.353-0.666-0.716-0.959-1.104c-1.189-1.539-2.064-3.268-2.792-5.001c-0.732-1.738-1.289-3.503-1.766-5.225
			c-0.943-3.45-1.472-6.747-1.802-9.578c-0.329-2.833-0.416-5.212-0.416-6.875c0.005-0.831,0.027-1.485,0.05-1.93
			c0.026-0.443,0.04-0.68,0.04-0.68L52.524,20.168z"/>
	</g>
</g>
<g>
	<g>
		<path fill="#595959" stroke="#595959" stroke-width="0.5" stroke-miterlimit="10" d="M70.423,42.69
			c-0.225,0.229-0.455,0.45-0.692,0.656c-0.233,0.215-0.485,0.405-0.716,0.613c-0.234,0.202-0.48,0.389-0.695,0.603l-0.342,0.297
			c-0.109,0.105-0.21,0.216-0.316,0.323l-0.319,0.315l-0.295,0.338l-0.3,0.334l-0.276,0.359l-0.283,0.354
			c-0.103,0.113-0.184,0.243-0.273,0.366c-0.172,0.251-0.355,0.498-0.544,0.743l-0.014,0.022c-0.142,0.152-0.282,0.303-0.428,0.445
			c-0.162,0.124-0.318,0.252-0.481,0.368c-0.175,0.101-0.347,0.202-0.523,0.291c-0.183,0.079-0.373,0.141-0.556,0.202
			c0.144-0.139,0.284-0.269,0.423-0.395c0.125-0.145,0.258-0.274,0.381-0.412c0.111-0.151,0.229-0.29,0.34-0.432
			c0.093-0.156,0.191-0.304,0.289-0.449l-0.014,0.021c0.145-0.284,0.294-0.567,0.455-0.846c0.08-0.14,0.152-0.283,0.248-0.414
			l0.279-0.398l0.286-0.393l0.327-0.364l0.332-0.36l0.367-0.325c0.126-0.104,0.249-0.212,0.378-0.311l0.397-0.281
			c0.267-0.186,0.548-0.338,0.827-0.494c0.283-0.152,0.565-0.285,0.857-0.415C69.825,42.917,70.121,42.799,70.423,42.69z"/>
	</g>
</g>
<g>
	<g>
		<path fill="#595959" d="M69.781,43.545c0,0-0.278,0.485-0.531,0.971c-0.051,0.125-0.103,0.249-0.151,0.366
			c-0.057,0.112-0.064,0.234-0.093,0.327c-0.046,0.19-0.076,0.318-0.076,0.318l-0.434-0.115c0,0,0.062-0.134,0.155-0.336
			c0.052-0.095,0.088-0.219,0.172-0.328c0.075-0.111,0.156-0.23,0.236-0.35C69.415,43.96,69.781,43.545,69.781,43.545z"/>
	</g>
</g>
<g>
	<g>
		<path fill="#595959" d="M68.502,47.449c0,0-0.059,0.18-0.146,0.45c-0.042,0.136-0.104,0.294-0.126,0.461
			c-0.032,0.169-0.067,0.35-0.103,0.53c-0.039,0.181-0.039,0.37-0.06,0.545c-0.011,0.175-0.04,0.342-0.022,0.48
			c0.016,0.283,0.025,0.473,0.025,0.473s-0.038-0.187-0.095-0.465c-0.039-0.142-0.035-0.308-0.048-0.487
			c-0.006-0.179-0.034-0.371-0.022-0.564c0.009-0.196,0.018-0.391,0.026-0.574c0-0.189,0.038-0.349,0.059-0.489
			c0.047-0.281,0.079-0.468,0.079-0.468L68.502,47.449z"/>
	</g>
</g>
<g>
	<g>
		<path fill="#595959" d="M66.788,42.476c0,0-0.052,0.06-0.146,0.159c-0.097,0.097-0.233,0.236-0.389,0.401
			c-0.161,0.16-0.34,0.357-0.542,0.558c-0.104,0.096-0.193,0.213-0.3,0.317c-0.102,0.107-0.213,0.21-0.308,0.327
			c-0.204,0.22-0.41,0.44-0.588,0.655c-0.086,0.11-0.191,0.203-0.264,0.308c-0.076,0.103-0.152,0.199-0.225,0.288
			c-0.153,0.171-0.233,0.339-0.318,0.448c-0.081,0.112-0.127,0.176-0.127,0.176s0.013-0.076,0.045-0.21
			c0.039-0.129,0.066-0.337,0.178-0.544c0.05-0.106,0.105-0.224,0.169-0.345c0.06-0.124,0.145-0.237,0.227-0.36
			c0.087-0.118,0.162-0.254,0.268-0.367c0.101-0.116,0.204-0.235,0.307-0.354c0.104-0.118,0.222-0.22,0.332-0.329
			c0.111-0.105,0.223-0.208,0.338-0.299c0.228-0.182,0.445-0.348,0.65-0.469c0.197-0.131,0.371-0.217,0.495-0.272
			C66.714,42.505,66.788,42.476,66.788,42.476z"/>
	</g>
</g>
<g>
	<g>
		<path fill="#595959" stroke="#595959" stroke-width="0.5" stroke-miterlimit="10" d="M67.663,36.424c0,0-0.196,0.096-0.541,0.264
			c-0.349,0.162-0.834,0.413-1.403,0.727c-0.286,0.155-0.583,0.347-0.904,0.538c-0.318,0.194-0.64,0.418-0.98,0.639
			c-0.325,0.24-0.668,0.481-0.996,0.748c-0.328,0.27-0.66,0.542-0.966,0.841c-0.319,0.286-0.6,0.607-0.884,0.915
			c-0.26,0.327-0.529,0.634-0.76,0.954c-0.254,0.301-0.458,0.619-0.679,0.905c-0.193,0.301-0.389,0.581-0.537,0.857
			c-0.168,0.269-0.28,0.532-0.402,0.763c-0.105,0.235-0.184,0.447-0.263,0.622c-0.111,0.355-0.192,0.569-0.192,0.569l-0.089-0.007
			c0,0-0.025-0.22-0.035-0.624c0.017-0.196,0.032-0.439,0.077-0.715c0.065-0.269,0.118-0.587,0.249-0.905
			c0.063-0.16,0.112-0.337,0.195-0.501c0.083-0.167,0.168-0.337,0.256-0.515c0.196-0.339,0.41-0.698,0.682-1.027
			c0.259-0.342,0.576-0.648,0.892-0.962c0.337-0.29,0.659-0.604,1.019-0.873c0.344-0.288,0.71-0.543,1.069-0.795
			c0.361-0.25,0.732-0.469,1.085-0.689c0.366-0.197,0.709-0.408,1.052-0.571c0.346-0.162,0.664-0.325,0.97-0.454
			c0.306-0.127,0.585-0.245,0.834-0.348c0.249-0.101,0.47-0.172,0.649-0.238c0.362-0.127,0.569-0.2,0.569-0.2L67.663,36.424z"/>
	</g>
</g>
<g>
	<g>
		<path fill="#595959" d="M69.781,65.694c0,0,0.071-0.044,0.194-0.12c0.127-0.067,0.321-0.16,0.567-0.223
			c0.125-0.021,0.259-0.057,0.407-0.061c0.147-0.018,0.302-0.006,0.464,0.009c0.159,0.032,0.326,0.066,0.483,0.144
			c0.154,0.076,0.312,0.168,0.433,0.299c0.135,0.117,0.223,0.278,0.307,0.427c0.069,0.16,0.129,0.318,0.15,0.479
			c0.042,0.158,0.039,0.313,0.039,0.46c0.009,0.146-0.01,0.282-0.026,0.406c-0.018,0.125-0.023,0.241-0.056,0.338
			c-0.026,0.099-0.049,0.184-0.067,0.255c-0.041,0.139-0.063,0.219-0.063,0.219s0.007-0.082,0.019-0.227
			c0.008-0.071,0.018-0.159,0.028-0.259c0.016-0.099,0.004-0.214,0.012-0.335c0.004-0.122,0.011-0.253-0.01-0.391
			c-0.013-0.138-0.027-0.282-0.069-0.423c-0.023-0.15-0.091-0.285-0.151-0.425c-0.076-0.129-0.152-0.266-0.271-0.365
			c-0.101-0.113-0.235-0.192-0.368-0.262c-0.135-0.068-0.28-0.11-0.424-0.146c-0.146-0.018-0.288-0.046-0.426-0.041
			c-0.137-0.01-0.267,0.014-0.387,0.021c-0.24,0.041-0.437,0.087-0.573,0.137C69.858,65.664,69.781,65.694,69.781,65.694z"/>
	</g>
</g>
<g>
	<g>
		<path fill="#595959" d="M66.672,71.709c0,0,0.011-0.066,0.031-0.182c0.003-0.049,0.043-0.148,0.08-0.243
			c0.03-0.105,0.108-0.185,0.174-0.285c0.087-0.082,0.176-0.179,0.294-0.239c0.111-0.075,0.242-0.115,0.372-0.157
			c0.134-0.033,0.271-0.058,0.41-0.062c0.139-0.01,0.279,0,0.417,0.012c0.276,0.027,0.542,0.098,0.783,0.179
			c0.241,0.084,0.454,0.188,0.632,0.283c0.173,0.104,0.316,0.189,0.409,0.263c0.094,0.068,0.149,0.107,0.149,0.107
			s-0.058-0.033-0.159-0.093c-0.099-0.062-0.25-0.132-0.43-0.214c-0.184-0.076-0.401-0.154-0.641-0.209
			c-0.239-0.054-0.498-0.094-0.755-0.093c-0.128,0.003-0.256,0.007-0.376,0.03c-0.124,0.016-0.237,0.051-0.344,0.089
			c-0.102,0.046-0.203,0.088-0.275,0.152c-0.084,0.052-0.132,0.127-0.188,0.186c-0.031,0.072-0.084,0.134-0.089,0.189
			c-0.012,0.06-0.037,0.089-0.035,0.16c-0.008,0.116-0.013,0.182-0.013,0.182L66.672,71.709z"/>
	</g>
</g>
<g>
	<g>
		<path fill="#595959" stroke="#595959" stroke-miterlimit="10" d="M53.255,11.984c0,0-0.029,0.192-0.085,0.552
			c-0.044,0.356-0.1,0.872-0.137,1.541c-0.042,0.667-0.06,1.477-0.058,2.403c0.011,0.928,0.034,1.974,0.108,3.111
			c0.066,1.138,0.198,2.363,0.328,3.66c0.143,1.293,0.292,2.668,0.63,4.057c0.338,1.382,0.889,2.789,1.788,3.975
			c0.88,1.19,2.209,2.072,3.625,2.171c0.703,0.063,1.411-0.035,2.093-0.231c0.689-0.18,1.328-0.498,2.039-0.81
			c1.399-0.622,2.821-1.181,4.219-1.631c0.702-0.224,1.401-0.417,2.092-0.589c0.693-0.161,1.381-0.287,2.052-0.396
			c1.348-0.204,2.65-0.266,3.852-0.19c0.602,0.047,1.177,0.122,1.719,0.238c0.539,0.128,1.047,0.275,1.506,0.475
			c0.919,0.39,1.643,0.933,2.086,1.504c0.456,0.563,0.641,1.111,0.721,1.474c0.041,0.184,0.057,0.326,0.062,0.423
			c0.009,0.095,0.012,0.144,0.012,0.144l-0.133,0.019c0,0-0.014-0.046-0.039-0.134c-0.023-0.088-0.065-0.218-0.137-0.378
			c-0.14-0.317-0.379-0.779-0.858-1.2c-0.472-0.423-1.147-0.813-2.001-1.057c-0.849-0.25-1.862-0.364-2.972-0.355
			c-1.111,0.012-2.318,0.162-3.586,0.394c-0.633,0.125-1.282,0.267-1.938,0.443c-0.661,0.162-1.333,0.343-2.011,0.556
			c-1.365,0.406-2.75,0.884-4.154,1.431c-0.359,0.14-0.721,0.279-1.083,0.419c-0.384,0.131-0.777,0.249-1.184,0.328
			c-0.808,0.162-1.67,0.189-2.493,0.005c-0.823-0.176-1.592-0.549-2.225-1.056c-0.642-0.498-1.166-1.103-1.609-1.741
			c-0.888-1.279-1.497-2.675-2.026-4.044c-0.524-1.373-0.932-2.748-1.173-4.076c-0.252-1.328-0.327-2.604-0.355-3.778
			c-0.02-1.175,0.025-2.253,0.128-3.203c0.091-0.951,0.241-1.774,0.395-2.443c0.077-0.334,0.161-0.631,0.234-0.887
			c0.087-0.257,0.157-0.476,0.222-0.646c0.144-0.335,0.222-0.513,0.222-0.513L53.255,11.984z"/>
	</g>
</g>
<g>
	<g>
		<path fill="#595959" stroke="#595959" stroke-miterlimit="10" d="M75.515,18.452c0,0,0.116-0.047,0.339-0.14
			c0.224-0.09,0.571-0.221,1.024-0.361c0.909-0.27,2.295-0.575,4.097-0.59c0.899-0.004,1.896,0.07,2.975,0.244
			c1.072,0.194,2.221,0.494,3.407,0.946c1.179,0.469,2.393,1.089,3.579,1.9c1.179,0.82,2.313,1.845,3.327,3.064
			c0.513,0.606,0.975,1.276,1.392,1.988c0.417,0.711,0.795,1.466,1.09,2.267c0.611,1.593,0.961,3.33,1.057,5.106
			c0.185,3.569-0.602,7.214-1.774,10.778c-1.201,3.528-2.123,7.286-2.881,11.103c-0.374,1.906-0.75,3.819-0.952,5.71
			c-0.095,0.945-0.132,1.885-0.063,2.783c0.059,0.896,0.243,1.743,0.589,2.458c0.345,0.715,0.832,1.325,1.506,1.81l0.3,0.224
			c0.101,0.072,0.174,0.109,0.262,0.167l0.253,0.161l0.286,0.153c0.379,0.21,0.783,0.377,1.196,0.526
			c1.653,0.607,3.521,0.749,5.398,0.719c1.887-0.031,3.799-0.238,5.729-0.397c1.931-0.15,3.897-0.266,5.897-0.011
			c0.995,0.135,2.003,0.383,2.953,0.805c0.949,0.42,1.834,1.03,2.532,1.783c1.41,1.521,2.094,3.386,2.485,5.129
			c0.76,3.529,0.573,6.843,0.338,9.843c-0.262,3.008-0.708,5.726-1.145,8.119c-0.46,2.392-0.921,4.46-1.314,6.159
			c-0.397,1.697-0.729,3.027-0.974,3.929c-0.237,0.903-0.362,1.384-0.362,1.384l-0.22-0.05c0,0,0.359-1.957,0.944-5.385
			c0.285-1.715,0.607-3.799,0.911-6.195c0.319-2.394,0.596-5.104,0.729-8.052c0.061-1.474,0.084-3.007,0-4.579
			c-0.089-1.568-0.266-3.18-0.669-4.746c-0.4-1.56-1.065-3.082-2.156-4.171c-1.072-1.111-2.609-1.677-4.315-1.861
			c-1.71-0.182-3.552-0.032-5.437,0.148c-1.892,0.179-3.843,0.42-5.874,0.482c-2.022,0.053-4.169-0.046-6.261-0.783
			c-0.519-0.188-1.033-0.404-1.522-0.674l-0.368-0.201l-0.376-0.238c-0.12-0.079-0.261-0.165-0.362-0.238l-0.297-0.225
			c-0.935-0.679-1.756-1.655-2.229-2.753c-0.473-1.101-0.647-2.248-0.675-3.332c-0.025-1.089,0.08-2.137,0.236-3.156
			c0.318-2.037,0.853-3.973,1.469-5.854c1.257-3.751,2.697-7.332,3.771-10.907c0.553-1.762,0.917-3.549,1.068-5.304
			c0.148-1.756,0.089-3.479-0.173-5.101c-0.521-3.248-1.795-6.085-3.546-8.263c-0.863-1.099-1.856-2.022-2.877-2.797
			c-1.02-0.782-2.086-1.399-3.133-1.887c-1.044-0.499-2.075-0.861-3.05-1.121c-0.975-0.264-1.893-0.439-2.732-0.525
			c-1.678-0.198-3.026-0.111-3.938-0.005c-0.457,0.055-0.801,0.109-1.04,0.156c-0.238,0.047-0.361,0.072-0.361,0.072L75.515,18.452z
			"/>
	</g>
</g>
<g>
	<g>
		<path fill="#595959" stroke="#595959" stroke-miterlimit="10" d="M47.061,3.089c0,0-0.122,0.055-0.356,0.161
			c-0.236,0.103-0.589,0.257-1.018,0.482c-0.871,0.437-2.124,1.153-3.577,2.225c-0.715,0.556-1.487,1.188-2.281,1.922
			c-0.787,0.744-1.579,1.603-2.374,2.555c-0.792,0.955-1.551,2.034-2.253,3.22c-0.709,1.181-1.347,2.482-1.849,3.89
			c-0.507,1.404-0.891,2.91-1.091,4.489c-0.191,1.58-0.173,3.229,0.044,4.9c0.106,0.837,0.285,1.676,0.495,2.521
			c0.108,0.376,0.242,0.919,0.374,1.285c0.121,0.405,0.273,0.822,0.428,1.24c0.658,1.644,1.57,3.212,2.896,4.542
			c1.312,1.345,3.005,2.423,4.708,3.612c0.846,0.606,1.697,1.243,2.461,2c0.765,0.751,1.462,1.594,2.024,2.524
			c0.134,0.242,0.273,0.454,0.403,0.721c0.112,0.244,0.237,0.449,0.338,0.725c0.225,0.524,0.406,1.044,0.539,1.58
			c0.142,0.535,0.229,1.077,0.302,1.621l0.093,0.814l0.052,0.814c0.103,2.172-0.019,4.323-0.188,6.459
			c-0.323,4.282-0.983,8.476-1.708,12.606c-0.7,4.111-1.583,8.157-1.608,11.805c0,1.814,0.289,3.481,0.971,4.967
			c0.343,0.74,0.763,1.447,1.26,2.113c0.507,0.661,1.077,1.282,1.67,1.882c1.22,1.189,2.551,2.205,3.944,3.188
			c1.386,0.989,2.75,1.94,4.049,2.897c1.301,0.951,2.528,1.942,3.621,3.018c1.085,1.075,2.038,2.28,2.598,3.613
			c0.581,1.323,0.735,2.695,0.673,3.889c-0.069,1.203-0.334,2.25-0.621,3.161c-0.281,0.915-0.621,1.69-0.918,2.358
			c-0.157,0.329-0.302,0.634-0.436,0.913c-0.143,0.272-0.274,0.521-0.391,0.744c-0.479,0.879-0.75,1.337-0.75,1.337l-0.282-0.138
			c0,0,0.201-0.493,0.542-1.419c0.331-0.928,0.839-2.298,1.186-4.065c0.174-0.88,0.303-1.865,0.246-2.899
			c-0.047-1.034-0.282-2.112-0.842-3.115c-0.551-1.003-1.393-1.944-2.436-2.825c-1.043-0.883-2.271-1.705-3.583-2.559
			c-1.314-0.85-2.723-1.708-4.186-2.621c-1.459-0.909-3.03-1.943-4.498-3.214c-0.735-0.646-1.446-1.356-2.108-2.153
			c-0.653-0.807-1.258-1.698-1.734-2.687c-0.477-0.982-0.843-2.044-1.055-3.132c-0.213-1.086-0.303-2.184-0.295-3.263
			c0.023-2.16,0.368-4.238,0.765-6.28c0.394-2.045,0.872-4.061,1.322-6.09c0.44-2.03,0.884-4.075,1.33-6.128
			c0.454-2.054,0.914-4.111,1.321-6.17c0.201-1.029,0.386-2.062,0.535-3.092c0.085-0.517,0.13-1.03,0.197-1.546
			c0.043-0.512,0.09-1.029,0.102-1.541c0.053-1.026-0.005-2.043-0.2-3.02c-0.094-0.488-0.229-0.972-0.399-1.416
			c-0.07-0.222-0.21-0.469-0.312-0.703c-0.094-0.205-0.234-0.434-0.349-0.65c-0.496-0.87-1.125-1.65-1.85-2.329
			c-0.721-0.683-1.546-1.252-2.401-1.778c-0.857-0.524-1.752-1.004-2.646-1.511c-0.89-0.514-1.771-1.075-2.606-1.718
			c-1.67-1.287-3.047-2.987-3.981-4.813c-0.225-0.459-0.457-0.912-0.648-1.4c-0.216-0.513-0.335-0.877-0.518-1.388
			c-0.286-0.955-0.538-1.915-0.676-2.882c-0.302-1.931-0.285-3.857-0.027-5.673c0.265-1.815,0.763-3.523,1.412-5.076
			c0.653-1.553,1.441-2.958,2.293-4.216c0.86-1.253,1.797-2.345,2.733-3.307c1.882-1.92,3.807-3.271,5.473-4.195
			c1.674-0.924,3.083-1.425,4.057-1.715c0.492-0.146,0.862-0.231,1.115-0.284c0.252-0.054,0.382-0.082,0.382-0.082L47.061,3.089z"/>
	</g>
</g>
<g>
	<path fill="#595959" d="M76.856,77.645c0,0,0.03-0.047,0.082-0.128c0.028-0.042,0.051-0.086,0.104-0.151
		c0.051-0.059,0.099-0.133,0.17-0.196c0.066-0.068,0.144-0.136,0.239-0.193c0.093-0.059,0.2-0.107,0.31-0.139
		c0.221-0.066,0.438-0.087,0.642-0.142c0.204-0.054,0.403-0.13,0.574-0.237c0.174-0.103,0.325-0.221,0.446-0.331
		c0.128-0.105,0.22-0.209,0.288-0.276c0.066-0.069,0.105-0.109,0.105-0.109s-0.033,0.044-0.092,0.122
		c-0.059,0.075-0.138,0.191-0.252,0.313c-0.109,0.127-0.248,0.268-0.417,0.398c-0.163,0.136-0.37,0.248-0.584,0.333
		c-0.215,0.088-0.436,0.139-0.604,0.218c-0.169,0.077-0.29,0.177-0.375,0.295c-0.048,0.053-0.072,0.115-0.104,0.162
		c-0.031,0.04-0.056,0.105-0.076,0.146c-0.043,0.088-0.065,0.137-0.065,0.137L76.856,77.645z"/>
</g>
</svg>
