<?xml version="1.0" encoding="utf-8"?>
<!-- Generator: Adobe Illustrator 24.0.2, SVG Export Plug-In . SVG Version: 6.00 Build 0)  -->
<svg version="1.1" xmlns="http://www.w3.org/2000/svg" xmlns:xlink="http://www.w3.org/1999/xlink" x="0px" y="0px"
	 viewBox="0 0 419 519" style="enable-background:new 0 0 419 519;" xml:space="preserve">
<style type="text/css">
	.st0{opacity:0.1;fill:#FFFFFF;}
	.st1{opacity:0.1;fill:none;stroke:#FFFFFF;stroke-width:2;stroke-miterlimit:10;}
	.st2{opacity:0.1;}
	.st3{fill:#FFFFFF;}
</style>
<g id="Layer_1">
</g>
<g id="Layer_4">
</g>
<g id="Layer_3">
</g>
<g id="Layer_2">
	<path class="st0" d="M393.1,158.5c-0.7-9.2-8.8-16.3-18.9-17.4c1.1-2.5,1.6-5.3,1.4-8.2c-0.8-10.6-11.4-18.5-23.6-17.5
		c-2.5,0.2-4.9,0.8-7.2,1.6c0.2-1.7,0.3-3.4,0.2-5.1c-1.2-15.1-16.2-26.2-33.5-24.8c-12.4,1-22.6,8.1-27,17.5
		c-4.8-13.6-19.9-22.8-37-21.5c-0.3,0-0.6,0.1-0.9,0.1c-9.1-12.8-26-20.7-44.6-19.2c-16.9,1.3-31.2,10.1-38.9,22.2
		c-8-3.9-17.5-5.8-27.5-5c-15.6,1.2-28.9,8.7-37,19.4c-1.6-0.1-3.3,0-4.9,0.1c-19.3,1.5-33.9,16.4-32.6,33.2
		c0.3,4.3,1.7,8.2,3.8,11.7c-5.2,3.3-9.2,7.8-11.4,13.1c-2.1-0.4-4.2-0.5-6.5-0.3c-12.2,1-21.4,10.3-20.6,21
		c0.4,5.3,3.3,9.9,7.6,13.1c-1.3,2.9-1.9,6.1-1.7,9.4c0.9,11.9,12.7,20.6,26.4,19.5c6.9-0.5,12.9-3.5,17-7.8
		c4.6,9,13.9,15.5,25,17.5c3.6,8.8,13.7,14.7,25,13.8c12.6-1,22.4-10,23-20.8c9.8-1.4,17.7-7.8,20.3-15.8c3.1,0.9,6.4,1.2,9.8,0.9
		c8.6-0.7,15.9-5.1,19.8-11.3c4.8,3.8,11.4,5.9,18.5,5.3c10.8-0.8,19.4-7.6,22.2-16.2c4.6,11.2,17.4,18.7,31.8,17.6
		c4.5-0.4,8.6-1.5,12.3-3.3c5.1,10.4,17.4,17.1,31.1,16c10.9-0.9,20.1-6.4,25.1-14.2c1.7,0.2,3.5,0.2,5.3,0.1
		c2.5-0.2,4.9-0.7,7.1-1.5c4.4,4.6,11.2,7.2,18.6,6.7c12.2-1,21.4-10.3,20.6-21c-0.4-4.9-2.8-9.2-6.5-12.3
		C390.2,171.2,393.6,165.1,393.1,158.5z M216.1,160.1c-0.1-0.4-0.2-0.7-0.3-1.1c5.4-1.9,10-5.1,13.5-9c2.7,5.5,7.8,9.7,14.2,11.6
		c-2.7,3.2-4.6,6.9-5.4,10.9C234.2,165.1,225.8,160.1,216.1,160.1z"/>
	<path class="st1" d="M317.3,451c-23.6-24.9-19.7-43-26.2-46.9c-6.6-4-9.5,0.8-11.7-1.2c-2.2-2-12.8-0.5-15.1,3.4
		c0.3-17.6-0.7-36.6-4.1-44.6c-3.4-8-16.4-32.2-15.9-39.9c0.5-7.6-4.2-29.5,0.4-32.6c4.6-3.1,14.5-5.7,14.8-10.8
		c0.3-5.1,0-9.2,5-12.8c4.9-3.6,24.6-18,19.7-23.6c-4.9-5.6-3.2-11.8-7.5-15c-4.3-3.2-11.7-14.9-2.2-20.4c9.5-5.4,19.7-5.2,23.1-0.5
		c3.4,4.7,7.1,7.6,6.9,3.5c-0.3-4.1,2.1-4.6,6.8-4.4c2.4,0.1,5-1,7.1-2.4l-6.8-4.1c-0.9,0.4-2.1,0.6-3.6,0.6
		c-6.3,0.1-11-0.1-17.2-1.2c-6.2-1.1-12.8-5.1-16.6-3.4c-1.7,0.8-5,2.4-8.2,4.5c-0.6,0.6-1.4,1.2-2.2,1.6c-0.6,0.4-1.2,0.8-1.8,1.1
		c0.1,0,0.2,0,0.3-0.1c-2.3,1.9-4.3,3.9-4.9,5.9c-1.9,5.4,8.2,24,5.7,27.1c-2.5,3.1,4.4,9.9-5,17.4c-9.4,7.5-12.2,15.6-16.5,21.6
		c-4.3,6-15.5,5.1-17,12.1c-1.5,7,2.4,21.2-4.3,19.7c-6.7-1.4-46.9-4.6-47.9-9.8c-1-5.2-14.7-8.8-6.7-24.4s6.8-16.9,8.3-20.6
		c0.1-0.2,0.2-0.5,0.3-0.7c0.2-1.1,0.5-2.2,0.9-3.2c0-0.1,0.1-0.3,0.1-0.4c1.5-4.8,4.3-9.1,7.8-12.7c0.2-0.8,0.5-1.5,0.9-2.2
		c-1.6-2.6,0.9-7.8-4.8-12.4c-6.5-5.2-15.9-1.1-14.6-10.1c1.3-9.1,2.8-6.9-1.7-15.5c-4.5-8.6-13.3-10-10-2.8
		c3.2,7.2,5.5,9.2,5.5,17.1c0,7.9,3,6.4,8.6,9.8c5.6,3.4,14.8,6.3,12.1,11.9c-2.7,5.6-13.5,3-15.4,13c-1.9,10-19.5,24.4-18.5,32.9
		s9.8,15.8,6.6,21.1c-3.2,5.3-10.4,11.5-0.3,13c10.1,1.5,27.5,9.4,36.3,10.7c8.8,1.4,20.7-4.6,24.9,3.2c4.2,7.8,3.6,13.4,7.7,23.7
		c4.1,10.4,10,12,9.9,22.4c-0.1,10.5-6.5,16.5-2.9,31.1c3.6,14.6,12.5,17.6,4.3,28.6c-6.7,9-7.9,13-5.9,20.2
		c-0.3-8.7,6-20.1,13.3-15.7c22.8,13.8,9.2-1.9,14.3-2c4.5-0.1,26.6,20.9,21.4,12.9c-11.7-17.8,18.8,0.7,13-2.9
		c-28.7-17.3,1.8-3.5-0.9-7.1C279.8,424.9,317.3,451,317.3,451z"/>
	<g class="st2">
		<g>
			<path class="st3" d="M220.2,251.5c-1.6-0.1-3.3,0-4.8,0.3c-1.6,0.3-3.1,0.8-4.6,1.4c-2.9,1.3-5.5,3.2-7.6,5.6
				c-2.1,2.3-3.9,5-5.3,7.9c-1.4,2.8-2.7,5.8-3.8,8.9c-2.2,6-3.5,12.4-4.7,18.8c-1.1,6.4-2.1,12.8-3.4,19.2c0.5-6.5,1-13,1.9-19.5
				c0.4-3.2,1-6.5,1.6-9.7c0.7-3.2,1.6-6.4,2.7-9.5c1.1-3.1,2.4-6.1,4-9.1c1.6-2.9,3.5-5.7,5.9-8.1c2.4-2.4,5.2-4.2,8.4-5.4
				C213.6,251.3,217,250.9,220.2,251.5z"/>
		</g>
		<path class="st3" d="M247.8,231.3c-0.3-1.5-2.9-3-5.7-4.1c2.2,0.3,4.4,0.3,6-0.8c-1.2-2.1-6.8-2.3-10.5-2.2
			c-0.2-0.1-0.4-0.3-0.6-0.4c3,0.5,6.5,0.6,8.5-1c-1.3-1.8-6.1-1.6-9.7-1.2c1-1.7,0.1-3.5,0.1-4.6c-1,2.7-2.9,5.4-8,3.9
			c-5.1-1.5-10.3-1.4-14.8,0.8c-3.2-1-7.3-0.4-8.1,0.9c0,0,0.1,0,0.4,0.1c2.6,1.5,3.5,3.4,7.2,4.1c1.1,1.6,7.4,5.5,9.9,10.6
			c2.1,4.3,1.5,10.2-3.3,12.9c-19.4,11.1-24.6,26.7-26.7,43.8c0,0,13.4-23.6,21.5-25.1c6.1-1.1,21.6,12.1,21.6,12.1
			c12.3-17.1,3.1-39.7,2-42.6c2.1-0.6,4-0.1,4.9,2.6c0.4-2.4,0.4-4.3,0.2-5.9c1.3,1.1,2.7,1.9,4,2.2c0.4-1.8-2.6-5-5.7-7.6
			C243.3,231,245.8,231.8,247.8,231.3z M221.2,225.4c-1.4,0.7-2.6-0.8-3.2-1.4c3.3-1.3,4.4,0.2,5.6,1.4
			C224.2,226.2,222.7,224.7,221.2,225.4z"/>
		<g>
			<path class="st3" d="M171.3,410.9C171.2,410.9,171.2,410.9,171.3,410.9C171.3,410.9,171.3,410.9,171.3,410.9z"/>
			<path class="st3" d="M188,420.4C188,420.4,188,420.4,188,420.4L188,420.4z"/>
			<path class="st3" d="M191.9,389.6c-1.4-16.7-7-49.7-0.3-65.2c1.5-3.6-8.5,12.6-12.9,23.2c-10.1,24.6-13.7,55.6-12.1,73.1
				c0.9,9.3,2.7,6.3,4.7-0.8c-1.1,15.3,1.1,29.8,1.9,33.2c3.4,15.1,8.5-0.3,8.8-15.1c0.2,1.2,0.5,2.3,0.8,3.4
				c3.8,13.5,4.9-0.6,5-14.9C193.3,443.1,192.9,401.7,191.9,389.6z M171,409.4c0,0.4,0.1,0.7,0.2,1c0,0.2,0.1,0.3,0.2,0.4
				c0,0,0,0,0,0c0.1-0.1,0.2-0.2,0.3-0.3c0.2-0.3,0.4-0.6,0.7-0.9c0.8-1.3,1.5-2.8,2.3-4.2c-0.3,1.6-0.8,3.1-1.4,4.6
				c-0.2,0.4-0.4,0.8-0.6,1.1c-0.1,0.2-0.3,0.4-0.5,0.6c-0.2,0.2-0.4,0.4-0.9,0.4c-0.5,0-0.9-0.3-1-0.6c-0.2-0.3-0.3-0.5-0.4-0.7
				c-0.2-0.4-0.3-0.9-0.4-1.3c-0.6-3.3-0.3-6.6,0-9.8c0.4-3.2,1-6.4,1.9-9.5c0.9-3.1,2.1-6.1,3.8-8.9c-0.9,3.1-1.7,6.1-2.3,9.2
				c-0.6,3.1-1.1,6.2-1.5,9.3c-0.2,1.6-0.3,3.1-0.4,4.7C170.9,406.3,170.9,407.9,171,409.4z M181.1,432.1c-0.1,0.2-0.2,0.4-0.3,0.7
				c-0.1,0.2-0.3,0.6-0.9,0.7c-0.1,0-0.3,0-0.4-0.1c-0.1,0-0.2-0.1-0.3-0.2c-0.1-0.1-0.3-0.2-0.3-0.4c-0.2-0.2-0.3-0.4-0.4-0.7
				c-0.4-0.9-0.6-1.7-0.9-2.6c-0.8-3.4-1.2-6.9-1.4-10.4c-0.2-3.5-0.1-7,0.2-10.4c0.3-3.5,0.8-6.9,2-10.2c-0.3,3.5-0.4,6.9-0.5,10.3
				c0,3.4,0.1,6.8,0.3,10.3c0.1,1.7,0.2,3.4,0.3,5.1c0.1,1.7,0.3,3.4,0.6,5.1c0.1,0.8,0.3,1.7,0.5,2.4c0.1,0.2,0.1,0.4,0.2,0.5
				c0,0,0,0,0,0c0,0,0,0,0,0c0.1-0.1,0.2-0.3,0.3-0.5c0.7-1.5,1-3.2,1.5-4.9C181.6,428.6,181.5,430.3,181.1,432.1z M189.7,419.1
				c-0.1,0.4-0.1,0.8-0.3,1.2c-0.1,0.2-0.1,0.4-0.3,0.7c-0.1,0.2-0.3,0.5-0.8,0.7c-0.3,0.1-0.6,0-0.7-0.1c-0.2-0.1-0.3-0.2-0.4-0.3
				c-0.2-0.2-0.3-0.4-0.4-0.6c-0.2-0.4-0.4-0.8-0.6-1.2c-1.1-3.1-1.6-6.3-1.9-9.5c-0.3-3.2-0.4-6.4-0.2-9.6c0.2-3.2,0.6-6.4,1.6-9.4
				c-0.1,3.2-0.1,6.3,0,9.5c0.1,3.1,0.3,6.3,0.6,9.4c0.1,1.6,0.3,3.1,0.5,4.7c0.2,1.5,0.5,3.1,0.9,4.5c0.1,0.4,0.2,0.7,0.4,1
				c0.1,0.1,0.1,0.2,0.2,0.3c0.1-0.1,0.1-0.2,0.2-0.3c0.2-0.3,0.3-0.7,0.4-1c0.5-1.5,0.8-3,1.2-4.6
				C189.9,415.9,189.9,417.5,189.7,419.1z"/>
		</g>
		<g>
			<path class="st3" d="M236,267c-0.4-5.4-4.8-8.8-10.9-6.8c-15.1,4.8-28.8,12.7-42.4,64.6c-0.2,0.7,0.1-0.3,1.3-2.4
				c-1.8,6.2-3,12.1-3.2,16.6c-0.5,11.9,0.1,19.2,3.4,3.2c0.2,4.3,1,4.7,2.9-3.2c0.3,4,5-13.3,4.8-11.7c-0.2,1-0.3,1.8-0.5,2.4
				c1.6-4.6,8-18.6,26.5-29.8C239.9,286.4,236.6,276.5,236,267z M192,303.5c0.8-2.1,1.9-4.2,3.1-6.1c1.2-1.9,2.6-3.8,4.2-5.4
				c1.6-1.7,3.3-3.2,5.1-4.5c-1.3,1.9-2.7,3.7-3.9,5.5c-1.3,1.8-2.5,3.6-3.7,5.5c-1.2,1.9-2.3,3.8-3.4,5.7c-1.1,1.9-2.1,3.9-3.3,5.9
				C190.5,307.8,191.2,305.6,192,303.5z M189.2,323c-0.8,2.6-1.4,5.2-2,7.8c-0.6,2.6-1.2,5.3-1.8,8c0.5-5.4,1-10.9,2.3-16.2
				c0.7-2.7,1.7-5.3,2.9-7.8c1.3-2.5,2.9-4.8,4.6-7c1.7-2.1,3.5-4.2,5.4-6.2c1.9-2,3.9-3.9,5.9-5.7c2.1-1.8,4.2-3.5,6.3-5.2
				c2.1-1.7,4.3-3.4,5.4-5.9c-0.3,1.3-1,2.6-1.9,3.6c-0.9,1.1-1.8,2-2.8,3c-2,1.9-4,3.7-5.9,5.6c-3.9,3.8-7.5,7.8-10.8,12
				C193.4,313.2,190.7,317.8,189.2,323z M229.1,283.6c-0.5,1.1-1.1,2.3-1.8,3.3c-1.4,2-3.2,3.8-5,5.5c-3.6,3.4-7.5,6.3-11.3,9.3
				c-3.8,3-7.6,6-10.9,9.5c-3.3,3.4-6.3,7.3-7.9,11.9c0.8-4.9,3.5-9.3,6.8-13c3.2-3.8,7-6.9,10.8-10c3.8-3,7.8-5.9,11.5-8.9
				c1.9-1.5,3.7-3.1,5.2-4.9c0.8-0.9,1.5-1.9,2.1-2.9c0.6-1,1-2.2,1.2-3.4C229.8,281.2,229.6,282.4,229.1,283.6z"/>
			<path class="st3" d="M191.3,329.5C190.6,331.5,190.8,331.8,191.3,329.5L191.3,329.5z"/>
		</g>
	</g>
</g>
</svg>
