<?xml version="1.0" encoding="utf-8"?>
<!-- Generator: Adobe Illustrator 16.0.0, SVG Export Plug-In . SVG Version: 6.00 Build 0)  -->
<!DOCTYPE svg PUBLIC "-//W3C//DTD SVG 1.1//EN" "http://www.w3.org/Graphics/SVG/1.1/DTD/svg11.dtd" [
	<!ENTITY ns_extend "http://ns.adobe.com/Extensibility/1.0/">
	<!ENTITY ns_ai "http://ns.adobe.com/AdobeIllustrator/10.0/">
	<!ENTITY ns_graphs "http://ns.adobe.com/Graphs/1.0/">
	<!ENTITY ns_vars "http://ns.adobe.com/Variables/1.0/">
	<!ENTITY ns_imrep "http://ns.adobe.com/ImageReplacement/1.0/">
	<!ENTITY ns_sfw "http://ns.adobe.com/SaveForWeb/1.0/">
	<!ENTITY ns_custom "http://ns.adobe.com/GenericCustomNamespace/1.0/">
	<!ENTITY ns_adobe_xpath "http://ns.adobe.com/XPath/1.0/">
]>
<svg version="1.1" id="Слой_1" xmlns:x="&ns_extend;" xmlns:i="&ns_ai;" xmlns:graph="&ns_graphs;"
	 xmlns="http://www.w3.org/2000/svg" xmlns:xlink="http://www.w3.org/1999/xlink" x="0px" y="0px" width="152px" height="118px"
	 viewBox="0 0 152 118" enable-background="new 0 0 152 118" xml:space="preserve">
<metadata>
	<sfw  xmlns="&ns_sfw;">
		<slices></slices>
		<sliceSourceBounds  width="135.167" height="103.058" y="-43.021" x="-58.548" bottomLeftOrigin="true"></sliceSourceBounds>
	</sfw>
</metadata>
<g>
	<g>
		<path fill="#848484" d="M73.552,42.427l0.164-0.722l0.182-0.757l0.112-0.446l0.118-0.421c0.146-0.49,0.264-0.931,0.436-1.463
			c0.172-0.52,0.333-1.06,0.515-1.561c1.398-4.027,3.265-7.878,5.599-11.447c2.329-3.564,5.13-6.855,8.409-9.649
			c3.271-2.792,7.041-5.071,11.128-6.543c2.041-0.736,4.152-1.277,6.296-1.589c2.148-0.315,4.272-0.428,6.464-0.332l1.496,0.079
			c0.521,0.042,1.085,0.117,1.625,0.176c1.108,0.099,2.134,0.33,3.181,0.516c2.076,0.465,4.134,1.036,6.097,1.853
			c1.983,0.763,3.867,1.764,5.676,2.864c1.793,1.13,3.492,2.403,5.06,3.823c1.558,1.43,3.013,2.966,4.276,4.65
			c1.315,1.646,2.386,3.465,3.398,5.296l1.337,2.423l-2.738,0.104l-5.265,0.199l-0.939,0.036L135.7,28.76
			c-3.412-5.435-8.765-9.667-14.94-11.727c-1.546-0.505-3.13-0.895-4.743-1.148c-1.619-0.226-3.242-0.375-4.897-0.332
			c-1.631,0.036-3.237,0.217-4.848,0.56c-1.598,0.344-3.169,0.839-4.675,1.496c-3.021,1.306-5.798,3.192-8.233,5.457
			c-2.441,2.264-4.55,4.902-6.313,7.756c-1.766,2.854-3.204,5.922-4.294,9.116c-0.559,1.596-0.979,3.228-1.329,4.885
			c-0.094,0.445-0.285,1.337-0.285,1.337L73.552,42.427z"/>
	</g>
</g>
<g>
	<g>
		<path fill="#848484" d="M42.115,107.291l-2.299-0.035l-2.295-0.188l-2.278-0.338l-2.256-0.486l-2.221-0.637l-2.175-0.791
			l-2.119-0.932l-2.054-1.074l-1.979-1.215l-1.894-1.347l-1.8-1.474l-1.698-1.596l-1.588-1.709l-1.473-1.812l-1.349-1.907
			l-1.223-1.994l-0.55-0.896l1.093-0.047l5.303-0.215l0.375-0.016l0.235,0.342c3.75,5.436,9.361,9.489,15.618,11.329
			c1.565,0.445,3.161,0.786,4.774,0.976c1.618,0.17,3.229,0.252,4.865,0.152c1.616-0.098,3.177-0.333,4.745-0.729
			c1.553-0.389,3.065-0.938,4.51-1.629c2.891-1.373,5.511-3.297,7.789-5.57c2.284-2.271,4.223-4.896,5.828-7.707
			c1.604-2.813,2.889-5.814,3.822-8.913c0.074-0.246,0.298-1.087,0.298-1.087l10.043-4.316c0,0-0.428,2.486-0.668,3.721l-0.19,0.938
			c-0.041,0.183-0.065,0.333-0.123,0.542l-0.113,0.444l-0.227,0.897l-0.27,0.951c-0.36,1.274-0.772,2.477-1.215,3.7
			c-1.819,4.839-4.309,9.464-7.579,13.577c-0.805,1.035-1.682,2.021-2.586,2.982c-0.91,0.955-1.869,1.871-2.877,2.74
			c-1.015,0.86-2.055,1.696-3.165,2.446c-1.093,0.772-2.251,1.458-3.432,2.108c-1.193,0.631-2.417,1.211-3.679,1.701
			c-0.635,0.239-1.266,0.485-1.916,0.682c-0.645,0.217-1.295,0.406-1.956,0.568c-1.313,0.352-2.654,0.592-3.999,0.782
			c-0.672,0.097-1.351,0.142-2.025,0.211c-0.678,0.048-1.354,0.063-2.033,0.097L42.115,107.291L42.115,107.291z"/>
		<path fill="#848484" d="M70.745,73.152"/>
	</g>
</g>
<g>
	<g>
		<path fill="#666666" d="M16.21,71.008l-4.787,0.208c-0.188-4.911-0.323-9.819-0.468-14.729l-0.376-14.729
			c-0.13-4.91-0.222-9.819-0.314-14.729L9.99,12.3l-0.03-1.575l1.627-0.022h0.017L10.007,12.3L9.974,9.988L9.952,8.376l1.655-0.017
			l25.669-0.262l0.066-0.001l0.097,0.008c3.481,0.284,6.915,1.339,9.936,3.117c3.03,1.755,5.648,4.205,7.648,7.085
			c1.995,2.885,3.364,6.213,3.947,9.686c0.29,1.712,0.391,3.553,0.306,5.203c-0.092,1.846-0.355,3.518-0.799,5.237
			c-0.877,3.397-2.483,6.606-4.683,9.356c-2.195,2.753-5.013,5.034-8.217,6.58c-1.604,0.768-3.3,1.352-5.041,1.729
			c-0.871,0.19-1.752,0.318-2.64,0.41l-0.666,0.047l-0.332,0.02l-0.083,0.006l-0.176,0.006h-0.15l-0.301-0.001h-0.076h-0.037
			l-0.019-0.001c-0.096,0.003,0.11-0.003,0.081-0.002l-0.15,0.006l-0.599,0.024L25.803,57l-2.373,0.096l-0.004-2.36l-0.008-3.311
			l-0.004-2.163l2.145-0.113l5.246-0.276l2.624-0.138l1.312-0.07l0.71-0.035l0.655-0.019c0.405-0.034,0.657-0.041,1.052-0.107
			c0.365-0.045,0.728-0.125,1.09-0.205c0.719-0.178,1.428-0.413,2.119-0.707c1.377-0.601,2.669-1.441,3.836-2.448
			c2.338-2.017,4.153-4.727,5.194-7.685c0.517-1.481,0.85-3.023,0.955-4.572c0.024-0.376,0.041-0.8,0.038-1.137l-0.011-0.657
			l-0.038-0.539c-0.066-0.744-0.168-1.532-0.353-2.277c-0.687-3.016-2.326-5.815-4.631-7.904c-2.28-2.11-5.225-3.503-8.331-3.877
			c-1.476-0.172-3.325-0.113-5.058-0.16l-5.255-0.073L16.21,16.091l1.479-1.479l-0.271,14.099l-0.334,14.1l-0.392,14.1L16.21,71.008
			z"/>
	</g>
</g>
<path fill="none" stroke="#0D0F0F" stroke-miterlimit="10" d="M23.662,76.609"/>
<path fill="none" stroke="#0D0F0F" stroke-miterlimit="10" d="M20.667,15.125"/>
<polygon fill="#FFFFFF" stroke="#FFFFFF" stroke-width="2" stroke-miterlimit="10" points="62.827,42.982 95.038,58.655 
	62.827,58.711 "/>
<polygon fill="#FFFFFF" stroke="#FFFFFF" stroke-width="2" stroke-miterlimit="10" points="62.827,74.439 95.038,58.771 
	62.827,58.711 "/>
<polygon fill="#595959" points="64.739,46.64 92.716,58.752 64.739,58.795 "/>
<polygon fill="#A5A5A5" points="69.25,70.95 92.716,58.841 69.25,58.795 "/>
</svg>
