<?xml version="1.0" encoding="utf-8"?>
<!-- Generator: Adobe Illustrator 24.0.2, SVG Export Plug-In . SVG Version: 6.00 Build 0)  -->
<svg version="1.1" id="Layer_1" xmlns="http://www.w3.org/2000/svg" xmlns:xlink="http://www.w3.org/1999/xlink" x="0px" y="0px"
	 viewBox="0 0 336 200" style="enable-background:new 0 0 336 200;" xml:space="preserve">
<style type="text/css">
	.st0{opacity:0.1;fill:#FFFFFF;}
</style>
<g>
	<rect x="-3" y="-1" width="341" height="202"/>
</g>
<path class="st0" d="M124.6,48.5c-5.6,0-10.2,4.5-10.2,10.2v50.8h10.2V58.6h50.8V48.5H124.6 M144.9,68.8c-5.6,0-10.2,4.5-10.2,10.2
	v50.8h10.2V78.9h50.8V68.8H144.9 M205.8,99.2v40.6h-40.6V99.2H205.8 M205.8,89.1h-40.6c-5.6,0-10.2,4.5-10.2,10.2v40.6
	c0,5.6,4.5,10.2,10.2,10.2h40.6c5.6,0,10.2-4.5,10.2-10.2V99.2C216,93.6,211.4,89.1,205.8,89.1 M175.4,104.3v30.5l20.3-15.2
	L175.4,104.3z"/>
</svg>
