<?xml version="1.0" encoding="utf-8"?>
<!-- Generator: Adobe Illustrator 16.0.0, SVG Export Plug-In . SVG Version: 6.00 Build 0)  -->
<!DOCTYPE svg PUBLIC "-//W3C//DTD SVG 1.1//EN" "http://www.w3.org/Graphics/SVG/1.1/DTD/svg11.dtd" [
	<!ENTITY ns_extend "http://ns.adobe.com/Extensibility/1.0/">
	<!ENTITY ns_ai "http://ns.adobe.com/AdobeIllustrator/10.0/">
	<!ENTITY ns_graphs "http://ns.adobe.com/Graphs/1.0/">
	<!ENTITY ns_vars "http://ns.adobe.com/Variables/1.0/">
	<!ENTITY ns_imrep "http://ns.adobe.com/ImageReplacement/1.0/">
	<!ENTITY ns_sfw "http://ns.adobe.com/SaveForWeb/1.0/">
	<!ENTITY ns_custom "http://ns.adobe.com/GenericCustomNamespace/1.0/">
	<!ENTITY ns_adobe_xpath "http://ns.adobe.com/XPath/1.0/">
]>
<svg version="1.1" id="Слой_1" xmlns:x="&ns_extend;" xmlns:i="&ns_ai;" xmlns:graph="&ns_graphs;"
	 xmlns="http://www.w3.org/2000/svg" xmlns:xlink="http://www.w3.org/1999/xlink" x="0px" y="0px" width="152px" height="118px"
	 viewBox="0 0 152 118" enable-background="new 0 0 152 118" xml:space="preserve">
<metadata>
	<sfw  xmlns="&ns_sfw;">
		<slices></slices>
		<sliceSourceBounds  width="16383" height="124.135" y="-54.024" x="-8184" bottomLeftOrigin="true"></sliceSourceBounds>
	</sfw>
</metadata>
<path fill="none" stroke="#0D0F0F" stroke-miterlimit="10" d="M-10.914,121.524"/>
<path fill="none" stroke="#0D0F0F" stroke-miterlimit="10" d="M-16.264,11.701"/>
<path fill="#848484" d="M22.348,111.386c0,0,0.036-9.32,0.091-23.3c0.027-6.986,0.06-15.144,0.092-23.88
	c0.01-2.183,0.018-4.406,0.027-6.652l0.006-1.69l0.005-0.85l0.001-0.425v-0.053l0.013-0.228l0.016-0.106l0.031-0.212l0.256-1.701
	c0.077-0.558,0.169-1.135,0.316-1.774c0.986-4.954,2.711-9.655,5.178-14.254c2.507-4.56,5.728-8.884,9.481-12.82
	c3.763-3.935,8.105-7.448,12.696-10.501c4.596-3.052,14.36-7.707,14.36-7.707l2.167,2.425c0,0-8.729,4.966-12.692,8.077
	c-3.957,3.113-7.598,6.61-10.626,10.425c-3.022,3.817-5.482,7.92-7.26,12.15c-1.732,4.211-2.789,8.668-3.133,12.836
	c-0.064,0.499-0.091,1.062-0.103,1.644l-0.06,1.71c0.001,1.078,0.002,2.15,0.003,3.216c0.004,2.248,0.006,4.468,0.009,6.654
	c0.011,8.736,0.022,16.892,0.03,23.882c0.019,13.979,0.031,23.298,0.031,23.298L22.348,111.386z"/>
<path fill="#848484" d="M88.865,111.386c0,0,0.033-9.286,0.09-23.21c0.026-6.96,0.058-15.083,0.093-23.786
	c0.01-2.175,0.018-4.387,0.025-6.627l0.008-1.684l0.002-0.846v-0.106l0.014-0.224l0.008-0.053l0.03-0.21l0.063-0.423
	c0.179-1.139,0.292-2.211,0.588-3.49c1.009-4.908,2.709-9.605,5.196-14.165c2.49-4.534,5.674-8.832,9.385-12.742
	c3.741-3.898,8.006-7.396,12.535-10.426c4.523-3.036,14.15-7.645,14.15-7.645l2.124,2.418c0,0-8.611,4.922-12.514,8.019
	c-3.909,3.091-7.483,6.576-10.506,10.358c-2.988,3.796-5.426,7.877-7.199,12.086c-1.763,4.187-2.802,8.617-3.178,12.787
	c-0.133,0.985-0.131,2.189-0.178,3.308l-0.015,0.424l-0.009,0.212l-0.001,0.053c0.021-0.325,0.006-0.06,0.011-0.119v0.106
	l0.001,0.846l0.002,1.685c0.002,2.241,0.006,4.453,0.009,6.628c0.01,8.702,0.022,16.826,0.03,23.788
	c0.019,13.928,0.029,23.211,0.029,23.211L88.865,111.386z"/>
<path fill="none" stroke="#848484" stroke-miterlimit="10" d="M138.732,3.798"/>
<path fill="none" stroke="#848484" stroke-miterlimit="10" d="M75.172-2.611"/>
<line fill="none" stroke="#848484" stroke-miterlimit="10" x1="41.058" y1="45.363" x2="83.645" y2="45.363"/>
<line fill="none" stroke="#848484" stroke-miterlimit="10" x1="74.617" y1="5.999" x2="117.204" y2="5.999"/>
<line fill="none" stroke="#848484" stroke-miterlimit="10" x1="40.058" y1="110.505" x2="82.645" y2="110.505"/>
<path fill="#FFFFFF" d="M34.571,103.347c0,1.396-1.155,2.527-2.584,2.527h-7.872c-1.427,0-2.583-1.132-2.583-2.527l0,0
	c0-1.394,1.156-2.526,2.583-2.526h7.872C33.415,100.82,34.571,101.953,34.571,103.347L34.571,103.347z"/>
<path fill="#FFFFFF" d="M34.571,93.661c0,1.396-1.155,2.525-2.584,2.525h-7.872c-1.427,0-2.583-1.13-2.583-2.525l0,0
	c0-1.395,1.156-2.525,2.583-2.525h7.872C33.415,91.136,34.571,92.267,34.571,93.661L34.571,93.661z"/>
<path fill="#FFFFFF" d="M34.571,83.966c0,1.394-1.155,2.527-2.584,2.527h-7.872c-1.427,0-2.583-1.134-2.583-2.527l0,0
	c0-1.395,1.156-2.526,2.583-2.526h7.872C33.415,81.439,34.571,82.571,34.571,83.966L34.571,83.966z"/>
<path fill="#FFFFFF" d="M34.571,74.356c0,1.394-1.155,2.527-2.584,2.527h-7.872c-1.427,0-2.583-1.134-2.583-2.527l0,0
	c0-1.396,1.156-2.524,2.583-2.524h7.872C33.415,71.832,34.571,72.961,34.571,74.356L34.571,74.356z"/>
<path fill="#FFFFFF" d="M34.571,64.318c0,1.396-1.155,2.527-2.584,2.527h-7.872c-1.427,0-2.583-1.131-2.583-2.527l0,0
	c0-1.394,1.156-2.525,2.583-2.525h7.872C33.415,61.793,34.571,62.925,34.571,64.318L34.571,64.318z"/>
<path fill="#FFFFFF" d="M34.571,53.844c0,1.396-1.155,2.527-2.584,2.527h-7.872c-1.427,0-2.583-1.131-2.583-2.527l0,0
	c0-1.396,1.156-2.527,2.583-2.527h7.872C33.415,51.317,34.571,52.448,34.571,53.844L34.571,53.844z"/>
<path fill="#FFFFFF" d="M100.726,104.199c0,1.444-1.137,2.615-2.535,2.615h-7.723c-1.4,0-2.533-1.171-2.533-2.615l0,0
	c0-1.441,1.133-2.613,2.533-2.613h7.723C99.589,101.586,100.726,102.758,100.726,104.199L100.726,104.199z"/>
<path fill="#FFFFFF" d="M100.726,94.181c0,1.443-1.137,2.612-2.535,2.612h-7.723c-1.4,0-2.533-1.169-2.533-2.612l0,0
	c0-1.443,1.133-2.613,2.533-2.613h7.723C99.589,91.567,100.726,92.737,100.726,94.181L100.726,94.181z"/>
<path fill="#FFFFFF" d="M100.726,84.15c0,1.442-1.137,2.615-2.535,2.615h-7.723c-1.4,0-2.533-1.173-2.533-2.615l0,0
	c0-1.442,1.133-2.613,2.533-2.613h7.723C99.589,81.537,100.726,82.708,100.726,84.15L100.726,84.15z"/>
<path fill="#FFFFFF" d="M100.726,74.21c0,1.442-1.137,2.615-2.535,2.615h-7.723c-1.4,0-2.533-1.173-2.533-2.615l0,0
	c0-1.443,1.133-2.611,2.533-2.611h7.723C99.589,71.599,100.726,72.767,100.726,74.21L100.726,74.21z"/>
<path fill="#FFFFFF" d="M100.726,63.826c0,1.444-1.137,2.614-2.535,2.614h-7.723c-1.4,0-2.533-1.17-2.533-2.614l0,0
	c0-1.441,1.133-2.612,2.533-2.612h7.723C99.589,61.214,100.726,62.385,100.726,63.826L100.726,63.826z"/>
<path fill="#FFFFFF" d="M99.943,52.991c0,1.444-0.996,2.614-2.226,2.614h-6.771c-1.228,0-2.224-1.17-2.224-2.614l0,0
	c0-1.444,0.996-2.614,2.224-2.614h6.771C98.947,50.377,99.943,51.547,99.943,52.991L99.943,52.991z"/>
<polygon fill="#595959" points="45.629,66.44 81.27,79.502 45.629,79.548 "/>
<polygon fill="#A5A5A5" points="51.139,92.655 81.31,79.599 51.139,79.548 "/>
</svg>
