<?xml version="1.0" encoding="utf-8"?>
<!-- Generator: Adobe Illustrator 16.0.0, SVG Export Plug-In . SVG Version: 6.00 Build 0)  -->
<!DOCTYPE svg PUBLIC "-//W3C//DTD SVG 1.1//EN" "http://www.w3.org/Graphics/SVG/1.1/DTD/svg11.dtd" [
	<!ENTITY ns_extend "http://ns.adobe.com/Extensibility/1.0/">
	<!ENTITY ns_ai "http://ns.adobe.com/AdobeIllustrator/10.0/">
	<!ENTITY ns_graphs "http://ns.adobe.com/Graphs/1.0/">
	<!ENTITY ns_vars "http://ns.adobe.com/Variables/1.0/">
	<!ENTITY ns_imrep "http://ns.adobe.com/ImageReplacement/1.0/">
	<!ENTITY ns_sfw "http://ns.adobe.com/SaveForWeb/1.0/">
	<!ENTITY ns_custom "http://ns.adobe.com/GenericCustomNamespace/1.0/">
	<!ENTITY ns_adobe_xpath "http://ns.adobe.com/XPath/1.0/">
]>
<svg version="1.1" id="Слой_1" xmlns:x="&ns_extend;" xmlns:i="&ns_ai;" xmlns:graph="&ns_graphs;"
	 xmlns="http://www.w3.org/2000/svg" xmlns:xlink="http://www.w3.org/1999/xlink" x="0px" y="0px" width="152px" height="118px"
	 viewBox="0 0 152 118" enable-background="new 0 0 152 118" xml:space="preserve">
<metadata>
	<sfw  xmlns="&ns_sfw;">
		<slices></slices>
		<sliceSourceBounds  width="133.031" height="97.644" y="-40.001" x="-60.22" bottomLeftOrigin="true"></sliceSourceBounds>
	</sfw>
</metadata>
<g>
	<path fill="none" stroke="#595959" stroke-width="5" stroke-miterlimit="10" d="M138.811,55.028
		c0,20.037-7.33,34.586-27.305,34.586l-77.949-0.752c0,0,0-39.755,0-52.049c0-15.438,11.146-24.457,23.789-24.457
		c19.601,0,81.465,0,81.465,0V55.028z"/>
	<rect x="67.874" y="24.368" fill="#848484" width="13.688" height="6.188"/>
	<rect x="88.499" y="42.274" fill="#848484" width="13.687" height="6.188"/>
	<rect x="88.499" y="52.962" fill="#848484" width="13.687" height="6.188"/>
	<rect x="108.002" y="42.275" fill="#AAAAAA" width="13.688" height="28.468"/>
	<rect x="88.499" y="24.369" fill="#848484" width="13.687" height="6.188"/>
	<rect x="108.002" y="24.368" fill="#848484" width="13.688" height="6.188"/>
	<circle fill="#848484" cx="56.249" cy="27.462" r="2.938"/>
	
		<rect x="54.52" y="43.743" fill="none" stroke="#AAAAAA" stroke-width="3" stroke-miterlimit="10" width="27.042" height="25.833"/>
</g>
<g>
	<path fill="#FFFFFF" stroke="#848484" stroke-width="5" stroke-miterlimit="10" d="M56.334,84.667
		c0,11.084-1.561,20.334-15.727,20.334l-29.827-0.229c0,0,0-39.865,0-51.014c0-15.83,5.327-18.354,15.077-18.354
		c8.483,0,30.477,0,30.477,0V84.667z"/>
	<rect x="19.872" y="40.508" fill="#848484" width="29.569" height="3.659"/>
	
		<rect x="21.107" y="51.234" fill="none" stroke="#AAAAAA" stroke-width="3" stroke-miterlimit="10" width="26.666" height="24.368"/>
	<rect x="19.872" y="82.167" fill="#848484" width="29.568" height="14.834"/>
</g>
</svg>
