<?xml version="1.0" encoding="utf-8"?>
<!-- Generator: Adobe Illustrator 24.0.2, SVG Export Plug-In . SVG Version: 6.00 Build 0)  -->
<svg version="1.1" id="Layer_1" xmlns="http://www.w3.org/2000/svg" xmlns:xlink="http://www.w3.org/1999/xlink" x="0px" y="0px"
	 viewBox="0 0 457 519" style="enable-background:new 0 0 457 519;" xml:space="preserve">
<style type="text/css">
	.st0{opacity:0.2;}
	.st1{fill:#FFFFFF;}
	.st2{opacity:0.2;fill:#FFFFFF;enable-background:new    ;}
	.st3{opacity:0.5;}
	.st4{opacity:0.1;}
</style>
<g class="st0">
	<circle class="st1" cx="229.7" cy="118.1" r="8.7"/>
	<circle class="st1" cx="235" cy="123.3" r="7"/>
	<circle class="st1" cx="239.5" cy="128.2" r="4.4"/>
</g>
<path class="st2" d="M317.6,156.6c-0.6-4.3-2.1-7.1-4.5-8.3c-3.2-1.6-7.9-0.6-14.2,2.8c-6.1,3.3-9.4,2.5-11.1,1.3
	c-2.5-1.8-3.3-5.6-2.4-10.9c0.4-2.3,0.3-3.9-0.5-4.5c-1.4-1.1-5.4,0.4-8.9,1.8c-0.9,0.3-1.7,0.7-2.6,1c-4.2,1.6-8,1.2-9.4-1
	c-0.5-0.8-1.3-2.8,1.5-5.7c0.9-0.9,1-1.4,0.9-1.5c-0.7-0.9-5.4-0.8-8.6,1.1l-0.9-1.5c3.3-2,9.3-2.7,10.8-0.7c0.6,0.7,0.8,2-1,3.8
	c-1.3,1.3-1.8,2.6-1.3,3.5c0.8,1.2,3.6,1.7,7.3,0.3c0.8-0.3,1.7-0.7,2.5-1c4.3-1.7,8.4-3.4,10.6-1.6c1.3,1.1,1.6,3.1,1.1,6.2
	c-0.8,4.5-0.2,7.8,1.7,9.2c1.9,1.4,5.2,0.9,9.3-1.4c6.8-3.7,12.2-4.7,15.9-2.8c2.9,1.5,4.8,4.7,5.5,9.6L317.6,156.6z"/>
<g class="st0">
	<path class="st1" d="M296.9,253.6l-43.7-19.7l19.7-43.7l43.7,19.7L296.9,253.6z M254.3,233.4l42.2,19l19-42.2l-42.2-19L254.3,233.4
		z"/>
	<path class="st1" d="M199.4,292.5l-43.7-19.7l19.7-43.7l43.7,19.7L199.4,292.5z M156.9,272.3l42.2,19l19-42.2l-42.2-19L156.9,272.3
		z"/>
	<path class="st1" d="M265.7,322.8L222,303.1l19.7-43.7l43.7,19.7L265.7,322.8z M223.1,302.6l42.2,19l19-42.2l-42.2-19L223.1,302.6z
		"/>
	<path class="st1" d="M167.9,362.5l-43.7-19.7l19.7-43.7l43.7,19.7L167.9,362.5z M125.3,342.3l42.2,19l19-42.2l-42.2-19L125.3,342.3
		z"/>
	<path class="st1" d="M234.1,392.8l-43.7-19.7l19.7-43.7l43.7,19.7L234.1,392.8z M191.6,372.6l42.2,19l19-42.2l-42.2-19L191.6,372.6
		z"/>
	<path class="st1" d="M230.6,223.3l-43.7-19.7l19.7-43.7l43.7,19.7L230.6,223.3z M188,203.1l42.2,19l19-42.2L207,161L188,203.1z"/>
	<path class="st1" d="M215,155.9l-19.4,43l43,19.4l19.4-43L215,155.9z M238.6,190.9c-1.2-0.6-3.2-0.2-5.7,1.2
		c-2.9,1.6-4.5,1.1-5.4,0.5s-1.8-2.1-1.2-5.2c0.2-1,0-1.4,0-1.5c-0.4-0.3-2.3,0.5-3.4,0.9c-0.4,0.1-0.8,0.3-1.1,0.4
		c-2.1,0.8-3.9,0.5-4.7-0.6c-0.2-0.3-0.8-1.6,0.7-3.1l0,0c-0.7-0.1-1.9,0.1-2.8,0.6l-0.9-1.5c1.5-0.9,4.4-1.4,5.3-0.2
		c0.2,0.3,0.7,1.2-0.5,2.3c-0.4,0.4-0.6,0.8-0.5,0.9c0.2,0.2,1.1,0.5,2.6-0.1c0.4-0.1,0.7-0.3,1.1-0.4c2-0.8,3.9-1.6,5.1-0.6
		c1.1,0.9,0.7,2.6,0.6,3.1c-0.3,1.8-0.1,3,0.5,3.5s1.9,0.2,3.5-0.6c3.1-1.7,5.6-2.1,7.3-1.2c1.4,0.7,2.3,2.2,2.7,4.5l-1.7,0.2
		C240.1,192.4,239.5,191.4,238.6,190.9z"/>
	<path class="st1" d="M281.3,186.3l-19.4,43l43,19.4l19.4-43L281.3,186.3z M304.1,220.6c-1.2-0.6-3.2-0.2-5.7,1.2
		c-2.9,1.6-4.5,1.1-5.4,0.5s-1.8-2.1-1.2-5.2c0.2-1,0-1.4,0-1.5c-0.4-0.3-2.3,0.5-3.4,0.9c-0.4,0.1-0.8,0.3-1.1,0.4
		c-2.1,0.8-3.9,0.5-4.7-0.6c-0.2-0.3-0.8-1.6,0.7-3.1l0,0c-0.7-0.1-1.9,0.1-2.8,0.6l-0.9-1.5c1.5-0.9,4.4-1.4,5.3-0.2
		c0.2,0.3,0.7,1.2-0.5,2.3c-0.4,0.4-0.6,0.8-0.5,0.9c0.2,0.2,1.1,0.5,2.6-0.1c0.4-0.1,0.7-0.3,1.1-0.4c2-0.8,3.9-1.6,5.1-0.6
		c1.1,0.9,0.7,2.6,0.6,3.1c-0.3,1.8-0.1,3,0.5,3.5s1.9,0.2,3.5-0.6c3.1-1.7,5.6-2.1,7.3-1.2c1.4,0.7,2.3,2.2,2.7,4.5l-1.7,0.2
		C305.5,222.1,305,221,304.1,220.6z"/>
	<path class="st1" d="M183.9,225.1l-19.4,43l43,19.4l19.4-43L183.9,225.1z M206.4,259.8c-1.2-0.6-3.2-0.2-5.7,1.2
		c-2.9,1.6-4.5,1.1-5.4,0.5s-1.8-2.1-1.2-5.2c0.2-1,0-1.4,0-1.5c-0.4-0.3-2.3,0.5-3.4,0.9c-0.4,0.1-0.8,0.3-1.1,0.4
		c-2.1,0.8-3.9,0.5-4.7-0.6c-0.2-0.3-0.8-1.6,0.7-3.1l0,0c-0.7-0.1-1.9,0.1-2.8,0.6l-0.9-1.5c1.5-0.9,4.4-1.4,5.3-0.2
		c0.2,0.3,0.7,1.2-0.5,2.3c-0.4,0.4-0.6,0.8-0.5,0.9c0.2,0.2,1.1,0.5,2.6-0.1c0.4-0.1,0.7-0.3,1.1-0.4c2-0.8,3.9-1.6,5.1-0.6
		c1.1,0.9,0.7,2.6,0.6,3.1c-0.3,1.8-0.1,3,0.5,3.5s1.9,0.2,3.5-0.6c3.1-1.7,5.6-2.1,7.3-1.2c1.4,0.7,2.3,2.2,2.7,4.5l-1.7,0.2
		C207.8,261.4,207.2,260.3,206.4,259.8z"/>
	<path class="st1" d="M250.3,256.1l-19,42.2l42.2,19l19-42.2L250.3,256.1z M271.8,289.5c-1.2-0.6-3.2-0.2-5.7,1.2
		c-2.9,1.6-4.5,1.1-5.4,0.5s-1.8-2.1-1.2-5.2c0.2-1,0-1.4,0-1.5c-0.4-0.3-2.3,0.5-3.4,0.9c-0.4,0.1-0.8,0.3-1.1,0.4
		c-2.1,0.8-3.9,0.5-4.7-0.6c-0.2-0.3-0.8-1.6,0.7-3.1l0,0c-0.7-0.1-1.9,0.1-2.8,0.6l-0.9-1.5c1.5-0.9,4.4-1.4,5.3-0.2
		c0.2,0.3,0.7,1.2-0.5,2.3c-0.4,0.4-0.6,0.8-0.5,0.9c0.2,0.2,1.1,0.5,2.6-0.1c0.4-0.1,0.7-0.3,1.1-0.4c2-0.8,3.9-1.6,5.1-0.6
		c1.1,0.9,0.7,2.6,0.6,3.1c-0.3,1.8-0.1,3,0.5,3.5s1.9,0.2,3.5-0.6c3.1-1.7,5.6-2.1,7.3-1.2c1.4,0.7,2.3,2.2,2.7,4.5l-1.7,0.2
		C273.3,291,272.7,289.9,271.8,289.5z"/>
	<path class="st1" d="M152.5,295.7l-19,42.2l42.2,19l19-42.2L152.5,295.7z M174.1,330.5c-1.2-0.6-3.2-0.2-5.7,1.2
		c-2.9,1.6-4.5,1.1-5.4,0.5s-1.8-2.1-1.2-5.2c0.2-1,0-1.4,0-1.5c-0.4-0.3-2.3,0.5-3.4,0.9c-0.4,0.1-0.8,0.3-1.1,0.4
		c-2.1,0.8-3.9,0.5-4.7-0.6c-0.2-0.3-0.8-1.6,0.7-3.1l0,0c-0.7-0.1-1.9,0.1-2.8,0.6l-0.9-1.5c1.5-0.9,4.4-1.4,5.3-0.2
		c0.2,0.3,0.7,1.2-0.5,2.3c-0.4,0.4-0.6,0.8-0.5,0.9c0.2,0.2,1.1,0.5,2.6-0.1c0.4-0.1,0.7-0.3,1.1-0.4c2-0.8,3.9-1.6,5.1-0.6
		c1.1,0.9,0.7,2.6,0.6,3.1c-0.3,1.8-0.1,3,0.5,3.5s1.9,0.2,3.5-0.6c3.1-1.7,5.6-2.1,7.3-1.2c1.4,0.7,2.3,2.2,2.7,4.5l-1.7,0.2
		C175.5,332,175,330.9,174.1,330.5z"/>
	<path class="st1" d="M218.5,325.5l-19.4,43l43,19.4l19.4-43L218.5,325.5z M241.2,363.4c-0.2-1.7-0.8-2.8-1.7-3.2
		c-1.2-0.6-3.2-0.2-5.7,1.2c-2.9,1.6-4.5,1.1-5.4,0.5s-1.8-2.1-1.2-5.2c0.2-1,0-1.4,0-1.5c-0.4-0.3-2.3,0.5-3.4,0.9
		c-0.4,0.1-0.8,0.3-1.1,0.4c-2.1,0.8-3.9,0.5-4.7-0.6c-0.2-0.3-0.8-1.6,0.7-3.1l0,0c-0.7-0.1-1.9,0.1-2.8,0.6l-0.9-1.5
		c1.5-0.9,4.4-1.4,5.3-0.2c0.2,0.3,0.7,1.2-0.5,2.3c-0.4,0.4-0.6,0.8-0.5,0.9c0.2,0.2,1.1,0.5,2.6-0.1c0.4-0.1,0.7-0.3,1.1-0.4
		c2-0.8,3.9-1.6,5.1-0.6c1.1,0.9,0.7,2.6,0.6,3.1c-0.3,1.8-0.1,3,0.5,3.5s1.9,0.2,3.5-0.6c3.1-1.7,5.6-2.1,7.3-1.2
		c1.4,0.7,2.3,2.2,2.7,4.5L241.2,363.4z"/>
</g>
<g id="Layer_4">
</g>
<g id="Layer_3" class="st3">
</g>
<path class="st2" d="M371.4,134.9l-139.7-63c-6.3-2.8-13.7,0.4-16.8,7.2L84,369.6c-3.1,6.8-0.6,14.5,3.8,16.5l142.4,64.2
	c5.4,2.4,12.1-1.2,15.1-7.9l130.9-290.5C379.3,145,376.6,137.2,371.4,134.9z M283.5,108.8c0.3-0.7,1.1-1,1.7-0.7l35,15.8
	c0.7,0.3,1,1.1,0.7,1.7c-0.2,0.5-0.7,0.8-1.2,0.8c-0.2,0-0.4,0-0.5-0.1l-35-15.8C283.5,110.2,283.2,109.5,283.5,108.8z M273.6,104.3
	c0.6-1.3,2.1-1.9,3.5-1.3c1.3,0.6,1.9,2.1,1.3,3.5c-0.6,1.3-2.1,1.9-3.5,1.3C273.5,107.2,273,105.6,273.6,104.3z M362.4,169.2
	L244.1,431.8c-2.8,6.1-7.9,9.8-12.6,7.7L95.3,378.1c-4-1.8-5.5-8.4-2.7-14.6L211,100.9c2.8-6.1,9.3-9.2,13.6-7.2L358.3,154
	C362.8,156,365.2,163.1,362.4,169.2z"/>
<g id="Layer_2_2_" class="st0">
	<g id="Layer_2_1_" class="st4">
	</g>
</g>
</svg>
