<?xml version="1.0" encoding="utf-8"?>
<!-- Generator: Adobe Illustrator 24.0.2, SVG Export Plug-In . SVG Version: 6.00 Build 0)  -->
<svg version="1.1" id="Layer_1" xmlns="http://www.w3.org/2000/svg" xmlns:xlink="http://www.w3.org/1999/xlink" x="0px" y="0px"
	 viewBox="0 0 35 34" style="enable-background:new 0 0 35 34;" xml:space="preserve">
<style type="text/css">
	.st0{fill:url(#SVGID_1_);}
	.st1{fill:url(#SVGID_2_);}
	.st2{fill:url(#SVGID_3_);}
	.st3{fill:url(#SVGID_4_);}
	.st4{fill:url(#SVGID_5_);}
	.st5{fill:url(#SVGID_6_);}
	.st6{fill:url(#SVGID_7_);}
	.st7{fill:url(#SVGID_8_);}
	.st8{fill:url(#SVGID_9_);}
	.st9{fill:url(#SVGID_10_);}
	.st10{fill:url(#SVGID_11_);}
	.st11{fill:url(#SVGID_12_);}
	.st12{fill:url(#SVGID_13_);}
	.st13{fill:url(#SVGID_14_);}
	.st14{fill:url(#SVGID_15_);}
	.st15{fill:url(#SVGID_16_);}
</style>
<g>
	<linearGradient id="SVGID_1_" gradientUnits="userSpaceOnUse" x1="88.9357" y1="9.4497" x2="85.3114" y2="13.1782">
		<stop  offset="0.1043" style="stop-color:#FFFFFF"/>
		<stop  offset="0.4078" style="stop-color:#FFD540"/>
		<stop  offset="0.8531" style="stop-color:#E36D15"/>
	</linearGradient>
	<path class="st0" d="M89.2,10.1c-0.1,0.4-0.3,0.8-0.5,1.2c-0.2,0.3-0.5,0.7-0.8,0.9c-0.6,0.5-1.4,0.8-2.3,1l-0.1,0l0.1-0.1
		c0.3-0.4,0.4-0.8,0.2-1.3c0-0.2-0.1-0.4-0.1-0.7c0-0.2,0.2-0.3,0.3-0.3c0.1,0,0.3-0.1,0.4-0.1C87.4,10.6,88.3,10.4,89.2,10.1z
		 M89.2,10.1c-0.4,0.2-0.8,0.4-1.3,0.6c-0.5,0.1-0.9,0.2-1.4,0.2c-0.2,0-0.5,0-0.5,0.2c0,0.2,0,0.4,0.1,0.7c0.1,0.5-0.1,1-0.4,1.4
		l0-0.1c0.4,0,0.8-0.1,1.2-0.3c0.4-0.2,0.7-0.4,1-0.7C88.4,11.5,88.9,10.9,89.2,10.1z"/>
</g>
<g>
	
		<linearGradient id="SVGID_2_" gradientUnits="userSpaceOnUse" x1="24.6903" y1="17.5969" x2="20.3571" y2="22.8809" gradientTransform="matrix(1 0 0 -1 0 36)">
		<stop  offset="0.1469" style="stop-color:#E36D15"/>
		<stop  offset="0.5922" style="stop-color:#FFD540"/>
		<stop  offset="0.8957" style="stop-color:#FFFFFF;stop-opacity:0"/>
	</linearGradient>
	<path class="st1" d="M22.7,12c0.7,0.5,1.2,1,1.4,1.7c0.3,0.6,0.4,1.4,0.3,2.2c0,0.1-0.1,0.4-0.1,0.5c-0.1,0.2-0.1,0.4-0.2,0.6
		c-0.1,0.4-0.4,0.6-0.6,0.9s-0.5,0.6-0.8,0.8c-0.4,0.2-0.7,0.4-1.2,0.4c0-0.4,0-0.7-0.1-1.1c0-0.3-0.1-0.6-0.1-0.9s0-0.6,0-0.8
		c0-0.1,0-0.2,0-0.3l0.1-0.4c0.1-0.5,0.1-0.9,0.3-1.5C22.1,13.4,22.3,12.7,22.7,12z"/>
</g>
<linearGradient id="SVGID_3_" gradientUnits="userSpaceOnUse" x1="1725.8768" y1="-4.577" x2="1707.7273" y2="21.1176" gradientTransform="matrix(-0.9994 -3.581569e-02 3.581569e-02 -0.9994 1734.8356 83.9916)">
	<stop  offset="0.1043" style="stop-color:#FFFFFF"/>
	<stop  offset="0.4078" style="stop-color:#FFD540"/>
	<stop  offset="0.8531" style="stop-color:#E36D15"/>
</linearGradient>
<path class="st2" d="M11,27c4-9,12.2-8.5,15.6-13.2C29.8,10.9,29,12,32,10c2.4-1.6,2.3-3.1,2-4c-0.6-1.8-4.9-3.6-10-3
	c-9,1-12,6-13,16C10.4,25.1,10.4,28.5,11,27z"/>
<linearGradient id="SVGID_4_" gradientUnits="userSpaceOnUse" x1="87.2432" y1="398.6155" x2="100.9313" y2="398.6155" gradientTransform="matrix(0.8488 0.5288 0.5288 -0.8488 -283.1508 308.4421)">
	<stop  offset="0" style="stop-color:#ED9324"/>
	<stop  offset="0.5642" style="stop-color:#FFD540"/>
	<stop  offset="1" style="stop-color:#E8811D"/>
</linearGradient>
<path class="st3" d="M16.1,7.4c-3.1,1-5.1,5-5.1,7.6c0,3.5-0.8,6.6-3.1,7.1C6,22.5,4,20,0.4,18.4c5.3,4.3,2.5,8,6.2,8.3
	c-3.9,1.5-1.1,1.8-6.1,6.6C4.2,32.1,17,27,14,14C13.6,12.3,13.1,9,16.1,7.4z"/>
<g>
	
		<linearGradient id="SVGID_5_" gradientUnits="userSpaceOnUse" x1="21.6544" y1="36.5111" x2="14.8669" y2="29.8386" gradientTransform="matrix(0.9728 0.2318 0.2318 -0.9728 -7.3187 30.8658)">
		<stop  offset="0.1469" style="stop-color:#E36D15"/>
		<stop  offset="0.5587" style="stop-color:#FFD540"/>
		<stop  offset="0.7672" style="stop-color:#FFFFFF;stop-opacity:0"/>
	</linearGradient>
	<path class="st4" d="M22.7,4.1c-1.3-0.1-2.2-0.2-3-0.4c-0.4-0.1-0.7-0.1-1-0.2l-0.9-0.1c-0.7-0.1-1.3-0.2-2-0.3
		C15.1,3,14.3,3.1,13.1,3c0.1-0.8,0.6-1.6,1.5-2.1s2.1-0.6,3.2-0.6c0.3,0,0.5,0,0.8,0.1s0.7,0.2,1,0.2c0.6,0.2,1.1,0.5,1.5,0.8
		C22.1,2.4,22.6,3.2,22.7,4.1z"/>
</g>
<g>
	
		<linearGradient id="SVGID_6_" gradientUnits="userSpaceOnUse" x1="18.6572" y1="33.5647" x2="12.1949" y2="27.2119" gradientTransform="matrix(1 0 0 -1 0 36)">
		<stop  offset="0" style="stop-color:#E36D15"/>
		<stop  offset="0.1088" style="stop-color:#EC9023"/>
		<stop  offset="0.2272" style="stop-color:#F4AE30"/>
		<stop  offset="0.3435" style="stop-color:#FAC439"/>
		<stop  offset="0.4556" style="stop-color:#FED13E"/>
		<stop  offset="0.5587" style="stop-color:#FFD540"/>
		<stop  offset="0.7672" style="stop-color:#FFFFFF;stop-opacity:0"/>
	</linearGradient>
	<path class="st5" d="M20.2,5.4c-1-0.1-1.9-0.3-2.7-0.4c-0.4-0.1-0.8-0.1-1.1-0.1c-0.2,0-0.4,0-0.5,0L15.3,5
		c-0.8,0.1-1.6,0.3-2.3,0.6c-0.8,0.3-1.5,0.9-2.3,1.4c0.2-1,0.7-1.9,1.4-2.6c0.8-0.7,1.8-1.1,2.8-1.3c0.3,0,0.5-0.1,0.8-0.1
		s0.6,0,0.8,0C17,3.1,17.6,3.2,18,3.4C18.9,3.9,19.7,4.6,20.2,5.4z"/>
</g>
<g>
	
		<linearGradient id="SVGID_7_" gradientUnits="userSpaceOnUse" x1="15.6042" y1="31.8165" x2="13.723" y2="25.6668" gradientTransform="matrix(1 0 0 -1 0 36)">
		<stop  offset="0" style="stop-color:#E36D15"/>
		<stop  offset="0.4749" style="stop-color:#FFD540"/>
		<stop  offset="0.9013" style="stop-color:#FFFFFF;stop-opacity:0"/>
	</linearGradient>
	<path class="st6" d="M17.9,6.1c-0.7,0.5-1.3,0.8-1.8,1l-0.6,0.3l-0.6,0.3c-0.5,0.2-0.9,0.5-1.3,0.7c-0.4,0.2-0.9,0.6-1.5,1.2
		c-0.5-0.5-0.7-1.3-0.4-2c0.2-0.7,0.8-1.3,1.4-1.7c0.2-0.1,0.3-0.2,0.5-0.3s0.4-0.2,0.7-0.2c0.5-0.2,0.9-0.2,1.4-0.2
		C16.5,5.2,17.3,5.4,17.9,6.1z"/>
</g>
<g>
	
		<linearGradient id="SVGID_8_" gradientUnits="userSpaceOnUse" x1="15.2796" y1="24.4373" x2="9.5816" y2="20.0633" gradientTransform="matrix(1 0 0 -1 0 36)">
		<stop  offset="0" style="stop-color:#E36D15"/>
		<stop  offset="0.4637" style="stop-color:#FFD540"/>
		<stop  offset="1" style="stop-color:#FFFFFF;stop-opacity:0"/>
	</linearGradient>
	<path class="st7" d="M13,10.2c0.7,0.5,1.2,1.1,1.4,1.8c0.1,0.4,0.2,0.8,0.2,1.2c0,0.2,0,0.4-0.1,0.7c0,0.2-0.1,0.4-0.2,0.6
		c-0.3,0.7-0.7,1.5-1.4,2s-1.5,0.7-2.2,0.7c0.5-0.6,0.9-1.2,1.1-1.7c0.3-0.5,0.4-1,0.6-1.6l0.1-0.4c0-0.1,0-0.2,0.1-0.4
		c0-0.2,0.1-0.5,0.1-0.8C12.9,11.7,12.9,11.1,13,10.2z"/>
</g>
<g>
	
		<linearGradient id="SVGID_9_" gradientUnits="userSpaceOnUse" x1="28.8522" y1="16.9804" x2="24.1581" y2="25.1109" gradientTransform="matrix(1 0 0 -1 0 36)">
		<stop  offset="0.1469" style="stop-color:#E36D15"/>
		<stop  offset="0.5587" style="stop-color:#FFD540"/>
		<stop  offset="0.7672" style="stop-color:#FFFFFF;stop-opacity:0"/>
	</linearGradient>
	<path class="st8" d="M23.9,11.5c1,0,1.7,0.2,2.4,0.6c0.7,0.5,1.3,1.2,1.5,1.9c0.2,0.3,0.3,0.9,0.3,1.2c0,0.4,0,0.8,0,1.2
		c-0.1,0.4-0.2,0.8-0.4,1.2c-0.2,0.4-0.5,0.8-0.9,1.1c-0.2-0.4-0.5-0.7-0.6-1c-0.2-0.3-0.4-0.6-0.6-0.8c-0.2-0.2-0.3-0.6-0.4-0.8
		c-0.1-0.2-0.2-0.4-0.3-0.6c-0.2-0.6-0.4-1-0.6-1.5C24.3,13.2,23.9,12.5,23.9,11.5z"/>
</g>
<g>
	
		<linearGradient id="SVGID_10_" gradientUnits="userSpaceOnUse" x1="13.919" y1="29.3168" x2="14.2464" y2="22.141" gradientTransform="matrix(1 0 0 -1 0 36)">
		<stop  offset="0" style="stop-color:#E36D15"/>
		<stop  offset="0.4637" style="stop-color:#FFD540"/>
		<stop  offset="1" style="stop-color:#FFFFFF;stop-opacity:0"/>
	</linearGradient>
	<path class="st9" d="M16.6,7.5c-0.5,0.7-1.1,1.1-1.5,1.5c-0.2,0.2-0.4,0.4-0.6,0.6c-0.1,0.1-0.2,0.2-0.2,0.3L14,10.3
		c-0.3,0.5-0.6,1-0.9,1.5c-0.3,0.5-0.4,1.2-0.6,2c-0.5-0.6-0.9-1.3-0.9-2.2c0-0.8,0.2-1.7,0.6-2.3c0.1-0.2,0.2-0.3,0.3-0.5
		s0.3-0.4,0.5-0.5c0.3-0.3,0.7-0.5,1.1-0.6C15,7.3,15.8,7.3,16.6,7.5z"/>
</g>
<g>
	<g>
		
			<image style="overflow:visible;" width="2.2" height="1.3" xlink:href="97A71D9C.png"  transform="matrix(1 0 0 1 27.9474 5.387)"/>
	</g>
</g>
<image style="overflow:visible;" width="3" height="3" xlink:href="DB75BCD8.png"  transform="matrix(1 0 0 1 91 3)">
</image>
<g>
	<linearGradient id="SVGID_11_" gradientUnits="userSpaceOnUse" x1="76.6115" y1="7.13" x2="96.3302" y2="4.9982">
		<stop  offset="0.1043" style="stop-color:#FFFFFF"/>
		<stop  offset="0.4078" style="stop-color:#FFD540"/>
		<stop  offset="0.8531" style="stop-color:#E36D15"/>
	</linearGradient>
	<path class="st10" d="M82.2,2.8c2.5-1.8,5.9-2.4,8.9-1.5c0.7,0.2,1.5,0.5,2.2,0.9C94,2.5,94.7,3,95.2,3.5c0.6,0.5,1,1.3,1,2.1
		c0,0.8-0.6,1.5-1.3,1.9c-0.7,0.4-1.4,0.7-2.2,0.9c-0.4,0.1-0.7,0.2-1.1,0.4c-0.4,0.1-0.6,0.4-0.9,0.6c-1.2,1-2.7,1.7-4.3,1.7
		c-1.6,0-3.1-0.6-4.6-0.8c-1.5-0.2-2.9,0.3-4.1,1.3l-0.7,0.6l0.3-0.9c0.5-1.6,1-3.2,1.7-4.7c0.3-0.8,0.7-1.5,1.3-2.2
		C80.9,3.8,81.6,3.3,82.2,2.8z M82.3,2.8c-0.7,0.5-1.3,1-1.8,1.7c-0.5,0.7-0.8,1.4-1.1,2.2c-0.5,1.6-1,3.2-1.4,4.8l-0.4-0.3
		c1.2-1.1,2.8-1.7,4.4-1.5c1.6,0.2,3,0.9,4.5,0.9c1.5,0.1,3-0.5,4.2-1.4c0.3-0.2,0.6-0.5,1-0.6c0.4-0.1,0.7-0.2,1.1-0.3
		c0.7-0.2,1.5-0.4,2.1-0.8C95.5,7,96,6.4,96,5.6c0-0.7-0.4-1.4-1-1.9c-0.6-0.5-1.2-0.9-1.9-1.2c-0.7-0.4-1.4-0.6-2.1-0.9
		c-1.4-0.4-3-0.6-4.5-0.5C85,1.4,83.5,1.9,82.3,2.8z"/>
</g>
<g>
	<linearGradient id="SVGID_12_" gradientUnits="userSpaceOnUse" x1="86.8566" y1="-1.2422" x2="80.4123" y2="10.3523">
		<stop  offset="0.1043" style="stop-color:#FFFFFF"/>
		<stop  offset="0.4078" style="stop-color:#FFD540"/>
		<stop  offset="0.8531" style="stop-color:#E36D15"/>
	</linearGradient>
	<path class="st11" d="M91,1.4c-0.8-0.5-1.5-0.9-2.4-1.2c-0.8-0.3-1.7-0.4-2.6-0.4c-1.7,0-3.4,0.5-5.1,1.1l0-0.5
		c0.2,0,0.4,0.1,0.6,0.2C81.8,0.9,82,1.1,82,1.4c0,0.5-0.4,0.8-0.6,1.1c-0.6,0.5-1.3,0.9-2,1.2l0.1-0.2c0,0.5,0.2,1,0.2,1.6
		c0,0.3-0.1,0.6-0.4,0.8c-0.2,0.2-0.5,0.4-0.7,0.5l-0.1-0.3c0.1,0,0.3,0,0.5,0c0.1,0,0.2,0.1,0.2,0.2c0,0.1,0,0.2,0,0.3
		C79.2,7,79.1,7.2,79,7.5c-0.2,0.5-0.4,1.1-0.6,1.6l0.5-1.7C78.9,7.2,79,6.9,79,6.6c0-0.1,0-0.2-0.1-0.2c-0.1,0-0.2,0-0.4,0
		l-0.7,0.1l0.6-0.4c0.4-0.3,0.8-0.6,0.8-1.1c0-0.5-0.2-1-0.2-1.6l0-0.2l0.1-0.1C79.9,3,80.5,2.7,81,2.2c0.2-0.2,0.5-0.5,0.5-0.8
		c0-0.1-0.1-0.2-0.2-0.2C81.2,1.1,81,1,80.9,1l-0.8-0.2l0.8-0.3c1.7-0.6,3.4-1.1,5.3-1c0.9,0,1.8,0.2,2.6,0.6
		C89.5,0.4,90.3,0.9,91,1.4z"/>
</g>
<g>
	<linearGradient id="SVGID_13_" gradientUnits="userSpaceOnUse" x1="90.7301" y1="8.1162" x2="87.5624" y2="13.8155">
		<stop  offset="0.1043" style="stop-color:#FFFFFF"/>
		<stop  offset="0.4078" style="stop-color:#FFD540"/>
		<stop  offset="0.8531" style="stop-color:#E36D15"/>
	</linearGradient>
	<path class="st12" d="M91.1,9c0.1,0.5,0,1-0.1,1.5c-0.1,0.5-0.3,0.9-0.6,1.3c-0.3,0.4-0.7,0.7-1.1,1c-0.4,0.3-0.8,0.5-1.2,0.7
		l-0.2,0.1l0.1-0.2c0.2-0.5,0.1-1-0.2-1.5c-0.1-0.2-0.3-0.4-0.4-0.8c0-0.2,0.2-0.5,0.3-0.6c0.2-0.1,0.3-0.1,0.4-0.2
		c0.5-0.2,1-0.3,1.5-0.6C90.2,9.5,90.6,9.3,91.1,9z M91.1,9c-0.3,0.4-0.8,0.8-1.2,1.1c-0.5,0.3-1,0.6-1.5,0.7
		c-0.2,0.1-0.4,0.2-0.4,0.2c0,0.1,0.2,0.4,0.3,0.7c0.2,0.5,0.2,1.2-0.1,1.7L88,13.3c0.4-0.1,0.9-0.4,1.2-0.7
		c0.3-0.3,0.6-0.7,0.8-1.1c0.2-0.4,0.5-0.8,0.6-1.2C90.9,9.9,91,9.4,91.1,9z"/>
</g>
<g>
	<linearGradient id="SVGID_14_" gradientUnits="userSpaceOnUse" x1="66.6497" y1="11.4046" x2="79.676" y2="10.2873">
		<stop  offset="0.1043" style="stop-color:#FFFFFF"/>
		<stop  offset="0.4078" style="stop-color:#FFD540"/>
		<stop  offset="0.8531" style="stop-color:#E36D15"/>
	</linearGradient>
	<path class="st13" d="M79.1,6.5c-0.2,1-0.8,2.2-1.8,2.8c-1.1,0.6-2.4,0.3-3.4-0.3c-1-0.6-1.8-1.3-2.8-1.9c-0.5-0.3-1-0.4-1.5-0.4
		c-0.5,0-1.1,0.1-1.6,0.2l0-0.2C68.3,7,68.7,7.4,69,7.8c0.3,0.4,0.4,0.9,0.6,1.4c0.2,0.5,0.4,0.9,0.7,1.3c0.3,0.4,0.7,0.6,1.2,0.6
		l0,0.2c-0.5,0-0.8,0.3-1,0.7c-0.2,0.4-0.2,0.9-0.3,1.3c-0.1,0.5-0.4,0.9-0.8,1.3c-0.4,0.4-0.8,0.5-1.3,0.7l0-0.4
		c1.3,0.2,2.7,0.5,4,0.3c1.3-0.1,2.5-0.7,3.5-1.6c1-0.9,1.7-2,2.2-3.3c0.3-0.6,0.5-1.2,0.7-1.9C78.7,7.8,78.9,7.2,79.1,6.5z
		 M79.1,6.5c-0.2,0.6-0.2,1.3-0.4,2c-0.2,0.6-0.4,1.3-0.6,1.9c-0.5,1.3-1.2,2.5-2.2,3.5c-1,1-2.4,1.6-3.8,1.8
		c-1.4,0.1-2.8-0.1-4.1-0.4l-0.8-0.2l0.8-0.3c0.4-0.2,0.8-0.3,1.2-0.6c0.3-0.3,0.6-0.6,0.7-1.1c0.1-0.4,0.2-0.9,0.4-1.4
		c0.1-0.2,0.3-0.4,0.5-0.6c0.2-0.1,0.5-0.2,0.7-0.2l0,0.2c-0.5,0-1-0.3-1.3-0.7c-0.3-0.4-0.5-0.9-0.7-1.4c-0.2-0.5-0.4-0.9-0.6-1.3
		c-0.3-0.4-0.6-0.8-1-1l-0.3-0.1l0.3-0.1c0.5-0.2,1.1-0.3,1.7-0.3c0.6,0,1.2,0.1,1.7,0.4c1,0.5,2,1.2,2.9,1.9
		c0.9,0.6,2.1,0.8,3.1,0.4C77.6,8.8,78,8.5,78.4,8C78.7,7.6,78.9,7,79.1,6.5z"/>
</g>
<g>
	<linearGradient id="SVGID_15_" gradientUnits="userSpaceOnUse" x1="70.3805" y1="9.7428" x2="78.047" y2="9.7428">
		<stop  offset="0.1043" style="stop-color:#FFFFFF"/>
		<stop  offset="0.4078" style="stop-color:#FFD540"/>
		<stop  offset="0.8531" style="stop-color:#E36D15"/>
	</linearGradient>
	<path class="st14" d="M77.9,9.1c-0.4,0.6-1,0.9-1.7,1.1c-0.6,0.2-1.3,0.3-2,0.3c-0.7,0-1.4-0.2-2-0.5c-0.6-0.3-1.2-0.7-1.6-1.2
		c0.6,0.3,1.2,0.6,1.8,0.8c0.6,0.2,1.2,0.3,1.9,0.3c0.6,0,1.3,0,1.9-0.2C76.7,9.8,77.3,9.5,77.9,9.1z"/>
</g>
<g>
	<linearGradient id="SVGID_16_" gradientUnits="userSpaceOnUse" x1="71.3276" y1="11.0605" x2="78.4328" y2="11.0605">
		<stop  offset="0.1043" style="stop-color:#FFFFFF"/>
		<stop  offset="0.4078" style="stop-color:#FFD540"/>
		<stop  offset="0.8531" style="stop-color:#E36D15"/>
	</linearGradient>
	<path class="st15" d="M78.2,8.8c-0.2,0.7-0.5,1.4-0.9,2c-0.4,0.6-1,1.2-1.6,1.6c-0.6,0.4-1.4,0.7-2.1,0.8c-0.7,0.2-1.5,0.2-2.2,0.1
		c0.7-0.1,1.4-0.3,2.1-0.5c0.7-0.2,1.3-0.5,1.9-0.9c0.6-0.4,1.1-0.9,1.6-1.4C77.4,10,77.8,9.4,78.2,8.8z"/>
</g>
</svg>
