<?xml version="1.0" encoding="utf-8"?>
<!-- Generator: Adobe Illustrator 24.0.2, SVG Export Plug-In . SVG Version: 6.00 Build 0)  -->
<svg version="1.1" id="Layer_1" xmlns="http://www.w3.org/2000/svg" xmlns:xlink="http://www.w3.org/1999/xlink" x="0px" y="0px"
	 viewBox="0 0 3969 392.6" style="enable-background:new 0 0 3969 392.6;" xml:space="preserve">
<style type="text/css">
	.st0{opacity:0.5;fill:#FFFFFF;enable-background:new    ;}
	.st1{fill:#FFFFFF;}
</style>
<path class="st0" d="M3969,199.9C3969,179.6,3969,207.8,3969,199.9c-274.8,15.4-427-79.8-693.5-174.1
	c-206.5-73.1-478.6,139.9-692.7,165.3c-160,19-196.8-125.7-372.8-151.7s-413.4,137.7-588,89.7C1483.6,91,1463.1-0.7,1211.5,105.2
	C1017.4,187,808.6,145,662,106.1c-130.3-34.6-235-17.4-312-8.7C238.5,110.1,125,127.2,0,84.2l-0.1,115.7H3969z"/>
<path class="st1" d="M3969.1,392.6c0-20.3-0.1-189.2-0.1-197.1c-274.8,15.4-427-35.6-693.5-129.9C3069-7.5,2793.1,160.8,2579,186.2
	c-160,19-193-81-369-107s-412.4,89-587,41c-138.4-38.1-159.9-81.1-411.5,24.8c-194.1,81.7-399.6-7.6-546.2-46.5
	C534.9,64,426.9,128.5,350,137.2c-111.5,12.6-225-10-350-53l-0.1,308.4H3969.1z"/>
</svg>
