<?xml version="1.0" encoding="utf-8"?>
<!-- Generator: Adobe Illustrator 24.0.2, SVG Export Plug-In . SVG Version: 6.00 Build 0)  -->
<svg version="1.1" id="Layer_1" xmlns="http://www.w3.org/2000/svg" xmlns:xlink="http://www.w3.org/1999/xlink" x="0px" y="0px"
	 viewBox="0 0 3969 318" style="enable-background:new 0 0 3969 318;" xml:space="preserve">
<style type="text/css">
	.st0{opacity:0.5;fill:#FFFFFF;}
	.st1{fill:#FFFFFF;}
</style>
<path class="st0" d="M3969,0c0,20.3,0,34.8,0,42.7c-243-12-469,221.1-743,222.1c-219.1,0.8-417.5-212.6-631.6-238
	c-160-19-208.4,119-384.4,145s-407-101.1-587-81.1s-250,179.1-560,187.1C832.6,283.7,474.9,82,362.9,75S125,83.7,0,126.7L-0.1,0
	H3969z"/>
<path class="st1" d="M3969,0c0,20.3,0,34.8,0,42.7c-243-12-470,164.6-744,165.6c-219.1,0.8-431.9-158.2-646-183.6
	c-160-19-188.5,68.2-364.5,94.2S1803,70.7,1623,90.7s-245.5,109.6-555.5,117.6C837.1,214.2,460.9,90.7,350,73.7
	c-126.7-19.4-248-13.4-350,8L-0.1,0H3969z"/>
</svg>
