<?xml version="1.0" encoding="utf-8"?>
<!-- Generator: Adobe Illustrator 24.0.2, SVG Export Plug-In . SVG Version: 6.00 Build 0)  -->
<svg version="1.1" id="Layer_1" xmlns="http://www.w3.org/2000/svg" xmlns:xlink="http://www.w3.org/1999/xlink" x="0px" y="0px"
	 viewBox="0 0 278 266" style="enable-background:new 0 0 278 266;" xml:space="preserve">
<style type="text/css">
	.st0{fill:none;stroke:#000000;stroke-miterlimit:10;}
</style>
<g>
	<polygon class="st0" points="64.5,70.5 202.5,72.5 246.5,247.5 14.5,242.5 	"/>
	<polygon class="st0" points="92.5,49.5 64.5,70.5 202.5,71.5 224.5,49.5 	"/>
	<polyline class="st0" points="202.5,71.5 246.5,247.5 264.5,220.5 224.5,49.5 	"/>
	<polygon class="st0" points="92.7,244.2 96.5,184.5 161.5,184.5 156.3,246.2 	"/>
	<line class="st0" x1="130.5" y1="184.5" x2="125.3" y2="245.2"/>
	<circle class="st0" cx="118" cy="214" r="1.5"/>
	<circle class="st0" cx="136" cy="214" r="1.5"/>
	<circle class="st0" cx="161.5" cy="93.5" r="6"/>
	<circle class="st0" cx="95.5" cy="95.5" r="6"/>
	<path class="st0" d="M94.5,87.5c0-8,13-76,33-75s34,47,34,73"/>
	<path class="st0" d="M110.5,49.5c1-5,7-37,27-35s29,27,30,35"/>
</g>
</svg>
