<?xml version="1.0" encoding="utf-8"?>
<!-- Generator: Adobe Illustrator 24.0.2, SVG Export Plug-In . SVG Version: 6.00 Build 0)  -->
<svg version="1.1" id="Layer_1" xmlns="http://www.w3.org/2000/svg" xmlns:xlink="http://www.w3.org/1999/xlink" x="0px" y="0px"
	 viewBox="0 0 357 612" style="enable-background:new 0 0 357 612;" xml:space="preserve">
<style type="text/css">
	.st0{fill:none;stroke:#3A76CC;stroke-width:3;stroke-miterlimit:10;}
	.st1{fill:none;stroke:#000000;stroke-miterlimit:10;}
</style>
<path class="st0" d="M281.2,419.2c10.3,59.2,25.1,117.6,44.1,174.6"/>
<path class="st0" d="M281.5,420.5c-46.4-0.8-91.7-1.5-138.1-2.3c-14.3,57.6-30.8,114.6-49.4,171c78.1-1.2,153,2.4,231.1,5.7"/>
<path class="st0" d="M246.3,437.9c-1.7,3.4-3.3,6.7-5,10.1c-5.1-1.8-5.9-10.2-1.2-12.9c3.9,3.3,4.5,9.9,1.2,13.9
	c-3.3-2.2-4.4-7.2-2.4-10.6c2.7,1,4.3,4.4,3.2,7.1c-0.8-1.5-1.1-3.3-0.8-5c-3.2,2.2-8.3-0.2-8.8-4.1"/>
<path class="st0" d="M176.9,442.1c0.7,2.3-1,5-3.3,5.3c-3.2-1.9-2.9-7.6,0.6-9c2.5,2.9,3.3,7,2.1,10.6c-3.4-1.9-4.9-6.5-3.1-10
	c2.8,2.4,3.3,7,1.1,9.9c-3.8-2.5-4.5-8.5-1.4-11.8c3.2,1.8,4.1,6.7,1.8,9.6c-1.3-2-1.6-4.6-0.6-6.8c0.1,1,0.3,2.2,1.2,2.7
	c0.9,0.5,2.2-1,1.3-1.5"/>
<path class="st0" d="M237,435.9c-0.2-18.9-3.7-37.7-10.3-55.4c-1.8-4.9-4-9.8-7.5-13.6s-8.8-6.4-14-5.6c-5.8,1-10,5.8-13.4,10.6
	c-14.7,21-21.8,47.2-19.6,72.8c1.2-0.9,2.4-1.7,3.6-2.6"/>
<path class="st0" d="M206.7,584.7c-0.5,1-1,2-1.5,3c1.4-18.6,2.8-37.3,4.2-55.9c-10.5,1.1-22.5,1.6-33.1,1.4c-1,19-2,38-3,56.9
	c1.2-2.6,2.4-5.2,3.6-7.8"/>
<path class="st0" d="M210.3,534.3c-0.9-1.2,1.2-2.3,2.7-2.2c8.3,0.4,16.6,0.7,24.9,1.1c0.6,0,1.2,0.1,1.7,0.3
	c1.3,0.8,1.1,2.7,0.8,4.3c-4.2,17.1-6.3,34.7-6.2,52.2c-0.7-3.7-1.4-7.4-2.1-11.1"/>
<path class="st0" d="M216.6,560.8c-0.5,0.6-0.7,1.5-0.5,2.3c-1.1-0.1-1.6-1.9-0.6-2.5c0.9,1.3,0.7,3.3-0.4,4.5
	c-0.5-1.4-0.5-3.1-0.1-4.5c1.7,0.6,2.4,3.1,1.2,4.4c-0.9-2.6-1.8-5.3-2.6-7.9"/>
<path class="st0" d="M197.5,560.8c0.6,0.4,0.1,1.6-0.6,1.4s-0.6-1.5,0.2-1.6c0.9,1.5,0.2,3.6-1.3,4.4c-1.4-1.1,0.7-3.7,2-2.6
	c-1-2.4-1.5-5.1-1.3-7.7"/>
<path class="st0" d="M246.3,396.9c-1.2-8.6-8.7-20-8.7-20c-5.1-8.2-13.5-15.7-23.1-14.8c-5.7,0.6-10.8,4.2-14.3,8.8
	c-3.5,4.6-5.6,10.1-7.3,15.5c0,0-3.2,8.9-3.3,10.4"/>
<path class="st0" d="M343.5,568.5c-2.1,4.4-14.2,20.3-17.6,23.8"/>
<path class="st0" d="M281.5,420.5c3.2-3.4,17.7-20.2,21-23.6c13.6,57.5,27.2,113.7,40.8,171.1c0.4-0.7,0.9-1.3,1.3-2"/>
<path class="st0" d="M143.5,418.5c3.3-0.9,22.8-16.5,25.3-18.9c0.9-0.9,1.8-1.9,3-2.3c0.8-0.3,1.8-0.3,2.7-0.3
	c41.2-0.1,82.3-0.1,123.5-0.2c0.7,0,1.5-0.1,1.7-0.7c0.2-0.6-1.2-0.8-0.9-0.2"/>
<path class="st1" d="M39.8,623.9c109.3,11.3,220.1,22.6,328.4,4.5c12.5-2.1,25.1-4.7,36-11.2c10.8-6.5,19.6-17.7,20-30.3
	c0.2-7.5-2.5-14.9-2-22.4c1.2-16.6,17.3-27.9,32.8-34.1c30.1-12,63.2-14.3,95.6-15.7c65.2-3,130.5-3.6,195.7-3.3"/>
<path class="st1" d="M486.8,448.9c-7.1,4.2-15.4,7-23.5,5.5c-2.9-0.6-5.6-1.6-8.1-3.1c-6.8-4.1-11.9-11.2-15-18.7
	c-4.1-10.1-5.2-21.7-1.2-31.8C456,356.8,548.7,412.1,486.8,448.9z"/>
<path class="st1" d="M457,434.6c-1.2-11.6-2.3-23.2-3.5-34.7c1.3,8.4,7.7,16.5,12.7,23.3c3.5-7.9,7-15.9,10.4-23.8
	c1.4,10.5,2.7,20.9,4.1,31.4c0.2,1.2,0.6,2.7,1.7,2.9c1.2,0.2,1.4-2.3,0.3-1.8"/>
<path class="st1" d="M609.4,507.4c-0.6-18.5-5.7-36.9-14.7-53.1c-3.9-7.1-8.7-13.9-15.3-18.5c-11.5-8.2-26.8-8.8-40.6-5.7
	c-7.9,1.8-15.8,4.9-21.1,11c-7.1,8.2-7.9,20-8.4,30.9c-0.6,14.1-1.1,28.1-1.6,42.2c3.2-2.8,4.5-7.6,3.2-11.6"/>
<path class="st1" d="M473.3,451.9c1.1,0.7,1-2.1-0.3-1.8c-1.2,0.3-1.5,2-1.5,3.2c0.1,22.4,0.1,44.9,0.2,67.3"/>
<path class="st1" d="M527.9,515c12.1,0.6,24.2,1.3,36.2,1.9c0.8,0,1.7,0.1,2.3,0.6c2.8,2.3-3.2,8-0.1,10c6.9-1,14-1.2,20.9-0.5
	c-0.6,3.7-0.7,7.4-0.1,11.1c6.6-1.3,13.6-1,20.1,1c-1.8,3.1-1.5,7.2,0.6,10.1"/>
<path class="st1" d="M761.3,510.8c-1.1,2.4-2.3,4.8-3.4,7.2c0-82.9,0.1-165.9,0.1-248.8c48.5,5,100.8-0.8,149.2-6.8
	c-2.8,81.8-0.7,163.7,6.1,245.2C860.7,502.6,811.9,495.8,761.3,510.8z"/>
<path class="st1" d="M973.6,443.2c-5.8,12.8-18.5,20.7-29.6,29.2c-9.2,7-17.7,14.9-25.4,23.5"/>
<path class="st1" d="M954,228.7c-14.7,11.7-29.4,23.3-44.2,35"/>
<path class="st1" d="M752.9,269c14.8-13.8,29.6-27.6,44.4-41.4c-1.6,1.7-3.2,3.3-4.8,5c44.7-0.2,96.2-3.9,140.8-8.4
	c3.8-0.4,8.2-1.2,9.8-4.6c2.3,73.9,11.5,156.1,13.7,230"/>
<path class="st1" d="M779.6,325.5c-1,1.7-1.9,3.4-2.9,5.1c6.9,0,13.9-0.1,20.8-0.1c-0.6-10.5-1.3-21-1.9-31.4
	c-5.9,1-14.5-2.6-20.4-1.6c-1.7,0.3-3.6,0.6-4.8,2c-1.5,1.7-1.2,4.3-0.7,6.5C771.5,312.9,775,319.7,779.6,325.5z"/>
<path class="st1" d="M792.7,370.1c0-8.3,0-16.6,0-24.8c-7.8,1.4-13.8,3.3-21.7,4.7c4.7,8.7,7.1,18.6,6.8,28.4
	C784.5,377.1,787.3,374.1,792.7,370.1z"/>
<path class="st1" d="M776.3,416.6c-1.1,1.2-2.2,2.4-3.4,3.5c5.8,0.9,11.6,1.8,17.4,2.6c1.4,0.2,3,0.4,4.2-0.4c1.4-1,1.6-3,1.6-4.8
	c0-7.5,0-15.1,0-22.6c-2.2,4.7-15.5,4-19.2,7.7s-6.6,9-4.9,13.9C773.7,421.5,775,421.6,776.3,416.6z"/>
<path class="st1" d="M820.9,317.1c-0.6-7.7-1.2-15.4-1.8-23.2c5.2-2.7,11.3-1.6,15.3,2.6c4,4.2,6,10,7.9,15.5
	C837.4,315.9,827,318.6,820.9,317.1z"/>
<path class="st1" d="M860.8,325.5c2-6,8.3-10.4,14.6-10.2c2.7,0.1,5.6,0.9,7.9-0.5c2.3-1.4,3-4.5,2.9-7.2c-0.2-5.9-3.3-12-8.8-14.4
	c-15.2-6.6-13.2,10.6-12.9,19"/>
<path class="st1" d="M824.2,361.7c4.3,2.9,9,5.3,13.8,7.1c1.9,0.7,4.3,1.3,6,0.1c1.8-1.3,1.9-4,1.7-6.2c-0.6-9.1-1.2-18.3-1.8-27.4
	c-8.3,4.9-22,12.2-31,15.5C816,358.9,817,356.9,824.2,361.7z"/>
<path class="st1" d="M817.6,416.5c-1.9,1.5-3.3,3.7-3.8,6.1c7.8-1.3,15.8-1.7,23.7-1.1c-1.3-11-2.6-22.1-3.8-33.1
	c-7.2,1.3-17.2,3-24.2,5C812.5,403.6,816.7,405.9,817.6,416.5z"/>
<path class="st1" d="M863.9,406.5c0.6,1.3,1.2,2.7,1.7,4c-0.8-9.6-1.4-19.2-1.7-28.8c6.2-4.6,11.2-3.5,18.3-6.5
	c2.2,9.1,4.3,18.1,6.5,27.2c0.2,0.8,0.4,1.6,0.1,2.4c-0.5,1.5-2.3,2.1-3.8,2.5C877.9,408.9,871,404.8,863.9,406.5z"/>
<path class="st1" d="M865.5,360.1c-1.7,1.1-3.5,2.2-5.2,3.3c7.3,2.5,15.4,2.7,22.9,0.5c1.3-0.4,2.7-1,3.3-2.2c0.5-1,0.3-2.1,0.2-3.1
	c-1.2-8.8-2.3-17.6-3.5-26.4c-5.9,0-12.9,0.6-18.5,2.3c-1.6,0.5-3.3,1-4.3,2.4c-1.5,2-0.9,4.9-0.2,7.3
	C861.8,349.3,863.9,354.8,865.5,360.1z"/>
<path class="st1" d="M791.1,462.8c0,3.1,0,6.3,0,9.4c0-9.8,0-19.5,0-29.3c-3.2,6.1-13,7.1-17.2,1.7c0.1,7.1,0.2,14.3,0.2,21.4
	c0,2.4,0.2,5.1,1.9,6.8C779.8,476.7,787.8,467.2,791.1,462.8z"/>
<path class="st1" d="M834.1,456.2c0.1,1.6,0.1,3.2,0.2,4.7c-0.6-8.2-1.2-16.4-1.8-24.6c-8.6,3-11.3,2.4-20.3,1
	c1.6,10.1,1.7,20.4,0.3,30.4C819.7,466.2,826.9,457.8,834.1,456.2z"/>
<path class="st1" d="M864,461.1c-1.1-9.5-0.1-19.2,3-28.2c6.9-2.2,11.1-3.1,18.3-3.1c-0.2,8.7,1.6,17.4,5.3,25.3
	c-7.5,6.6-18,9.8-27.9,8.5C863.4,461.2,861.8,462.4,864,461.1z"/>
<path class="st1" d="M638.8,533.3c86.1-1.3,172.4,1.9,258.2,9.7"/>
<path class="st1" d="M498.1,547.6c-15.7,1.4-32,5-43.9,15.2c-11.9,10.3-17.7,29.1-9.2,42.3c6.7,10.4,21.6,18.9,17.8,30.7
	c-2.3,7.2-10.6,10.3-18,12.3c-131.2,35.5-269.4,30.3-405.2,24.8"/>
<path class="st1" d="M913.7,518.1c47.4,1.3,95.2,2.7,141.3,13.8c46.1,11,91,32.6,122.2,68.4c9,10.3,17,22.5,17.8,36.1
	c0.9,14.6-6.8,28.7-17.6,38.5c-10.8,9.8-24.5,15.9-38.2,20.8c-103.3,37-218.5,17-325.7,40.7c-24,5.3-48.5,13.4-65.9,30.7
	c-2.5,2.5-4.9,5.5-4.9,9c0.1,5.9,6.9,9,12.6,10.5c28.4,7.8,57.7,11.4,86.8,14.9c67.9,8.3,135.9,16.7,203.8,25"/>
<path class="st1" d="M996.3,694.7c6.1-5.5,17.3,1.2,16.9,9.4s-9.3,14.2-17.4,13.5c-1.4-0.1-2.8-0.4-4-1.1c-2.9-1.7-4.1-5.3-4.1-8.7
	c0-6.5,4-13.2,10.4-14.6c6.3-1.4,13.6,4.6,12,10.9"/>
<path class="st1" d="M981.4,702.4c-11.4,0.8-22.8,1.7-34.2,2.5c-1.1,0.1-1.6,1.6-2.6,1.8c-1.1,0.3-1.6-4.3-1.9-3.3
	c-4.9-3.2-10-6.5-15.8-7.3c-5.8-0.8-12.5,1.9-14.4,7.4c-2.8,7.9,6.6,16,15,14.7c6.1-1,11.8-6.4,11.3-12.6
	c-0.5-6.2-9.1-10.5-13.6-6.2"/>
<path class="st1" d="M1015.1,699.7c10.7,0.3,21.4-1.3,31.6-4.6c1.8-16.4,3.6-32.9,2-49.3c-0.6-6.1-1.7-12.4-5.4-17.3
	c-3.5-4.6-8.9-7.4-14.5-8.7c-5.6-1.3-11.4-1.3-17.2-1.1c-36,1.4-71.4,9.4-107.3,12.5c-8.6,0.7-18.4,1.8-23.4,8.8
	c-2.7,3.7-3.5,8.5-3.6,13.1c-0.1,4.4,0.2,8.8,1.1,13c0.6,2.9,1.4,5.7,1.2,8.6c-0.1,2.9-1.4,6-4,7.3c-2,1.1-4.6,1-6.4,2.4
	c-2,1.6-2.2,4.6-2.2,7.1c0,4.6,0.4,9.2,1.1,13.8c0.4,2.7,1.2,5.7,3.6,7c1.4,0.7,3.1,0.6,4.8,0.5c11.8-0.9,23.6-1.7,35.4-2.6"/>
<path class="st1" d="M896.2,671.9c48.5-4.4,97.1-8.5,145.7-12.4"/>
<path class="st1" d="M1002.8,620.9c-0.1,12.9,0.4,25.8,1.4,38.6"/>
<path class="st1" d="M965.8,626.7c1.1,12,2.1,23.9,3.2,35.9"/>
<path class="st1" d="M929,632.4c0.8,11.2,1.8,22.5,3,33.7"/>
<path class="st1" d="M896.5,634.7c0.9,12.3,1.7,24.7,2.6,37c0.1,1.5,0.2,3-0.5,4.3c-1.2,2.3-4.1,2.8-6.7,3.1
	c-4.3,0.4-8.5,0.5-12.8,0.4c-0.3-0.3,0.3-0.7,0.7-0.6"/>
<path class="st1" d="M870.4,685.2c2.3,1.3,3.5,4.3,2.8,6.9c-0.6,2.3-2.6,4-4.6,5.1c-0.8,0.4-1.9,0.6-2.3-0.1"/>
<path class="st1" d="M863.6,684.8c-4.4-2.3-9.1-4.2-13.8-5.8"/>
<path class="st1" d="M859.3,687.5c-1.7,0-3.4,0-5,0c-1.8,0-3.9,0.1-4.9,1.6"/>
<path class="st1" d="M857,693.6c-4.1,1.4-7.8,3.9-10.7,7.2"/>
<path class="st1" d="M1048.2,672c-0.9-0.5-2.1-0.1-2.9,0.7c-0.7,0.7-1.1,1.8-1.3,2.8c-0.5,2.2-0.3,4.5,0.4,6.5
	c0.5,1.5,1.4,3,2.9,3.5"/>
<path class="st1" d="M893.9,543.8c35.2,4.5,70.9,5.1,106,10.9c46.9,7.8,92.2,25,132.4,50.3c10.4,6.6,21.2,14.6,24.7,26.4
	c5.8,19.7-12.2,39.3-31.7,45.5c-19.5,6.2-40.7,3.7-61,6.4"/>
<path class="st1" d="M832.3,702.3c-51,3.9-100.9,20.8-143.7,48.8c-9.3,6-19.2,14.5-18.7,25.5c0.5,13.3,15.2,20.8,27.9,24.9
	c48.4,15.6,99,22.9,149.1,32.1"/>
<path class="st1" d="M546,889c-1.6-52.2-3.5-104.3-5.6-156.5c-2.2,2.3-0.8,6.8,2.3,7.4"/>
<path class="st1" d="M552.7,830.1c19.2-0.6,38.4-3.6,56.9-8.8c-20.3,2.1-41.4-9-51.1-27c4.4,7,12.8,10.7,21.1,11.5
	c8.3,0.8,16.5-1,24.6-2.7c-19.4-0.9-38-12-47.9-28.7c8.3,0.5,16.6,0.9,24.9,1.4c-15.2-4.2-28.8-14-37.6-27.1
	c12.5,2.9,24.9,5.9,37.4,8.8c-17.2-7.4-36.4-17.2-40.8-35.4c6.5,0.9,12.5,4.9,15.7,10.7c-10.5-7.9-18.2-19.3-21.5-32
	c0.1,17-5.2,33.9-14.9,47.8c3.4-8.3,11.4-14.5,20.3-15.8c-6.2,14.6-17.6,26.8-31.7,34.1c4.6-8.1,14.2-13.1,23.5-12.2
	c-6.1,12.6-19.4,21.5-33.4,22.4c9.8-1.2,19.5-2.4,29.3-3.7c-7.8,12.1-20.3,21.1-34.3,24.5c12.7-1.7,25.4-3.5,38-5.2
	c-12.7,10.3-29.2,15.8-45.6,15.3c10.9-2.9,23-0.9,32.3,5.3c-13.6,6.6-28.2,10.9-43.2,12.7c9.5-0.3,18,5.7,27.3,7.2
	c11.6,1.9,23.4-3.2,32.2-11s15-18,21.2-28"/>
<path class="st1" d="M625.8,913.6c9.5-11,15.3-25.2,16.3-39.8c2.4-35.7-23.3-69.6-17.7-105c0.3-1.9,2.8-4.2,3.6-2.4
	c-0.9,0.8-2.5,0.5-3.1-0.5"/>
<path class="st1" d="M649.1,830.9c-5.7-4.3-4-14.9,2.7-17.3c2-0.7,4.1-0.8,6-1.7c3.7-1.9,4.8-6.6,5.6-10.7c1.4-8.1,2.8-16.8-1-24.1
	c-1.7-3.1-4.2-5.9-4.8-9.4c-0.9-5.5,3.2-10.3,6.1-15c5.6-9.4,6.4-21.4,2.2-31.5c-2-4.7-5.2-9.1-9.8-11.2c-7.4-3.3-16.3,0.5-21.8,6.4
	c-3.2,3.4-6.7,8-11.3,7.2c-2.2-0.4-4.4-2-6.5-1.2c-4.3,1.6-0.4,8.6-2.5,12.7c-2,4-8.1,3.1-11.7,5.6c-5.1,3.5-3.4,11.4-0.3,16.8
	c3.1,5.3,7.1,11.4,4.9,17.1c-1.3,3.4-4.5,5.7-5.9,9c-3.8,9.1,7.4,18.7,5.1,28.3c-0.7,3.1-2.9,6.4-1.4,9.3c0.7,1.4,2.1,2.2,3.4,3.2
	c5.2,3.8,8.8,9.9,9.6,16.3c1.6-2.7,5.6-3.8,8.4-2.2"/>
<path class="st1" d="M642.8,855.7c0.6,13,1.2,26,1.9,39.1c0.2,4.1,0.8,9,4.3,11.1c1.7,1,4.3,2.8,2.9,4.2"/>
<path class="st1" d="M575.5,916.6c-2.9-8.9-1.5-18.7,1.2-27.8c5-17.2,13.9-32.9,22.8-48.4c-15.9,19-24.4,44-23.3,68.7
	c-0.3-23.6-3.5-47.3-9.5-70.1c-4.3,4.4-3.9,11.4-3.2,17.5c1.9,16.3,3.9,32.5,5.8,48.8c-4.4-14.4-9.6-28.5-15.7-42.3
	c-2.7-6.2-6.3-13-12.8-15c6.8,20.9,16.2,41,27.9,59.6c-5.5-8.9-12.2-17.1-19.8-24.3c-4-3.9-9.7-7.7-14.8-5.5
	c6.9,15.7,23.8,23.9,39.4,30.9c-7.5-0.5-14.8-3.3-20.8-8c17.8,2.1,36.3-10,41.6-27.1c0.2,2.3,0.3,4.5,0.5,6.8"/>
<path class="st1" d="M471.2,890c-2.5-20.5-5-40.9-7.4-61.4c-1.1-8.8-2.1-17.7-0.2-26.4c1.4-6.4,4.5-12.4,6.2-18.8
	c4.3-15.8,0.2-32.6-4.9-48.2c-5.3-16.4-11.6-32.4-19-47.9"/>
<path class="st1" d="M463,820.4c-7.8-22.1-24.1-41.1-44.9-52"/>
<path class="st1" d="M470.9,750c-0.9-18.6,3.4-37.5,12.2-54c0.5,1.1-1.2,2.3-2.1,1.6"/>
<path class="st1" d="M476.8,699.3c0.4,0.5-0.7,0.9-1,0.4c-0.3-0.5,0-1.1,0.2-1.6c5.3-9.9,10.7-19.9,16-29.8c7,2.9,13.1,8,17.1,14.4
	c1.5,2.3,2.7,5.4,1.2,7.7c-1.5,2.4-5.3,3.1-5.7,5.9c-0.3,2.1,1.6,4.7,0,6c-0.6,0.5-1.5,0.5-2.3,0.5c-8-0.1-16.1-0.1-24.1-0.2
	c-0.4-3.7-0.9-7.4-1.3-11"/>
<path class="st1" d="M454.9,694.4c2.4-2.5,4.5-5.4,5.9-8.6c0.8-1.6,1.4-3.5,0.7-5.2c-0.4-1.1-1.4-1.9-2.3-2.5
	c-6.2-4.5-14.6-5.8-21.9-3.6c-1.3,0.4-2.6,0.9-3.3,2.1c-0.9,1.6-0.1,3.6-0.4,5.5c-0.5,3-3.9,4.7-6.9,5.1c-3.1,0.4-6.3,0.1-9.1,1.3
	c-6.4,2.8-7.3,11.5-6.5,18.4c0.8,7.4,3.5,16.2,10.7,18.2c6.4,1.8,12.7-2.8,17.8-7.1c3.4-2.8,7-6.4,6.5-10.8c-0.3-2.7-2.3-5.8-0.5-8
	c0.7-0.9,1.9-1.3,3-1.8c4.6-2,8.1-6.2,9.3-11"/>
<path class="st1" d="M394.9,743.3c-4.8,1.2-8.5,4.9-11.5,8.8c-4,5-7.4,11.6-6.9,17.7c0.2,2.1,0.8,4.1,2,5.9c2,3,5.2,5,8.2,6.8
	c3.1,1.9,6.2,3.7,9.3,5.6c1.7,1,3.5,2.1,5.5,2.6C427.6,798,430.3,734.9,394.9,743.3z"/>
<path class="st1" d="M473.2,730.6c-8.5,1.3-17.3,3.2-23.8,8.7c-2.1,1.8-4,4-4.5,6.7c-1.3,6.1,4.3,11.3,9.4,14.9
	c2.9,2,5.8,3.9,8.7,5.7c2.1,1.3,4.6,2.6,7,2c2.5-0.7,3.9-3.1,5.4-5.2c4.8-7.1,24.6-14.5,25.4-20.7
	C502.4,729.8,480.2,729.5,473.2,730.6z"/>
<path class="st1" d="M441.8,818.4c8.7,7.2,19.2,11.8,29.7,16.2c-14.2,2.5-29.6-3.2-38.7-14.4c6.8,15.5,23.5,23.8,38.9,30.7
	c-12.8-1-25.5-3.9-37.5-8.5c14.3,11.4,30.9,20,48.4,25.2c-12.2,4.3-26.2,3.8-38-1.6c15.2,5.4,29.9,12.1,44,19.9
	c-15.3,1.9-30.9,1.6-46.1-0.8c8.6,3.4,17.1,6.7,25.7,10.1c-2.3,2.5-6.1,2.7-9.5,2.6c-22.3-0.5-44.6-1.6-66.8-3.4
	c-6.7-0.5-14.6-1.9-17.4-8.1c13.4,2.4,27.8-3,36.3-13.6c-6,5.8-13.6,9.9-21.8,11.6c13.1-5.8,24.6-15.4,32.6-27.4
	c-10.3,4.8-22.6,5.1-33.1,0.8c4.2-4.7,10.8-6.3,16.7-8.6s12.1-6.6,12.5-12.9c-7.1,4.5-15.2,7.4-23.5,8.4
	c6.3-8.7,14.2-16.2,23.1-22.2c-4.4,3.9-10.4,5.9-16.3,5.5c14.5,1,19.5-24,23.9-31.6C431.2,802.6,434.1,812.1,441.8,818.4z"/>
<path class="st1" d="M780.9,869.3c-21.8,5.7-45.5,1.2-64.7-12.1c19.3,17.2,42.3,28.8,66.4,33.2c-25.5,2.9-51.4,2.2-76.8-1.9
	c23.8,11.3,49.3,17.9,75,19.5c-18.9,8.5-39,13.5-59.3,14.6c17.5-4.4,36-3.8,53.3,1.5c-14.9,8.6-31.2,14.1-47.9,16
	c7.2-2.9,15.2-2.7,22.3,0.6c-46.4,22.6-100,25-147.8,6.5c24.4-9,47.4-22.5,68.1-39.9c-13,12.6-32.4,18.2-47.1,8.7
	c18.6-2.3,36.5-12.1,49.8-27.4c-9.8,9-24.1,10.7-35.3,4.2c16.4-6.8,31.1-19.1,41.8-34.9c-10.4,8.7-24.2,17.6-35.2,10
	c-0.6-8.3,8.9-11.3,15.7-14.2c27.8-11.7,12.8-52.4,44.9-24.1C726.8,850,752.3,864.3,780.9,869.3z"/>
<path class="st1" d="M154.1,77.8c18.5,6.1,39.3,4.9,57-3.1c10.3-4.7,19.7-11.5,30.6-14.4c15.5-4.1,33.1,1,44,12.7
	c5.3,5.7,9.5,13.1,16.8,15.9c5.5,2.1,11.7,1.1,17.5,0.5c19-2.2,38.5-0.5,56.9,4.9c3,5.4,1,12.5-3.2,17.1s-10.1,7.1-15.9,9.2
	c-28.3,10-59.4,11.8-88.6,5.2c-9.2-2.1-18.2-4.9-27.5-6.2c-30.3-4.2-62.7,8.3-91-3.4c-4.9-2-9.8-5-12.3-9.7
	c-2.5-4.7-1.8-11.4,2.8-14.3c2.1-1.3,4.6-1.6,7.1-1.9c17.8-2.1,35.7-4.2,53.5-6.3"/>
<path class="st1" d="M529.8,83c13.7,1.9,31.5,1.5,36.5-11.3c1.6-4.1,1.4-8.7,2.3-13c2.7-13.4,17.2-23.2,30.7-20.7
	c13.4,2.5,23.5,16.9,21.2,30.4c5.8-3,11.6-5.9,17.4-8.9c6.5-3.3,13.1-6.7,20.3-7.6c7.2-1,15.2,0.8,19.9,6.4s4.5,15.2-1.6,19.3
	c6.8-1.6,13.8-3.3,20.8-2.5c7,0.8,14,4.6,16.7,11.1s-0.8,15.4-7.6,16.7c7.6,0.6,7.6,13,1.4,17.3c-6.2,4.3-14.5,3.6-22,4.6
	c-17.2,2.4-32.3,15-49.7,14.8c-13.8-0.1-26.3-8.3-39.9-10.6c-13.3-2.2-26.7,1.2-40.1,2.7c-13.4,1.6-28.2,0.7-38.3-8.2
	s-10.7-28.3,1.5-34c3.7-1.7,7.9-2,12-2.2c10.5-0.5,20.9-1.1,31.4-1.6"/>
<path class="st1" d="M993.3,69.7c3,0.3,5.6,2,8,3.7c1,0.7,2,1.4,2.6,2.5c1.3,2.8-1.5,5.7-4.2,7.1c-3.1,1.5-6.5,2.3-9.9,2.4
	c-1.2,0-2.5,0-3.3,0.8c-1.2,1.2-0.5,3.4,0.6,4.7c1.1,1.3,2.7,2.4,3.1,4.1c0.6,2.2-1.1,4.4-3.1,5.4s-4.4,0.9-6.6,0.8
	c-11.7-0.4-23.4-0.9-35.1-1.3c-12.3-0.4-24.6-0.9-37-1.5c-5-0.2-10.6-0.8-13.5-4.8c-0.5-0.6-0.8-1.4-0.8-2.2
	c0.1-0.9,0.8-1.7,1.5-2.3c3-2.6,7.8-3.5,10.4-6.4c2.9-3.2,2-8.3,5.6-10.7c5.8-3.9,19.2,1.2,26.3,0.4c8.1-0.9,15.6-3,23.9-2.7
	c5.8,0.2,11.4,2.4,17,2.5C983.8,72.2,988.4,69.3,993.3,69.7z"/>
<path class="st1" d="M804.6,858.2c43.9-17,92.9-10.8,139.9-8.9c71,2.8,144.2-4.8,211.4,18.4c15.5,5.4,30.9,12.7,41.3,25.4
	c10.4,12.7,14.3,31.7,5.6,45.6c-7.9,12.6-23.5,17.8-38,21.2c-27.8,6.5-56.3,10-84.8,11.6c-66.7,3.8-133.5-2.5-200-8.8
	c-8.8-0.8-17.7-1.7-26.2-4.3c-8.2-2.5-15.7-6.7-23.2-10.8c-10.7-5.9-21.3-11.7-32-17.6c-2.4-1.3-4.9-2.7-6.5-5
	c-2.7-3.9-2-9.1-1.8-13.8c0.4-11.2-3.3-22.5-10.2-31.4c10.6-17.8,31.6-28.9,52.4-27.7"/>
<g>
	<path class="st1" d="M959.9,900.2c2.5-2.5,6.4-3.5,9.9-2.7c-2,1.6-3.5,3.9-4,6.5c-0.1,0.4-0.1,0.9,0.1,1.3c0.2,0.3,0.5,0.5,0.8,0.7
		c2.3,1.4,4.6,2.7,7,4.1c1.3,0.8,2.6,1.5,4.1,1.9c1.1,0.3,2.2,0.4,3.3,0.6c2.8,0.8,4.9,2.9,7,5c-2-1.4-4.9-0.3-6.3,1.7
		c-1.3,2-1.5,4.6-1.5,7c-2.7-2-4.6-4.9-5.5-8.1c-0.2-0.7-0.3-1.4-0.9-1.8c-0.5-0.4-1.3-0.4-2-0.6c-1.2-0.3-2.2-1.3-3.4-1.8
		c-3-1.2-6.2,0.9-9.3,1.7c-3.7,1.1-7.7,0.4-11.4-0.3c-5.4-1-9.7-6.5-4.3-10.6C948.5,901.1,955.1,904.9,959.9,900.2z"/>
	<path class="st1" d="M947.9,909.3c0.3,0.1,0.4,0.6,0.2,0.8c-0.3,0.2-0.7,0-0.8-0.3c0.4-0.2,1,0.3,0.8,0.8c-0.3-0.8-0.7-1.7-1-2.5"
		/>
	<path class="st1" d="M952.2,913.8c-0.4,2.6,1.1,5.4,3.5,6.6c0.4-3.4,0.2-6.9-0.7-10.2"/>
</g>
<g>
	<path class="st1" d="M1007.6,895c1.8-1.7,4.6-2.4,7-1.8c-1.5,1.1-2.5,2.7-2.9,4.5c-0.1,0.3-0.1,0.6,0,0.9c0.1,0.2,0.4,0.4,0.6,0.5
		c1.6,1,3.2,2,4.8,3c0.9,0.6,1.8,1.1,2.8,1.4c0.8,0.2,1.6,0.3,2.3,0.5c2,0.6,3.4,2.1,4.8,3.6c-1.3-1-3.5-0.3-4.4,1.1
		c-1,1.4-1.1,3.2-1.2,4.9c-1.9-1.4-3.2-3.5-3.7-5.8c-0.1-0.5-0.2-1-0.6-1.3c-0.4-0.3-0.9-0.3-1.4-0.4c-0.9-0.2-1.5-0.9-2.3-1.3
		c-2.1-0.9-4.4,0.5-6.6,1.1c-2.6,0.7-5.4,0.1-8.1-0.4c-3.8-0.8-6.7-4.7-2.8-7.6C999.6,895.4,1004.1,898.2,1007.6,895z"/>
	<path class="st1" d="M999,901.2c0.2,0.1,0.3,0.4,0.1,0.6s-0.5,0-0.5-0.2c0.3-0.1,0.7,0.2,0.6,0.6c-0.2-0.6-0.4-1.2-0.7-1.8"/>
	<path class="st1" d="M1002,904.5c-0.3,1.8,0.7,3.8,2.3,4.7c0.4-2.4,0.3-4.9-0.3-7.2"/>
</g>
<g>
	<path class="st1" d="M1012.3,919.6c0.8-0.8,2.1-1.1,3.2-0.8c-0.7,0.5-1.1,1.2-1.3,2c0,0.1-0.1,0.3,0,0.4c0.1,0.1,0.2,0.2,0.3,0.2
		c0.7,0.4,1.5,0.9,2.2,1.3c0.4,0.2,0.8,0.5,1.3,0.6c0.3,0.1,0.7,0.1,1,0.2c0.9,0.3,1.6,0.9,2.2,1.6c-0.6-0.5-1.6-0.1-2,0.5
		s-0.5,1.4-0.5,2.2c-0.8-0.6-1.4-1.6-1.7-2.6c0-0.2-0.1-0.4-0.3-0.6c-0.2-0.1-0.4-0.1-0.6-0.2c-0.4-0.1-0.7-0.4-1.1-0.6
		c-0.9-0.4-2,0.2-3,0.5c-1.2,0.3-2.4,0.1-3.6-0.2c-1.7-0.3-3-2.1-1.3-3.3C1008.6,919.8,1010.7,921.1,1012.3,919.6z"/>
	<path class="st1" d="M1008.4,922.4c0.1,0,0.1,0.2,0.1,0.3s-0.2,0-0.2-0.1c0.1,0,0.3,0.1,0.3,0.2c-0.1-0.3-0.2-0.5-0.3-0.8"/>
	<path class="st1" d="M1009.7,923.8c-0.2,0.8,0.3,1.7,1.1,2.1c0.2-1.1,0.1-2.2-0.1-3.2"/>
</g>
</svg>
