<?xml version="1.0" encoding="utf-8"?>
<!-- Generator: Adobe Illustrator 24.0.2, SVG Export Plug-In . SVG Version: 6.00 Build 0)  -->
<svg version="1.1" id="Layer_1" xmlns="http://www.w3.org/2000/svg" xmlns:xlink="http://www.w3.org/1999/xlink" x="0px" y="0px"
	 viewBox="0 0 70.4 62" style="enable-background:new 0 0 70.4 62;" xml:space="preserve">
<g>
	<path d="M40.9,50.1c-0.7,0.2-1.4,0.4-2.1,0.6c-0.7,0.2-1.4,0.3-2.1,0.4c-1.4,0.2-2.9,0.3-4.4,0.3c-1.5-0.1-3-0.3-4.4-0.9
		c-0.7-0.3-1.4-0.6-2-1c-0.6-0.4-1.2-0.9-1.7-1.5c1.4,0.6,2.7,1,4,1.2c1.4,0.3,2.7,0.4,4.1,0.5c1.4,0.1,2.8,0.1,4.2,0.1
		c0.7,0,1.4,0,2.2,0c0.4,0,0.7,0,1.1,0.1C40.2,50,40.5,50,40.9,50.1z"/>
	<path d="M19.6,43.7c-0.2-0.3-0.3-0.7-0.5-1.1c-0.1-0.4-0.2-0.7-0.3-1.1c-0.2-0.8-0.3-1.5-0.5-2.3c-0.2-0.8-0.3-1.5-0.5-2.2
		c-0.2-0.7-0.4-1.5-0.6-2.2c-0.1-0.4-0.3-0.7-0.4-1c0-0.1-0.1-0.2-0.1-0.2l-0.1-0.1l-0.1-0.1c-0.1-0.2-0.2-0.4-0.3-0.5
		c-0.3-0.7-0.6-1.5-0.8-2.2c-0.4-1.5-0.7-3-1.1-4.5c-0.3-1.5-0.6-3-0.8-4.6c-0.1-0.8-0.2-1.5-0.3-2.3c-0.1-0.8-0.2-1.5-0.3-2.3
		l0-0.6c0-0.2,0-0.4-0.1-0.6c0-0.4-0.1-0.7-0.2-1.1c-0.1-0.7-0.3-1.5-0.5-2.2c-0.2-0.7-0.4-1.4-0.7-2.1c-0.3-0.7-0.6-1.4-1-2
		C10.4,8,10.2,7.7,10,7.5C9.7,7.2,9.5,6.9,9.3,6.7L9.1,6.6L8.9,6.5C8.7,6.4,8.6,6.3,8.4,6.3C8.1,6.1,7.8,6,7.5,6
		c-0.6-0.1-1.3,0-1.9,0.2C5.2,6.3,4.8,6.4,4.4,6.5C4.3,6.6,4,6.7,3.8,6.7c-0.2,0-0.5,0.1-0.8,0.1c-0.3,0-0.6-0.1-0.8-0.2
		C2,6.5,1.8,6.4,1.5,6.1C1.4,6,1.3,5.8,1.2,5.6C1.1,5.4,1.1,5.2,1.1,5c0-0.2,0.1-0.4,0.1-0.5c0.1-0.1,0.1-0.3,0.2-0.4
		c0.3-0.4,0.6-0.8,0.8-1.1C2.4,3,2.5,2.8,2.6,2.7l0.2-0.2C2.9,2.4,3,2.4,3,2.3C3.4,2,3.7,1.7,4.1,1.4C4.6,1.2,5,1.1,5.5,1
		C5.8,1,6,1,6.3,1c0.1,0,0.2,0,0.4,0c0.1,0,0.2,0,0.3,0.1c0.4,0.1,0.9,0.3,1.2,0.5C8.6,1.8,8.9,2,9.2,2.2l1,0.6
		c0.3,0.2,0.7,0.4,1,0.7c0.3,0.2,0.7,0.5,1,0.8c0.3,0.3,0.6,0.6,0.9,0.9c0.3,0.3,0.5,0.6,0.8,1c0.5,0.7,0.9,1.4,1.2,2.1
		c0.3,0.7,0.6,1.5,0.9,2.2c0.2,0.8,0.5,1.5,0.6,2.3c0.1,0.4,0.2,0.8,0.3,1.1l0.1,0.6l0.1,0.6c0.1,0.4,0.1,0.8,0.2,1.2l0.2,1.1
		c0.3,1.5,0.6,3,0.9,4.5c0.2,0.7,0.4,1.5,0.6,2.2c0.2,0.7,0.5,1.4,0.8,2c0.2,0.3,0.3,0.6,0.5,0.9c0.2,0.3,0.4,0.5,0.6,0.7
		c0.1,0.1,0.2,0.2,0.4,0.3l0.5,0.3c0.2,0.1,0.4,0.2,0.6,0.4c0,0,0,0,0,0l0,0l0,0c0,0,0,0,0,0l0,0l0.1,0.1l0.1,0.1
		c0.3,0.1,0.6,0.3,1,0.4c0.3,0.1,0.7,0.2,1.1,0.4c0.7,0.2,1.4,0.5,2.2,0.7c1.5,0.4,2.9,0.9,4.4,1.3c0.7,0.2,1.5,0.5,2.2,0.7
		c0.4,0.1,0.7,0.3,1.1,0.4c0.2,0.1,0.4,0.2,0.6,0.2l0.3,0.1l0.3,0.1c1.4,0.7,2.8,1.6,4,2.5c1.3,0.9,2.5,1.9,3.7,2.9
		c1.2,1,2.4,2.1,3.4,3.2l0.4,0.4c0.1,0.1,0.3,0.3,0.4,0.5l0.7,0.9c0.2,0.3,0.5,0.6,0.7,0.8c0.1,0.1,0.3,0.3,0.4,0.4l0.2,0.2l0.2,0.2
		l0.4,0.4l0.4,0.4c0.1,0.1,0.1,0.1,0.2,0.2l0.2,0.2l0.4,0.4l0.4,0.3c0.1,0.1,0.1,0.1,0.2,0.2l0.2,0.2l0.4,0.3l0.5,0.3
		c1.2,0.8,2.6,1.5,3.9,2.2c0.3,0.2,0.7,0.3,1,0.4c0.3,0.1,0.7,0.3,1,0.4c0.7,0.3,1.3,0.4,2,0.5c0.1,0,0.2,0,0.3,0c0.1,0,0.2,0,0.3,0
		c0.2,0,0.3,0,0.5,0c0.2,0,0.3,0,0.5-0.1c0.2,0,0.3-0.1,0.5-0.1c0.7-0.2,1.3-0.5,1.7-0.9c0.2-0.2,0.4-0.4,0.6-0.7
		c0.1-0.3,0.2-0.5,0.2-0.8c0-0.3-0.1-0.5-0.2-0.7c-0.1-0.2-0.4-0.5-0.7-0.8c-0.3-0.3-0.5-0.6-0.8-1c-0.1-0.1-0.1-0.2-0.2-0.3
		c-0.1-0.1-0.1-0.2-0.2-0.3c0-0.1-0.1-0.2-0.1-0.3c0-0.1-0.1-0.2-0.1-0.3c-0.1-0.5-0.1-0.9,0-1.3c0-0.4,0.1-0.8,0.2-1.2l0.8-4.5
		l0.4,4.5c0,0.3,0.1,0.7,0.1,1c0,0.3,0.1,0.6,0.2,0.9c0.1,0.3,0.2,0.5,0.4,0.8c0.2,0.2,0.4,0.5,0.6,0.7c0.2,0.2,0.5,0.5,0.7,0.7
		c0.3,0.3,0.5,0.6,0.7,1c0.2,0.4,0.3,0.8,0.3,1.2c0,0.4,0,0.8-0.1,1.2c-0.2,0.8-0.7,1.4-1.3,1.9c-0.6,0.5-1.3,0.9-2,1.1
		c-0.2,0.1-0.4,0.1-0.5,0.2l-0.3,0.1l-0.3,0.1c-0.4,0.1-0.7,0.1-1.1,0.2c-0.7,0.1-1.4,0-2.2,0c-1.4-0.2-2.8-0.5-4.1-1
		c-1.3-0.5-2.6-1.1-3.8-1.7c-0.6-0.3-1.3-0.6-1.9-0.8c-0.6-0.3-1.3-0.5-2-0.7c-0.7-0.2-1.4-0.3-2-0.2c-0.3,0-0.7,0.1-1,0.1
		c-0.3,0.1-0.7,0.1-1,0.2c0.3-0.1,0.7-0.2,1-0.3c0.3-0.1,0.7-0.2,1-0.2c0.7-0.1,1.4,0,2.1,0.1c1.4,0.3,2.7,0.8,4,1.3
		c1.3,0.5,2.6,1.1,3.9,1.5c1.3,0.4,2.6,0.8,4,0.8c0.7,0,1.3,0,2,0c0.3,0,0.7-0.1,1-0.2l0.2-0.1l0.2-0.1c0.2,0,0.3-0.1,0.5-0.2
		c0.6-0.2,1.2-0.6,1.6-1c0.4-0.4,0.8-1,0.9-1.5c0.2-0.6,0.1-1.2-0.1-1.7c-0.1-0.3-0.3-0.5-0.5-0.7c-0.3-0.2-0.5-0.5-0.8-0.7
		c-0.3-0.2-0.5-0.5-0.8-0.8c-0.2-0.3-0.4-0.7-0.6-1.1c-0.1-0.4-0.2-0.7-0.2-1.1c-0.1-0.4-0.1-0.7-0.1-1.1l1.2,0.1
		c-0.1,0.7-0.2,1.5-0.1,2.1c0.1,0.3,0.2,0.5,0.4,0.8c0.2,0.3,0.4,0.5,0.7,0.8c0.1,0.1,0.3,0.3,0.4,0.4l0.1,0.1l0,0l0,0l0.1,0.1
		l0.1,0.1c0,0,0.1,0.1,0.1,0.2c0.3,0.4,0.5,0.9,0.5,1.5c0,0.5-0.1,1-0.4,1.4c-0.2,0.4-0.5,0.8-0.9,1.1c-0.3,0.3-0.7,0.6-1.1,0.8
		c-0.4,0.2-0.8,0.4-1.2,0.5c-0.2,0.1-0.4,0.1-0.6,0.2c-0.2,0-0.4,0.1-0.6,0.1c-0.2,0-0.4,0-0.6,0c-0.1,0-0.2,0-0.3,0
		c-0.1,0-0.2,0-0.3,0c-0.8-0.1-1.7-0.2-2.5-0.5c-0.4-0.1-0.7-0.3-1.1-0.4c-0.4-0.1-0.7-0.3-1.1-0.5c-1.4-0.6-2.9-1.4-4.2-2.2L52,49
		l-0.5-0.3l-0.2-0.2c-0.1-0.1-0.2-0.1-0.2-0.2L50.6,48c-0.2-0.1-0.3-0.3-0.5-0.4l-0.2-0.2c-0.1-0.1-0.1-0.1-0.2-0.2l-0.4-0.4
		l-0.4-0.4l-0.2-0.2L48.4,46c-0.1-0.1-0.3-0.3-0.4-0.4c-0.3-0.3-0.5-0.6-0.8-0.9l-0.4-0.5l-0.4-0.4c-0.1-0.1-0.2-0.3-0.4-0.4
		l-0.4-0.4c-1-1.1-2.1-2.1-3.3-3.1c-1.2-1-2.4-1.9-3.6-2.7c-1.2-0.9-2.5-1.7-3.8-2.3l-0.2-0.1l-0.2-0.1c-0.2-0.1-0.3-0.1-0.5-0.2
		c-0.3-0.1-0.7-0.3-1-0.4c-0.7-0.3-1.4-0.5-2.2-0.7c-1.5-0.5-2.9-0.9-4.4-1.3c-0.7-0.2-1.5-0.4-2.2-0.7c-0.4-0.1-0.7-0.3-1.1-0.4
		c-0.4-0.1-0.8-0.3-1.2-0.5l-0.2-0.1c-0.1,0-0.1-0.1-0.2-0.1l-0.1-0.1c0,0-0.1,0-0.1-0.1L21.3,30l-0.1-0.1c-0.1-0.1-0.2-0.2-0.3-0.2
		l-0.5-0.3c-0.2-0.1-0.4-0.2-0.6-0.4c-0.4-0.3-0.7-0.7-1-1c-0.3-0.4-0.5-0.7-0.7-1.1c-0.4-0.8-0.7-1.5-0.9-2.3
		c-0.2-0.8-0.4-1.5-0.6-2.3c-0.4-1.5-0.7-3.1-0.9-4.6l-0.2-1.1c-0.1-0.4-0.1-0.7-0.2-1.1l-0.1-0.6l-0.1-0.6
		c-0.1-0.4-0.2-0.7-0.2-1.1c-0.2-0.7-0.4-1.5-0.6-2.2C14,10.4,13.8,9.7,13.5,9c-0.3-0.7-0.6-1.3-1-1.9c-0.2-0.3-0.4-0.6-0.6-0.8
		c-0.2-0.3-0.5-0.5-0.7-0.8c-0.3-0.2-0.5-0.5-0.8-0.7C10,4.6,9.7,4.4,9.3,4.2l-1-0.6C8,3.4,7.7,3.2,7.4,3.1C6.9,2.7,6.2,2.6,5.7,2.6
		c-0.6,0-1.1,0.3-1.5,0.8C4.1,3.5,4,3.5,3.9,3.6L3.7,3.8C3.6,3.9,3.4,4.1,3.3,4.2C3.1,4.4,2.8,4.7,2.7,4.9C2.6,5,2.6,5.1,2.6,5.1
		c0,0,0,0,0,0c0,0,0,0,0,0c0,0,0.1,0.1,0.2,0.1c0.1,0,0.2,0.1,0.3,0.1c0.2,0,0.5,0,0.9-0.2C4.3,5,4.7,4.9,5.1,4.8
		c0.4-0.1,0.8-0.2,1.3-0.2c0.4,0,0.9,0,1.3,0.1C8.1,4.7,8.6,4.8,9,5l0.1,0.1l0.1,0l0.1,0c0.1,0.1,0.2,0.1,0.3,0.2l0.3,0.2
		c0.1,0.1,0.2,0.1,0.3,0.2C10.4,6,10.7,6.3,11,6.6c0.3,0.3,0.5,0.7,0.7,1c0.4,0.7,0.7,1.4,1,2.2c0.3,0.7,0.5,1.5,0.7,2.3
		c0.2,0.8,0.3,1.5,0.5,2.3c0.1,0.4,0.1,0.8,0.1,1.2c0,0.2,0,0.4,0,0.6l0,0.6c0,0.7,0.1,1.5,0.2,2.3c0.1,0.8,0.2,1.5,0.3,2.3
		c0.2,1.5,0.4,3,0.7,4.6c0.3,1.5,0.5,3,0.9,4.5c0.2,0.7,0.4,1.5,0.7,2.2l0.1,0.3c0,0.1,0.1,0.2,0.1,0.2l0,0.1l0,0.1l0.1,0.1
		c0.1,0.1,0.1,0.2,0.1,0.3c0.2,0.4,0.3,0.7,0.4,1.1c0.2,0.7,0.4,1.5,0.5,2.3c0.1,0.8,0.3,1.5,0.4,2.3c0.1,0.8,0.2,1.5,0.4,2.3
		c0.1,0.4,0.1,0.8,0.2,1.1C19.3,43,19.4,43.4,19.6,43.7z"/>
	<path d="M41.5,45.9c0.1,0.7,0.3,1.3,0.5,1.9c0.2,0.6,0.4,1.2,0.7,1.8c0.3,0.6,0.5,1.2,0.8,1.7c0.3,0.5,0.6,1.1,1,1.5
		c0.1,0.1,0.2,0.2,0.3,0.3l0,0l0,0l0.1,0.1l0.2,0.2c0.1,0.1,0.2,0.3,0.4,0.4l0.3,0.5c0.4,0.6,0.8,1.3,1.1,1.9c0.3,0.7,0.6,1.3,0.8,2
		c0.1,0.4,0.2,0.7,0.3,1.1l0.1,0.3c0,0.1,0,0.2,0.1,0.3c0,0.2,0.1,0.4,0.1,0.6h-4.1c0-0.1,0-0.2,0-0.3c0-0.1,0-0.1,0-0.2l0-0.2
		c0-0.3,0-0.6,0-0.8c0-0.6-0.1-1.2-0.2-1.8c-0.1-0.6-0.3-1.2-0.5-1.7l-0.2-0.4c-0.1-0.1-0.1-0.3-0.2-0.4l-0.1-0.2l0-0.1
		c0,0,0,0,0-0.1l0-0.1c-0.1-0.2-0.2-0.4-0.3-0.5c-0.3-0.7-0.5-1.4-0.7-2c-0.2-0.7-0.3-1.3-0.4-2c-0.1-0.7-0.2-1.3-0.2-2
		C41.4,47.3,41.4,46.6,41.5,45.9z"/>
	<path d="M37.7,51.3c0.2,0.3,0.4,0.7,0.5,1.1c0.1,0.4,0.2,0.8,0.3,1.2c0.1,0.8,0.2,1.7,0.2,2.5c0.1,0.8,0.1,1.6,0.2,2.4
		c0.1,0.8,0.2,1.5,0.3,2.2h-4.1c0.2-0.9,0.4-1.8,0.7-2.6c0.3-0.8,0.6-1.6,0.9-2.3c0.3-0.7,0.6-1.5,0.8-2.2c0.1-0.4,0.2-0.8,0.3-1.1
		C37.8,52.1,37.8,51.7,37.7,51.3z"/>
	<path d="M28.3,50.2c0.2,0.9,0.3,1.8,0.5,2.7c0.1,0.5,0.1,0.9,0.2,1.4c0,0.2,0,0.5,0,0.7c0,0.1,0,0.3,0,0.4l0,0.3
		c-0.1,0.9-0.1,1.7,0,2.6c0,0.8,0.2,1.6,0.3,2.4h-4.1c0.2-1,0.4-2,0.8-2.9c0.3-0.9,0.7-1.8,1.1-2.6l0.1-0.2l0.1-0.1
		c0-0.1,0.1-0.2,0.1-0.3c0.1-0.2,0.2-0.4,0.2-0.6c0.1-0.4,0.2-0.8,0.3-1.3C28,52,28.1,51.1,28.3,50.2z"/>
	<path d="M23,38c0.3,1.9,0.5,3.8,0.5,5.8c0,1,0,2,0,2.9c0,1-0.1,2-0.3,3l-0.1,0.8c0,0.1,0,0.3-0.1,0.4L23,51.2
		c-0.1,0.3-0.1,0.5-0.2,0.8l-0.2,0.7c-0.3,0.9-0.4,1.7-0.5,2.6C22,56.2,22,57,22,57.9c0,0.4,0.1,0.9,0.1,1.3c0,0.5,0.1,0.9,0.2,1.5
		h-4.1c0-0.4,0.1-0.9,0.1-1.4c0-0.5,0.1-1,0.1-1.5c0.1-1,0.3-2.1,0.6-3.1c0.3-1,0.7-2,1.2-2.9l0.3-0.6c0.1-0.2,0.2-0.4,0.3-0.6
		l0.1-0.3c0-0.1,0.1-0.2,0.1-0.3l0.2-0.6c0.3-0.9,0.5-1.8,0.7-2.7c0.2-0.9,0.4-1.9,0.5-2.8C22.8,41.8,23,39.9,23,38z"/>
</g>
</svg>
