<?xml version="1.0" encoding="utf-8"?>
<!-- Generator: Adobe Illustrator 24.0.2, SVG Export Plug-In . SVG Version: 6.00 Build 0)  -->
<svg version="1.1" id="Layer_1" xmlns="http://www.w3.org/2000/svg" xmlns:xlink="http://www.w3.org/1999/xlink" x="0px" y="0px"
	 viewBox="0 0 94 62" style="enable-background:new 0 0 94 62;" xml:space="preserve">
<g>
	<path d="M16.6,1.2C13.3,1.4,9.9,1.4,6.6,1.8C5,2.1,3.2,2.4,2,3.3C1.7,3.5,1.4,3.8,1.3,4.1C1.2,4.5,1.1,4.9,1.1,5.2
		c0,0.7,0.4,1.3,1.1,1.6c0.7,0.3,1.5,0.5,2.3,0.8L7,8.4c1.6,0.5,3.2,1.1,4.8,2.1c1.5,1,2.8,2.4,3.6,4c0.8,1.5,1.5,3.1,2.3,4.5
		c0.4,0.7,0.8,1.2,1.3,1.8c0.5,0.5,1.1,1.1,1.8,1.6l2,1.6c0.3,0.3,0.7,0.6,1,0.9c0.2,0.2,0.3,0.4,0.5,0.6c0.2,0.2,0.4,0.5,0.6,1
		l0.4,2.7c0.1,0.9,0.2,1.7,0.3,2.7c0,0.5,0,1-0.1,1.5l-0.1,0.5c0,0.2-0.1,0.4-0.2,0.5c-0.1,0.2-0.3,0.5-0.4,0.7l-0.1,0.1l-0.1,0.1
		l-0.1,0.1c-0.6,0.6-1.1,1.2-1.6,1.8c-0.9,1.2-1.8,2.6-1.6,3.2c0.2,1.2,0.8,2.7,1.6,3.8c0.4,0.5,0.8,0.9,1.2,1c0.1,0,0.2,0,0.2,0.1
		c0,0,0.1,0,0.1,0l0.1,0l0.1,0c0.4,0,0.8,0,1.2,0c0.4,0,0.7,0,1-0.1c0.3,0,0.4-0.1,0.2,0c0,0-0.1,0.1-0.1,0.1c0,0.1,0,0.1-0.1,0.1
		c0,0,0,0,0,0c0,0,0,0,0-0.1c0-0.1-0.1-0.4-0.2-0.7l3.5-0.6c0,0.7-0.3,1.4-0.8,2c-0.3,0.3-0.7,0.5-1.1,0.6c-0.5,0.1-1.1,0.1-1.5-0.1
		c-0.5-0.2-0.8-0.6-1-0.9c-0.2-0.3-0.3-0.6-0.4-0.8c-0.1-0.5-0.2-0.9-0.2-1.2l1.8,1.8c0,0,0.2,0,0.2,0c0,0,0,0.1-0.7,0.3
		c-0.3,0.1-0.9,0.2-1.3,0.1c-0.4-0.1-0.6-0.2-0.8-0.4c-0.2-0.1-0.3-0.2-0.4-0.3l-0.3-0.2c-0.4-0.4-1.1-1-1.7-1.5
		c-0.3-0.3-0.6-0.6-1-1c-0.1-0.1-0.2-0.2-0.2-0.3c-0.1-0.1-0.2-0.2-0.2-0.4c-0.1-0.2-0.2-0.3-0.2-0.5c-0.1-0.2-0.1-0.4-0.2-0.7
		c0-0.3,0-0.6,0.1-1c0.1-0.3,0.3-0.6,0.5-0.8c0.2-0.2,0.3-0.3,0.5-0.5c0.1,0,0.1-0.1,0.2-0.2c0.1-0.1,0.2-0.1,0.3-0.2
		c0.2-0.1,0.6-0.3,1.1-0.3c0.4,0,0.8,0.1,1,0.2c0.1,0.1,0.2,0.1,0.3,0.2c0.1,0.1,0.2,0.1,0.2,0.2c0.5,0.4,0.7,0.7,1,1l0.4,0.4
		l0.2,0.2c0.1,0.1,0.1,0.1,0.1,0.1c0.3,0.3,0.7,0.5,1.2,0.6c0.5,0.1,1.1,0,1.5-0.2c0.2-0.1,0.4-0.2,0.5-0.3c0.1-0.1,0.1-0.1,0.1-0.1
		l1.4,1.4l-0.4,0c-0.2,0-0.4,0-0.8-0.2c-0.2-0.1-0.5-0.3-0.6-0.5c-0.2-0.2-0.3-0.4-0.3-0.6c-0.1-0.3-0.1-0.5-0.1-0.7
		c0-0.3,0-0.6,0-0.8l0-0.7l2.3,1c-0.2,0.2-0.5,0.5-0.8,0.7c-0.3,0.2-0.7,0.5-1.3,0.7c-0.3,0.1-0.8,0.1-1.1,0
		c-0.4-0.1-0.7-0.3-0.9-0.5c-0.4-0.4-0.7-0.8-0.8-1.1c-0.2-0.3-0.4-0.8-0.4-1.5c0-0.3,0.1-0.7,0.2-1c0.2-0.3,0.4-0.6,0.7-0.8
		c0.5-0.3,0.9-0.5,1.3-0.6c0.4-0.1,0.8-0.1,1.2-0.1l-0.7,0.2c0.7-0.4,1.3-0.8,2-1.2c0.3-0.2,0.7-0.4,1.1-0.5
		c0.4-0.2,0.7-0.3,1.4-0.4c0.2,0,0.2,0,0.4,0c0.1,0,0.5,0,0.8,0.3c0.1,0.1,0.1,0.1,0.2,0.2l0.1,0.1c0.1,0.1,0.1,0.2,0.1,0.2l0.1,0.3
		c0.1,0.3,0.3,0.6,0.5,0.9c0.3,0.6,0.7,1.2,1.1,1.8c1.6,2.4,3.5,4.6,5.3,7c0.9,1.2,1.7,2.4,2.4,3.9c0.3,0.7,0.6,1.5,0.6,2.4
		c0,0.8-0.1,1.5-0.2,2.3c-0.1,0.4-0.2,0.8-0.4,1.2c-0.2,0.4-0.3,0.8-0.9,1.2c-0.3,0.2-0.8,0.2-1.1,0c-0.3-0.2-0.5-0.4-0.6-0.4
		c-0.2-0.1-0.5-0.3-0.7-0.3c-1.2-0.3-2.6,0.2-3.1,1.2l-0.5-0.9c0.4,0,0.9-0.1,1.3-0.2c0.2,0,0.5-0.1,0.8-0.1c0.3,0,0.6,0,1,0.2
		c0.2,0.1,0.4,0.3,0.5,0.5c0.1,0.1,0.1,0.3,0.1,0.4c0,0.1,0,0.2,0,0.3c-0.1,0.4-0.2,0.6-0.3,0.9c-0.3,0.5-0.7,0.9-1.1,1.2
		c-0.8,0.7-1.6,1.2-2.4,1.8c-0.4,0.3-0.8,0.6-1.1,0.8c-0.2,0.1-0.3,0.3-0.4,0.4c0,0,0,0.1,0,0c0-0.1,0-0.2-0.1-0.2l-0.2-0.1
		c0.8,0.3,1.9,0.5,2.9,0.5c1,0.1,2.1,0.1,3.1,0.1c0.5,0,1,0,1.5-0.1c0.5-0.1,1-0.1,1.4-0.3c0.1,0,0.1-0.1,0,0c0,0,0,0.1-0.1,0.2
		c0,0.1,0,0.3,0,0.2c0-0.1,0-0.2,0-0.3c0.1-0.4,0.2-0.7,0.4-1.1c0.4-0.6,0.9-1.1,1.7-1.3c0.2-0.1,0.4-0.1,0.6-0.1c0.2,0,0.4,0,0.5,0
		l0.8,0c0.5,0,1,0,1.6,0c1,0,2-0.1,2.9-0.3c0.4-0.1,0.8-0.3,1-0.5c0,0,0.1-0.1,0.1-0.1c0,0,0-0.1,0.1-0.1c0,0,0-0.1,0-0.2
		c0,0,0,0,0-0.1l0-0.2c0-1.2,0.2-2.3,0.4-3.3c0.2-1.1,0.3-2.1,0.5-3.1c0.1-1,0.3-2.1,0.2-2.9c0-0.2-0.1-0.4-0.1-0.6
		c-0.1-0.1-0.1-0.2-0.2-0.4c-0.2-0.3-0.4-0.6-0.8-0.8c-0.3-0.3-0.8-0.6-1.4-1.1c-0.6-0.5-1-1.6-1-2.3c0-0.1,0-0.1,0-0.1l0,0
		c0,0,0,0,0,0c0,0,0-0.1,0-0.1c-0.1-0.1-0.1-0.2-0.3-0.4c-0.3-0.3-0.6-0.6-1-0.9c-0.8-0.6-1.7-1.3-2.6-2.2c-0.4-0.5-1-1.1-1.1-2.4
		c0-0.3,0-0.5,0.1-0.8c0.1-0.2,0.2-0.5,0.3-0.7c0.2-0.4,0.5-0.8,0.8-1c0.6-0.5,1.1-0.9,1.6-1.2c0.5-0.3,1.1-0.5,1.6-0.8l1.5-0.6
		c0.5-0.2,0.8-0.4,1.4-0.7c1-0.5,2-0.9,3-1.4c2-0.9,4-1.7,6-2.5c4.1-1.5,8.3-2.8,12.8-3.2c2.3-0.2,4.5-0.2,6.8,0.1
		c1.2,0.1,2.3,0.3,3.6,0.8c0.6,0.2,1.3,0.5,1.9,1c0.6,0.5,1.3,1.2,1.7,2.2c0.4,0.9,0.3,1.9,0.2,2.7c-0.2,0.8-0.4,1.4-0.7,2
		c-0.6,1.2-1.3,2.1-2.1,3c-1.5,1.8-3.1,3.3-4.8,4.7l-2-3.7c1.7-0.5,3.5-1.6,5.1-2.8c1.6-1.2,3-2.8,3.7-4.3c0.4-0.8,0.6-1.5,0.5-2.1
		c0-0.6-0.3-1.1-0.8-1.7c-0.5-0.5-1.3-1-2.1-1.4c-0.8-0.4-1.8-0.7-2.9-1c-2-0.6-4.1-1-6.3-1.3c-2.1-0.3-4.3-0.5-6.5-0.6
		c-4.4-0.2-8.8-0.2-13.4-0.4c-2.3-0.2-4.6-0.3-7-1.1c-2.1-0.7-4.2-1.4-6.4-2c-2.1-0.6-4.3-1.1-6.4-1.4c-2.2-0.3-4.4-0.6-6.4-0.2
		c-1.1,0.1-2,0.5-3,0.9l-0.8,0.4c-0.3,0.1-0.6,0.2-0.8,0.3c-0.6,0.2-1.2,0.3-1.9,0.1c-0.7-0.2-1.2-0.8-1.5-1.4
		c-0.2-0.6-0.3-1.2-0.4-1.8c-0.1-1.2,0-2.3,0-3.4C22.8,8.2,22.9,5.9,22,4c-0.4-1-1.2-1.8-2.2-2.3C18.8,1.2,17.7,1.2,16.6,1.2z
		 M16.6,0.8c1.1,0,2.3,0,3.4,0.5c1.1,0.5,1.9,1.4,2.4,2.4c1,2.1,1,4.5,1,6.7c0,1.1,0,2.2,0.1,3.3c0.1,1,0.4,2.2,1.3,2.3
		c0.8,0.1,1.9-0.4,2.8-1c1-0.6,2.2-1.1,3.3-1.3c2.3-0.5,4.6-0.4,6.9-0.2c2.3,0.2,4.5,0.6,6.7,1c2.2,0.5,4.4,1,6.6,1.5
		c1.9,0.5,4.1,0.5,6.3,0.5c8.8-0.1,18-1,27.2,1.5c1.1,0.3,2.3,0.6,3.5,1.1c1.2,0.5,2.4,1.2,3.4,2.3c1,1.1,1.9,2.7,2,4.3
		c0.1,1.6-0.3,3.1-0.9,4.3c-1.2,2.4-3,4.2-4.9,5.8c-1.9,1.5-4,2.8-6.6,3.6l-9.7,3l7.7-6.6c1.6-1.3,3.1-2.7,4.4-4.2
		c0.6-0.7,1.2-1.5,1.6-2.2c0.4-0.7,0.5-1.3,0.4-1.4c0-0.1-0.4-0.5-1.2-0.8c-0.8-0.3-1.7-0.5-2.7-0.6c-1.9-0.2-4.1-0.3-6-0.2
		c-4,0.3-8,1.5-12,2.8c-2,0.7-3.9,1.4-5.9,2.2c-1,0.4-1.9,0.8-2.9,1.2c-0.4,0.2-1,0.5-1.5,0.7l-1.5,0.6c-0.9,0.4-1.9,0.8-2.3,1.2
		c-0.2,0.2-0.2,0.3-0.2,0.2c0-0.2,0,0.1,0.3,0.4c0.5,0.6,1.4,1.3,2.2,2c0.4,0.4,0.9,0.8,1.3,1.3c0.2,0.2,0.4,0.6,0.6,0.9
		c0.1,0.2,0.2,0.4,0.3,0.7c0,0.1,0,0.3,0.1,0.4l0,0.3c0,0.3,0,0.3,0.2,0.6c0.2,0.2,0.6,0.5,1.1,0.9c0.5,0.4,1,0.9,1.3,1.6
		c0.2,0.3,0.3,0.7,0.4,1.1c0.1,0.4,0.1,0.7,0.1,1c0,1.3-0.2,2.4-0.4,3.4c-0.2,1.1-0.4,2.1-0.6,3.2c-0.2,1-0.4,2.1-0.5,3l0,0.2l0,0.3
		c0,0.2-0.1,0.4-0.1,0.6c-0.1,0.2-0.2,0.4-0.3,0.6c-0.1,0.2-0.3,0.3-0.4,0.5c-0.6,0.5-1.3,0.7-1.9,0.9c-1.2,0.3-2.3,0.3-3.4,0.2
		c-0.6,0-1.1-0.1-1.6-0.1c-0.5,0-1.2-0.1-1.3-0.1c-0.3,0.1-0.6,0.3-0.8,0.6c-0.1,0.1-0.2,0.3-0.2,0.4c0,0,0,0.1,0,0.1
		c0-0.1,0,0.2-0.1,0.3c-0.1,0.2-0.1,0.2-0.2,0.3c-0.3,0.3-0.5,0.3-0.7,0.4c-0.7,0.2-1.2,0.3-1.8,0.3c-0.6,0-1.1,0.1-1.7,0.1
		c-1.1,0-2.2,0-3.3-0.1c-0.5-0.1-1.1-0.1-1.6-0.2c-0.6-0.1-1.1-0.2-1.7-0.5l-0.1,0L34.4,61c-0.2-0.2-0.3-0.5-0.3-0.8
		c0-0.3,0.1-0.5,0.2-0.6c0.2-0.3,0.4-0.5,0.6-0.7c0.4-0.3,0.8-0.6,1.2-0.9c0.8-0.6,1.6-1.1,2.3-1.7c0.3-0.3,0.6-0.6,0.8-0.9
		c0.1-0.1,0.2-0.4,0.2-0.4c0,0,0,0,0,0c0,0,0,0,0,0c0,0,0.1,0.1,0,0.1c-0.1-0.1-0.7-0.1-1.1,0c-0.5,0.1-0.9,0.2-1.5,0.2l-1,0
		l0.5-0.9c0.4-0.8,1.1-1.4,1.9-1.7c0.8-0.3,1.7-0.4,2.5-0.2c0.4,0.1,0.9,0.2,1.3,0.5c0.2,0.2,0.3,0.3,0.3,0.3c0,0-0.1,0,0,0
		c0.1,0,0.3-0.3,0.4-0.6c0.1-0.3,0.2-0.6,0.3-0.9c0.1-0.7,0.2-1.4,0.2-2.1c0-0.6-0.2-1.2-0.5-1.8c-0.6-1.2-1.5-2.4-2.4-3.5
		c-1.8-2.3-3.8-4.4-5.6-6.8c-0.4-0.6-0.9-1.2-1.3-1.9c-0.2-0.3-0.4-0.7-0.6-1l-0.1-0.2c0,0,0-0.1,0,0c0,0,0,0,0,0
		c0,0,0.1,0.1,0.1,0.1c0.2,0.2,0.4,0.1,0.3,0.1c0,0-0.2,0-0.2,0c0,0-0.4,0.1-0.6,0.3c-0.3,0.1-0.6,0.3-0.9,0.5
		c-0.6,0.4-1.2,0.8-1.8,1.1l-0.3,0.2l-0.4,0c-0.4,0-1,0.2-1,0.3c0,0.1,0.1-0.2,0.1-0.2c0,0,0,0.1,0.1,0.3c0.1,0.2,0.2,0.3,0.3,0.4
		c0,0,0,0-0.1-0.1c-0.1,0-0.2,0-0.2,0c-0.1,0,0.1-0.1,0.3-0.2c0.2-0.2,0.4-0.4,0.6-0.6l2.3-2.4l0.1,3.4c0,0.4,0,0.9,0.1,1.2
		c0,0,0,0.1,0,0c0,0-0.1-0.2-0.2-0.3c-0.1-0.1-0.2-0.2-0.4-0.3c-0.2-0.1-0.2-0.1-0.2-0.1l0.3,0l1.4,0l0,1.5c0,0.8-0.3,1.5-0.8,2
		c-0.4,0.5-0.9,0.8-1.4,1.1c-1,0.4-2,0.6-3.1,0.5c-1-0.1-2.1-0.5-3-1.2l-0.3-0.3l-0.2-0.2L23.2,41c-0.3-0.2-0.6-0.5-0.7-0.6
		c0-0.1,0,0.1,0.5,0.1c0.1,0,0.2,0,0.3,0c0.1,0,0.2-0.1,0.2-0.1c0.1,0,0.1,0,0.1,0c0,0,0,0,0,0l-0.3,0.3c0.1-0.1,0.2-0.2,0.2-0.3
		c0.1-0.2,0.1-0.3,0.1-0.4c-0.1-0.4,0-0.1,0.2,0c0.2,0.2,0.4,0.4,0.7,0.7c0.5,0.5,1.1,0.9,1.8,1.5l0.2,0.2c0,0,0,0,0,0
		c0,0-0.1-0.1-0.3-0.1c-0.2-0.1-0.6,0-0.7,0c-0.3,0.1,0,0,0.3-0.2c0.4-0.2,0.9-0.3,1.3-0.3l1.7,0l0.1,1.8c0,0.1,0,0.3,0,0.2
		c0,0,0-0.1-0.1-0.1c-0.1-0.1-0.2-0.3-0.5-0.4c-0.3-0.1-0.6-0.1-0.8-0.1c-0.2,0-0.4,0.2-0.5,0.3c-0.2,0.2-0.3,0.4-0.3,0.6l3.5-0.6
		c0.1,0.5,0.3,1,0.3,1.7c0,0.2,0,0.4,0,0.6c0,0.2,0,0.4-0.1,0.7c-0.1,0.4-0.4,1-0.8,1.3c-0.8,0.7-1.5,0.8-2,0.9
		c-0.6,0.1-1.1,0.1-1.5,0.1c-0.5,0-0.9,0-1.3,0l-0.2,0l-0.3,0l-0.5-0.1c-0.3-0.1-0.7-0.2-1-0.3c-1.2-0.5-2-1.4-2.6-2.2
		c-0.6-0.8-1.1-1.7-1.4-2.6c-0.4-0.9-0.6-1.8-0.8-2.9c0-0.3-0.1-0.6,0-0.9c0-0.4,0.1-0.7,0.2-1c0.2-0.6,0.4-1.1,0.7-1.5
		c0.5-0.9,1.1-1.6,1.7-2.3c0.6-0.7,1.2-1.3,1.8-1.9l0.1-0.1l0.1-0.1c0,0,0,0,0,0c-0.1,0-0.1,0.2-0.1,0.1c0,0,0,0,0,0l0-0.2
		c0-0.3,0.1-0.6,0.1-1c0-0.7,0-1.5-0.1-2.4l-0.1-1.2l-0.1-0.7l0-0.4l0-0.1c0,0,0-0.1,0,0c0,0.1,0,0.1,0,0.2c0,0.1,0,0-0.1-0.1
		c-0.1-0.1-0.2-0.2-0.3-0.4c-0.2-0.3-0.5-0.5-0.8-0.8l-1.8-1.7c-0.6-0.6-1.3-1.2-1.9-1.9c-0.6-0.7-1.1-1.5-1.5-2.4
		c-0.7-1.6-1.3-3.1-2-4.6c-0.7-1.4-1.6-2.7-2.9-3.6c-1.3-0.9-2.8-1.6-4.3-2.2L4.2,8.6c-0.8-0.3-1.6-0.5-2.4-1C1.4,7.4,1,7.1,0.7,6.7
		c-0.3-0.4-0.4-1-0.3-1.4c0-0.5,0.1-0.9,0.3-1.3C0.8,3.4,1.2,3,1.6,2.7c1.6-1,3.3-1.2,5-1.4C9.9,0.9,13.3,1,16.6,0.8z"/>
</g>
</svg>
