<?xml version="1.0" encoding="utf-8"?>
<!-- Generator: Adobe Illustrator 24.0.2, SVG Export Plug-In . SVG Version: 6.00 Build 0)  -->
<svg version="1.1" id="Layer_1" xmlns="http://www.w3.org/2000/svg" xmlns:xlink="http://www.w3.org/1999/xlink" x="0px" y="0px"
	 viewBox="0 0 94 62" style="enable-background:new 0 0 94 62;" xml:space="preserve">
<style type="text/css">
	.st0{fill:#212121;}
</style>
<g>
	<path class="st0" d="M93.6,43.6c-1.6,0.3-3.3,0.5-5,0.5c-1.7,0-3.3-0.1-5-0.4c-1.7-0.3-3.3-0.8-5-1.6s-3.1-1.6-4.5-2.6
		c-0.2-0.1-0.4-0.2-0.5-0.4l-0.5-0.4c-0.4-0.3-0.7-0.5-1-0.8c-0.3-0.3-0.7-0.5-1-0.8l-0.5-0.4l-0.2-0.2c-0.1-0.1-0.2-0.2-0.2-0.2
		c-0.3-0.3-0.6-0.6-0.9-0.9c-0.3-0.3-0.6-0.6-0.9-0.9l-0.4-0.5l-0.4-0.5l-0.4-0.5l-0.4-0.5c-1.1-1.3-2.1-2.5-3.1-3.8l-1.5-1.9
		l-0.7-1L61,25.2c-0.1-0.1-0.2-0.3-0.4-0.4l-0.4-0.4c-0.1-0.1-0.1-0.1-0.2-0.2L59.9,24l-0.4-0.4c-0.1-0.1-0.1-0.1-0.2-0.2l-0.2-0.2
		l-0.4-0.4c-0.1-0.1-0.2-0.2-0.4-0.4l-0.4-0.2c-0.1-0.1-0.3-0.2-0.4-0.3c-1.1-0.8-2.2-1.5-3.5-2l-0.4-0.2l-0.2-0.1
		c-0.1,0-0.1,0-0.1-0.1l-0.1-0.1c-0.2-0.1-0.3-0.1-0.5-0.1c-0.1,0-0.2-0.1-0.2-0.1l-0.2-0.1l-0.5-0.1c-0.1,0-0.2-0.1-0.2-0.1
		l-0.2-0.1c-0.2,0-0.4-0.1-0.5-0.1l-0.5-0.1c-1.4-0.1-2.8-0.1-4.2,0.1L45,19.4l-1.1,0.2l-1.1,0.3c-0.4,0.1-0.7,0.2-1.1,0.3
		c-1.4,0.4-2.9,1-4.4,1.6s-2.9,1.3-4.3,2c-1.4,0.7-2.9,1.5-4.3,2.3c1.1-1.3,2.2-2.4,3.4-3.6c1.2-1.1,2.5-2.2,3.9-3.2
		c1.4-1,2.8-1.9,4.4-2.6c1.6-0.8,3.2-1.4,4.8-1.9c1.7-0.5,3.5-0.8,5.4-0.8s3.8,0.3,5.6,0.8l0.7,0.2l0.4,0.1l0.2,0.1l0.2,0.1l0.7,0.3
		l0.3,0.1l0.3,0.2l0.6,0.4l0.2,0.1c0.1,0.1,0.1,0.1,0.2,0.1l0.3,0.2l0.6,0.4c0.2,0.1,0.4,0.3,0.6,0.4c0.2,0.1,0.4,0.3,0.5,0.4
		l0.5,0.4c0.2,0.2,0.4,0.3,0.5,0.5l0.5,0.5l0.2,0.2c0.1,0.1,0.2,0.2,0.2,0.2l0.5,0.5l0.2,0.2c0.1,0.1,0.2,0.2,0.2,0.2l0.4,0.5
		c0.1,0.2,0.3,0.4,0.4,0.5l0.4,0.5c0.2,0.3,0.5,0.7,0.8,1l0.7,1c0.2,0.3,0.5,0.7,0.7,1c1,1.3,1.9,2.6,2.9,3.8l0.4,0.5l0.4,0.5
		l0.4,0.5l0.4,0.5c0.2,0.3,0.5,0.6,0.7,0.9c0.2,0.3,0.5,0.6,0.7,0.9c1,1.2,2,2.3,3.1,3.3c1.1,1,2.3,2,3.5,2.8c1.3,0.8,2.6,1.6,4,2.1
		c1.4,0.6,2.9,1.1,4.4,1.6C90.4,42.9,92,43.3,93.6,43.6z"/>
	<path class="st0" d="M51.7,23.1c0.7,1.7,1.6,3.3,2.6,4.8c1,1.5,2.2,2.9,3.5,4.1c1.3,1.3,2.7,2.3,4.2,3.2c1.5,0.9,3,1.6,4.6,2
		l1.2,0.3l0.1,1.6c0.1,0.8,0.2,1.6,0.2,2.4l0.2,2.4l0.2,2.4c0.1,0.8,0.2,1.7,0.2,2.5h-5.7c0.1-0.8,0.1-1.6,0.2-2.4l0.2-2.4l0.2-2.4
		c0.1-0.8,0.1-1.7,0.2-2.5l1.3,1.9c-1.9-0.8-3.6-2-5.1-3.3c-1.5-1.3-2.7-2.7-3.9-4.3c-1.1-1.6-2.1-3.2-2.9-4.9
		C52.8,26.7,52.2,24.9,51.7,23.1z"/>
	<path class="st0" d="M34.2,32.6c0.1,0.1,0.2,0.2,0.4,0.4l0.2,0.2l0.1,0.1c0,0.1,0.1,0.1,0.1,0.1c0.1,0.1,0.2,0.3,0.3,0.4
		c0.1,0.2,0.2,0.3,0.3,0.5c0.2,0.3,0.3,0.7,0.5,1l0.2,0.5l0.1,0.1l0.1,0.1l0.1,0.2c0.4,1.4,0.7,2.8,1,4.2c0.3,1.4,0.5,2.8,0.8,4.2
		l0.4,2.1l0.4,2.1h-5.7l0.4-2.1l0.4-2.1c0.2-1.4,0.4-2.7,0.7-4.1c0.2-1.4,0.4-2.7,0.4-4.1v-0.2V36v-0.1v-0.5c0-0.4-0.1-0.7-0.1-1
		c0-0.2-0.1-0.4-0.1-0.5c-0.1-0.2-0.1-0.3-0.1-0.5c0-0.1,0-0.1-0.1-0.1l-0.1-0.1L34.4,33C34.3,32.9,34.2,32.8,34.2,32.6z"/>
	<path class="st0" d="M30,36.6c0.6,1.9,1.1,3.7,1.6,5.6c0.5,1.9,0.9,3.8,1.3,5.7h-4.8c0.4-1.9,0.8-3.7,1.1-5.6
		C29.5,40.4,29.8,38.5,30,36.6z"/>
	<path class="st0" d="M59,35.9c0.7,2,1.2,3.9,1.7,5.9c0.5,2,1,4,1.5,6l-5.7-0.1c0.5-2,1-3.9,1.4-5.9C58.3,39.9,58.7,37.9,59,35.9z"
		/>
	<path class="st0" d="M36.9,38.1c0.9-0.1,1.7-0.1,2.6-0.1c0.4,0,0.8,0,1.3,0c0.4,0,0.8,0,1.3,0c0.8,0,1.7,0,2.4-0.1
		c0.4,0,0.8-0.1,1.2-0.1l0.6-0.1l0.6-0.1c0.2,0,0.4-0.1,0.6-0.1l0.6-0.1c0.2,0,0.4-0.1,0.6-0.1l0.6-0.1c0.2-0.1,0.4-0.1,0.6-0.2
		c0.2-0.1,0.4-0.1,0.6-0.2l0.6-0.2c0.2-0.1,0.4-0.1,0.6-0.2c1.6-0.5,3.2-1,4.9-1.4c-0.7,0.5-1.4,1-2.1,1.5c-0.4,0.2-0.7,0.4-1.1,0.7
		c-0.2,0.1-0.4,0.2-0.5,0.3c-0.2,0.1-0.4,0.2-0.6,0.3c-0.4,0.2-0.8,0.4-1.2,0.5c-0.2,0.1-0.4,0.2-0.6,0.2c-0.2,0.1-0.4,0.2-0.6,0.2
		s-0.4,0.1-0.7,0.2l-0.3,0.1c-0.1,0-0.1,0.1-0.2,0.1l-0.2,0.1c-0.4,0.1-0.9,0.2-1.3,0.2l-0.7,0.1l-0.7,0.1c-0.4,0.1-0.9,0-1.3,0
		h-0.4h-0.3l-0.8-0.1c-0.2,0-0.4-0.1-0.7-0.1l-0.7-0.1c-0.1,0-0.2-0.1-0.3-0.1l-0.3-0.1c-0.2-0.1-0.4-0.1-0.7-0.1l-0.3-0.1
		c-0.1,0-0.2-0.1-0.3-0.1l-0.6-0.2c-0.2-0.1-0.4-0.1-0.6-0.2c-0.2-0.1-0.4-0.1-0.6-0.2C37.7,38.5,37.2,38.3,36.9,38.1z"/>
	<path class="st0" d="M28,27.8c0.1,0.6,0.3,1.3,0.4,1.9c0.1,0.3,0.1,0.7,0.1,1c0.1,0.3,0.1,0.7,0.1,1s0,0.7,0,1c0,0.2,0,0.4-0.1,0.5
		c0,0.2-0.1,0.4-0.1,0.5c-0.1,0.2-0.1,0.4-0.1,0.5l-0.1,0.3l-0.1,0.1v0.2C28.1,34.8,28,35,28,35.1c-0.1,0.2-0.1,0.3-0.2,0.5
		l-0.1,0.2c-0.1,0.1-0.1,0.2-0.1,0.2l-0.1,0.2c-0.1,0.1-0.1,0.1-0.2,0.2L27,36.8c-0.1,0.1-0.1,0.1-0.2,0.2c-0.1,0.1-0.2,0.2-0.4,0.4
		c-0.5,0.5-1.1,0.9-1.7,1.3c-0.1,0.1-0.3,0.2-0.5,0.2C24.2,38.8,24,39,23.9,39l-0.5,0.1c-0.2,0.1-0.3,0.1-0.5,0.2
		c-0.3,0.1-0.7,0.2-1,0.3c-0.2,0.1-0.3,0.1-0.5,0.1L21,39.8l0.4-0.2c0.1,0,0.1-0.1,0.1-0.1l0,0l0,0l0,0l0,0c0,0,0,0,0,0.1
		c-0.1,0.1-0.1,0.2-0.1,0.2c-0.1,0.2-0.2,0.4-0.3,0.6c-0.1,0.2-0.2,0.4-0.4,0.6c-0.1,0.2-0.2,0.4-0.4,0.6c-0.6,0.8-1.4,1.4-2.2,1.9
		c-0.1,0.1-0.2,0.1-0.3,0.1c-0.1,0.1-0.2,0.1-0.4,0.1l-0.4,0.1c-0.1,0-0.2,0-0.4,0c-0.1,0-0.2,0.1-0.4,0.1S16.1,44,16,44
		c-0.2,0-0.5,0.1-0.7,0.1c-0.9,0-1.8-0.1-2.6-0.4c0.8-0.1,1.7-0.2,2.5-0.4c0.4-0.1,0.8-0.2,1.1-0.4c0.4-0.2,0.7-0.4,1-0.5
		c0.3-0.2,0.6-0.5,0.8-0.7c0.2-0.3,0.5-0.6,0.7-0.9c0.2-0.3,0.4-0.7,0.5-1c0.1-0.2,0.2-0.4,0.2-0.6c0.1-0.1,0.1-0.2,0.1-0.4
		c0,0,0.1-0.1,0.1-0.1v-0.1l0,0v-0.1c0.1-0.1,0.1-0.1,0.1-0.1c0.1-0.1,0.1-0.1,0.2-0.2l0.1-0.1l0.2-0.1c0.6-0.1,1.1-0.3,1.7-0.5
		c0.5-0.2,1.1-0.4,1.6-0.7c1-0.5,1.9-1.2,2.4-2.1c0.1-0.1,0.1-0.2,0.2-0.4c0.1-0.1,0.1-0.2,0.2-0.4c0.1-0.2,0.2-0.5,0.4-0.8
		c0.2-0.5,0.4-1.1,0.4-1.7c0.1-0.6,0.2-1.2,0.2-1.9C27.8,29.1,27.9,28.5,28,27.8z"/>
	<path class="st0" d="M9.6,41.9c0.2-0.3,0.5-0.6,0.7-0.9c0.2-0.3,0.5-0.5,0.9-0.8c0.3-0.2,0.7-0.5,1-0.6c0.2-0.1,0.4-0.2,0.7-0.2
		c0.1,0,0.2-0.1,0.4,0c0.1,0,0.3,0.1,0.4,0.1c0.1,0.1,0.3,0.2,0.4,0.3c0.1,0.1,0.2,0.2,0.2,0.4s0.1,0.3,0.1,0.4s0,0.2-0.1,0.4
		c-0.1,0.2-0.1,0.4-0.2,0.6c-0.1,0.2-0.2,0.4-0.3,0.5c-0.2,0.3-0.4,0.6-0.6,1c-0.2,0.3-0.4,0.7-0.5,1c-0.1-0.4,0-0.8,0.1-1.2
		c0.1-0.4,0.2-0.7,0.4-1.1c0.1-0.2,0.1-0.4,0.2-0.5c0.1-0.2,0.1-0.3,0.1-0.5c0-0.1,0-0.1,0-0.2c0-0.1,0-0.1-0.1-0.1
		c0-0.1-0.1-0.1-0.1-0.1s-0.1,0-0.1-0.1c0,0-0.1,0-0.1,0c-0.1,0-0.1,0-0.2,0c-0.1,0-0.3,0.1-0.4,0.1c-0.3,0.1-0.7,0.2-1,0.4
		l-0.9,0.4C10.3,41.6,10,41.8,9.6,41.9z"/>
	<g>
		<path class="st0" d="M9.4,42.2C8,40,7.7,37.8,8.6,36l0.8,0.4c-1,2-0.1,3.9,0.7,5.3L9.4,42.2z"/>
	</g>
	<path class="st0" d="M2.6,35.8c0.6,0,1.2,0,1.7,0c0.6,0,1.1-0.1,1.6-0.2c0.5-0.1,1-0.4,1.6-0.5c0.5-0.2,1-0.5,1.5-0.7l0.7,2.1
		c-0.6,0.1-1.2,0.2-1.8,0.2s-1.3,0.1-1.9,0.1c-0.2,0-0.3,0-0.5-0.1c-0.2,0-0.3-0.1-0.5-0.1c-0.3-0.1-0.6-0.1-0.9-0.2
		C3.7,36.2,3.1,36,2.6,35.8z"/>
	<path class="st0" d="M0.2,30.2c0.2,0.1,0.4,0.1,0.5,0.1s0.4,0.1,0.5,0.1c0.4,0,0.7,0.1,1,0.1c0.7,0,1.4,0,2,0
		c1.4-0.1,2.7-0.2,4-0.4c0.3-0.1,0.7-0.1,1-0.2l0.5-0.1l0.5-0.1c0.7-0.2,1.3-0.4,1.9-0.6c1.2-0.4,2.3-1,3.4-1.7
		c1-0.7,1.9-1.6,2.7-2.6c0.4-0.5,0.7-1,1-1.6l0.2-0.4c0.1-0.1,0.1-0.3,0.2-0.4c0.1-0.1,0.1-0.3,0.2-0.4c0.1-0.2,0.1-0.3,0.2-0.5
		c0.2-0.6,0.4-1.3,0.6-1.9l0.1-0.5l0.1-0.2l0.1-0.2l0.1-0.5c0.1-0.2,0.1-0.4,0.1-0.5c0.1-0.2,0.1-0.4,0.1-0.5c0-0.2,0.1-0.4,0.1-0.5
		l0.1-0.2l0.1-0.2l0.1-0.5l0.1-1c0.1-0.4,0.1-0.7,0.1-1c0.1,0.4,0.1,0.7,0.2,1c0.1,0.4,0.1,0.7,0.2,1c0.1,0.7,0.1,1.4,0.1,2.1
		c0,0.7-0.1,1.4-0.1,2.1c0,0.2-0.1,0.4-0.1,0.5l-0.1,0.1l-0.1,0.2c-0.1,0.2-0.1,0.4-0.1,0.5c-0.1,0.2-0.1,0.4-0.1,0.5
		c-0.4,1.4-1,2.8-1.8,4c-0.8,1.3-1.9,2.3-3.1,3.2c-1.2,0.8-2.6,1.5-4,1.9c-0.7,0.2-1.4,0.4-2.1,0.5c-0.2,0-0.4,0.1-0.5,0.1
		c-0.2,0-0.4,0.1-0.5,0.1c-0.4,0.1-0.7,0.1-1.1,0.1c-1.4,0.1-2.9,0-4.2-0.2c-0.7-0.1-1.4-0.2-2-0.5c-0.4-0.1-0.7-0.2-1-0.4
		c-0.2-0.1-0.3-0.1-0.5-0.2C0.5,30.4,0.3,30.3,0.2,30.2z"/>
	<path class="st0" d="M2.9,25.7c0.7,0.6,1.4,1.1,2.1,1.5c0.8,0.4,1.6,0.8,2.3,1.1c0.8,0.3,1.6,0.5,2.4,0.7c0.8,0.1,1.6,0.1,2.3-0.1
		l0.2,2.2c-1.1,0-2-0.2-2.9-0.5c-0.9-0.4-1.7-0.8-2.5-1.3c-0.8-0.5-1.5-1.1-2.1-1.7C4.1,27,3.4,26.3,2.9,25.7z"/>
	<path class="st0" d="M22,13.5c0.2,0.1,0.4,0.2,0.5,0.4c0.1,0.1,0.1,0.2,0.2,0.3s0.1,0.2,0.1,0.3c0,0.1,0,0.1,0.1,0.1
		c-0.1,0.1-0.1,0.1-0.1,0.1v-0.1v-0.1h0.1h0.1H23l0.2-0.1c0.2-0.1,0.4-0.1,0.6-0.1c0.1,0,0.2,0,0.4,0s0.4,0.1,0.5,0.2
		c0.1,0.1,0.2,0.1,0.3,0.2c0.1,0.1,0.1,0.1,0.1,0.1c0,0,0,0.1,0.1,0.1c0,0.1,0.1,0.1,0.1,0.1c0.1,0.1,0.1,0.2,0.1,0.4
		c0,0.1,0,0.1,0,0.1v0.1c0,0.1,0,0.2,0,0.4c0,0.1,0,0.2,0,0.3c0,0.2,0,0.4,0,0.5c0,0.1,0,0.1,0,0.2c0,0.1,0,0.1,0,0l0,0l0,0
		c0,0,0,0,0-0.1c0,0,0-0.1-0.1-0.1c0,0,0-0.1-0.1-0.1c-0.1-0.1-0.1-0.1-0.1-0.1s0.2,0,0.3,0.1c0.2,0,0.4,0.1,0.7,0.1
		c0.1,0.1,0.3,0.1,0.5,0.2c0.2,0.1,0.4,0.3,0.5,0.5c0.1,0.1,0.1,0.1,0.1,0.2c0,0.1,0.1,0.1,0.1,0.2c0,0.1,0,0.1,0.1,0.2
		c0,0.1,0,0.1,0,0.2c0,0.2,0,0.4,0,0.5c-0.1,0.3-0.1,0.5-0.2,0.7C27.1,19.8,27,20,27,20c0,0.1,0,0.1,0,0.1s0-0.1-0.1-0.2v-0.1l0,0
		l0,0l0,0c0,0,0,0-0.1-0.1l0,0l0,0l0,0l0,0l0,0c0.1,0.1,0.2,0.1,0.4,0.2c0.2,0.1,0.4,0.2,0.7,0.5c0.1,0.1,0.1,0.1,0.1,0.1
		c0.1,0.1,0.1,0.1,0.1,0.1s0.1,0.2,0.2,0.2l0.1,0.1c0,0.1,0,0.1,0.1,0.1c0,0.1,0.1,0.1,0.1,0.2c0,0.1,0,0.1,0,0.2c0,0.1,0,0.1,0,0.2
		c0,0.2-0.1,0.4-0.2,0.6c-0.1,0.1-0.1,0.2-0.2,0.4c-0.1,0.2-0.2,0.3-0.4,0.4c-0.1,0.1-0.1,0.1-0.1,0.1c0,0,0,0-0.1,0
		c0,0,0-0.1,0-0.1s-0.1-0.1-0.1-0.1c-0.1-0.1-0.1,0-0.1,0s0.1,0.1,0.1,0.1c0.1,0.1,0.1,0.1,0.2,0.1c0.2,0.1,0.4,0.2,0.6,0.4
		c0.1,0.1,0.2,0.2,0.3,0.4c0.1,0.2,0.1,0.3,0.1,0.5c0,0.1,0,0.1-0.1,0.2c0,0.1,0,0.1,0,0.1v0.1c0,0.1-0.1,0.1-0.1,0.1
		c0,0.1-0.1,0.1-0.1,0.1c-0.1,0.2-0.2,0.4-0.4,0.5c-0.2,0.1-0.4,0.2-0.5,0.3c0.1-0.1,0.2-0.3,0.2-0.5c0.1-0.2,0.1-0.3,0.1-0.5
		c0-0.1,0-0.1,0-0.1c0-0.1,0-0.1,0-0.1v-0.1v-0.1v-0.1c0-0.1-0.1-0.1-0.1-0.1H28c-0.1,0-0.2-0.1-0.4-0.1c-0.1,0-0.2-0.1-0.3-0.1
		c-0.1-0.1-0.2-0.1-0.4-0.2c-0.1-0.1-0.3-0.2-0.4-0.4c-0.1-0.1-0.1-0.2-0.2-0.3c-0.1-0.1-0.1-0.2-0.1-0.4c0-0.2,0.1-0.4,0.1-0.5
		c0.1-0.1,0.1-0.2,0.1-0.4c0.1-0.2,0.2-0.4,0.2-0.5c0-0.1,0.1-0.1,0.1-0.1s0,0,0,0.1v0.1v0.1v0.1c0,0,0,0,0,0.1l0,0v0.1l0,0l0,0
		c0,0-0.1,0-0.2-0.1c-0.1-0.1-0.3-0.1-0.6-0.2l-0.2-0.4l-0.1-0.1c-0.1-0.1-0.1-0.1-0.2-0.2c-0.2-0.1-0.3-0.3-0.5-0.6
		c-0.1-0.1-0.1-0.3-0.1-0.4c0-0.1,0-0.2,0-0.4c0-0.2,0.1-0.4,0.1-0.5c0.1-0.2,0.1-0.4,0.2-0.6c0.1-0.1,0.1-0.2,0.1-0.2l0,0l0,0l0,0
		v0.1c0,0,0,0.1,0.1,0.1c0.1,0.1,0.1,0.2,0.2,0.2c0.1,0,0.1,0,0,0c-0.1,0-0.2-0.1-0.4-0.1c-0.2-0.1-0.4-0.1-0.7-0.2
		c-0.2-0.1-0.4-0.2-0.5-0.4c-0.1-0.1-0.1-0.1-0.1-0.2c-0.1-0.1-0.1-0.1-0.1-0.2c-0.1-0.1-0.1-0.1-0.1-0.2v-0.1v-0.1
		c-0.1-0.2-0.1-0.4-0.1-0.5c0-0.1,0-0.3,0.1-0.4c0.1-0.2,0.1-0.4,0.1-0.6l0.1-0.4l0,0l0,0c0,0,0,0,0.1,0.1v0.1l0,0l0,0l0.1,0.1
		c0.1,0,0.1,0,0.1,0c-0.1,0-0.1-0.1-0.2-0.1c-0.1-0.1-0.4-0.1-0.5-0.1l-0.3-0.1h-0.1c-0.1,0-0.1,0-0.1,0c-0.1,0-0.1-0.1-0.2-0.1
		c-0.1,0-0.2-0.1-0.2-0.2C22.1,15.1,22,15,22,14.8s0-0.2,0-0.2c0-0.1,0-0.1,0-0.2c0.2-0.1,0.2-0.3,0.2-0.4
		C22.2,13.8,22.1,13.7,22,13.5z"/>
	<path class="st0" d="M30,28.7c0.2,0.2,0.3,0.4,0.4,0.5c0.1,0.2,0.2,0.4,0.3,0.6c0.2,0.4,0.4,0.8,0.5,1.3c0.2,0.8,0.4,1.7,0.3,2.6
		s-0.2,1.9-0.7,2.7c-0.2,0.4-0.5,0.8-0.9,1.2c-0.4,0.4-0.8,0.6-1.3,0.8l-0.4-1.3c0.4,0,0.7,0.1,1.1,0.1c0.4,0.1,0.7,0.1,1.1,0.2
		c0.4,0.1,0.7,0.2,1.1,0.3c0.4,0.1,0.7,0.3,1,0.5c-0.4,0-0.7,0-1.1,0s-0.7,0-1,0.1c-0.4,0-0.7,0.1-1,0.1l-1,0.1l-2.7,0.3l2.4-1.6
		c0.6-0.4,1.1-0.9,1.4-1.6c0.3-0.6,0.5-1.4,0.6-2.1c0.1-0.8,0.2-1.6,0.1-2.4c0-0.4,0-0.8-0.1-1.3C30.1,29.5,30.1,29.1,30,28.7z"/>
</g>
</svg>
