<?xml version="1.0" encoding="utf-8"?>
<!-- Generator: Adobe Illustrator 24.0.2, SVG Export Plug-In . SVG Version: 6.00 Build 0)  -->
<svg version="1.1" id="Layer_1" xmlns="http://www.w3.org/2000/svg" xmlns:xlink="http://www.w3.org/1999/xlink" x="0px" y="0px"
	 viewBox="0 0 158.5 62" style="enable-background:new 0 0 158.5 62;" xml:space="preserve">
<style type="text/css">
	.st0{fill:#212121;}
</style>
<g>
	<path class="st0" d="M157.6,51.5c-2.7,0.5-5.5,0.8-8.3,0.8c-2.8,0-5.6-0.2-8.4-0.7c-2.8-0.5-5.6-1.4-8.3-2.6
		c-2.7-1.2-5.2-2.7-7.6-4.4c-0.3-0.2-0.6-0.4-0.9-0.6l-0.9-0.7c-0.6-0.5-1.1-0.9-1.7-1.4c-0.5-0.5-1.1-0.9-1.6-1.4l-0.8-0.7
		l-0.4-0.4c-0.1-0.1-0.3-0.3-0.4-0.4c-0.5-0.5-1-1-1.5-1.5c-0.5-0.5-1-1-1.5-1.5l-0.7-0.8l-0.7-0.8l-0.7-0.8l-0.7-0.8
		c-1.8-2.1-3.5-4.2-5.2-6.4l-2.5-3.2l-1.2-1.6l-0.6-0.8c-0.2-0.2-0.4-0.5-0.6-0.7l-0.6-0.7c-0.1-0.1-0.2-0.2-0.3-0.3l-0.3-0.3
		l-0.6-0.7c-0.1-0.1-0.2-0.2-0.3-0.3l-0.3-0.3l-0.6-0.6c-0.2-0.2-0.4-0.4-0.6-0.6L98.2,16c-0.2-0.2-0.5-0.3-0.7-0.5
		c-1.8-1.4-3.7-2.5-5.8-3.4L91,11.8l-0.4-0.1c-0.1,0-0.1,0-0.2-0.1l-0.2-0.1c-0.3-0.1-0.5-0.2-0.8-0.2c-0.1,0-0.3-0.1-0.4-0.1
		l-0.4-0.1l-0.8-0.2c-0.1,0-0.3-0.1-0.4-0.1l-0.4-0.1c-0.3,0-0.6-0.1-0.8-0.1l-0.9-0.1c-2.3-0.2-4.7-0.1-7.1,0.2L76.2,11l-1.8,0.4
		l-1.8,0.5c-0.6,0.2-1.2,0.3-1.8,0.5c-2.4,0.7-4.9,1.7-7.3,2.7c-2.4,1-4.8,2.2-7.2,3.4c-2.4,1.2-4.8,2.5-7.2,3.8
		c1.8-2.1,3.7-4.1,5.7-6c2-1.9,4.2-3.7,6.5-5.3c2.3-1.6,4.7-3.1,7.3-4.4c2.6-1.3,5.3-2.4,8.1-3.2c2.9-0.8,5.9-1.3,9-1.3
		c3.1,0,6.3,0.5,9.3,1.4l1.1,0.4l0.6,0.2l0.3,0.1l0.3,0.1l1.1,0.5l0.5,0.2l0.5,0.3l1,0.6l0.3,0.1c0.1,0.1,0.2,0.1,0.3,0.2l0.5,0.3
		l1,0.6c0.3,0.2,0.6,0.5,1,0.7c0.3,0.2,0.6,0.5,0.9,0.7l0.9,0.7c0.3,0.3,0.6,0.5,0.9,0.8l0.8,0.8l0.4,0.4c0.1,0.1,0.3,0.3,0.4,0.4
		l0.8,0.8l0.4,0.4c0.1,0.1,0.3,0.3,0.4,0.4l0.7,0.9c0.2,0.3,0.5,0.6,0.7,0.9l0.6,0.8c0.4,0.5,0.8,1.1,1.3,1.6l1.2,1.6
		c0.4,0.5,0.8,1.1,1.2,1.6c1.6,2.2,3.2,4.3,4.8,6.4l0.6,0.8l0.6,0.8l0.6,0.8l0.6,0.8c0.4,0.5,0.8,1,1.2,1.5c0.4,0.5,0.8,1,1.2,1.5
		c1.6,2,3.4,3.8,5.2,5.5c1.8,1.7,3.8,3.3,5.8,4.7c2.1,1.4,4.3,2.6,6.7,3.6c2.4,1,4.9,1.9,7.4,2.6C152.3,50.4,154.9,51,157.6,51.5z"
		/>
	<path class="st0" d="M87.5,17.3c1.2,2.9,2.7,5.5,4.4,8c1.7,2.5,3.7,4.8,5.9,6.8c2.2,2.1,4.5,3.9,7,5.4c2.5,1.5,5.1,2.7,7.7,3.3
		l2,0.5l0.2,2.7c0.1,1.3,0.3,2.7,0.4,4.1l0.4,4.1l0.4,4.1c0.1,1.4,0.3,2.8,0.4,4.2h-9.6c0.1-1.3,0.2-2.7,0.3-4.1l0.3-4.1l0.3-4.1
		c0.1-1.4,0.2-2.8,0.3-4.2l2.2,3.2c-3.2-1.4-6-3.4-8.5-5.6c-2.5-2.2-4.6-4.6-6.5-7.2c-1.9-2.6-3.5-5.3-4.8-8.2
		C89.2,23.3,88.2,20.3,87.5,17.3z"/>
	<path class="st0" d="M58.1,33.1c0.2,0.2,0.4,0.4,0.6,0.6l0.3,0.3l0.2,0.2c0,0.1,0.1,0.1,0.1,0.2c0.2,0.2,0.4,0.5,0.5,0.7
		c0.2,0.3,0.3,0.5,0.5,0.8c0.3,0.5,0.5,1.1,0.8,1.7l0.3,0.9l0.1,0.2l0.1,0.2l0.1,0.4c0.7,2.3,1.2,4.7,1.7,7c0.5,2.3,0.9,4.7,1.3,7
		l0.6,3.5l0.6,3.5h-9.6l0.6-3.5l0.6-3.5c0.4-2.3,0.7-4.6,1.1-6.9c0.3-2.3,0.6-4.6,0.7-6.9l0-0.4l0-0.2l0-0.2l0-0.8
		c0-0.6-0.1-1.1-0.1-1.7c0-0.3-0.1-0.6-0.2-0.8c-0.1-0.3-0.1-0.5-0.2-0.8c0-0.1,0-0.1-0.1-0.2l-0.1-0.2l-0.2-0.4
		C58.3,33.6,58.2,33.4,58.1,33.1z"/>
	<path class="st0" d="M51.1,39.8c1,3.1,1.8,6.2,2.6,9.4c0.8,3.2,1.5,6.3,2.2,9.5h-8c0.7-3.1,1.3-6.2,1.9-9.4
		C50.2,46.2,50.7,43,51.1,39.8z"/>
	<path class="st0" d="M99.7,38.7c1.1,3.3,2,6.6,2.9,9.9c0.9,3.4,1.7,6.7,2.5,10.1l-9.6-0.1c0.8-3.3,1.6-6.6,2.3-9.9
		C98.5,45.4,99.2,42.1,99.7,38.7z"/>
	<path class="st0" d="M62.6,42.4c1.5-0.1,2.9-0.1,4.3-0.1c0.7,0,1.4,0,2.1,0c0.7,0,1.4,0,2.1,0c1.4,0,2.8,0,4.1-0.1
		c0.7,0,1.3-0.1,2-0.1l1-0.1l1-0.1c0.3,0,0.7-0.1,1-0.2l1-0.2c0.3,0,0.7-0.1,1-0.2l1-0.2c0.3-0.1,0.7-0.2,1-0.3
		c0.3-0.1,0.7-0.2,1-0.3l1-0.3c0.3-0.1,0.7-0.2,1-0.3c2.7-0.8,5.4-1.7,8.2-2.3c-1.1,0.9-2.3,1.7-3.5,2.5c-0.6,0.4-1.2,0.7-1.8,1.1
		c-0.3,0.2-0.6,0.4-0.9,0.5c-0.3,0.2-0.6,0.3-1,0.5c-0.6,0.3-1.3,0.6-2,0.9c-0.3,0.2-0.7,0.3-1,0.4c-0.3,0.1-0.7,0.3-1,0.4
		c-0.3,0.1-0.7,0.2-1.1,0.3l-0.5,0.2c-0.1,0-0.2,0.1-0.3,0.1l-0.3,0.1c-0.7,0.2-1.5,0.3-2.2,0.4l-1.1,0.2l-1.1,0.1
		c-0.7,0.1-1.5,0-2.2,0l-0.6,0l-0.5,0L73,45.2c-0.4,0-0.7-0.1-1.1-0.1l-1.1-0.2c-0.2,0-0.4-0.1-0.5-0.1l-0.5-0.1
		c-0.4-0.1-0.7-0.2-1.1-0.2l-0.5-0.1c-0.2,0-0.3-0.1-0.5-0.1l-1-0.3c-0.3-0.1-0.7-0.2-1-0.3c-0.3-0.1-0.7-0.2-1-0.4
		C63.9,43,63.2,42.7,62.6,42.4z"/>
	<path class="st0" d="M47.7,25.1c0.2,1,0.5,2.1,0.6,3.1c0.1,0.5,0.2,1.1,0.2,1.6c0.1,0.5,0.1,1.1,0.1,1.6c0,0.5,0,1.1,0,1.7
		c0,0.3,0,0.6-0.1,0.8c0,0.3-0.1,0.6-0.1,0.8c-0.1,0.3-0.1,0.6-0.2,0.8L48.1,36l-0.1,0.2L48,36.5c-0.1,0.3-0.2,0.6-0.3,0.8
		c-0.1,0.3-0.2,0.5-0.4,0.8l-0.2,0.4c-0.1,0.1-0.2,0.3-0.2,0.4l-0.2,0.4c-0.1,0.1-0.2,0.2-0.3,0.4l-0.3,0.4
		c-0.1,0.1-0.2,0.2-0.3,0.3c-0.2,0.2-0.4,0.4-0.6,0.6c-0.8,0.8-1.8,1.5-2.8,2.1c-0.2,0.2-0.5,0.3-0.8,0.4c-0.3,0.1-0.5,0.3-0.8,0.4
		L40,44.1c-0.3,0.1-0.5,0.2-0.8,0.3c-0.5,0.2-1.1,0.3-1.6,0.5c-0.3,0.1-0.5,0.1-0.8,0.2L36,45.2l0.7-0.3c0.1,0,0.1-0.1,0.1-0.1
		c0,0,0,0,0,0c0,0,0,0,0,0l0,0l0,0c0,0,0,0,0,0.1c-0.1,0.1-0.1,0.3-0.2,0.4c-0.2,0.3-0.3,0.7-0.5,1c-0.2,0.3-0.4,0.7-0.6,1
		c-0.2,0.3-0.4,0.7-0.7,1c-1,1.3-2.3,2.4-3.7,3.1c-0.2,0.1-0.4,0.2-0.5,0.2c-0.2,0.1-0.4,0.1-0.6,0.2l-0.6,0.2
		C29.2,52,29,52,28.8,52c-0.2,0-0.4,0.1-0.6,0.1c-0.2,0-0.4,0.1-0.6,0.1c-0.4,0-0.8,0.1-1.1,0.1c-1.5,0-3-0.2-4.4-0.6
		c1.4-0.1,2.9-0.3,4.2-0.7c0.7-0.2,1.3-0.4,1.9-0.7c0.6-0.3,1.2-0.6,1.7-0.9c0.5-0.4,1-0.8,1.4-1.2c0.4-0.5,0.8-1,1.1-1.5
		c0.3-0.5,0.6-1.1,0.9-1.7c0.1-0.3,0.3-0.6,0.4-1c0.1-0.2,0.1-0.4,0.2-0.6c0,0,0.1-0.1,0.1-0.2l0-0.1l0,0l0-0.1
		c0.1-0.1,0.1-0.2,0.2-0.2c0.1-0.1,0.2-0.2,0.3-0.3l0.2-0.2l0.4-0.1c1-0.2,1.9-0.5,2.8-0.8c0.9-0.3,1.8-0.7,2.6-1.1
		c1.7-0.9,3.1-2,4.1-3.5c0.1-0.2,0.2-0.4,0.4-0.6c0.1-0.2,0.2-0.4,0.3-0.6c0.2-0.4,0.4-0.9,0.6-1.3c0.3-0.9,0.6-1.9,0.7-2.9
		c0.2-1,0.3-2,0.4-3.1C47.4,27.2,47.5,26.2,47.7,25.1z"/>
	<path class="st0" d="M16.9,48.8c0.4-0.5,0.8-1,1.2-1.5c0.4-0.5,0.9-0.9,1.5-1.3c0.5-0.4,1.1-0.8,1.7-1c0.3-0.1,0.7-0.3,1.1-0.3
		c0.2,0,0.4-0.1,0.6,0c0.2,0,0.5,0.1,0.7,0.2c0.2,0.1,0.5,0.3,0.7,0.5c0.2,0.2,0.3,0.4,0.4,0.6c0.1,0.2,0.1,0.5,0.1,0.7
		c0,0.2,0,0.4-0.1,0.6c-0.1,0.4-0.2,0.7-0.4,1c-0.2,0.3-0.3,0.6-0.5,0.9c-0.3,0.5-0.7,1-1,1.6c-0.3,0.5-0.6,1.1-0.8,1.7
		c-0.2-0.6,0-1.3,0.1-2c0.2-0.6,0.4-1.2,0.6-1.8c0.1-0.3,0.2-0.6,0.3-0.8c0.1-0.3,0.2-0.5,0.2-0.8c0-0.1,0-0.2,0-0.3
		c0-0.1,0-0.1-0.1-0.2c0-0.1-0.1-0.1-0.1-0.1c0,0-0.1,0-0.1-0.1c0,0-0.1,0-0.2,0c-0.1,0-0.2,0-0.3,0c-0.2,0-0.5,0.1-0.7,0.2
		c-0.5,0.2-1.1,0.4-1.6,0.7L18.7,48C18.1,48.3,17.5,48.6,16.9,48.8z"/>
	<g>
		<path class="st0" d="M16.6,49.2c-2.4-3.7-2.9-7.3-1.3-10.4l1.4,0.7c-1.6,3.3-0.2,6.6,1.2,8.8L16.6,49.2z"/>
	</g>
	<path class="st0" d="M5.2,38.5c1,0,2,0,2.9,0c1,0,1.9-0.1,2.7-0.4c0.9-0.2,1.7-0.6,2.6-0.9c0.8-0.4,1.7-0.8,2.5-1.2l1.2,3.5
		c-1,0.2-2,0.3-3,0.4C13.1,40,12,40.1,11,40c-0.3,0-0.5,0-0.8-0.1c-0.3,0-0.5-0.1-0.8-0.1c-0.5-0.1-1-0.2-1.5-0.4
		C7,39.2,6.1,38.8,5.2,38.5z"/>
	<path class="st0" d="M1.1,29.1c0.3,0.1,0.6,0.1,0.9,0.1c0.3,0,0.6,0.1,0.9,0.1c0.6,0,1.1,0.1,1.7,0.1c1.1,0,2.3,0,3.4,0
		c2.3-0.1,4.5-0.3,6.7-0.6c0.5-0.1,1.1-0.2,1.6-0.3l0.8-0.2l0.8-0.2c1.1-0.3,2.1-0.6,3.1-1c2-0.7,3.9-1.7,5.7-2.9
		c1.7-1.2,3.2-2.7,4.5-4.3c0.6-0.8,1.2-1.7,1.7-2.7l0.4-0.7c0.1-0.2,0.2-0.5,0.3-0.7c0.1-0.2,0.2-0.5,0.3-0.7
		c0.1-0.3,0.2-0.5,0.3-0.8c0.4-1,0.7-2.1,1-3.1l0.2-0.8l0.1-0.4l0.1-0.4l0.2-0.8c0.1-0.3,0.1-0.6,0.2-0.8c0.1-0.3,0.1-0.6,0.2-0.8
		c0-0.3,0.1-0.6,0.1-0.8l0.1-0.4l0.1-0.4l0.1-0.8l0.2-1.7c0.1-0.6,0.1-1.2,0.2-1.7c0.1,0.6,0.2,1.1,0.4,1.7c0.1,0.6,0.2,1.2,0.3,1.7
		c0.1,1.2,0.2,2.3,0.2,3.5c0,1.2-0.1,2.4-0.2,3.6c0,0.3-0.1,0.6-0.1,0.9L37.4,13l-0.1,0.4c-0.1,0.3-0.1,0.6-0.2,0.9
		c-0.1,0.3-0.1,0.6-0.2,0.9c-0.6,2.4-1.6,4.7-3,6.7c-1.4,2.1-3.2,3.9-5.2,5.3c-2,1.4-4.3,2.5-6.7,3.2c-1.2,0.4-2.4,0.6-3.6,0.8
		c-0.3,0-0.6,0.1-0.9,0.1c-0.3,0-0.6,0.1-0.9,0.1c-0.6,0.1-1.2,0.1-1.8,0.1c-2.4,0.1-4.8,0-7.1-0.4c-1.2-0.2-2.3-0.4-3.4-0.8
		c-0.6-0.2-1.1-0.3-1.7-0.6c-0.3-0.1-0.5-0.2-0.8-0.3C1.6,29.4,1.3,29.3,1.1,29.1z"/>
	<path class="st0" d="M5.7,21.5c1.1,1,2.4,1.8,3.6,2.5c1.3,0.7,2.6,1.4,3.9,1.9c1.3,0.5,2.7,0.9,4,1.1c1.3,0.2,2.7,0.2,3.8-0.1
		l0.4,3.7c-1.8,0-3.4-0.4-4.9-0.9c-1.5-0.6-2.9-1.3-4.2-2.2c-1.3-0.8-2.5-1.8-3.6-2.8C7.7,23.7,6.6,22.6,5.7,21.5z"/>
	<path class="st0" d="M37.7,1.1c0.3,0.1,0.6,0.4,0.8,0.6c0.1,0.1,0.2,0.3,0.3,0.5c0.1,0.2,0.1,0.3,0.2,0.5c0,0.1,0,0.1,0.1,0.2
		C39,3,39,3,39,3c0,0,0-0.1,0-0.1c0,0,0-0.1,0-0.1c0,0,0.1,0,0.1,0l0.1,0c0,0,0.1,0,0.1,0l0.4-0.1c0.3-0.1,0.6-0.1,1-0.2
		c0.2,0,0.4,0,0.6,0c0.2,0,0.6,0.1,0.9,0.3c0.2,0.1,0.3,0.2,0.5,0.4c0.1,0.1,0.1,0.1,0.2,0.2c0,0,0,0.1,0.1,0.1
		c0,0.1,0.1,0.1,0.1,0.2c0.1,0.2,0.1,0.4,0.1,0.6c0,0.1,0,0.1,0,0.2l0,0.2c0,0.2,0,0.4,0,0.6c0,0.2,0,0.3,0,0.5c0,0.3,0,0.6,0,0.8
		c0,0.1,0,0.2,0,0.3c0,0.1,0,0.1,0,0c0,0,0,0,0,0c0,0,0,0,0,0c0,0,0,0,0-0.1c0,0,0-0.1-0.1-0.1c0,0,0-0.1-0.1-0.1
		c-0.1-0.1-0.1-0.1-0.1-0.1c0,0,0.3,0,0.5,0.1c0.3,0,0.6,0.1,1.1,0.2c0.2,0.1,0.5,0.2,0.8,0.4c0.3,0.2,0.7,0.5,0.9,0.9
		c0.1,0.1,0.1,0.2,0.2,0.3c0,0.1,0.1,0.2,0.1,0.3c0,0.1,0,0.2,0.1,0.3c0,0.1,0,0.2,0,0.3c0,0.3,0,0.6,0,0.9
		c-0.1,0.5-0.2,0.9-0.3,1.2c-0.1,0.3-0.2,0.6-0.3,0.7c0,0.1,0,0.1,0,0.1c0,0,0-0.2-0.1-0.4c0,0,0-0.1,0-0.1l0,0l0,0l0,0
		c0,0,0,0-0.1-0.1c0,0,0,0,0,0c0,0,0,0,0,0c0,0,0,0,0,0c0,0,0,0,0,0l0,0c0.1,0.1,0.4,0.2,0.7,0.4c0.3,0.2,0.7,0.4,1.2,0.8
		c0.1,0.1,0.1,0.1,0.2,0.2c0.1,0.1,0.1,0.1,0.2,0.2c0.1,0.1,0.2,0.3,0.3,0.4l0.1,0.1c0,0.1,0,0.1,0.1,0.2c0,0.1,0.1,0.2,0.1,0.4
		c0,0.1,0,0.2,0,0.4c0,0.1,0,0.2,0,0.3c0,0.4-0.2,0.7-0.3,1c-0.1,0.2-0.2,0.4-0.3,0.6c-0.2,0.3-0.4,0.5-0.6,0.7
		c-0.1,0.1-0.1,0.2-0.2,0.2c0,0,0,0-0.1,0c0,0,0-0.1,0-0.2c0-0.1-0.1-0.1-0.1-0.1c-0.1-0.1-0.1,0-0.1,0c0,0,0.1,0.1,0.2,0.2
		c0.1,0.1,0.2,0.1,0.4,0.2c0.3,0.2,0.6,0.3,1,0.7c0.2,0.2,0.3,0.4,0.5,0.7c0.1,0.3,0.1,0.5,0.1,0.8c0,0.1,0,0.2-0.1,0.3
		c0,0.1,0,0.1,0,0.1l0,0.1c0,0.1-0.1,0.2-0.1,0.2c0,0.1-0.1,0.2-0.1,0.2c-0.2,0.3-0.4,0.6-0.6,0.8c-0.3,0.2-0.6,0.4-0.9,0.5
		c0.2-0.2,0.3-0.5,0.4-0.8c0.1-0.3,0.1-0.5,0.1-0.8c0-0.1,0-0.1,0-0.2c0-0.1,0-0.1,0-0.2l0-0.1c0,0,0-0.1,0-0.1c0,0,0-0.1,0-0.1
		c0-0.1-0.1-0.1-0.1-0.1c0,0-0.1,0-0.1,0c-0.1,0-0.3-0.1-0.6-0.1c-0.1,0-0.3-0.1-0.5-0.1c-0.2-0.1-0.4-0.1-0.6-0.3
		c-0.2-0.1-0.5-0.3-0.7-0.6c-0.1-0.1-0.2-0.3-0.3-0.5c-0.1-0.2-0.1-0.4-0.1-0.6c0-0.4,0.1-0.7,0.1-0.9c0.1-0.2,0.2-0.4,0.2-0.6
		c0.2-0.3,0.3-0.6,0.4-0.8c0-0.1,0.1-0.2,0.1-0.2c0,0,0,0,0,0.1c0,0,0,0.1,0,0.1c0,0,0,0.1,0,0.1c0,0,0,0.1,0,0.1c0,0,0,0,0,0.1
		c0,0,0,0,0,0c0,0,0,0.1,0,0.1c0,0,0,0,0,0c0,0,0,0,0,0c0,0-0.1,0-0.4-0.1c-0.2-0.1-0.5-0.2-1-0.4L44,14.3l-0.2-0.1
		c-0.1-0.1-0.2-0.2-0.4-0.3c-0.3-0.2-0.5-0.5-0.8-1c-0.1-0.2-0.2-0.5-0.2-0.7c0-0.2,0-0.4,0-0.6c0-0.4,0.1-0.6,0.1-0.8
		c0.1-0.4,0.2-0.7,0.3-1C42.9,9.6,43,9.4,43,9.4c0,0,0,0,0,0c0,0,0,0,0,0c0,0,0,0,0,0c0,0,0,0.1,0,0.1c0,0,0,0.1,0.1,0.1
		c0.1,0.2,0.2,0.3,0.3,0.3c0.1,0,0.1,0,0,0c-0.1,0-0.4-0.1-0.7-0.2c-0.3-0.1-0.7-0.1-1.2-0.4c-0.3-0.1-0.6-0.3-0.9-0.6
		c-0.1-0.1-0.1-0.2-0.2-0.3c-0.1-0.1-0.1-0.2-0.2-0.3c-0.1-0.1-0.1-0.2-0.1-0.3c0,0,0-0.1,0-0.1l0-0.1c-0.1-0.3-0.1-0.6-0.1-0.9
		c0-0.2,0-0.5,0.1-0.6c0.1-0.4,0.2-0.7,0.2-1l0.2-0.7l0,0c0,0,0,0,0,0c0,0,0,0,0.1,0.1c0,0,0,0.1,0,0.1c0,0,0,0,0,0c0,0,0,0,0,0
		c0,0,0.1,0.1,0.1,0.1c0.1,0,0.1,0,0.1,0c-0.1,0-0.2-0.1-0.3-0.1c-0.2-0.1-0.6-0.1-0.9-0.2l-0.5-0.1l-0.1,0c-0.1,0-0.1,0-0.2,0
		c-0.1,0-0.2-0.1-0.4-0.1c-0.1,0-0.3-0.1-0.4-0.3c-0.1-0.1-0.3-0.3-0.3-0.5c0-0.2,0-0.3,0-0.4c0-0.1,0-0.2,0-0.3C38,2.5,38,2.2,38,2
		C38,1.7,37.9,1.4,37.7,1.1z"/>
	<path class="st0" d="M51,26.6c0.3,0.3,0.5,0.6,0.7,0.9c0.2,0.3,0.4,0.6,0.5,1c0.3,0.7,0.6,1.4,0.8,2.1c0.4,1.4,0.6,2.9,0.5,4.4
		c-0.1,1.5-0.4,3.1-1.1,4.5c-0.4,0.7-0.9,1.4-1.5,2c-0.6,0.6-1.3,1-2.1,1.4l-0.6-2.1c0.6,0,1.2,0.1,1.8,0.1c0.6,0.1,1.2,0.2,1.8,0.3
		c0.6,0.1,1.2,0.3,1.8,0.5c0.6,0.2,1.1,0.5,1.7,0.8c-0.6,0-1.2,0-1.8,0c-0.6,0-1.2,0-1.7,0.1c-0.6,0-1.1,0.1-1.7,0.2l-1.7,0.2
		l-4.6,0.5l4.1-2.6c1-0.6,1.8-1.5,2.3-2.6c0.5-1,0.9-2.3,1-3.5c0.2-1.3,0.3-2.6,0.2-4c0-0.7,0-1.4-0.1-2.1
		C51.2,28,51.2,27.3,51,26.6z"/>
</g>
</svg>
