<?xml version="1.0" encoding="utf-8"?>
<!-- Generator: Adobe Illustrator 24.0.2, SVG Export Plug-In . SVG Version: 6.00 Build 0)  -->
<svg version="1.1" id="Layer_1" xmlns="http://www.w3.org/2000/svg" xmlns:xlink="http://www.w3.org/1999/xlink" x="0px" y="0px"
	 viewBox="0 0 68.8 62" style="enable-background:new 0 0 68.8 62;" xml:space="preserve">
<style type="text/css">
	.st0{fill:#9C3629;}
</style>
<path class="st0" d="M66.7,46.8c-1.7-1.6-2-1.7-2.3-4.5c-0.5,2.5-0.2,3,1.5,4.9c2.1,2.3-1.8,6.2-7,4.3c-5.2-1.9-9-4.6-11.8-8.2
	c-2.8-3.6-8.9-8.2-12.6-10c-3.6-1.7-12.1-3.5-13.4-4.7c-1.4-1.2-3.4-0.2-5.5-12.8c-1.8-11-4.9-12-8.1-14.1C4.5-0.2,3,1.5,2.3,2.2
	C1.6,2.9-0.1,4.3,1.6,5C3.2,5.7,4.8,3.3,8,4.8c3.2,1.5,4.6,8.5,4.7,10.9s1.7,14.5,3.3,16.9s1.9,9.2,2.9,10.6
	c0.9,1.4,1.7,2.4,2.4,3.2c-0.2,0.8-0.4,1.6-0.7,2.4l-0.2,0.6c0,0.1-0.1,0.2-0.1,0.3L20,50.1c-0.1,0.2-0.2,0.4-0.3,0.6l-0.3,0.6
	c-0.5,0.9-0.9,1.9-1.2,3c-0.3,1-0.5,2.1-0.6,3.1c-0.1,0.5-0.1,1.1-0.1,1.6c0,0.5-0.1,1-0.1,1.4h4.2c0-0.6-0.1-1-0.2-1.5
	c0-0.5-0.1-0.9-0.1-1.4c-0.1-0.9,0-1.8,0.1-2.7c0.1-0.9,0.3-1.8,0.5-2.6l0.2-0.7c0.1-0.3,0.2-0.5,0.2-0.8l0.1-0.4
	c0-0.1,0.1-0.3,0.1-0.4l0.1-0.8c0.1-0.4,0.1-0.9,0.2-1.3c0.4,0.4,0.6,0.5,0.6,0.5c1.2,0.9,2.7,1.6,4.1,2c-0.1,0.6-0.3,1.3-0.4,1.9
	c-0.1,0.4-0.2,0.9-0.3,1.3c-0.1,0.2-0.1,0.4-0.2,0.6c0,0.1-0.1,0.2-0.1,0.3l-0.1,0.1l-0.1,0.2c-0.4,0.8-0.8,1.7-1.1,2.7
	c-0.3,0.9-0.6,1.9-0.8,2.9h4.2c-0.2-0.8-0.3-1.6-0.3-2.4c0-0.8,0-1.7,0-2.6l0-0.4c0-0.1,0-0.3,0-0.4c0-0.3,0-0.5,0-0.8
	c0-0.5-0.1-1-0.2-1.4c-0.1-0.6-0.2-1.2-0.3-1.8c3.3,0.9,6.8,0.9,9.4,0.7c0,0.2,0,0.5-0.1,0.7c-0.1,0.4-0.2,0.8-0.3,1.2
	c-0.2,0.8-0.5,1.5-0.8,2.3c-0.3,0.8-0.6,1.5-0.9,2.3c-0.3,0.8-0.5,1.6-0.7,2.6h4.2c-0.2-0.7-0.3-1.4-0.4-2.2
	c-0.1-0.8-0.1-1.6-0.2-2.4c-0.1-0.8-0.1-1.7-0.2-2.5c-0.1-0.4-0.1-0.8-0.3-1.3c-0.1-0.2-0.2-0.5-0.3-0.7c1.2-0.1,2.2-0.3,2.8-0.4
	c0.4-0.1,0.8-0.2,1.1-0.3c0.1,0.3,0.1,0.6,0.2,1c0.2,0.7,0.4,1.4,0.7,2.1c0.1,0.2,0.2,0.4,0.3,0.5l0,0.1c0,0,0,0,0,0.1l0,0.1
	l0.1,0.2c0.1,0.1,0.1,0.3,0.2,0.4l0.2,0.4c0.2,0.5,0.3,1.1,0.5,1.7c0.1,0.6,0.2,1.2,0.2,1.8c0,0.3,0,0.6,0,0.9l0,0.2
	c0,0.1,0,0.1,0,0.2c0,0.1,0,0.2,0,0.3h4.2c0-0.2-0.1-0.5-0.1-0.6c0-0.1,0-0.2-0.1-0.3l-0.1-0.3c-0.1-0.4-0.2-0.7-0.3-1.1
	c-0.2-0.7-0.5-1.4-0.8-2.1c-0.3-0.7-0.7-1.3-1.1-1.9L45,53.7c-0.1-0.2-0.2-0.3-0.4-0.4L44.5,53l-0.1-0.1l0,0l0,0
	c-0.1-0.1-0.2-0.2-0.3-0.3c-0.4-0.4-0.7-1-1-1.5c-0.2-0.3-0.3-0.6-0.4-0.9c1.1-0.5,1.7-0.9,1.7-0.9c2-0.5,3.2-0.9,6.9,0.7
	c3.7,1.6,8.3,4.1,13,2.7C67.5,51.6,68.5,48.5,66.7,46.8z"/>
</svg>
