<?xml version="1.0" encoding="utf-8"?>
<!-- Generator: Adobe Illustrator 24.0.2, SVG Export Plug-In . SVG Version: 6.00 Build 0)  -->
<svg version="1.1" id="Layer_1" xmlns="http://www.w3.org/2000/svg" xmlns:xlink="http://www.w3.org/1999/xlink" x="0px" y="0px"
	 viewBox="0 0 153.5 62" style="enable-background:new 0 0 153.5 62;" xml:space="preserve">
<style type="text/css">
	.st0{fill:#93B8D5;}
</style>
<path class="st0" d="M22.2,26.8c6.2-3.6,10.7-10.1,12.1-17.2c0.5-2.3,0.6-4.7,0.8-7c2.1,0.3,4.6,1,5.1,3.1c0.2,0.7,0.1,1.6,0.6,2.2
	c0.4,0.4,0.9,0.5,1.3,0.8c1,0.7,0.8,2.2,0.9,3.4s1.2,2.7,2.2,2c-0.6,2.4,0,5.1,1.7,6.9c3.9-2.4,7.7-4.7,11.6-7.1
	C63.3,10.9,68,8,73.2,6.2s10.9-2.5,16.2-0.7c8.5,2.8,14,11.1,19.7,18.2c4.7,6,10.3,11,15.9,16.1c3.6,3.2,7.3,5.8,11.3,7.8
	c4,2.1,6,3.2,13.9,3.1c-5.8,2.5-9.9,1.2-14.3-0.1c-9.5-2.8-17.8-7.9-27-11.5c1,7,2,13.4,3,20.4c-3.2,0-7.5,0-10.7-0.1
	c0.7-4.1,2.2-14,1.7-14.6c-0.6-0.7-2.4-1-3.2-1.4c-3.5-1.5-6-3.3-7.3-7c2.8,7.7,6.4,18,8.4,22.9c-4.6,0-9.3,0-13.8,0
	c2.2-6.8,4.1-15.2,4.9-22.4c-6.8,4.2-14.7,6.5-22.6,6.4c-3.8,0-7.9-0.7-10.8-3.3c1.8,6.5,3.5,12.9,5.2,19.4c-3.1-0.1-6.1,0-9.2-0.2
	c1.1-6.2,2-12.4,2.8-18.6c-2.7,2-6.2,2.7-9.4,1.9c2,5.2,4.9,11.3,6.6,16.7c-2.7,0-6.6-0.1-9.3-0.1c1-5.1,2-11,2.4-16.2
	c-3.4,0.3-6.7,0.6-10.1,0.9c-0.7,0.1-1.4,0.1-1.9,0.5c-0.9,0.6-1.3,1.8-1.8,2.8c-2.1,4.4-8.2,6-12.1,3.2c1.4-1.5,2-3.9,1.4-5.9
	c-2.5,0.4-4.9,1.6-6.8,3.4c-0.9-2.8-1.7-6.6-0.7-9.7c-3.2,0.1-8,0.9-11-0.1c5.1,0.8,10.6-1.4,13.7-5.7c-0.9,1.2-7,0.1-8.3-0.2
	c-2.5-0.5-6-1.3-7.9-3.1c1.4-0.3,3.3,0.6,4.8,0.8c1.7,0.2,3.5,0.2,5.2,0.1C15.7,29.7,19.2,28.6,22.2,26.8z"/>
</svg>
