<?xml version="1.0" encoding="utf-8"?>
<!-- Generator: Adobe Illustrator 24.0.2, SVG Export Plug-In . SVG Version: 6.00 Build 0)  -->
<svg version="1.1" id="Layer_1" xmlns="http://www.w3.org/2000/svg" xmlns:xlink="http://www.w3.org/1999/xlink" x="0px" y="0px"
	 viewBox="0 0 94 62" style="enable-background:new 0 0 94 62;" xml:space="preserve">
<style type="text/css">
	.st0{fill:#3C266B;}
</style>
<path class="st0" d="M16.8,1C11.8,1.3,2,1,1,4s1.3,3.4,3,4c6,2,8.8,3,10.8,7s2,5,4,7s5,4,5,5s1,6,0,7s-4,4-4,6s2,7,5,7s5,0,4-3
	c0,1-1.5,1.5-1.5-0.5c-1,0-1,1-2,0s-4-3-3-4s1-1,3,1s6,1,6-1c-1,0-1,0-1-2c-1,1-2,2-3,0s2-2,2-2s3-2,4-2s0,0,3,4s8,9,8,12s-1,5-2,4
	s-4-1-5,1c1,0,4-1,3,1s-6,4-5,5c2,1,10,1,10,0s1-2,2-2s8,1,8-2s2-9,1-11s-3-2-3-4s-5-4-5-6s4-3,6-4s15-7,24-7s16,2,3,13
	c7-2,18-13,5-17s-28-1-35-3s-18-5-23-2s-5-1-5-4S24.3,0.5,16.8,1z"/>
</svg>
