<?xml version="1.0" encoding="utf-8"?>
<!-- Generator: Adobe Illustrator 24.0.2, SVG Export Plug-In . SVG Version: 6.00 Build 0)  -->
<svg version="1.1" id="Layer_1" xmlns="http://www.w3.org/2000/svg" xmlns:xlink="http://www.w3.org/1999/xlink" x="0px" y="0px"
	 viewBox="0 0 1119 701" style="enable-background:new 0 0 1119 701;" xml:space="preserve">
<style type="text/css">
	.st0{display:none;}
	.st1{display:inline;}
	.st2{fill:#948DFD;}
	.st3{fill:#FFFFFF;}
	.st4{fill:none;stroke:#FFFFFF;stroke-width:3;stroke-linecap:round;stroke-miterlimit:10;}
	.st5{fill:#B1B0FE;}
	.st6{fill:#7575E0;}
	.st7{fill:none;stroke:#180B86;stroke-miterlimit:10;}
	.st8{display:inline;fill:none;stroke:#180B86;stroke-miterlimit:10;}
	.st9{display:inline;fill:#CACAFC;}
	.st10{display:inline;fill:#FFFFFF;stroke:#CACAFC;stroke-miterlimit:10;}
	.st11{display:inline;fill:#B1B0FE;}
	.st12{fill:none;stroke:#FFFFFF;stroke-miterlimit:10;}
	.st13{display:inline;fill:none;stroke:#B1B0FE;stroke-miterlimit:10;}
	.st14{display:inline;fill:none;stroke:#FFFFFF;stroke-miterlimit:10;}
	.st15{fill:none;stroke:#094459;stroke-width:2;stroke-miterlimit:10;}
	.st16{display:inline;fill:#EFDAC5;}
	.st17{display:inline;fill:#EFB82E;}
	.st18{fill:#C66AAB;}
	.st19{fill:#9B4587;}
	.st20{display:inline;fill:#219BC3;}
	.st21{fill:#0A557F;}
	.st22{display:inline;fill:#0A557F;}
	.st23{fill:#094459;}
	.st24{fill:#EFDAC5;}
	.st25{display:inline;fill:none;stroke:#FF0000;stroke-miterlimit:10;}
	.st26{display:inline;fill:#C66AAB;stroke:#9B4587;stroke-miterlimit:10;}
	.st27{fill:none;stroke:#CACAFC;stroke-width:2;stroke-miterlimit:10;}
	.st28{fill:none;stroke:#948DFD;stroke-miterlimit:10;}
	.st29{fill:#E1D9FE;}
	.st30{fill:#ECEDFF;}
	.st31{fill:none;stroke:#F20037;stroke-miterlimit:10;}
	.st32{fill:#4F53DF;}
	.st33{fill:#FED1CE;}
	.st34{fill:#FFA600;}
	.st35{fill:#FFFFFF;stroke:#948DFD;stroke-miterlimit:10;}
	.st36{fill:#CACAFC;}
	.st37{fill:#2029A7;}
	.st38{fill:#7C80F1;}
	.st39{fill:#162182;}
	.st40{fill:#EFC3C2;}
	.st41{fill:#180B86;}
	.st42{fill:#E0B4B3;}
	.st43{fill:#DADAF7;}
	.st44{fill:#E5E5F9;}
</style>
<g class="st0">
	<g class="st1">
		<path class="st2" d="M-494,611.5c0,8.5-5.3,15.4-12.1,15.4h-179.1c-5.5,0-11.7-6.9-11.7-15.4V246.3c0-8.5,6.2-15.4,14.1-15.4
			h175.7c6.6,0,13,6.9,13,15.4V611.5z"/>
		<path class="st3" d="M-500.2,601.1c0,7.7-3.7,13.9-9.5,13.9H-681c-5,0-9.7-6.2-9.7-13.9V270.9c0-7.7,5.4-13.9,10.8-13.9h168.2
			c5.7,0,11.5,6.2,11.5,13.9V601.1z"/>
	</g>
	<g class="st1">
		<circle class="st3" cx="-620.7" cy="245" r="3"/>
		<line class="st4" x1="-609.7" y1="245" x2="-565.7" y2="245"/>
	</g>
	<g class="st1">
		<g>
			<circle class="st5" cx="-663" cy="280" r="10"/>
			<circle class="st2" cx="-655" cy="283" r="8"/>
			<circle class="st6" cx="-648" cy="286" r="5"/>
		</g>
		<path class="st7" d="M-621,284.7c3.2,4,12.6,2.6,16.9-4s-8.5-12.5-5.8-0.4c2.8,12.1,17.5,7.2,21,2.9c3.5-4.4-0.2-12.7-3.5-7.9
			c-3.3,5-1.5,11.3,7.5,12.1c5.5,0.5,11.4,1,14.4-5c4.8-9.6-6.9-12.5-4.5-0.5c2,10.2,10.9,6.2,14.1,3"/>
	</g>
	<rect x="-583.5" y="335.5" class="st8" width="54" height="54"/>
	<rect x="-577" y="327" class="st9" width="54" height="54"/>
	<rect x="-667" y="422" class="st8" width="54" height="54"/>
	<rect x="-660.5" y="413.5" class="st9" width="54" height="54"/>
	<rect x="-583.5" y="422.5" class="st8" width="54" height="54"/>
	<rect x="-577" y="414" class="st10" width="54" height="54"/>
	<rect x="-667" y="510" class="st8" width="54" height="54"/>
	<rect x="-660.5" y="501.5" class="st10" width="54" height="54"/>
	<rect x="-583.5" y="510.5" class="st8" width="54" height="54"/>
	<rect x="-577" y="502" class="st11" width="54" height="54"/>
	<g class="st1">
		<rect x="-667" y="335" class="st7" width="54" height="54"/>
		<rect x="-660.5" y="326.5" class="st5" width="54" height="54"/>
		<path class="st12" d="M-647,355.7c3.2,4,12.6,2.6,16.9-4s-8.5-12.5-5.8-0.4c2.8,12.1,17.5,7.2,21,2.9"/>
	</g>
	<path class="st13" d="M-565,445.7c3.2,4,12.6,2.6,16.9-4s-8.5-12.5-5.8-0.4c2.8,12.1,17.5,7.2,21,2.9"/>
	<path class="st14" d="M-565,357.7c3.2,4,12.6,2.6,16.9-4s-8.5-12.5-5.8-0.4c2.8,12.1,17.5,7.2,21,2.9"/>
	<path class="st14" d="M-619.3,449.2c-1.4-4.9-10.6-7.4-17.1-2.9c-6.5,4.5,3,14.9,5.1,2.7c2.2-12.2-13.3-13.5-18.2-10.8"/>
	<path class="st14" d="M-535,528.8c-2.4-4.5-11.9-4.9-17.3,0.8c-5.4,5.7,6.1,13.9,5.6,1.5c-0.5-12.4-15.9-10.3-20.1-6.7"/>
	<path class="st13" d="M-618,528.8c-2.4-4.5-11.9-4.9-17.3,0.8c-5.4,5.7,6.1,13.9,5.6,1.5c-0.5-12.4-15.9-10.3-20.1-6.7"/>
</g>
<g class="st0">
	<g class="st1">
		<line class="st15" x1="-1034.5" y1="215.3" x2="-947.7" y2="640.8"/>
		<line class="st15" x1="-999.6" y1="228.2" x2="-903.6" y2="606.2"/>
		<line class="st15" x1="-956.5" y1="597.7" x2="-912" y2="573"/>
		<line class="st15" x1="-966.1" y1="550.6" x2="-923" y2="532"/>
		<line class="st15" x1="-974" y1="511.9" x2="-932" y2="495"/>
		<line class="st15" x1="-982.1" y1="472" x2="-941" y2="460"/>
		<line class="st15" x1="-991.1" y1="427.9" x2="-949" y2="424"/>
		<line class="st15" x1="-1010.2" y1="334.3" x2="-966.1" y2="336.4"/>
		<line class="st15" x1="-1017.2" y1="300.1" x2="-974" y2="304"/>
		<line class="st15" x1="-1025.5" y1="259.4" x2="-984.2" y2="262.2"/>
	</g>
	<path class="st16" d="M-962.2,182.4c-3.7,1.1-8.3,2.5-8.2,8.5c-2.1,2.3-6.5,3.5-5.4,5s0.7,2.5-0.1,3.1c0,1.1,1.2,1.7,1.2,1.7
		l-1.6,0.4c0,0-0.1,1.5-1.4,2.8c-1.3,1.3,1.4,4.2,3.7,5.2c2.2,1,1.5,1.5,1.8,2.4c0.1,0.4-0.3,4.3-1.2,6.1c-0.8,1.7,0.7,2.5,0.9,4.9
		c0.3,3.3-2.7,7-2.7,7l18.6,1.2c0,0-4.3-13.7,6.8-21.4c9-6.3,5.8-13.9,5.5-14.4S-962.2,182.4-962.2,182.4z"/>
	<path class="st17" d="M-961.3,393.6c3,2.6,14.4,19,11.5,23.8c-2.9,4.9-8.6,6.8-11.5,6.8s-13.4,1-13.4,1l4.6-21.3
		C-970.1,403.9-968,387.9-961.3,393.6z"/>
	<path class="st17" d="M-977.5,395.5c1,3.8,11.5,16.3,8.6,22.9s-17.4,9.5-20.2,8.6c-2.8-0.9-3-12.7-3-12.7s7.9-1.6,6.9-11.2
		c-1-9.6,2.9-13.4,6.7-7.6"/>
	<g class="st1">
		<g>
			<path class="st18" d="M-969.5,317.5c1.9,5.7-11.9,35-16.6,46.5c7.6,8.6,12.4,34.4,15.3,42.1c2.9-9.6,9.6-8.6,14.3-4.8
				c1-6.7-10.5-30.6-13.4-35.4s1-10.5,11.5-32.5c10.5-22,9.6-33.5,6.7-43c0,0-30.9-18.1-37.9,8.6c-7,26.7-13.7,50.6-10.8,64
				s10.5,44.9,13.4,49.7c1.9-9.6,9.6-16.3,15.3-7.6"/>
			<path class="st19" d="M-969.5,317.5c0.3,1,0.2,2.1,0.1,3.1c-0.1,1-0.4,2-0.6,3.1c-0.5,2-1.1,4-1.8,6c-1.3,3.9-2.8,7.8-4.4,11.6
				c-3.1,7.7-6.5,15.2-9.7,22.9l-0.1-0.3c2.5,2.9,4.1,6.4,5.6,9.8c1.4,3.5,2.6,7.1,3.7,10.7c1.1,3.6,2.1,7.2,3.1,10.8
				c1,3.6,1.9,7.3,3.1,10.8l-0.9,0c0.5-1.5,1.1-3,2-4.4c0.9-1.3,2.2-2.5,3.9-3c1.6-0.5,3.4-0.4,4.9,0.1c1.6,0.5,3,1.4,4.2,2.4
				l-0.6,0.2c0.1-1.1,0-2.4-0.2-3.5c-0.2-1.2-0.5-2.4-0.9-3.5c-0.7-2.3-1.5-4.7-2.4-7c-1.8-4.6-3.7-9.1-5.8-13.5
				c-1.1-2.2-2.1-4.4-3.3-6.6c-0.3-0.5-0.6-1-0.9-1.6c-0.3-0.6-0.5-1.2-0.6-1.8c-0.2-1.3,0-2.5,0.3-3.7c0.6-2.4,1.6-4.7,2.6-6.9
				c1-2.2,2.1-4.5,3.2-6.7c4.2-8.9,8.9-17.6,11.9-27c1.5-4.7,2.5-9.5,2.8-14.4c0.2-4.9-0.4-9.8-1.9-14.5l0.2,0.2
				c-2.9-1.6-6.1-3-9.3-4c-3.2-1-6.5-1.7-9.9-1.8c-3.3-0.1-6.7,0.4-9.6,2c-2.9,1.6-5.2,4.2-6.6,7.2c-1.5,3-2.1,6.3-3,9.6l-2.6,9.9
				c-1.7,6.6-3.4,13.2-4.8,19.8c-1.4,6.6-2.6,13.3-2.9,20.1c-0.1,3.4,0,6.7,0.7,10c0.7,3.3,1.4,6.6,2.2,10
				c1.5,6.6,3.1,13.2,4.8,19.8c0.9,3.3,1.7,6.6,2.7,9.8c0.5,1.6,1,3.3,1.5,4.9c0.5,1.6,1.1,3.2,1.8,4.7l-0.4,0.1
				c0.4-1.9,1-3.8,1.9-5.6c0.9-1.7,2.1-3.4,3.7-4.6c1.5-1.2,3.7-1.9,5.6-1.2c1.9,0.6,3.3,2.2,4.4,3.8l-0.1,0.1
				c-1.1-1.6-2.5-3.1-4.4-3.7c-1.9-0.6-3.9,0.1-5.3,1.3c-1.5,1.2-2.6,2.8-3.5,4.6c-0.9,1.7-1.5,3.6-1.8,5.5l-0.1,0.6l-0.3-0.6
				c-0.9-1.5-1.4-3.2-1.9-4.8c-0.5-1.6-1-3.2-1.5-4.9c-1-3.3-1.9-6.5-2.8-9.8c-1.8-6.6-3.4-13.2-5-19.8c-0.8-3.3-1.6-6.6-2.3-9.9
				c-0.8-3.4-0.9-6.8-0.8-10.3c0.3-6.9,1.5-13.6,2.9-20.3c1.4-6.7,3.1-13.3,4.8-19.9l2.6-9.9l1.3-4.9c0.5-1.7,1.1-3.3,1.8-4.9
				c1.5-3.1,3.9-5.9,7-7.6c3.1-1.7,6.7-2.2,10.1-2.1c3.5,0.1,6.8,0.9,10.1,2c3.3,1.1,6.4,2.4,9.4,4.1l0.1,0.1l0,0.1
				c1.4,4.7,2.1,9.7,1.8,14.7c-0.3,4.9-1.4,9.8-2.9,14.5c-3,9.4-7.8,18.1-12,27c-1.1,2.2-2.1,4.4-3.1,6.7c-1,2.2-2,4.5-2.6,6.9
				c-0.3,1.2-0.4,2.4-0.3,3.6c0.1,0.6,0.3,1.2,0.5,1.7c0.3,0.5,0.6,1.1,0.9,1.6c1.2,2.2,2.3,4.4,3.4,6.6c2.1,4.4,4.1,8.9,5.9,13.5
				c0.9,2.3,1.7,4.6,2.4,7c0.4,1.2,0.7,2.4,0.9,3.6c0.2,1.2,0.4,2.5,0.3,3.8l-0.1,0.7l-0.5-0.4c-1.2-1-2.5-1.7-4-2.2
				c-1.4-0.5-3-0.6-4.4-0.1c-1.4,0.5-2.6,1.5-3.4,2.7c-0.9,1.3-1.4,2.7-1.9,4.2l-0.4,1.3l-0.5-1.3c-1.3-3.6-2.1-7.2-3.1-10.9
				c-1-3.6-1.9-7.2-3-10.8c-1.1-3.6-2.2-7.2-3.6-10.6c-1.4-3.4-3-6.9-5.4-9.7l-0.1-0.1l0.1-0.2c1.6-3.8,3.3-7.6,5-11.4
				c1.7-3.8,3.3-7.6,4.9-11.4c1.6-3.8,3.1-7.7,4.5-11.6c0.7-2,1.3-3.9,1.9-5.9c0.3-1,0.5-2,0.6-3
				C-969.4,319.6-969.3,318.5-969.5,317.5L-969.5,317.5z"/>
		</g>
		<g>
			<path class="st19" d="M-970.7,361.5c-1,0-2-0.2-2.9-0.4c-1-0.2-1.9-0.5-2.8-0.6c-0.9-0.2-1.8-0.3-2.6,0c-0.8,0.3-1.6,0.9-2.3,1.6
				c0.4-0.9,1-1.8,2-2.3c0.5-0.3,1-0.4,1.6-0.4c0.5,0,1.1,0,1.6,0.1c1,0.2,1.9,0.5,2.8,0.9C-972.5,360.7-971.6,361-970.7,361.5z"/>
		</g>
		<g>
			<path class="st19" d="M-986.1,364c-1-0.1-1.9-0.1-2.9-0.2c-1,0-1.9,0-2.9,0c-1,0-1.9,0-2.9,0c-1,0-1.9,0.1-2.9,0.2
				c0.9-0.5,1.8-0.8,2.8-1c1-0.2,2-0.3,2.9-0.3c1,0,2,0.1,2.9,0.3C-988,363.2-987,363.5-986.1,364z"/>
		</g>
		<g>
			<path class="st19" d="M-986.1,364.9c-1.8,1.1-3.7,1.9-5.6,2.7c-1,0.4-1.9,0.7-2.9,1c-1,0.4-2,0.6-2.9,1.1
				c0.7-0.8,1.7-1.3,2.6-1.8c0.9-0.5,1.9-0.9,2.9-1.2C-990.2,366-988.2,365.3-986.1,364.9z"/>
		</g>
	</g>
	<path class="st16" d="M-997.6,178.5c-2.9-1-7.6-1-8.6,4.8c-2.9,0-5.7,0-6.7,11.5c-1,11.5,13.4,8.6,15.3,2.9s4.8-10.5,3.8-12.4
		c-1.9,3.8-3.8,4.8-6.7,3.8c-2.9-1-2.9-6.7,2.9-8.6C-991.9,178.5-997.6,178.5-997.6,178.5z"/>
	<path class="st20" d="M-1002.4,212c-0.7-0.6,0-8.6,1-9.6c1-1,0-7.6-3.8-8.6c-3.8-1-8.6,1.9-14.3,13.4c-5.7,11.5-10.5,16.3,3.8,23.9
		c14.3,7.6,23.9,6.7,25.8,12.4c1.9,5.7,1.9,48.8,0,57.4c11.5,1,34.2-5.4,40,4.1c7.6-2.9,5-7,5-13c0-7,4.7-30.3,6.7-36.1
		c1.9-5.7,2.3-31.9-15.7-32.9c-10.5-0.6-12.4,0.7-20-5C-980.7,219.9-997.6,215.8-1002.4,212z"/>
	<g class="st1">
		<path class="st21" d="M-1002.4,213.9c-1.1,0.2-2.2,0.6-3.3,1c-1.1,0.4-2.1,0.9-3.1,1.4c-1,0.5-2,1.1-2.9,1.7
			c-0.9,0.7-1.7,1.4-2.2,2.5c0.1-1.2,0.9-2.3,1.7-3.1c0.9-0.8,1.9-1.5,2.9-2c1.1-0.5,2.2-1,3.3-1.2
			C-1004.8,213.9-1003.6,213.7-1002.4,213.9z"/>
	</g>
	<g class="st1">
		<path class="st21" d="M-1003.4,212c-2.1,0.4-4.2,0.2-6.1,0.5c-1,0.1-1.9,0.3-2.8,0.7c-0.9,0.4-1.7,0.9-2.5,1.6
			c0.5-0.9,1.2-1.8,2.2-2.3c0.9-0.6,2-0.9,3.1-1C-1007.5,211.2-1005.4,211.6-1003.4,212z"/>
	</g>
	<g class="st1">
		<path class="st21" d="M-976.6,218.7c1.4,0.8,2.8,1.7,4,2.8c1.3,1,2.4,2.1,3.6,3.3c1.1,1.2,2.2,2.4,3.1,3.8
			c0.5,0.7,0.9,1.4,1.2,2.1c0.2,0.4,0.3,0.8,0.4,1.2c0.1,0.4,0.1,0.8,0.1,1.2c-0.2-0.8-0.5-1.5-1-2.2c-0.4-0.7-0.9-1.3-1.4-1.9
			c-1-1.2-2.1-2.4-3.2-3.5c-1.1-1.2-2.2-2.3-3.4-3.4C-974.3,220.9-975.4,219.7-976.6,218.7z"/>
	</g>
	<g class="st1">
		<path class="st21" d="M-944.1,254c0.4,3.6,0.9,7.1,1.2,10.7c0.2,3.6,0.3,7.3-0.6,10.8c0.1-3.6-0.1-7.1-0.4-10.7
			C-944.1,261.2-944.5,257.6-944.1,254z"/>
	</g>
	<g class="st1">
		<polygon class="st21" points="-969,191.4 -970.6,191.5 -970.4,190.5 		"/>
	</g>
	<g class="st1">
		<path class="st21" d="M-967.8,189.8c-0.3-0.3-0.7-0.6-1.2-0.8c-0.2-0.1-0.4-0.2-0.6-0.2c-0.1,0-0.2,0-0.3,0c-0.1,0-0.1,0.1,0,0
			l-0.6-0.8c0.3-0.2,0.6-0.1,0.7-0.1c0.2,0,0.3,0.1,0.4,0.2c0.2,0.1,0.4,0.3,0.6,0.5C-968.3,189-968,189.4-967.8,189.8z"/>
	</g>
	<path class="st22" d="M-954.8,203.4c-0.4,2.4-0.8,8.8,0.3,9.9c1.1,1.1,2.1-2.1,2.7-1.5c0.6,0.5-0.2,4.8,0.9,3.7
		c1.1-1.1,2.1-3.4,2.1-3.4l0.7,4.9c0,0-0.1-9.4,3-2c3-6,5-8,7-12c0.7-1.5,3-12.5-1-17c-1.9-1.6-2-5-7-7c-1.5-0.5-4.9-1.9-8-2
		c-3.1-0.1-6.1-1.3-10,0c-3.9,1.3-6.8,2.2-7.4,6.7c-0.5,4.5,1.1,5.3,1.1,5.3s-2.7-2,4.3-4c-1.5,0.4-2.2,4.7,3.2,8.7
		c0.8-3.2,0-2.6,0.9-2.9c0.9-0.3,0.3,3.5,2.2,5.2c1.9,1.6,0.8-1,2-1.4c1.2-0.5,1.3,2.8,1.3,2.4c0.1-0.4,1.4-1.7,1.4-1.7
		S-954.6,202.5-954.8,203.4z"/>
	<g class="st1">
		<path class="st23" d="M-952.6,181.2c0.9,0.9,1.8,2,2.4,3.2c0.6,1.2,1,2.5,1.2,3.8c0.2,1.3,0.2,2.7,0.4,3.9
			c0.2,1.2,0.6,2.5,1.4,3.5c-1.1-0.8-1.9-2-2.2-3.4c-0.3-1.3-0.4-2.6-0.6-3.9c-0.2-1.3-0.5-2.5-1-3.7
			C-951.4,183.5-952,182.4-952.6,181.2z"/>
	</g>
	<g class="st1">
		<path class="st23" d="M-943.2,189.3c0.6,0.9,1.2,1.8,1.7,2.7c0.5,0.9,0.9,1.9,1.2,3c0.3,1.1,0.4,2.2,0.1,3.3
			c-0.2,1.1-0.9,2.1-1.8,2.7c0.6-0.9,0.9-1.9,1-2.9c0.1-1-0.1-2-0.3-3c-0.2-1-0.6-2-1-2.9C-942.6,191.3-943.1,190.3-943.2,189.3z"/>
	</g>
	<g class="st1">
		<path class="st24" d="M-955.2,197c1.7-1.2,6.8-1.5,5.4,1.8s-4.5,3.2-5,3.5c-0.5,0.4-2.9,1.7-3.8-1.1"/>
		<path class="st23" d="M-955.2,197c0.6-0.5,1.4-0.8,2.2-1c0.8-0.2,1.6-0.2,2.5,0c0.4,0.1,0.9,0.4,1.2,0.8c0.3,0.5,0.3,1,0.2,1.5
			c-0.2,0.9-0.6,1.6-1.2,2.3c-0.6,0.7-1.3,1.2-2.1,1.5c-0.4,0.2-0.8,0.3-1.2,0.4c-0.4,0.1-0.8,0.2-1,0.2c-0.7,0.4-1.6,0.7-2.5,0.5
			c-0.9-0.3-1.3-1.1-1.4-1.9c0.3,0.7,0.8,1.4,1.6,1.4c0.7,0.1,1.4-0.2,1.9-0.6c0.5-0.3,0.9-0.3,1.2-0.4c0.4-0.1,0.7-0.2,1-0.4
			c0.7-0.3,1.2-0.7,1.7-1.3c0.5-0.5,0.8-1.2,1-1.8c0.2-0.6-0.1-1.1-0.7-1.4c-0.6-0.3-1.4-0.3-2.2-0.3
			C-953.8,196.5-954.5,196.6-955.2,197z"/>
	</g>
	<g class="st1">
		<path class="st23" d="M-952,198.8c-0.1-0.4-0.4-0.7-0.6-0.9c-0.2-0.3-0.5-0.5-0.8-0.7c-0.3-0.2-0.6-0.3-0.8-0.2
			c-0.1,0.1-0.2,0.2-0.3,0.3c-0.1,0.1-0.1,0.3-0.1,0.4c0,0.1,0.1,0.3,0.1,0.6c0,0.3-0.2,0.6-0.4,0.7c-0.3,0.2-0.6,0.4-0.9,0.7
			c-0.3,0.2-0.4,0.5-0.1,0.8c0.2,0.3,0.6,0.4,0.9,0.6c-0.4-0.1-0.8-0.1-1.1-0.4c-0.2-0.1-0.3-0.4-0.3-0.6c0-0.2,0.2-0.4,0.3-0.6
			c0.3-0.3,0.6-0.6,0.9-0.8c0.1-0.1,0.2-0.2,0.2-0.3c0-0.1-0.1-0.3-0.1-0.6c0-0.2,0.1-0.5,0.2-0.7c0.1-0.2,0.2-0.4,0.5-0.5
			c0.5-0.2,1,0.1,1.3,0.3C-952.7,197.4-952.1,198-952,198.8z"/>
	</g>
</g>
<g class="st0">
	<path class="st16" d="M-605.6,281.7c-1.9,2.2-3.6,4.4-5.3,6.6c-1.1,1.5-2.2,3.1-2.9,4.9c-0.6,1.7-0.7,3.6-0.9,5.4
		c-0.4,4-1.3,7.9-2.4,11.7c-0.2,0.6-0.6,1.4-1.2,1.3c-0.8-0.1-0.8-1.3-0.6-2c-0.3,0.5-0.6,1.1-1.1,1.4c-0.5,0.3-1.2,0.4-1.7,0
		c0.2-0.9,0.4-1.7,0.6-2.6c0.1,0.9-1,1.7-1.8,1.3s-0.7-1.8,0.1-2.1c-0.8,0.2-1.2,1.3-1.9,1.2c-0.7-0.1-0.7-1.1-0.4-1.8
		c0.8-2.6,1.6-5.1,2.4-7.7c0.4-1.3,0.7-3-0.5-3.7c-0.8-0.5-1.8-0.1-2.6,0.2c-2.4,1.1-4.5,2.8-6.2,4.8c-0.1-4.2,3.1-8.3,7.2-9.2
		c2.7-0.6,4.6-3.8,6.3-6c1.5-2,2.7-4.2,4.3-6.1s3.7-3.5,6.2-3.7c0.5,0,1,0,1.5,0.3c0.4,0.3,0.7,0.8,0.9,1.3c0.3,0.8,0.7,1.5,0.7,2.4
		C-605.1,280.4-604.8,281.6-605.6,281.7z"/>
	<path class="st25" d="M-639.2,227.2c0.4-2.5,2.6-4.3,4.7-5.8c0.2-0.2,0.5-0.5,0.3-0.7"/>
	<path class="st25" d="M-644.8,225.2c1.4-2.3,4.5-3.5,7-4.7c0.3,0.1,0.5,0.1,0.8,0.2c-2.6,1-4.7,3.3-5.5,6"/>
	<circle class="st25" cx="-623.3" cy="227.2" r="1"/>
	<path class="st20" d="M-642.7,189.6c2.9-2.3,7.3-2.8,10.2-0.6c3.7,2.8,3.7,8.2,3.4,12.8c-0.3,3.9-0.6,7.9-0.8,11.8
		c-0.1,1.5-0.2,3-0.7,4.5c-0.6,1.6-1.7,3-2.8,4.4c-1.5,1.8-3.2,3.5-5.2,4.8c-3.9,2.6-8.6,3.4-13.2,4.1c-1.6,0.3-3.4,0.5-4.9-0.2
		c-4.3-2.2-1.7-8,1.4-9.7c3.4-1.9,8-0.4,9.2-5.1c0.9-3.6-1.1-8.3-1.4-12C-647.9,199.1-647.1,193.1-642.7,189.6z"/>
	<path class="st25" d="M-617.1,302.2c0,2.4-1.2,4.7-1.7,7"/>
	<path class="st16" d="M-621.5,227.5c0.2,1.3,0.3,2.9-0.7,3.7c-1.9-0.7-2.5-3.1-2.8-5.1c-0.3-2-0.8-4.5-2.7-5.2
		c-1.7,2.2-4.7,2.9-6.9,4.6c-1.9,1.5-3.1,3.6-4.3,5.7c-0.7-1-1-2.3-0.8-3.4c-0.3,0.7-0.6,1.5-1.1,2c-0.6,0.5-1.6,0.6-2.1,0
		c-0.5-0.7-0.1-1.7,0.4-2.4c-0.7,1-1.7,1.9-2.7,2.5c-0.4-1.1-0.3-2.4,0.3-3.4c0.1,0.6-0.9,0.7-1.2,0.1c-0.2-0.5,0.1-1.1,0.4-1.6
		c1.7-2.7,3.6-5.4,6.4-6.8c1.2-0.5,2.5-0.8,3.6-1.5c2.6-1.5,3.6-4.7,4.4-7.6c0.5-1.9,1.8-4.8,4.3-3.9c1.9,0.6,1.5,2.5,1.7,4.1
		C-624.5,215.3-622.5,221.4-621.5,227.5z"/>
	<path class="st25" d="M-619.2,301.4c-0.2,2.6-1.4,5-2.2,7.5"/>
	<path class="st25" d="M-620.3,298.6c-0.6,3.3-1.6,6.5-3,9.6"/>
	<path class="st26" d="M-544,228.4c-0.1,2.7-0.2,5.4-0.2,8.2c0.3-9.2,0.7-18.4,1-27.6c0.1-2.9,0.2-5.8-0.4-8.6
		c-0.6-2.9-1.9-5.5-3.3-8.1c-8.8-15.3-24.9-26.2-42.4-28.9c-2.3-0.3-4.6-0.5-6.9-0.2c-2.7,0.4-5.2,1.7-7.6,2.9
		c-5.1,2.5-10.2,5.1-14.5,8.7c-2.7,2.2-2.1,5.6-0.9,8.9s3.7,6,6.2,8.4c10,9.5,22.1,16.8,30.5,27.7c8.7,11.3,12.8,25.6,21.1,37.1
		c2.4,3.3,5.9,6.7,10,6.1c1.5-0.2,2.9-1,4.1-1.9c5.4-4,8.4-10.5,10.1-17c1.7-6.5,2.2-13.2,4-19.7c0.3-1,1-2.2,1.9-1.8
		c0.9,2.8,2.6,5.3,4.7,7.4c0.4,0.3,0.7,0.7,1.2,0.8c1.3,0.3,2.2-1.4,2.3-2.8c0.6-5.2-2-10.2-4.4-14.9c-1.1-2.1-2.3-4.3-4.1-5.8
		c-1.8-1.5-4.5-2.3-6.7-1.2c-4.1,2.1-3,8.3-5.4,12.2c-0.2-1-0.4-1.9-0.5-2.9"/>
	<path class="st16" d="M-586.8,233.5c-2.3,4.3-5.3,8.2-8.8,11.6c-1.9,1.8-4,3.4-6.5,4c-1.1,0.3-2.5,0.2-3.2-0.7
		c-0.3-0.5-0.5-1-0.6-1.6c-0.8-2.4-2.8-4-4.3-6c-1.4-1.9-2.2-4.3-2.8-6.6c-1.5-5.4-2.2-11.3-0.5-16.7c1.3-4.2,4.2-7.9,8.2-9.7
		c2.2-1,4.7-1.4,7.1-1.5c2.2-0.1,4.4,0,6.6,0.6c4.9,1.4,8.8,5.9,9.6,10.9c0.3,2.1,0.1,4.4,0.7,6.5c0.2,0.5,0.4,1,0.4,1.5
		c0,0.5-0.1,1-0.3,1.5c-0.8,2.5-1.8,5.4-4.3,6.3c-0.4,0.2-0.9,0.3-1.3,0.5c-1.2,0.8-1,2.6-0.6,4"/>
	<g class="st1">
		<path class="st24" d="M-586.5,228.4c0.4-1.5,1-3,2.3-3.7c0.4-0.2,1-0.3,1.3,0c0.2,0.2,0.3,0.4,0.3,0.7c0.1,0.6,0.1,1.1-0.1,1.7"/>
		<path class="st23" d="M-586.5,228.4c0-0.7,0.1-1.4,0.4-2.1c0.2-0.7,0.7-1.4,1.4-1.8c0.3-0.2,0.7-0.4,1.2-0.4c0.2,0,0.5,0,0.7,0.2
			c0.2,0.1,0.4,0.4,0.5,0.6c0.2,0.8,0.1,1.6-0.3,2.2c0-0.7-0.2-1.4-0.4-1.9c-0.1-0.2-0.2-0.2-0.5-0.2c-0.2,0-0.5,0.1-0.7,0.3
			C-585.2,225.9-585.7,227.2-586.5,228.4z"/>
	</g>
	<g class="st1">
		<path class="st24" d="M-583.7,228.1c0.2-0.3-0.2-0.6-0.5-0.6c-0.7,0.1-1,1-1,1.8c0,0.7,0,1.7-0.7,2c0.1-0.1,0.2-0.3,0.3-0.4"/>
		<path class="st23" d="M-583.7,228.1c0-0.3-0.2-0.3-0.4-0.3c-0.1,0-0.3,0.1-0.3,0.2c-0.2,0.2-0.3,0.6-0.3,0.9c0,0.3,0,0.8-0.1,1.3
			c0,0.2-0.2,0.5-0.3,0.7c-0.2,0.2-0.4,0.4-0.7,0.5l-0.7,0.2l0.5-0.4c0.1-0.1,0.3-0.2,0.4-0.3c0,0.2-0.1,0.4-0.1,0.5l-0.2-0.3
			c0.3-0.3,0.3-0.6,0.3-1c0-0.4-0.1-0.8,0-1.3c0.1-0.5,0.3-1.1,0.9-1.4c0.3-0.2,0.6-0.2,0.9,0c0.1,0.1,0.2,0.2,0.3,0.3
			C-583.6,227.9-583.6,228.1-583.7,228.1z"/>
	</g>
	<g class="st1">
		<path class="st24" d="M-603.7,234.4c2.9-2.3,6.8-3.1,10.3-2.3c-0.1-0.2-0.2-0.4-0.3-0.6"/>
		<path class="st23" d="M-603.7,234.4c1.2-1.4,3-2.4,4.8-2.8c1.8-0.4,3.8-0.3,5.6,0.4l-0.1,0.2c-0.1-0.2-0.1-0.4-0.2-0.6
			c0.1,0.2,0.3,0.3,0.4,0.5l0.2,0.2l-0.3,0c-1.8-0.1-3.6,0-5.3,0.3C-600.4,232.9-602.1,233.5-603.7,234.4z"/>
	</g>
	<g class="st1">
		<path class="st24" d="M-613.6,228.8c-0.2-0.3-0.4-0.6-0.7-0.8c0.5,1.3,1.8,2.1,3,3c1.2,0.8,2.2,1.8,3.1,3c1.3,1.6,0.8,5,0.4,7.1
			c-0.1,0.6-0.2,1.2-0.1,1.8s0.6,1.2,1.1,1.3c0.7,0.1,1.4-0.5,1.9-1c-0.1,0.1-0.2,0.3-0.3,0.4c-0.1-0.1-0.9,0.9-1,0.8
			c1.9,0.2,3.8,0.4,5.7,0.5c-1.7,1.6-5,1.7-6.3-0.2c0.1-0.2,0.3-0.4,0.4-0.5"/>
		<path class="st23" d="M-613.6,228.8l-0.7-0.8l0.1-0.1c0.3,0.8,1,1.4,1.8,1.9c0.7,0.5,1.5,1,2.2,1.6c0.7,0.6,1.4,1.2,2,1.9
			c0.3,0.3,0.6,0.8,0.8,1.2c0.2,0.5,0.3,0.9,0.4,1.4c0.2,1.9-0.1,3.8-0.4,5.5c-0.2,0.8,0,1.6,0.5,2c0.2,0.1,0.5,0.2,0.8,0
			c0.3-0.2,0.6-0.5,0.9-0.8l0.8,0.6l-0.3,0.4l-0.7,0.1c0.1,0.1,0.2,0.1,0.3,0.1c0.1,0,0.1,0,0.1,0c0,0,0.1,0,0,0l0,0l-0.1,0.1
			l-0.2,0.2l-0.3,0.2l-0.2,0.1l-0.1,0.1c0,0-0.1,0-0.1,0.1c0,0,0,0-0.1,0c-0.1,0-0.2,0-0.3-0.1l-1.7-1l2,0.2
			c1.9,0.2,3.8,0.4,5.7,0.7l0.8,0.1l-0.6,0.5c-1,0.8-2.2,1.2-3.5,1.2c-1.2,0-2.5-0.5-3.1-1.6l0,0l0,0l0.4-0.5l-0.4,0.6l0,0
			c0.7,0.9,1.9,1.3,3.1,1.2c1.1-0.1,2.2-0.5,3-1.2l0.2,0.6c-1.9-0.1-3.8-0.2-5.7-0.4l0.3-0.8c-0.1-0.1-0.2-0.1-0.3-0.1l-0.1,0
			c0,0-0.1,0,0,0l0,0l0.1-0.1l0.2-0.2l0.2-0.2l0.2-0.1l0.1-0.1c0,0,0.1,0,0.1-0.1c0,0,0,0,0.1,0c0.1,0,0.2,0,0.3,0.1l-0.7,0.1
			l0.3-0.4l0.8,0.6c-0.3,0.3-0.7,0.7-1.2,1c-0.5,0.3-1.3,0.3-1.8,0c-0.5-0.3-0.8-0.9-0.9-1.4c-0.1-0.5,0-1.1,0-1.5
			c0.3-1.8,0.6-3.5,0.5-5.3c-0.1-0.9-0.3-1.6-0.9-2.3c-0.6-0.7-1.2-1.3-1.8-1.9c-0.7-0.6-1.4-1.1-2.1-1.7c-0.7-0.6-1.4-1.3-1.6-2.2
			l-0.1-0.4l0.2,0.3L-613.6,228.8z"/>
	</g>
	<g class="st1">
		<path class="st24" d="M-601.2,234.5c2.2-0.7,4.6-1,6.9-0.7c0,0.2-0.1,0.4-0.4,0.4c0.5,0.8-1.4,1.9-2.3,1.7c-0.9-0.1-1.5-1-1.6-1.9
			c0.8,0,1.5,0,2.3-0.2c0.2,0.4,0.2,0.9-0.1,1.2s-1,0.1-1-0.3c0-0.4,0.8-0.6,0.9-0.2"/>
		<path class="st23" d="M-601.2,234.5c2.1-1,4.5-1.4,6.9-1.2l0.4,0l0,0.4c0.1,0.5-0.3,0.9-0.8,1l0.4-0.7c0.1,0.2,0.2,0.5,0.1,0.7
			c0,0.2-0.1,0.4-0.2,0.5c-0.2,0.3-0.4,0.5-0.7,0.6c-0.5,0.3-1,0.6-1.6,0.6c-0.7,0.1-1.3-0.3-1.7-0.8c-0.4-0.5-0.6-1-0.7-1.6
			l-0.1-0.5l0.5,0c0.7,0,1.4,0,2.2-0.1l0.3,0l0.1,0.2c0.2,0.4,0.2,0.8,0.1,1.2c-0.1,0.2-0.2,0.4-0.4,0.5c-0.2,0.1-0.4,0.1-0.6,0
			c-0.2-0.1-0.4-0.2-0.5-0.4c-0.1-0.2-0.1-0.4,0.1-0.6c0.1-0.1,0.3-0.2,0.5-0.2c0.2,0,0.4,0.1,0.4,0.3c-0.1-0.3-0.6-0.2-0.7,0
			c-0.1,0.2,0.1,0.4,0.3,0.4c0.5,0.1,0.6-0.6,0.3-1l0.4,0.2c-0.8,0.2-1.6,0.3-2.3,0.3l0.5-0.5c0.1,0.4,0.3,0.8,0.5,1.1
			c0.2,0.3,0.6,0.5,0.9,0.4c0.4,0,0.8-0.2,1.1-0.4c0.2-0.1,0.3-0.3,0.4-0.4c0.1-0.1,0.1-0.2,0.1-0.2l0.4-0.7c-0.1,0-0.1,0-0.1,0.1
			l0.4,0.4C-596.6,234-598.9,234.1-601.2,234.5z"/>
	</g>
	<g class="st1">
		<path class="st24" d="M-610.6,232.5c0-0.1,0.2,0.1,0.1,0.1c-0.1,0.1-0.2,0-0.3-0.1c-0.6-0.5-1.1-1.1-1.7-1.6
			c0.5,0.6,1,1.2,1.5,1.9c-0.2,0.4-0.6,0.6-1,0.5s-0.7-0.5-0.5-0.9c0.1-0.4,0.7-0.5,0.9-0.1"/>
		<path class="st23" d="M-610.6,232.5c0-0.1,0.1,0,0.2,0c0,0.1-0.1,0.2-0.2,0.2c-0.2,0-0.3-0.1-0.4-0.2c-0.2-0.1-0.4-0.3-0.6-0.4
			c-0.4-0.3-0.8-0.6-1.2-0.9l0.7-0.6C-611.6,231.2-611.1,231.8-610.6,232.5l0.2,0.2l-0.1,0.3c-0.2,0.4-0.6,0.7-1,0.7
			c-0.4,0.1-0.9-0.2-1.1-0.6c-0.2-0.4-0.1-0.9,0.3-1.1c0.3-0.2,0.8-0.1,0.9,0.2c-0.2-0.2-0.5-0.1-0.7,0.1c-0.1,0.2-0.1,0.3,0.1,0.4
			c0.1,0.1,0.2,0.1,0.4,0.1c0.1,0,0.3-0.2,0.3-0.3l0.1,0.5c-0.5-0.6-1-1.2-1.5-1.9l0.7-0.6c0.3,0.4,0.6,0.7,0.9,1.1
			c0.2,0.2,0.3,0.4,0.4,0.6C-610.7,232.4-610.7,232.5-610.6,232.5C-610.6,232.6-610.5,232.6-610.6,232.5
			C-610.5,232.6-610.6,232.5-610.6,232.5z"/>
	</g>
	<path class="st22" d="M-605,223.9c-0.4,0.6-0.9,1.2-1.4,1.6c0-0.3,0.1-0.7,0.1-1c-0.4,0.4-0.8,0.8-1.2,1.2c0.1-0.6,0.3-1.3,0.4-1.9
		c-0.5,0.5-0.9,1-1.4,1.4c-1.1-2.5-1.3-5.4-0.4-7.9c-2.2,1.5-3.6,4.1-3.7,6.8c-0.1-1.7-0.1-3.4-0.2-5c-1.1,2-1.4,4.4-0.8,6.6
		c-1.7-1-2.6-2.9-2.9-4.9c-0.3-1.9,0.1-3.9,0.4-5.8c0.5-2.8,1-5.7,2.5-8.2c1.9-2.9,5.1-4.7,8.4-5.6c3.3-0.8,6.9-0.8,10.3-0.6
		c4.4,0.3,9.1,0.9,12.2,4c2.1,2.1,3.2,5,3.9,7.9c1.3,5,1.9,10.2,1.8,15.3c-0.7-1.2-1.4-2.5-2.1-3.7c-0.4,0.2-0.8,0.3-1.2,0.5
		c-0.1,1.1-0.1,2.2-0.2,3.2c-0.4,0.8-1.2,1.4-2.2,1.6c-0.1,0.4-0.3,0.7-0.4,1.1c1-2.2,1.2-4.7,0.8-7.1c-0.1-0.6-0.3-1.2-0.8-1.5
		c-0.9-0.6-2.1,0.3-2.5,1.4c-0.4,1-0.5,2.2-1.2,3c-1.3,0-2.5,1.3-2.4,2.6c-0.3-0.4-0.5-0.8-0.8-1.2c0.4,0.6-1.7,0.7-1.9,0.6
		c-0.9-0.2-1.5-1.3-2-2c-0.9,0.2-1.6,0.8-2.3,1.3c-1.3-2.4-1.8-2.3-4.2-1.5c-2.5,0.8-2.8,0-3.4-2.5c-0.2,0.5-0.5,1.1-0.8,1.6
		c0-0.2-0.1-0.5-0.1-0.8c-0.2,0.4-0.5,0.8-0.7,1.3C-605.4,225.2-605.2,224.5-605,223.9z"/>
	<path class="st26" d="M-556.4,227.3c-2.8,3.4-5.5,6.8-7.7,10.6c-1.4,2.5-2.6,5.1-4.1,7.5c-1.5,2.6-3.4,5-5.2,7.4
		c-2.6,3.4-5.1,6.7-7.7,10.1c-2,2.7-4.1,5.4-6.4,7.8c-2.7,2.9-5.7,5.6-8.7,8.2c-1.8,1.5-3.6,3-5.5,4.2c-1.2,0.8-2.6,1.5-4.1,1.4
		c-1.6-0.1-3-1-4.3-1.9c-1.4-0.9-2.7-1.9-4.1-2.8c-0.3-0.2-0.6-0.4-0.8-0.8c-0.1-0.3,0-0.6,0.1-0.9c1.5-5.8,5.4-10.6,9.5-14.9
		c4.1-4.3,8.6-8.3,12-13.2c2-2.9,3.6-6,5.6-8.9c2.8-3.9,6.3-7.3,8.8-11.4c2.5-4.1,3.8-8.7,6.4-12.7s7.1-7.3,11.8-6.6
		c1.7,0.3,3.2,1.1,4.6,2.1c1.9,1.4,3.5,3.4,3.9,5.7c0.5,2.3-0.2,4.6-1.3,6.6c-1.1,2-2.7,3.7-4.3,5.4"/>
	<path class="st26" d="M-588.9,194.8c-7.8-5.5-15.6-11.1-22.3-18c-3-3.1-5.7-6.4-9.3-8.8s-8.2-3.6-12.1-1.8
		c-3.5,1.5-5.7,5.2-6.5,8.9s-0.2,7.6,0.5,11.4c1.4,7.6,3.6,15,6.5,22.1c0.2,0.4,0.4,0.9,0.7,1.1c0.4,0.2,0.8,0.2,1.2,0.2
		c2.8-0.2,5.7-0.6,8.4-1.3c-0.2-3-0.6-6-1.2-9c2.4,2.3,4.6,4.7,6.7,7.4c5.2-6.3,12.9-10.3,21-10.9c1.6-0.1,3.3-0.1,4.8-0.5
		s3.1-1.3,3.8-2.8"/>
</g>
<rect x="151.7" y="90.7" class="st27" width="110.3" height="84.2"/>
<line class="st27" x1="206.9" y1="59.8" x2="206.9" y2="91.3"/>
<ellipse class="st28" cx="211.1" cy="56.8" rx="7.9" ry="10.3"/>
<path class="st29" d="M126.5,290.8c-0.9,1.5-1.7,3.1-2.5,4.8c-0.6,1.4-1.2,3-0.5,4.3c0.7,1.4,2.6,1.8,4.2,1.6s3.1-0.8,4.7-0.8
	c3.1,0,5.6,2.1,8.2,3.9c2.5,1.8,5.9,3.2,8.5,1.7c0.7-0.4,1.3-1,1.4-1.7c0.1-0.7-0.1-1.4-0.4-2C146.7,294.5,134.1,277.7,126.5,290.8z
	"/>
<path class="st29" d="M150.6,296c0,0.5,0,0.9,0.1,1.4c0.4,1.5,2,2.1,3.3,2c1.3-0.1,2.7-0.7,4-0.5c6.5,0.8,5.1,14.3,11.2,15
	c4.2,0.5,3.6-5.2,2.9-8.8c-1.1-5.9-4.1-11.4-8.1-14.8C159.3,286.3,151,286.7,150.6,296z"/>
<ellipse class="st30" cx="105.1" cy="554.9" rx="61.2" ry="10.8"/>
<ellipse class="st30" cx="650" cy="588.9" rx="175.8" ry="10.8"/>
<g>
	<line class="st31" x1="194.2" y1="152.5" x2="131.1" y2="556.2"/>
	<line class="st31" x1="151.7" y1="145.3" x2="77.8" y2="550.2"/>
	<line class="st31" x1="87.8" y1="495.2" x2="140.7" y2="495.2"/>
	<line class="st31" x1="97.5" y1="442.3" x2="149.5" y2="442.3"/>
	<line class="st31" x1="105.5" y1="398.3" x2="155.8" y2="398.3"/>
	<line class="st31" x1="114.3" y1="350.6" x2="163.3" y2="350.6"/>
	<line class="st31" x1="131.9" y1="254" x2="178.9" y2="254"/>
	<line class="st31" x1="140.7" y1="205.9" x2="185.8" y2="205.9"/>
	<line class="st31" x1="149.5" y1="157.8" x2="193.4" y2="157.8"/>
	<line class="st31" x1="123.5" y1="300" x2="171.7" y2="300"/>
</g>
<path class="st32" d="M148.7,191.3c-2.5,6.9-0.1,14.4,2.3,21.3c3.3,9.8,6.7,19.6,10,29.3c0.6,1.8,1.2,3.6,1.2,5.5
	c0,2.6-1.2,5.1-2.3,7.5c-5.3,11.7-9,24.1-10.9,36.8c5.9-4.5,15-3.9,20.3,1.3c7-20.6,9.8-42.5,8.3-64.1c-1.5-22.5-7.6-44.4-13.7-66.2
	c-5.9,2.8-11.9-2.8-18.4-2.2c-9.9,0.9-16.2,11.7-16.4,21.6c-0.2,9.9,3.7,19.4,6.1,29c2.7,10.9,3.3,22.4,1.2,33.5
	c-2.9,16-11.3,30.7-12.8,46.9c4.8-5.2,13.6-6.3,19.5-2.3c2.4-11,4.7-21.9,7.1-32.9c2.5-11.5,5-23.4,3.3-35.1"/>
<path class="st33" d="M163.4,102c-1.6,2.5-3.9,5.4-6.9,4.8c-1.3-0.2-2.3-1.1-3.3-2c-3.5-3.1-7-6.3-8.9-10.6c-1.3-3-1.8-6.4-1.3-9.6
	c1.5-9.6,11.8-11.4,18.7-5.5C168.6,85.1,167.7,95.1,163.4,102z"/>
<path class="st34" d="M168.5,122.9c0.2,15.8,0.4,31.7,0.6,47.5c0,1.6-0.3,3.6-1.8,3.9c-0.8,0.2-1.6-0.3-2.3-0.7
	c-11.1-6.2-26-4.9-35.9,3c3.5-16.7,7.1-33.4,10.6-50.2c1.1-5.1,2.2-10.4,5.2-14.6c3-4.3,8.2-7.4,13.3-6.3c5.5,1.2,9,7,10.1,12.5"/>
<path class="st28" d="M123.7,24c151.8,61.9,559.7,176.7,918.5,157"/>
<g>
	<line class="st27" x1="970.6" y1="187.3" x2="970.6" y2="227.8"/>
	<rect x="899.7" y="227" class="st27" width="141.8" height="108.2"/>
	<ellipse class="st35" cx="971.4" cy="182.6" rx="8.6" ry="12.5"/>
	<ellipse class="st28" cx="976.1" cy="183.4" rx="10.1" ry="13.2"/>
</g>
<ellipse class="st35" cx="207.5" cy="56.2" rx="6.7" ry="9.7"/>
<ellipse class="st28" cx="451.2" cy="125.9" rx="7.9" ry="10.3"/>
<line class="st27" x1="448.1" y1="130.1" x2="430" y2="156.8"/>
<polygon class="st27" points="370,139.3 494,174.8 445.3,265 321.3,229.6 "/>
<path class="st33" d="M202.2,55.4c0.1,0.5-0.2,1-0.4,1.5c-0.9,1.3-1.7,2.7-2.6,4c1.1-1.8,3-3.2,5.1-3.5c-0.3,2.4-2,4.5-4.3,5.3
	c1.3-0.9,3.1-0.8,4.3,0.1c-7,4-3.7,11.1-7.6,15.8c-2.7-2.6-3.1-8.1-3-11.7c0.1-2.8,0.6-6.4,2.1-8.7
	C196.5,57.3,201.4,52.5,202.2,55.4z"/>
<path class="st27" d="M290.3,152.7c13.8-0.8,26.1,7.7,38.8,12.9c7.2,2.9,14.8,4.9,22.5,5.8"/>
<path class="st34" d="M178.9,93.7c-7.1,8.2-19.6,10.8-25.1,20.1c-1.8,3.1-2.3,7.8,0.7,9.7c2.4,1.6,5.5,0.6,8.1-0.7
	c2.7-1.3,5.2-2.8,7.6-4.5c13.2-9.3,21.7-23.9,29-38.4c0.7-1.4,1.4-2.9,1.4-4.4c-3.1,1.1-6.8-0.9-7.7-4.1c-6.7,9.6-13.4,19.2-20,28.9
	"/>
<path class="st34" d="M162.5,123.4c3.8-0.9,7.6-1.9,11.4-2.8c2.2-0.5,4.5-1.1,6.5-2.2c5.1-2.8,7.8-8.4,10-13.8c2.9-7,5.6-14,8-21.1
	c0.8-2.4,1.5-5.2,0-7.2c-3.3,0.2-6.2,2-8.5,4.4c-2.3,2.4-3.9,5.2-5.6,8c-3.6,5.9-7.5,11.8-12.5,16.6c-4,3.9-9.1,7.8-9.2,13.4
	c0,0.5,0,1.1,0.4,1.5c0.4,0.5,1.2,0.6,1.9,0.6c2.2,0,4.5-0.3,6.6-0.9"/>
<path class="st27" d="M301.9,177.1c1.3,0.3,2.7,0.8,3.9,1.3c3.9,1.5,7.5,3.6,11.3,5.4c7.5,3.6,15.5,6.2,23.6,7.6"/>
<g>
	<g>
		<path class="st2" d="M791.1,566.3c0.1,12.1-7.4,21.9-17,21.9l-253.4,1.2c-7.8,0-16.6-9.7-16.7-21.7l-2.4-516.9
			c-0.1-12.1,8.7-21.9,19.9-21.9l248.7-1.2c9.3,0,18.5,9.7,18.6,21.7L791.1,566.3z"/>
		<path class="st3" d="M782.3,551.6c0.1,10.9-5.2,19.8-13.4,19.8l-242.4,1.1c-7.1,0-13.7-8.8-13.8-19.7l-2.2-467.2
			c-0.1-10.9,7.6-19.8,15.2-19.8l238.1-1.1c8,0,16.3,8.8,16.3,19.7L782.3,551.6z"/>
	</g>
	<g>
		<circle class="st3" cx="609.4" cy="48.4" r="4.2"/>
		<line class="st4" x1="625" y1="48.4" x2="687.3" y2="48.1"/>
	</g>
	<g>
		<g>
			<circle class="st5" cx="549.7" cy="98.3" r="14.2"/>
			<circle class="st2" cx="561.1" cy="102.4" r="11.3"/>
			<circle class="st6" cx="571" cy="106.6" r="7.1"/>
		</g>
		<path class="st7" d="M609.2,104.7c4.6,5.7,17.9,3.6,23.8-5.8c5.9-9.4-12.2-17.7-8.2-0.6c4,17.1,24.8,10.1,29.7,3.9
			c4.9-6.2-0.4-18-4.9-11.1c-4.7,7.1-2.1,16,10.7,17.1c7.9,0.7,16.1,1.3,20.3-7.2c6.8-13.7-9.8-17.6-6.3-0.7c3,14.4,15.4,8.7,20,4.1
			"/>
	</g>
	
		<rect x="536.2" y="164.3" transform="matrix(1 -4.647476e-03 4.647476e-03 1 -1.2682 3.0067)" class="st27" width="220.2" height="220.2"/>
	
		<rect x="537.4" y="405.5" transform="matrix(1 -4.647476e-03 4.647476e-03 1 -2.0995 2.7233)" class="st36" width="95.1" height="95.1"/>
	
		<rect x="661.4" y="404.9" transform="matrix(1 -4.647476e-03 4.647476e-03 1 -2.0951 3.2997)" class="st36" width="95.1" height="95.1"/>
</g>
<g>
	<ellipse class="st30" cx="808.8" cy="670.2" rx="121.2" ry="17"/>
	<path class="st37" d="M875.4,323.7c-1.1,9.6-6.5,18-12.6,25.5c-0.8,1-1.6,2-2.7,2.5c-1.1,0.6-2.6,0.6-3.5-0.3
		c-0.8-0.7-0.9-1.9-1-2.9c-0.8-7.8-0.6-15.6,0.2-23.3c0.5-5.5,0.1-17.5,3.6-22C867.8,292.4,876,317.7,875.4,323.7z"/>
	<path class="st29" d="M782.7,669.4c-13.9-3.5-29.3,3.2-42.6-2.3c-2.4-1-4.9-2.7-5.3-5.3c-0.4-2.5,1.5-4.9,3.8-6.1
		c2.3-1.1,4.9-1.2,7.5-1.4c10-0.6,16.3-3.2,23.5-10.1c4.9-4.7,11.2-10.1,17.9-5.1C798.8,647.6,803.5,674.7,782.7,669.4z"/>
	<path class="st38" d="M782.7,669.4c-13.9-3.5-29.3,3.2-42.6-2.3c-2.4-1-4.9-2.7-5.3-5.3c12.1,4.8,53.3,8.4,62.1-5.1
		C798,665.1,794.4,672.3,782.7,669.4z"/>
	<path class="st29" d="M866.9,658.6c-1.4,2.3-4.4,3.3-7.1,3c-2.7-0.3-5.2-1.5-7.7-2.5c-8-3.3-16.8-4.8-25.4-4.4
		c-3.1,0.1-6.2,0.5-9.1-0.5s-5.5-3.8-4.9-6.8c0.5-2.8,3.4-4.6,6.2-5c2.8-0.4,5.7,0.2,8.5,0.3c11.2,0.2,19.6-15.7,29.9-10.6
		C863.4,635,870.8,652,866.9,658.6z"/>
	<path class="st38" d="M866.9,658.6c-1.4,2.3-4.4,3.3-7.1,3c-2.7-0.3-5.2-1.5-7.7-2.5c-8-3.3-16.8-4.8-25.4-4.4
		c-3.1,0.1-6.2,0.5-9.1-0.5s-5.5-3.8-4.9-6.8c5.2,8.4,47.1,5.9,55.6,5.9C868.2,656.8,867,658.1,866.9,658.6z"/>
	<g>
		<path class="st39" d="M840.3,637.5c1.7-1.2,3.7-1.9,5.7-2.4c2-0.4,4-0.6,6-0.5c2,0.1,4,0.4,5.9,1c1,0.3,1.9,0.7,2.8,1.2
			c0.9,0.5,1.8,1,2.6,1.8c-1.1,0-2,0.1-3,0.1c-1,0-1.9,0-2.9,0c-1.9,0-3.8-0.1-5.7-0.2c-1.9-0.1-3.7-0.2-5.6-0.4
			C844.3,638,842.4,637.9,840.3,637.5z"/>
	</g>
	<g>
		<path class="st39" d="M767.6,645.9c1.8-1.8,4.2-2.9,6.6-3.6c2.4-0.7,4.9-0.9,7.4-0.8c2.5,0.1,4.9,0.5,7.3,1.1
			c1.2,0.3,2.3,0.8,3.5,1.3c1.1,0.5,2.2,1.1,3.2,2c-2.5-0.1-4.8-0.1-7.1-0.2l-6.9-0.2c-2.3-0.1-4.5-0.1-6.8-0.1
			C772.3,645.5,770.1,645.6,767.6,645.9z"/>
	</g>
	<path class="st37" d="M770.9,453.2c-0.9,8.8-1,17.7-1.1,26.6c-0.7,55.4-1.4,110.9-2.1,166.3c6-4.9,23.7-1.9,27.9-0.1
		c0.5-0.6,2.4-26.7,4.5-38.3c2.7-14.6,7-29.1,7-44c0-11.5-2.5-22.9-2.2-34.4c0.5-20.2,9.5-39.2,15-58.6c5.6-19.5,7.1-42.3-5.3-58.2
		c-3.8-4.9-9-9-15.1-10.3C776.3,396.9,772.5,437.6,770.9,453.2z"/>
	<path class="st37" d="M857.6,459.8c-0.5,19.3-2.4,38.9,2.1,57.6c1.8,7.7,4.5,15.1,6.7,22.7c9.1,30.7,3,89-2.6,98.8
		c-7.3-3.5-16-4.5-23.5-1.4c1.2-31,2.2-62.2-8.5-91.3c-2-5.4-4.4-10.7-6.1-16.2c-1.9-6.3-2.8-12.8-3.7-19.2
		c-2.6-18.3-5.2-36.7-7.8-55c-1.3-9-2.5-18-1.5-27c1.1-9,4.7-18,11.8-23.7C856.2,379.5,858.1,442.9,857.6,459.8z"/>
	<path class="st40" d="M857.1,299.9c0.6,0.8,1.2,1.7,1.2,2.6c0.2,1.6-1.2,3.1-2.8,3.6c-1.6,0.5-3.3,0.3-4.9,0.1
		c-7.1-0.9-14.2-1.7-21.2-2.6c-3.5-0.4-7.5-1.1-9.6-3.9c-2.2-2.9-1.6-7-0.9-10.6c0.8-3.9,1.5-7.7,2.3-11.6
		c1.4-7.2,2.9-14.5,6.6-20.7c3.3-5.6,9-10.5,15.6-11.3c9.5-1.2,5.3,6.1,4.3,12.3C845.6,272.3,848.8,287.8,857.1,299.9z"/>
	<path class="st33" d="M815.5,279.2c-3.5-0.5-5.7-3.9-7.1-7.1c-3.8-8.9-4.6-19-2.2-28.4c0.8-3,1.9-5.9,3.6-8.4
		c5.3-7.5,15.4-9.8,24.6-10c1.6,0,3.3,0,4.8,0.6c2.3,0.9,3.9,2.9,5.6,4.6c3.2,3.1,7.5,5.9,8.1,10.3c1.1,8.3-11.9,16.6-16.9,21.9
		C831.3,267.9,823.4,280.3,815.5,279.2z"/>
	<path class="st32" d="M867,304.7c4.1,6.4,4.2,14.5,2.9,22c-3.1,19.4-13.8,36.9-17.3,56.2c-2.2,12.2-4.1,19.7-0.2,31.5
		c1.3,4,4.8,9.7,4.8,17c-3.6-1.2-24.2-4.8-36.4-6.1c-20.8-2.1-42.4,0-47.3,1.8c0-4.2,3.7-11.9,4.9-15.2c6.6-18,5.6-32,5.4-51.1
		c-4.2,4.5-10.3,7.6-16.5,7.3c-6.2-0.3-12.3-4.6-13.7-10.6c-1.9-7.6,3.5-14.9,8.2-21.2c12.2-16.3,27.1-46.2,50.4-47.9
		c2-0.1,1.7-4.9,8.6-3.8c3.2,0.5,22.4,3,31.5,6.1c4.2,1.4,1.2,4.1,2.6,4.7C859.8,297.4,864.1,300.2,867,304.7z"/>
	<g>
		<path class="st37" d="M811.3,321.1c-2.4,3.1-4.7,6.3-6.8,9.5c-2.1,3.3-4.1,6.6-6.1,10c-2.1,3.3-4.1,6.7-6.5,9.8
			c-2.3,3.2-5,6.2-8,8.7c2.4-3.1,4.6-6.3,6.7-9.6c2.1-3.3,4.1-6.6,6.1-10c2.1-3.3,4.1-6.7,6.5-9.8
			C805.6,326.6,808.3,323.6,811.3,321.1z"/>
	</g>
	<path class="st41" d="M810.1,230.9c-1.1,1.3-2.2,2.7-2.6,4.4c-0.9,3.5,0.9,7,2.7,10.1c2,3.3,4.1,6.7,7.2,9
		c-0.5-0.9-0.8-1.8-1.1-2.7c0.7,0.5,1.5,0.7,2.3,0.6c-0.7-1.5,0.3-6.1,1.7-7.1c1-0.7,4.5,1.2,4.8,2.4c1.2,4.8,1.2,8.8-1.6,12.2
		c1.4-0.3,2.6-1,3.6-1.9c-0.1,1.6-0.5,3.2-1.3,4.7c1.3,0,2.7-0.2,3.9-0.5c-0.6,0.9-1.2,1.9-1.8,2.8c1.2,0.1,2.3-0.1,3.4-0.4
		c-0.9,1.1-0.4,2.9,0.7,3.8s2.7,1.2,4.1,1.4c1.8,0.3,3.7,0.6,5.5,0.8c0.2,0,0.5,0.1,0.7,0.2c0.2,0.2,0.3,0.5,0.4,0.8
		c0.6,1.3,2.6,1.2,3.9,0.4c1.9-1.2,3.1-3.2,3.8-5.3c0.8-2.1,1.2-4.3,2.1-6.3c1-2.4,2.7-4.5,3.7-6.8c1.2-2.8,1.6-5.8,2-8.8
		c0.4-3.3,0.8-6.6,0.2-9.8c-0.6-3.4-2.2-6.6-3.9-9.7c-1.3-2.3-2.7-4.6-4.8-6.2c-2.4-1.9-5.6-2.8-8.8-2.7c-2.8,0-5.4,0.7-8.1,1.4
		c-2,0.5-4.1,1.1-6.1,1.6c-1.7,0.4-2.4,1.7-3.9,2.4c-1.6,0.7-3.3,1.5-4.8,2.4C815.1,226,812.4,228.3,810.1,230.9z"/>
	<path class="st41" d="M804.8,228.7c-0.2-0.4-0.3-0.9,0-1.2c0.4-0.5,1.2,0,1.9-0.1c0.8-0.1,1.2-0.9,1.5-1.6c0.3-0.7,0.6-1.5,1.3-1.8
		c0.7-0.3,1.6,0.1,2.4-0.2c0.7-0.3,1-1,1.6-1.4c0.3-0.2,0.7-0.2,1.1-0.3c0.9-0.2,1.7-0.6,2.5-1.1c6-3.2,13-4.3,19.8-3.9
		c1,0.1,2,0.2,2.8,0.7c0.8,0.5,1.4,1.7,0.9,2.6c-0.3,0.7-1.1,1-1.8,1.3c-2.2,0.8-4.4,1.4-6.6,2.1c-4.8,1.3-9.6,2.7-14.4,4
		c-1,0.3-2.1,0.6-3,1.2c-1.6,1.2-2.6,4.6-4.9,4.4C807.8,233.2,805.7,230.5,804.8,228.7z"/>
	<g>
		<path class="st42" d="M820.4,258c-0.1,0.2-0.1,0.5-0.1,0.7c0,0.2,0.2,0.4,0.3,0.4c0.4,0,0.7-0.4,1-0.7c0.5-0.7,0.8-1.5,1.1-2.4
			c0.2-0.9,0.4-1.8,0.5-2.7c0.1-0.9,0.2-1.8,0.1-2.7c-0.1-0.9-0.3-1.7-0.8-2.3c-0.2-0.3-0.5-0.5-0.8-0.6c-0.2,0-0.4,0.1-0.6,0.4
			c-0.3,0.6-0.2,1.5,0.2,2.2c0.4,0.8,1,1.5,1.3,2.5l0.4,1l-0.9-0.6c-0.4-0.3-0.8-0.4-1-0.2c-0.2,0.3-0.3,0.9-0.4,1.4
			c-0.1,0.5-0.3,1-0.1,1.5c0.1,0.2,0.3,0.4,0.5,0.4c0.2,0.1,0.5,0,0.6-0.3c-0.1,0.6-1.1,0.5-1.3,0c-0.3-0.5-0.1-1.1-0.1-1.6l0.1-0.8
			c0-0.3,0.1-0.6,0.3-0.9c0.2-0.3,0.7-0.5,1-0.4c0.3,0.1,0.6,0.2,0.9,0.3L822,253c-0.3-0.8-1-1.5-1.4-2.3c-0.5-0.8-0.8-2-0.3-3.1
			c0.1-0.3,0.3-0.5,0.6-0.7c0.3-0.2,0.7-0.3,1-0.2c0.6,0.1,1.1,0.5,1.4,0.9c0.7,0.8,0.9,1.9,1,2.8c0.1,2-0.3,3.8-0.9,5.6
			c-0.3,0.9-0.7,1.8-1.4,2.5c-0.2,0.2-0.4,0.3-0.6,0.5c-0.2,0.1-0.4,0.3-0.7,0.2c-0.3,0-0.5-0.4-0.4-0.6
			C820.2,258.4,820.3,258.2,820.4,258z"/>
	</g>
	<g>
		<path class="st39" d="M773.6,427.7c6.6-2.3,13.7-3.3,20.6-3.9c7-0.6,14-0.6,21-0.3c7,0.3,14,1.1,20.9,2.3
			c3.5,0.6,6.9,1.4,10.3,2.4l2.5,0.8c0.8,0.3,1.7,0.6,2.5,0.9c1.7,0.6,3.2,1.4,4.8,2.2c-1.7-0.4-3.4-0.9-5.1-1.1
			c-0.9-0.1-1.7-0.3-2.5-0.5l-2.6-0.4c-1.7-0.3-3.4-0.4-5.1-0.7c-1.7-0.2-3.4-0.4-5.1-0.5c-6.9-0.7-13.8-1.1-20.7-1.4
			c-6.9-0.3-13.8-0.6-20.7-0.6C787.5,427,780.6,427.1,773.6,427.7z"/>
	</g>
</g>
<path class="st41" d="M164.4,78.8c5.1,2.5,1.2,13.5-0.9,11.7c0-2.5-3-4.6-3.9-1.3c1.8,8.6,2.5,18.8-6.6,14.9
	C136,96.8,140.2,63.5,164.4,78.8z"/>
<ellipse class="st35" cx="447.5" cy="125.3" rx="6.7" ry="9.7"/>
<circle class="st43" cx="237.2" cy="136.2" r="11.5"/>
<circle class="st5" cx="186.3" cy="132.5" r="11.5"/>
<ellipse transform="matrix(0.5 -0.866 0.866 0.5 -17.7568 265.2636)" class="st44" cx="220.8" cy="148" rx="11.2" ry="9.7"/>
<circle class="st43" cx="679.9" cy="276.7" r="22.2"/>
<ellipse transform="matrix(0.6099 -0.7925 0.7925 0.6099 -6.7361 412.9358)" class="st44" cx="416.1" cy="213.3" rx="13.6" ry="11.8"/>
<ellipse class="st43" cx="206.9" cy="159.8" rx="11.5" ry="7.3"/>
<circle class="st5" cx="1006.4" cy="272.6" r="18.2"/>
<circle class="st44" cx="708.2" cy="254.4" r="18.2"/>
<ellipse transform="matrix(0.3177 -0.9482 0.9482 0.3177 57.1712 527.2902)" class="st5" cx="395" cy="223.9" rx="10.4" ry="15"/>
<ellipse class="st5" cx="657.9" cy="306.8" rx="21.2" ry="25.8"/>
</svg>
