<?xml version="1.0" encoding="utf-8"?>
<!-- Generator: Adobe Illustrator 24.0.2, SVG Export Plug-In . SVG Version: 6.00 Build 0)  -->
<svg version="1.1" id="Layer_1" xmlns="http://www.w3.org/2000/svg" xmlns:xlink="http://www.w3.org/1999/xlink" x="0px" y="0px"
	 viewBox="0 0 1119 702" style="enable-background:new 0 0 1119 702;" xml:space="preserve">
<style type="text/css">
	.st0{display:none;}
	.st1{display:inline;}
	.st2{fill:#948DFD;}
	.st3{fill:#FFFFFF;}
	.st4{fill:none;stroke:#FFFFFF;stroke-width:3;stroke-linecap:round;stroke-miterlimit:10;}
	.st5{fill:#B1B0FE;}
	.st6{fill:#7575E0;}
	.st7{fill:none;stroke:#180B86;stroke-miterlimit:10;}
	.st8{display:inline;fill:none;stroke:#180B86;stroke-miterlimit:10;}
	.st9{display:inline;fill:#CACAFC;}
	.st10{display:inline;fill:#FFFFFF;stroke:#CACAFC;stroke-miterlimit:10;}
	.st11{display:inline;fill:#B1B0FE;}
	.st12{fill:none;stroke:#FFFFFF;stroke-miterlimit:10;}
	.st13{display:inline;fill:none;stroke:#B1B0FE;stroke-miterlimit:10;}
	.st14{display:inline;fill:none;stroke:#FFFFFF;stroke-miterlimit:10;}
	.st15{fill:none;stroke:#094459;stroke-width:2;stroke-miterlimit:10;}
	.st16{display:inline;fill:#EFDAC5;}
	.st17{display:inline;fill:#EFB82E;}
	.st18{fill:#C66AAB;}
	.st19{fill:#9B4587;}
	.st20{display:inline;fill:#219BC3;}
	.st21{fill:#0A557F;}
	.st22{display:inline;fill:#0A557F;}
	.st23{fill:#094459;}
	.st24{fill:#EFDAC5;}
	.st25{display:inline;fill:none;stroke:#FF0000;stroke-miterlimit:10;}
	.st26{display:inline;fill:#C66AAB;stroke:#9B4587;stroke-miterlimit:10;}
	.st27{fill:#ECEDFF;}
	.st28{fill:none;stroke:#FFFFFF;stroke-width:12;stroke-linecap:round;stroke-miterlimit:10;}
	.st29{fill:#E1D9FE;}
	.st30{fill:#7C80F1;}
	.st31{fill:#CACAE8;}
	.st32{fill:none;stroke:#B1B0FE;stroke-width:2;stroke-miterlimit:10;}
	.st33{fill:none;stroke:#DCDCF9;stroke-width:3;stroke-miterlimit:10;}
	.st34{fill:none;stroke:#DCDCF9;stroke-width:6;stroke-miterlimit:10;}
	.st35{fill:#AA5B97;}
	.st36{fill:#FFA600;}
	.st37{fill:#FED1CE;}
	.st38{fill:#EAC3C3;}
	.st39{fill:#CCB9CF;}
	.st40{fill:none;stroke:#5B67CE;stroke-width:11;stroke-linecap:round;stroke-miterlimit:10;}
	.st41{fill:none;stroke:#5B67CE;stroke-width:7;stroke-linecap:round;stroke-miterlimit:10;}
	.st42{fill:#FF6C04;}
	.st43{fill:#180B86;}
	.st44{fill:#0D0866;}
	.st45{fill:#A04D8D;}
</style>
<g class="st0">
	<g class="st1">
		<path class="st2" d="M-1900,612.5c0,8.5-5.3,15.4-12.1,15.4h-179.1c-5.5,0-11.7-6.9-11.7-15.4V247.3c0-8.5,6.2-15.4,14.1-15.4
			h175.7c6.6,0,13,6.9,13,15.4V612.5z"/>
		<path class="st3" d="M-1906.2,602.1c0,7.7-3.7,13.9-9.5,13.9H-2087c-5,0-9.7-6.2-9.7-13.9V271.9c0-7.7,5.4-13.9,10.8-13.9h168.2
			c5.7,0,11.5,6.2,11.5,13.9V602.1z"/>
	</g>
	<g class="st1">
		<circle class="st3" cx="-2026.7" cy="246" r="3"/>
		<line class="st4" x1="-2015.7" y1="246" x2="-1971.7" y2="246"/>
	</g>
	<g class="st1">
		<g>
			<circle class="st5" cx="-2069" cy="281" r="10"/>
			<circle class="st2" cx="-2061" cy="284" r="8"/>
			<circle class="st6" cx="-2054" cy="287" r="5"/>
		</g>
		<path class="st7" d="M-2027,285.7c3.2,4,12.6,2.6,16.9-4s-8.5-12.5-5.8-0.4c2.8,12.1,17.5,7.2,21,2.9c3.5-4.4-0.2-12.7-3.5-7.9
			c-3.3,5-1.5,11.3,7.5,12.1c5.5,0.5,11.4,1,14.4-5c4.8-9.6-6.9-12.5-4.5-0.5c2,10.2,10.9,6.2,14.1,3"/>
	</g>
	<rect x="-1989.5" y="336.5" class="st8" width="54" height="54"/>
	<rect x="-1983" y="328" class="st9" width="54" height="54"/>
	<rect x="-2073" y="423" class="st8" width="54" height="54"/>
	<rect x="-2066.5" y="414.5" class="st9" width="54" height="54"/>
	<rect x="-1989.5" y="423.5" class="st8" width="54" height="54"/>
	<rect x="-1983" y="415" class="st10" width="54" height="54"/>
	<rect x="-2073" y="511" class="st8" width="54" height="54"/>
	<rect x="-2066.5" y="502.5" class="st10" width="54" height="54"/>
	<rect x="-1989.5" y="511.5" class="st8" width="54" height="54"/>
	<rect x="-1983" y="503" class="st11" width="54" height="54"/>
	<g class="st1">
		<rect x="-2073" y="336" class="st7" width="54" height="54"/>
		<rect x="-2066.5" y="327.5" class="st5" width="54" height="54"/>
		<path class="st12" d="M-2053,356.7c3.2,4,12.6,2.6,16.9-4s-8.5-12.5-5.8-0.4c2.8,12.1,17.5,7.2,21,2.9"/>
	</g>
	<path class="st13" d="M-1971,446.7c3.2,4,12.6,2.6,16.9-4s-8.5-12.5-5.8-0.4c2.8,12.1,17.5,7.2,21,2.9"/>
	<path class="st14" d="M-1971,358.7c3.2,4,12.6,2.6,16.9-4s-8.5-12.5-5.8-0.4c2.8,12.1,17.5,7.2,21,2.9"/>
	<path class="st14" d="M-2025.3,450.2c-1.4-4.9-10.6-7.4-17.1-2.9s3,14.9,5.1,2.7c2.2-12.2-13.3-13.5-18.2-10.8"/>
	<path class="st14" d="M-1941,529.8c-2.4-4.5-11.9-4.9-17.3,0.8c-5.4,5.7,6.1,13.9,5.6,1.5c-0.5-12.4-15.9-10.3-20.1-6.7"/>
	<path class="st13" d="M-2024,529.8c-2.4-4.5-11.9-4.9-17.3,0.8c-5.4,5.7,6.1,13.9,5.6,1.5c-0.5-12.4-15.9-10.3-20.1-6.7"/>
</g>
<g class="st0">
	<g class="st1">
		<line class="st15" x1="-2440.5" y1="216.3" x2="-2353.7" y2="641.8"/>
		<line class="st15" x1="-2405.6" y1="229.2" x2="-2309.6" y2="607.2"/>
		<line class="st15" x1="-2362.5" y1="598.7" x2="-2318" y2="574"/>
		<line class="st15" x1="-2372.1" y1="551.6" x2="-2329" y2="533"/>
		<line class="st15" x1="-2380" y1="512.9" x2="-2338" y2="496"/>
		<line class="st15" x1="-2388.1" y1="473" x2="-2347" y2="461"/>
		<line class="st15" x1="-2397.1" y1="428.9" x2="-2355" y2="425"/>
		<line class="st15" x1="-2416.2" y1="335.3" x2="-2372.1" y2="337.4"/>
		<line class="st15" x1="-2423.2" y1="301.1" x2="-2380" y2="305"/>
		<line class="st15" x1="-2431.5" y1="260.4" x2="-2390.2" y2="263.2"/>
	</g>
	<path class="st16" d="M-2368.2,183.4c-3.7,1.1-8.3,2.5-8.2,8.5c-2.1,2.3-6.5,3.5-5.4,5c1.1,1.5,0.7,2.5-0.1,3.1
		c0,1.1,1.2,1.7,1.2,1.7l-1.6,0.4c0,0-0.1,1.5-1.4,2.8c-1.3,1.3,1.4,4.2,3.7,5.2c2.2,1,1.5,1.5,1.8,2.4c0.1,0.4-0.3,4.3-1.2,6.1
		c-0.8,1.7,0.7,2.5,0.9,4.9c0.3,3.3-2.7,7-2.7,7l18.6,1.2c0,0-4.3-13.7,6.8-21.4c9-6.3,5.8-13.9,5.5-14.4
		C-2350.7,195.4-2368.2,183.4-2368.2,183.4z"/>
	<path class="st17" d="M-2367.3,394.6c3,2.6,14.4,19,11.5,23.8c-2.9,4.9-8.6,6.8-11.5,6.8s-13.4,1-13.4,1l4.6-21.3
		C-2376.1,404.9-2374,388.9-2367.3,394.6z"/>
	<path class="st17" d="M-2383.5,396.5c1,3.8,11.5,16.3,8.6,22.9c-2.9,6.7-17.4,9.5-20.2,8.6c-2.8-0.9-3-12.7-3-12.7
		s7.9-1.6,6.9-11.2c-1-9.6,2.9-13.4,6.7-7.6"/>
	<g class="st1">
		<g>
			<path class="st18" d="M-2375.5,318.5c1.9,5.7-11.9,35-16.6,46.5c7.6,8.6,12.4,34.4,15.3,42.1c2.9-9.6,9.6-8.6,14.3-4.8
				c1-6.7-10.5-30.6-13.4-35.4c-2.9-4.8,1-10.5,11.5-32.5s9.6-33.5,6.7-43c0,0-30.9-18.1-37.9,8.6c-7,26.7-13.7,50.6-10.8,64
				s10.5,44.9,13.4,49.7c1.9-9.6,9.6-16.3,15.3-7.6"/>
			<path class="st19" d="M-2375.5,318.5c0.3,1,0.2,2.1,0.1,3.1c-0.1,1-0.4,2-0.6,3.1c-0.5,2-1.1,4-1.8,6c-1.3,3.9-2.8,7.8-4.4,11.6
				c-3.1,7.7-6.5,15.2-9.7,22.9l-0.1-0.3c2.5,2.9,4.1,6.4,5.6,9.8c1.4,3.5,2.6,7.1,3.7,10.7c1.1,3.6,2.1,7.2,3.1,10.8
				c1,3.6,1.9,7.3,3.1,10.8l-0.9,0c0.5-1.5,1.1-3,2-4.4c0.9-1.3,2.2-2.5,3.9-3c1.6-0.5,3.4-0.4,4.9,0.1c1.6,0.5,3,1.4,4.2,2.4
				l-0.6,0.2c0.1-1.1,0-2.4-0.2-3.5c-0.2-1.2-0.5-2.4-0.9-3.5c-0.7-2.3-1.5-4.7-2.4-7c-1.8-4.6-3.7-9.1-5.8-13.5
				c-1.1-2.2-2.1-4.4-3.3-6.6c-0.3-0.5-0.6-1-0.9-1.6c-0.3-0.6-0.5-1.2-0.6-1.8c-0.2-1.3,0-2.5,0.3-3.7c0.6-2.4,1.6-4.7,2.6-6.9
				c1-2.2,2.1-4.5,3.2-6.7c4.2-8.9,8.9-17.6,11.9-27c1.5-4.7,2.5-9.5,2.8-14.4c0.2-4.9-0.4-9.8-1.9-14.5l0.2,0.2
				c-2.9-1.6-6.1-3-9.3-4c-3.2-1-6.5-1.7-9.9-1.8c-3.3-0.1-6.7,0.4-9.6,2c-2.9,1.6-5.2,4.2-6.6,7.2c-1.5,3-2.1,6.3-3,9.6l-2.6,9.9
				c-1.7,6.6-3.4,13.2-4.8,19.8c-1.4,6.6-2.6,13.3-2.9,20.1c-0.1,3.4,0,6.7,0.7,10c0.7,3.3,1.4,6.6,2.2,10
				c1.5,6.6,3.1,13.2,4.8,19.8c0.9,3.3,1.7,6.6,2.7,9.8c0.5,1.6,1,3.3,1.5,4.9c0.5,1.6,1.1,3.2,1.8,4.7l-0.4,0.1
				c0.4-1.9,1-3.8,1.9-5.6c0.9-1.7,2.1-3.4,3.7-4.6c1.5-1.2,3.7-1.9,5.6-1.2c1.9,0.6,3.3,2.2,4.4,3.8l-0.1,0.1
				c-1.1-1.6-2.5-3.1-4.4-3.7c-1.9-0.6-3.9,0.1-5.3,1.3c-1.5,1.2-2.6,2.8-3.5,4.6c-0.9,1.7-1.4,3.6-1.8,5.5l-0.1,0.6l-0.3-0.6
				c-0.9-1.5-1.4-3.2-1.9-4.8c-0.5-1.6-1-3.2-1.5-4.9c-1-3.3-1.9-6.5-2.8-9.8c-1.8-6.6-3.4-13.2-5-19.8c-0.8-3.3-1.6-6.6-2.3-9.9
				c-0.8-3.4-0.9-6.8-0.8-10.3c0.3-6.9,1.5-13.6,2.9-20.3c1.4-6.7,3.1-13.3,4.8-19.9l2.6-9.9l1.3-4.9c0.5-1.7,1.1-3.3,1.8-4.9
				c1.5-3.1,3.9-5.9,7-7.6c3.1-1.7,6.7-2.2,10.1-2.1c3.5,0.1,6.8,0.9,10.1,2c3.3,1.1,6.4,2.4,9.4,4.1l0.1,0.1l0,0.1
				c1.4,4.7,2.1,9.7,1.8,14.7c-0.3,4.9-1.4,9.8-2.9,14.5c-3,9.4-7.8,18.1-12,27c-1.1,2.2-2.1,4.4-3.1,6.7c-1,2.2-2,4.5-2.6,6.9
				c-0.3,1.2-0.4,2.4-0.3,3.6c0.1,0.6,0.3,1.2,0.5,1.7c0.3,0.5,0.6,1.1,0.9,1.6c1.2,2.2,2.3,4.4,3.4,6.6c2.1,4.4,4.1,8.9,5.9,13.5
				c0.9,2.3,1.7,4.6,2.4,7c0.4,1.2,0.7,2.4,0.9,3.6c0.2,1.2,0.4,2.5,0.3,3.8l-0.1,0.7l-0.5-0.4c-1.2-1-2.5-1.7-4-2.2
				c-1.4-0.5-3-0.6-4.4-0.1c-1.4,0.5-2.6,1.5-3.4,2.7c-0.9,1.3-1.4,2.7-1.9,4.2l-0.4,1.3l-0.5-1.3c-1.3-3.6-2.1-7.2-3.1-10.9
				c-1-3.6-1.9-7.2-3-10.8c-1.1-3.6-2.2-7.2-3.6-10.6c-1.4-3.4-3-6.9-5.4-9.7l-0.1-0.1l0.1-0.2c1.6-3.8,3.3-7.6,5-11.4
				c1.7-3.8,3.3-7.6,4.9-11.4c1.6-3.8,3.1-7.7,4.5-11.6c0.7-2,1.3-3.9,1.9-5.9c0.3-1,0.5-2,0.6-3
				C-2375.4,320.6-2375.3,319.5-2375.5,318.5L-2375.5,318.5z"/>
		</g>
		<g>
			<path class="st19" d="M-2376.7,362.5c-1,0-2-0.2-2.9-0.4c-1-0.2-1.9-0.5-2.8-0.6c-0.9-0.2-1.8-0.3-2.6,0
				c-0.8,0.3-1.6,0.9-2.3,1.6c0.4-0.9,1-1.8,2-2.3c0.5-0.3,1-0.4,1.6-0.4c0.5,0,1.1,0,1.6,0.1c1,0.2,1.9,0.5,2.8,0.9
				C-2378.5,361.7-2377.6,362-2376.7,362.5z"/>
		</g>
		<g>
			<path class="st19" d="M-2392.1,365c-1-0.1-1.9-0.1-2.9-0.2c-1,0-1.9,0-2.9,0c-1,0-1.9,0-2.9,0c-1,0-1.9,0.1-2.9,0.2
				c0.9-0.5,1.8-0.8,2.8-1c1-0.2,2-0.3,2.9-0.3c1,0,2,0.1,2.9,0.3C-2394,364.2-2393,364.5-2392.1,365z"/>
		</g>
		<g>
			<path class="st19" d="M-2392.1,365.9c-1.8,1.1-3.7,1.9-5.6,2.7c-1,0.4-1.9,0.7-2.9,1c-1,0.4-2,0.6-2.9,1.1
				c0.7-0.8,1.7-1.3,2.6-1.8c0.9-0.5,1.9-0.9,2.9-1.2C-2396.2,367-2394.2,366.3-2392.1,365.9z"/>
		</g>
	</g>
	<path class="st16" d="M-2403.6,179.5c-2.9-1-7.6-1-8.6,4.8c-2.9,0-5.7,0-6.7,11.5c-1,11.5,13.4,8.6,15.3,2.9s4.8-10.5,3.8-12.4
		c-1.9,3.8-3.8,4.8-6.7,3.8c-2.9-1-2.9-6.7,2.9-8.6C-2397.9,179.5-2403.6,179.5-2403.6,179.5z"/>
	<path class="st20" d="M-2408.4,213c-0.7-0.6,0-8.6,1-9.6s0-7.6-3.8-8.6c-3.8-1-8.6,1.9-14.3,13.4c-5.7,11.5-10.5,16.3,3.8,23.9
		c14.3,7.6,23.9,6.7,25.8,12.4c1.9,5.7,1.9,48.8,0,57.4c11.5,1,34.2-5.4,40,4.1c7.6-2.9,5-7,5-13c0-7,4.7-30.3,6.7-36.1
		s2.3-31.9-15.7-32.9c-10.5-0.6-12.4,0.7-20-5C-2386.7,220.9-2403.6,216.8-2408.4,213z"/>
	<g class="st1">
		<path class="st21" d="M-2408.4,214.9c-1.1,0.2-2.2,0.6-3.3,1c-1.1,0.4-2.1,0.9-3.1,1.4c-1,0.5-2,1.1-2.9,1.7
			c-0.9,0.7-1.7,1.4-2.2,2.5c0.1-1.2,0.9-2.3,1.7-3.1c0.9-0.8,1.9-1.5,2.9-2c1.1-0.5,2.2-1,3.3-1.2
			C-2410.8,214.9-2409.6,214.7-2408.4,214.9z"/>
	</g>
	<g class="st1">
		<path class="st21" d="M-2409.4,213c-2.1,0.4-4.2,0.2-6.1,0.5c-1,0.1-1.9,0.3-2.8,0.7c-0.9,0.4-1.7,0.9-2.5,1.6
			c0.5-0.9,1.2-1.8,2.2-2.3c0.9-0.6,2-0.9,3.1-1C-2413.5,212.2-2411.4,212.6-2409.4,213z"/>
	</g>
	<g class="st1">
		<path class="st21" d="M-2382.6,219.7c1.4,0.8,2.8,1.7,4,2.8c1.3,1,2.4,2.1,3.6,3.3c1.1,1.2,2.2,2.4,3.1,3.8
			c0.5,0.7,0.9,1.4,1.2,2.1c0.2,0.4,0.3,0.8,0.4,1.2c0.1,0.4,0.1,0.8,0.1,1.2c-0.2-0.8-0.5-1.5-1-2.2c-0.4-0.7-0.9-1.3-1.4-1.9
			c-1-1.2-2.1-2.4-3.2-3.5c-1.1-1.2-2.2-2.3-3.4-3.4C-2380.3,221.9-2381.4,220.7-2382.6,219.7z"/>
	</g>
	<g class="st1">
		<path class="st21" d="M-2350.1,255c0.4,3.6,0.9,7.1,1.2,10.7c0.2,3.6,0.3,7.3-0.6,10.8c0.1-3.6-0.1-7.1-0.4-10.7
			C-2350.1,262.2-2350.5,258.6-2350.1,255z"/>
	</g>
	<g class="st1">
		<polygon class="st21" points="-2375,192.4 -2376.6,192.5 -2376.4,191.5 		"/>
	</g>
	<g class="st1">
		<path class="st21" d="M-2373.8,190.8c-0.3-0.3-0.7-0.6-1.2-0.8c-0.2-0.1-0.4-0.2-0.6-0.2c-0.1,0-0.2,0-0.3,0c-0.1,0-0.1,0.1,0,0
			l-0.6-0.8c0.3-0.2,0.6-0.1,0.7-0.1c0.2,0,0.3,0.1,0.4,0.2c0.2,0.1,0.4,0.3,0.6,0.5C-2374.3,190-2374,190.4-2373.8,190.8z"/>
	</g>
	<path class="st22" d="M-2360.8,204.4c-0.4,2.4-0.8,8.8,0.3,9.9c1.1,1.1,2.1-2.1,2.7-1.5s-0.2,4.8,0.9,3.7c1.1-1.1,2.1-3.4,2.1-3.4
		l0.7,4.9c0,0-0.1-9.4,3-2c3-6,5-8,7-12c0.7-1.5,3-12.5-1-17c-1.9-1.6-2-5-7-7c-1.5-0.5-4.9-1.9-8-2c-3.1-0.1-6.1-1.3-10,0
		c-3.9,1.3-6.8,2.2-7.4,6.7c-0.5,4.5,1.1,5.3,1.1,5.3s-2.7-2,4.3-4c-1.5,0.4-2.2,4.7,3.2,8.7c0.8-3.2,0-2.6,0.9-2.9
		c0.9-0.3,0.3,3.5,2.2,5.2c1.9,1.6,0.8-1,2-1.4c1.2-0.5,1.3,2.8,1.3,2.4c0.1-0.4,1.4-1.7,1.4-1.7S-2360.6,203.5-2360.8,204.4z"/>
	<g class="st1">
		<path class="st23" d="M-2358.6,182.2c0.9,0.9,1.8,2,2.4,3.2c0.6,1.2,1,2.5,1.2,3.8c0.2,1.3,0.2,2.7,0.4,3.9
			c0.2,1.2,0.6,2.5,1.4,3.5c-1.1-0.8-1.9-2-2.2-3.4c-0.3-1.3-0.4-2.6-0.6-3.9c-0.2-1.3-0.5-2.5-1-3.7
			C-2357.4,184.5-2358,183.4-2358.6,182.2z"/>
	</g>
	<g class="st1">
		<path class="st23" d="M-2349.2,190.3c0.6,0.9,1.2,1.8,1.7,2.7c0.5,0.9,0.9,1.9,1.2,3c0.3,1.1,0.4,2.2,0.1,3.3
			c-0.2,1.1-0.9,2.1-1.8,2.7c0.6-0.9,0.9-1.9,1-2.9c0.1-1-0.1-2-0.3-3c-0.2-1-0.6-2-1-2.9C-2348.6,192.3-2349.1,191.3-2349.2,190.3z
			"/>
	</g>
	<g class="st1">
		<path class="st24" d="M-2361.2,198c1.7-1.2,6.8-1.5,5.4,1.8c-1.4,3.3-4.5,3.2-5,3.5c-0.5,0.4-2.9,1.7-3.8-1.1"/>
		<path class="st23" d="M-2361.2,198c0.6-0.5,1.4-0.8,2.2-1c0.8-0.2,1.6-0.2,2.5,0c0.4,0.1,0.9,0.4,1.2,0.8c0.3,0.5,0.3,1,0.2,1.5
			c-0.2,0.9-0.6,1.6-1.2,2.3c-0.6,0.7-1.3,1.2-2.1,1.5c-0.4,0.2-0.8,0.3-1.2,0.4c-0.4,0.1-0.8,0.2-1,0.2c-0.7,0.4-1.6,0.7-2.5,0.5
			c-0.9-0.3-1.3-1.1-1.4-1.9c0.3,0.7,0.8,1.4,1.6,1.4c0.7,0.1,1.4-0.2,1.9-0.6c0.5-0.3,0.9-0.3,1.2-0.4c0.4-0.1,0.7-0.2,1-0.4
			c0.6-0.3,1.2-0.7,1.7-1.3c0.5-0.5,0.8-1.2,1-1.8c0.2-0.6-0.1-1.1-0.7-1.4c-0.6-0.3-1.4-0.3-2.2-0.3
			C-2359.8,197.5-2360.5,197.6-2361.2,198z"/>
	</g>
	<g class="st1">
		<path class="st23" d="M-2358,199.8c-0.1-0.4-0.4-0.7-0.6-0.9c-0.2-0.3-0.5-0.5-0.8-0.7c-0.3-0.2-0.6-0.3-0.8-0.2
			c-0.1,0.1-0.2,0.2-0.3,0.3c-0.1,0.1-0.1,0.3-0.1,0.4c0,0.1,0.1,0.3,0.1,0.6c0,0.3-0.2,0.6-0.4,0.7c-0.3,0.2-0.6,0.4-0.9,0.7
			c-0.3,0.2-0.4,0.5-0.1,0.8c0.2,0.3,0.6,0.4,0.9,0.6c-0.4-0.1-0.8-0.1-1.1-0.4c-0.2-0.1-0.3-0.4-0.3-0.6c0-0.2,0.2-0.4,0.3-0.6
			c0.3-0.3,0.6-0.6,0.9-0.8c0.1-0.1,0.2-0.2,0.2-0.3c0-0.1-0.1-0.3-0.1-0.6c0-0.2,0.1-0.5,0.2-0.7c0.1-0.2,0.2-0.4,0.5-0.5
			c0.5-0.2,1,0.1,1.3,0.3C-2358.7,198.4-2358.1,199-2358,199.8z"/>
	</g>
</g>
<g class="st0">
	<path class="st16" d="M-2011.6,282.7c-1.9,2.2-3.6,4.4-5.3,6.6c-1.1,1.5-2.2,3.1-2.9,4.9c-0.6,1.7-0.7,3.6-0.9,5.4
		c-0.4,4-1.3,7.9-2.4,11.7c-0.2,0.6-0.6,1.4-1.2,1.3c-0.8-0.1-0.8-1.3-0.6-2c-0.3,0.5-0.6,1.1-1.1,1.4c-0.5,0.3-1.2,0.4-1.7,0
		c0.2-0.9,0.4-1.7,0.6-2.6c0.1,0.9-1,1.7-1.8,1.3s-0.7-1.8,0.1-2.1c-0.8,0.2-1.2,1.3-1.9,1.2c-0.7-0.1-0.7-1.1-0.4-1.8
		c0.8-2.6,1.6-5.1,2.4-7.7c0.4-1.3,0.7-3-0.5-3.7c-0.8-0.5-1.8-0.1-2.6,0.2c-2.4,1.1-4.5,2.8-6.2,4.8c-0.1-4.2,3.1-8.3,7.2-9.2
		c2.7-0.6,4.6-3.8,6.3-6c1.5-2,2.7-4.2,4.3-6.1c1.6-1.9,3.7-3.5,6.2-3.7c0.5,0,1,0,1.5,0.3c0.4,0.3,0.7,0.8,0.9,1.3
		c0.3,0.8,0.7,1.5,0.7,2.4S-2010.8,282.6-2011.6,282.7z"/>
	<path class="st25" d="M-2045.2,228.2c0.4-2.5,2.6-4.3,4.7-5.8c0.2-0.2,0.5-0.5,0.3-0.7"/>
	<path class="st25" d="M-2050.8,226.2c1.4-2.3,4.5-3.5,7-4.7c0.3,0.1,0.5,0.1,0.8,0.2c-2.6,1-4.7,3.3-5.5,6"/>
	<circle class="st25" cx="-2029.3" cy="228.2" r="1"/>
	<path class="st20" d="M-2048.7,190.6c2.9-2.3,7.3-2.8,10.2-0.6c3.7,2.8,3.7,8.2,3.4,12.8c-0.3,3.9-0.6,7.9-0.8,11.8
		c-0.1,1.5-0.2,3-0.7,4.5c-0.6,1.6-1.7,3-2.8,4.4c-1.5,1.8-3.2,3.5-5.2,4.8c-3.9,2.6-8.6,3.4-13.2,4.1c-1.6,0.3-3.4,0.5-4.9-0.2
		c-4.3-2.2-1.7-8,1.4-9.7c3.4-1.9,8-0.4,9.2-5.1c0.9-3.6-1.1-8.3-1.4-12C-2053.9,200.1-2053.1,194.1-2048.7,190.6z"/>
	<path class="st25" d="M-2023.1,303.2c0,2.4-1.2,4.7-1.7,7"/>
	<path class="st16" d="M-2027.5,228.5c0.2,1.3,0.3,2.9-0.7,3.7c-1.9-0.7-2.5-3.1-2.8-5.1c-0.3-2-0.8-4.5-2.7-5.2
		c-1.7,2.2-4.7,2.9-6.9,4.6c-1.9,1.5-3.1,3.6-4.3,5.7c-0.7-1-1-2.3-0.8-3.4c-0.3,0.7-0.6,1.5-1.1,2c-0.6,0.5-1.6,0.6-2.1,0
		c-0.5-0.7-0.1-1.7,0.4-2.4c-0.7,1-1.7,1.9-2.7,2.5c-0.4-1.1-0.3-2.4,0.3-3.4c0.1,0.6-0.9,0.7-1.2,0.1c-0.2-0.5,0.1-1.1,0.4-1.6
		c1.7-2.7,3.6-5.4,6.4-6.8c1.2-0.5,2.5-0.8,3.6-1.5c2.6-1.5,3.6-4.7,4.4-7.6c0.5-1.9,1.8-4.8,4.3-3.9c1.9,0.6,1.5,2.5,1.7,4.1
		C-2030.5,216.3-2028.5,222.4-2027.5,228.5z"/>
	<path class="st25" d="M-2025.2,302.4c-0.2,2.6-1.4,5-2.2,7.5"/>
	<path class="st25" d="M-2026.3,299.6c-0.6,3.3-1.6,6.5-3,9.6"/>
	<path class="st26" d="M-1950,229.4c-0.1,2.7-0.2,5.4-0.2,8.2c0.3-9.2,0.7-18.4,1-27.6c0.1-2.9,0.2-5.8-0.4-8.6
		c-0.6-2.9-1.9-5.5-3.3-8.1c-8.8-15.3-24.9-26.2-42.4-28.9c-2.3-0.3-4.6-0.5-6.9-0.2c-2.7,0.4-5.2,1.7-7.6,2.9
		c-5.1,2.5-10.2,5.1-14.5,8.7c-2.7,2.2-2.1,5.6-0.9,8.9c1.2,3.3,3.7,6,6.2,8.4c10,9.5,22.1,16.8,30.5,27.7
		c8.7,11.3,12.8,25.6,21.1,37.1c2.4,3.3,5.9,6.7,10,6.1c1.5-0.2,2.9-1,4.1-1.9c5.4-4,8.4-10.5,10.1-17s2.2-13.2,4-19.7
		c0.3-1,1-2.2,1.9-1.8c0.9,2.8,2.6,5.3,4.7,7.4c0.4,0.3,0.7,0.7,1.2,0.8c1.3,0.3,2.2-1.4,2.3-2.8c0.6-5.2-2-10.2-4.4-14.9
		c-1.1-2.1-2.3-4.3-4.1-5.8c-1.8-1.5-4.5-2.3-6.7-1.2c-4.1,2.1-3,8.3-5.4,12.2c-0.2-1-0.4-1.9-0.5-2.9"/>
	<path class="st16" d="M-1992.8,234.5c-2.3,4.3-5.3,8.2-8.8,11.6c-1.9,1.8-4,3.4-6.5,4c-1.1,0.3-2.5,0.2-3.2-0.7
		c-0.3-0.5-0.5-1-0.6-1.6c-0.8-2.4-2.8-4-4.3-6c-1.4-1.9-2.2-4.3-2.8-6.6c-1.5-5.4-2.2-11.3-0.5-16.7c1.3-4.2,4.2-7.9,8.2-9.7
		c2.2-1,4.7-1.4,7.1-1.5c2.2-0.1,4.4,0,6.6,0.6c4.9,1.4,8.8,5.9,9.6,10.9c0.3,2.1,0.1,4.4,0.7,6.5c0.2,0.5,0.4,1,0.4,1.5
		c0,0.5-0.1,1-0.3,1.5c-0.8,2.5-1.8,5.4-4.3,6.3c-0.4,0.2-0.9,0.3-1.3,0.5c-1.2,0.8-1,2.6-0.6,4"/>
	<g class="st1">
		<path class="st24" d="M-1992.5,229.4c0.4-1.5,1-3,2.3-3.7c0.4-0.2,1-0.3,1.3,0c0.2,0.2,0.3,0.4,0.3,0.7c0.1,0.6,0.1,1.1-0.1,1.7"
			/>
		<path class="st23" d="M-1992.5,229.4c0-0.7,0.1-1.4,0.4-2.1c0.2-0.7,0.7-1.4,1.4-1.8c0.3-0.2,0.7-0.4,1.2-0.4c0.2,0,0.5,0,0.7,0.2
			c0.2,0.1,0.4,0.4,0.5,0.6c0.2,0.8,0.1,1.6-0.3,2.2c0-0.7-0.2-1.4-0.4-1.9c-0.1-0.2-0.2-0.2-0.5-0.2c-0.2,0-0.5,0.1-0.7,0.3
			C-1991.2,226.9-1991.7,228.2-1992.5,229.4z"/>
	</g>
	<g class="st1">
		<path class="st24" d="M-1989.7,229.1c0.2-0.3-0.2-0.6-0.5-0.6c-0.7,0.1-1,1-1,1.8c0,0.7,0,1.7-0.7,2c0.1-0.1,0.2-0.3,0.3-0.4"/>
		<path class="st23" d="M-1989.7,229.1c0-0.3-0.2-0.3-0.4-0.3c-0.1,0-0.3,0.1-0.3,0.2c-0.2,0.2-0.3,0.6-0.3,0.9c0,0.3,0,0.8-0.1,1.3
			c0,0.2-0.2,0.5-0.3,0.7c-0.2,0.2-0.4,0.4-0.7,0.5l-0.7,0.2l0.5-0.4c0.1-0.1,0.3-0.2,0.4-0.3c0,0.2-0.1,0.4-0.1,0.5l-0.2-0.3
			c0.3-0.3,0.3-0.6,0.3-1c0-0.4-0.1-0.8,0-1.3c0.1-0.5,0.3-1.1,0.9-1.4c0.3-0.2,0.6-0.2,0.9,0c0.1,0.1,0.2,0.2,0.3,0.3
			C-1989.6,228.9-1989.6,229.1-1989.7,229.1z"/>
	</g>
	<g class="st1">
		<path class="st24" d="M-2009.7,235.4c2.9-2.3,6.8-3.1,10.3-2.3c-0.1-0.2-0.2-0.4-0.3-0.6"/>
		<path class="st23" d="M-2009.7,235.4c1.2-1.4,3-2.4,4.8-2.8c1.8-0.4,3.8-0.3,5.6,0.4l-0.1,0.2c-0.1-0.2-0.1-0.4-0.2-0.6
			c0.1,0.2,0.3,0.3,0.4,0.5l0.2,0.2l-0.3,0c-1.8-0.1-3.6,0-5.3,0.3C-2006.4,233.9-2008.1,234.5-2009.7,235.4z"/>
	</g>
	<g class="st1">
		<path class="st24" d="M-2019.6,229.8c-0.2-0.3-0.4-0.6-0.7-0.8c0.5,1.3,1.8,2.1,3,3c1.2,0.8,2.2,1.8,3.1,3c1.3,1.6,0.8,5,0.4,7.1
			c-0.1,0.6-0.2,1.2-0.1,1.8s0.6,1.2,1.1,1.3c0.7,0.1,1.4-0.5,1.9-1c-0.1,0.1-0.2,0.3-0.3,0.4c-0.1-0.1-0.9,0.9-1,0.8
			c1.9,0.2,3.8,0.4,5.7,0.5c-1.7,1.6-5,1.7-6.3-0.2c0.1-0.2,0.3-0.4,0.4-0.5"/>
		<path class="st23" d="M-2019.6,229.8l-0.7-0.8l0.1-0.1c0.3,0.8,1,1.4,1.8,1.9c0.7,0.5,1.5,1,2.2,1.6c0.7,0.6,1.4,1.2,2,1.9
			c0.3,0.3,0.6,0.8,0.8,1.2c0.2,0.5,0.3,0.9,0.4,1.4c0.2,1.9-0.1,3.8-0.4,5.5c-0.2,0.8,0,1.6,0.5,2c0.2,0.1,0.5,0.2,0.8,0
			c0.3-0.2,0.6-0.5,0.9-0.8l0.8,0.6l-0.3,0.4l-0.7,0.1c0.1,0.1,0.2,0.1,0.3,0.1c0.1,0,0.1,0,0.1,0c0,0,0.1,0,0,0l0,0l-0.1,0.1
			l-0.2,0.2l-0.3,0.2l-0.2,0.1l-0.1,0.1c0,0-0.1,0-0.1,0.1c0,0,0,0-0.1,0c-0.1,0-0.2,0-0.3-0.1l-1.7-1l2,0.2
			c1.9,0.2,3.8,0.4,5.7,0.7l0.8,0.1l-0.6,0.5c-1,0.8-2.2,1.2-3.5,1.2c-1.2,0-2.5-0.5-3.1-1.6l0,0l0,0l0.4-0.5l-0.4,0.6l0,0
			c0.7,0.9,1.9,1.3,3.1,1.2c1.1-0.1,2.2-0.5,3-1.2l0.2,0.6c-1.9-0.1-3.8-0.2-5.7-0.4l0.3-0.8c-0.1-0.1-0.2-0.1-0.3-0.1l-0.1,0
			c0,0-0.1,0,0,0l0,0l0.1-0.1l0.2-0.2l0.3-0.2l0.2-0.1l0.1-0.1c0,0,0.1,0,0.1-0.1c0,0,0,0,0.1,0c0.1,0,0.2,0,0.3,0.1l-0.7,0.1
			l0.3-0.4l0.8,0.6c-0.3,0.3-0.7,0.7-1.2,1c-0.5,0.3-1.3,0.3-1.8,0c-0.5-0.3-0.8-0.9-0.9-1.4c-0.1-0.5,0-1.1,0-1.5
			c0.3-1.8,0.6-3.5,0.5-5.3c-0.1-0.9-0.3-1.6-0.9-2.3c-0.6-0.7-1.2-1.3-1.8-1.9c-0.7-0.6-1.4-1.1-2.1-1.7c-0.7-0.6-1.4-1.3-1.6-2.2
			l-0.1-0.4l0.2,0.3L-2019.6,229.8z"/>
	</g>
	<g class="st1">
		<path class="st24" d="M-2007.2,235.5c2.2-0.7,4.6-1,6.9-0.7c0,0.2-0.1,0.4-0.4,0.4c0.5,0.8-1.4,1.9-2.3,1.7
			c-0.9-0.1-1.5-1-1.6-1.9c0.8,0,1.5,0,2.3-0.2c0.2,0.4,0.2,0.9-0.1,1.2s-1,0.1-1-0.3c0-0.4,0.8-0.6,0.9-0.2"/>
		<path class="st23" d="M-2007.2,235.5c2.1-1,4.5-1.4,6.9-1.2l0.4,0l0,0.4c0.1,0.5-0.3,0.9-0.8,1l0.4-0.7c0.1,0.2,0.2,0.5,0.1,0.7
			c0,0.2-0.1,0.4-0.2,0.5c-0.2,0.3-0.4,0.5-0.7,0.6c-0.5,0.3-1,0.6-1.6,0.6c-0.7,0.1-1.3-0.3-1.7-0.8c-0.4-0.5-0.6-1-0.7-1.6
			l-0.1-0.5l0.5,0c0.7,0,1.4,0,2.2-0.1l0.3,0l0.1,0.2c0.2,0.4,0.2,0.8,0.1,1.2c-0.1,0.2-0.2,0.4-0.4,0.5c-0.2,0.1-0.4,0.1-0.6,0
			c-0.2-0.1-0.4-0.2-0.5-0.4c-0.1-0.2-0.1-0.4,0.1-0.6c0.1-0.1,0.3-0.2,0.5-0.2c0.2,0,0.4,0.1,0.4,0.3c-0.1-0.3-0.6-0.2-0.7,0
			c-0.1,0.2,0.1,0.4,0.3,0.4c0.5,0.1,0.6-0.6,0.3-1l0.4,0.2c-0.8,0.2-1.6,0.3-2.3,0.3l0.5-0.5c0.1,0.4,0.3,0.8,0.5,1.1
			c0.2,0.3,0.6,0.5,0.9,0.4c0.4,0,0.8-0.2,1.1-0.4c0.2-0.1,0.3-0.3,0.4-0.4c0.1-0.1,0.1-0.2,0.1-0.2l0.4-0.7c-0.1,0-0.1,0-0.1,0.1
			l0.4,0.4C-2002.6,235-2004.9,235.1-2007.2,235.5z"/>
	</g>
	<g class="st1">
		<path class="st24" d="M-2016.6,233.5c0-0.1,0.2,0.1,0.1,0.1c-0.1,0.1-0.2,0-0.3-0.1c-0.6-0.5-1.1-1.1-1.7-1.6
			c0.5,0.6,1,1.2,1.5,1.9c-0.2,0.4-0.6,0.6-1,0.5s-0.7-0.5-0.5-0.9c0.1-0.4,0.7-0.5,0.9-0.1"/>
		<path class="st23" d="M-2016.6,233.5c0-0.1,0.1,0,0.2,0c0,0.1-0.1,0.2-0.2,0.2c-0.2,0-0.3-0.1-0.4-0.2c-0.2-0.1-0.4-0.3-0.6-0.4
			c-0.4-0.3-0.8-0.6-1.2-0.9l0.7-0.6C-2017.6,232.2-2017.1,232.8-2016.6,233.5l0.2,0.2l-0.1,0.3c-0.2,0.4-0.6,0.7-1,0.7
			c-0.4,0.1-0.9-0.2-1.1-0.6c-0.2-0.4-0.1-0.9,0.3-1.1c0.3-0.2,0.8-0.1,0.9,0.2c-0.2-0.2-0.5-0.1-0.7,0.1c-0.1,0.2-0.1,0.3,0.1,0.4
			c0.1,0.1,0.2,0.1,0.4,0.1c0.1,0,0.3-0.2,0.3-0.3l0.1,0.5c-0.5-0.6-1-1.2-1.5-1.9l0.7-0.6c0.3,0.4,0.6,0.7,0.9,1.1
			c0.2,0.2,0.3,0.4,0.4,0.6C-2016.7,233.4-2016.7,233.5-2016.6,233.5C-2016.6,233.6-2016.5,233.6-2016.6,233.5
			C-2016.5,233.6-2016.6,233.5-2016.6,233.5z"/>
	</g>
	<path class="st22" d="M-2011,224.9c-0.4,0.6-0.9,1.2-1.4,1.6c0-0.3,0.1-0.7,0.1-1c-0.4,0.4-0.8,0.8-1.2,1.2
		c0.1-0.6,0.3-1.3,0.4-1.9c-0.5,0.5-0.9,1-1.4,1.4c-1.1-2.5-1.3-5.4-0.4-7.9c-2.2,1.5-3.6,4.1-3.7,6.8c-0.1-1.7-0.1-3.4-0.2-5
		c-1.1,2-1.4,4.4-0.8,6.6c-1.7-1-2.6-2.9-2.9-4.9s0.1-3.9,0.4-5.8c0.5-2.8,1-5.7,2.5-8.2c1.9-2.9,5.1-4.7,8.4-5.6
		c3.3-0.8,6.9-0.8,10.3-0.6c4.4,0.3,9.1,0.9,12.2,4c2.1,2.1,3.2,5,3.9,7.9c1.3,5,1.9,10.2,1.8,15.3c-0.7-1.2-1.4-2.5-2.1-3.7
		c-0.4,0.2-0.8,0.3-1.2,0.5c-0.1,1.1-0.1,2.2-0.2,3.2c-0.4,0.8-1.2,1.4-2.2,1.6c-0.1,0.4-0.3,0.7-0.4,1.1c1-2.2,1.2-4.7,0.8-7.1
		c-0.1-0.6-0.3-1.2-0.8-1.5c-0.9-0.6-2.1,0.3-2.5,1.4c-0.4,1-0.5,2.2-1.2,3c-1.3,0-2.5,1.3-2.4,2.6c-0.3-0.4-0.5-0.8-0.8-1.2
		c0.4,0.6-1.7,0.7-1.9,0.6c-0.9-0.2-1.5-1.3-2-2c-0.9,0.2-1.6,0.8-2.3,1.3c-1.3-2.4-1.8-2.3-4.2-1.5c-2.5,0.8-2.8,0-3.4-2.5
		c-0.2,0.5-0.5,1.1-0.8,1.6c0-0.2-0.1-0.5-0.1-0.8c-0.2,0.4-0.5,0.8-0.7,1.3C-2011.4,226.2-2011.2,225.5-2011,224.9z"/>
	<path class="st26" d="M-1962.4,228.3c-2.8,3.4-5.5,6.8-7.7,10.6c-1.4,2.5-2.6,5.1-4.1,7.5c-1.5,2.6-3.4,5-5.2,7.4
		c-2.6,3.4-5.1,6.7-7.7,10.1c-2,2.7-4.1,5.4-6.4,7.8c-2.7,2.9-5.7,5.6-8.7,8.2c-1.8,1.5-3.6,3-5.5,4.2c-1.2,0.8-2.6,1.5-4.1,1.4
		c-1.6-0.1-3-1-4.3-1.9c-1.4-0.9-2.7-1.9-4.1-2.8c-0.3-0.2-0.6-0.4-0.8-0.8c-0.1-0.3,0-0.6,0.1-0.9c1.5-5.8,5.4-10.6,9.5-14.9
		s8.6-8.3,12-13.2c2-2.9,3.6-6,5.6-8.9c2.8-3.9,6.3-7.3,8.8-11.4c2.5-4.1,3.8-8.7,6.4-12.7s7.1-7.3,11.8-6.6
		c1.7,0.3,3.2,1.1,4.6,2.1c1.9,1.4,3.5,3.4,3.9,5.7c0.5,2.3-0.2,4.6-1.3,6.6c-1.1,2-2.7,3.7-4.3,5.4"/>
	<path class="st26" d="M-1994.9,195.8c-7.8-5.5-15.6-11.1-22.3-18c-3-3.1-5.7-6.4-9.3-8.8s-8.2-3.6-12.1-1.8
		c-3.5,1.5-5.7,5.2-6.5,8.9c-0.7,3.8-0.2,7.6,0.5,11.4c1.4,7.6,3.6,15,6.5,22.1c0.2,0.4,0.4,0.9,0.7,1.1c0.4,0.2,0.8,0.2,1.2,0.2
		c2.8-0.2,5.7-0.6,8.4-1.3c-0.2-3-0.6-6-1.2-9c2.4,2.3,4.6,4.7,6.7,7.4c5.2-6.3,12.9-10.3,21-10.9c1.6-0.1,3.3-0.1,4.8-0.5
		c1.6-0.4,3.1-1.3,3.8-2.8"/>
</g>
<g>
	<ellipse class="st27" cx="526.2" cy="651" rx="235.6" ry="14.6"/>
	<ellipse class="st27" cx="417.3" cy="669.6" rx="119.7" ry="18.4"/>
	<g>
		<g>
			<g>
				<g>
					<path class="st2" d="M347.3,648.8c-8.5,0-15.4-7.4-15.4-16.4l0.8-591.1c0-9,6.9-16.4,15.4-16.3l365.3,0.6
						c8.5,0,15.4,7.4,15.4,16.4l-0.8,591.1c0,9-6.9,16.4-15.4,16.3L347.3,648.8z"/>
				</g>
			</g>
			<g>
				<g>
					<path class="st3" d="M356.4,639.9c-8.1,0-14.7-6.8-14.6-15.1l0.8-545.4c0-8.3,6.6-15.1,14.7-15.1l347.2,0.6
						c8.1,0,14.7,6.8,14.6,15.1l-0.8,545.4c0,8.3-6.6,15.1-14.7,15.1L356.4,639.9z"/>
				</g>
			</g>
		</g>
		<circle class="st3" cx="626" cy="45" r="8.1"/>
		<circle class="st3" cx="601.7" cy="45" r="8.1"/>
		<circle class="st3" cx="577.4" cy="45" r="8.1"/>
		<circle class="st3" cx="485.9" cy="45" r="8.1"/>
		<circle class="st3" cx="461.6" cy="45" r="8.1"/>
		<circle class="st3" cx="437.3" cy="45" r="8.1"/>
		<line class="st28" x1="511.7" y1="45" x2="549.5" y2="45"/>
	</g>
	<g>
		<path class="st29" d="M467.2,467.2c0.9,2.4,2.6,4.7,5,5.5c0.9,0.3,2,0.6,2.3,1.4c0.3,1-0.6,1.9-1.5,2.4c-2.6,1.5-5.7,1.5-8.7,1.5
			c-1.1,0-2.1,0-3.1-0.4c-1.7-0.7-2.8-2.3-3.4-4c-0.7-1.7-1-3.5-1.7-5.2c-1.2-2.6-3.3-4.6-5-7c-1.6-2.4-2.7-5.5-1.5-8
			c1.1-2.2,3.6-3.4,5.9-4.4c5.5-2.3,9.9-5.3,10.5,2.5C466.4,456.9,465.4,462.2,467.2,467.2z"/>
		<path class="st30" d="M474.5,474.2c0.3,1-0.6,1.9-1.5,2.4c-2.6,1.5-5.7,1.5-8.7,1.5c-1.1,0-2.1,0-3.1-0.4c-1.7-0.7-2.8-2.3-3.4-4
			c-0.7-1.7-1-3.5-1.7-5.2c-1.2-2.6-3.3-4.6-5-7c-1.6-2.4-2.7-5.5-1.5-8c1.8-1.7,3.9-0.4,5.2,2.9c2.8,7,4.6,16.1,7.6,18.4
			C466,477.8,470,477.5,474.5,474.2z"/>
	</g>
	<g>
		<path class="st5" d="M593.2,165.9c-1.5,7.9-5.8,15.4-12.5,20.4c-3.3,2.5-7.2,4.3-11.3,5.2c-4.1,0.9-8.4,0.9-12.5,0
			c-4.1-0.9-7.9-2.6-11.3-5c-3.4-2.4-6.2-5.4-8.5-8.8c-4.5-6.8-6.5-15.2-5.2-23.4c1.2-8.2,6-15.9,12.9-20.6c3.4-2.4,7.4-4.1,11.5-5
			c4.1-0.9,8.4-0.9,12.6-0.1c4.1,0.8,8.1,2.5,11.6,4.9c3.5,2.4,6.4,5.5,8.6,9C593.5,149.4,594.7,158,593.2,165.9z M592.9,165.8
			c0.7-3.9,0.6-8-0.3-11.9c-0.9-3.9-2.7-7.4-5.1-10.5c-4.7-6.2-11.6-10.5-19.1-11.9c-7.5-1.4-15.5,0.1-21.9,4.4
			c-3.2,2.1-6,4.8-8.2,8c-2.2,3.2-3.8,6.8-4.7,10.6c-0.8,3.8-1,7.8-0.2,11.7c0.7,3.9,2.3,7.6,4.6,10.9c4.5,6.5,11.9,10.7,19.5,11.9
			c7.6,1.3,15.5-0.3,22.2-4.3c3.3-2,6.3-4.7,8.6-8C590.6,173.5,592.1,169.8,592.9,165.8z"/>
	</g>
	<circle class="st31" cx="564.2" cy="170" r="11.3"/>
	<circle class="st31" cx="548.7" cy="201" r="11.3"/>
	<circle class="st31" cx="598.6" cy="188.1" r="11.3"/>
	<circle class="st31" cx="583.1" cy="220" r="11.3"/>
	<g>
		<path class="st5" d="M638.4,190.6c-1.5,7.9-5.8,15.4-12.5,20.4c-3.3,2.5-7.2,4.3-11.3,5.2c-4.1,0.9-8.4,0.9-12.5,0
			c-4.1-0.9-7.9-2.6-11.3-5c-3.4-2.4-6.2-5.4-8.5-8.8c-4.5-6.8-6.5-15.2-5.2-23.4c1.2-8.2,6-15.9,12.9-20.6c3.4-2.4,7.4-4.1,11.5-5
			c4.1-0.9,8.4-0.9,12.6-0.1c4.1,0.8,8.1,2.5,11.6,4.9c3.5,2.4,6.4,5.5,8.6,9C638.7,174.1,640,182.7,638.4,190.6z M638.1,190.5
			c0.7-3.9,0.6-8-0.3-11.9c-0.9-3.9-2.7-7.4-5.1-10.5c-4.7-6.2-11.6-10.5-19.1-11.9c-7.5-1.4-15.5,0.1-21.9,4.4
			c-3.2,2.1-6,4.8-8.2,8c-2.2,3.2-3.8,6.8-4.7,10.6c-0.8,3.8-1,7.8-0.2,11.7c0.7,3.9,2.3,7.6,4.6,10.9c4.5,6.5,11.9,10.7,19.5,11.9
			c7.6,1.3,15.5-0.3,22.2-4.3c3.3-2,6.3-4.7,8.6-8C635.8,198.2,637.4,194.5,638.1,190.5z"/>
	</g>
	<g>
		<path class="st5" d="M567.4,207.4c-1.5,7.9-5.8,15.4-12.5,20.4c-3.3,2.5-7.2,4.3-11.3,5.2c-4.1,0.9-8.4,0.9-12.5,0
			c-4.1-0.9-7.9-2.6-11.3-5c-3.4-2.4-6.2-5.4-8.5-8.8c-4.5-6.8-6.5-15.2-5.2-23.4c1.2-8.2,6-15.9,12.9-20.6c3.4-2.4,7.4-4.1,11.5-5
			c4.1-0.9,8.4-0.9,12.6-0.1c4.1,0.8,8.1,2.5,11.6,4.9c3.5,2.4,6.4,5.5,8.6,9C567.7,190.9,569,199.5,567.4,207.4z M567.1,207.3
			c0.7-3.9,0.6-8-0.3-11.9c-0.9-3.9-2.7-7.4-5.1-10.5c-4.7-6.2-11.6-10.5-19.1-11.9c-7.5-1.4-15.5,0.1-21.9,4.4
			c-3.2,2.1-6,4.8-8.2,8c-2.2,3.2-3.8,6.8-4.7,10.6c-0.8,3.8-1,7.8-0.2,11.7c0.7,3.9,2.3,7.6,4.6,10.9c4.5,6.5,11.9,10.7,19.5,11.9
			c7.6,1.3,15.5-0.3,22.2-4.3c3.3-2,6.3-4.7,8.6-8C564.8,215,566.4,211.2,567.1,207.3z"/>
	</g>
	<g>
		<path class="st5" d="M612,235.5c-1.5,7.9-5.8,15.4-12.5,20.4c-3.3,2.5-7.2,4.3-11.3,5.2c-4.1,0.9-8.4,0.9-12.5,0
			c-4.1-0.9-7.9-2.6-11.3-5c-3.4-2.4-6.2-5.4-8.5-8.8c-4.5-6.8-6.5-15.2-5.2-23.4c1.2-8.2,6-15.9,12.9-20.6c3.4-2.4,7.4-4.1,11.5-5
			c4.1-0.9,8.4-0.9,12.6-0.1c4.1,0.8,8.1,2.5,11.6,4.9c3.5,2.4,6.4,5.5,8.6,9C612.3,219,613.5,227.6,612,235.5z M611.7,235.5
			c0.7-3.9,0.6-8-0.3-11.9c-0.9-3.9-2.7-7.4-5.1-10.5c-4.7-6.2-11.6-10.5-19.1-11.9c-7.5-1.4-15.5,0.1-21.9,4.4
			c-3.2,2.1-6,4.8-8.2,8c-2.2,3.2-3.8,6.8-4.7,10.6c-0.8,3.8-1,7.8-0.2,11.7c0.7,3.9,2.3,7.6,4.6,10.9c4.5,6.5,11.9,10.7,19.5,11.9
			c7.6,1.3,15.5-0.3,22.2-4.3c3.3-2,6.3-4.7,8.6-8C609.4,243.1,611,239.4,611.7,235.5z"/>
	</g>
	<circle class="st2" cx="573.7" cy="194.7" r="17.9"/>
	<path class="st32" d="M561.3,210.7c0,0-85.9,197.7-40.8,363.3"/>
	<path class="st31" d="M465.6,272.7c22.1,14.9,48.3,55.6,41.6,118.6C477.9,376.7,435.5,327.6,465.6,272.7z"/>
	<path class="st31" d="M620.9,263.1c-3.5,36.8-37.8,81.9-98,72.2C538.7,293.8,562.4,260.8,620.9,263.1z"/>
	<path class="st33" d="M519.6,575.1c0,0,1.9-345.3-55.8-339.2C406,242,456.6,463.9,519.6,575.1z"/>
	<path class="st34" d="M526.1,575.1c0.5-33,55-424,144.7-404S549.7,549.4,526.1,575.1z"/>
	<path class="st31" d="M523.2,580.6c1.7-48.1,93-149.9,112.1-120.3C657.4,494.4,539.1,526.4,523.2,580.6z"/>
	<path class="st31" d="M531.9,550.8c19.1-19.1,25.8-95.4,6.4-91.9C515.9,462.9,548.1,523.5,531.9,550.8z"/>
	<path class="st35" d="M486.9,364.5c-2.6,0.7-4.2,3.1-5.6,5.3c-12.2,20.2-21.1,42.4-26.3,65.5c-0.3,1.3-0.3,3.2,1,3.5
		c0.7,0.2,1.4-0.2,2-0.6c17.6-10.8,30.5-27.7,43-44.2c2.8-3.7,5.6-7.4,7.2-11.7c1.6-4.3,1.9-9.4-0.4-13.4
		c-3.3-5.8-10.8-7.9-17.5-7.4c-2.8,0.2-5.6,0.8-7.8,2.5c-2.2,1.7-3.5,4.8-2.4,7.3"/>
	<path class="st18" d="M494.9,343.1c9.1,5.1,18.2,10.2,26.3,16.8c3.6,2.9,7.1,6.4,8.4,10.8c1.3,4.2,0.5,8.9-1.4,12.9
		c-4.3,9.2-13.2,15.1-21,21.6c-13.9,11.7-41.9,40.9-57.7,49.8c-5.4-2.6,16.4-40.5,20-45.3c10.4-13.9,20-30.1,36.2-36.1
		c-20.9,2.2-41.9,2.6-62.8,1.3c-6.8-0.4-13.9-1.2-19.5-5c-9.6-6.6-11.6-20.5-7.3-31.3c1.4-3.4,3.3-6.8,6.4-8.8c2.9-1.9,6.6-2.5,10-3
		c10.9-1.6,23.1-2.9,33.8,0.8C476.4,331.1,485.8,338,494.9,343.1z"/>
	<path class="st36" d="M488.7,249.6c2.1,7.8,7.4,16.1,6.8,24.1c-0.4,6.3-3.8,11.9-6.6,17.5c-3.9,7.7-6.9,15.9-8.9,24.3
		c-1.4,6-3.7,13.7,0.1,18.6c-14.6-2.6-24.1-2.6-40.5-0.9c-4.1,0.4-21.6,3.1-21.4,1.1c2.1-18.1,23.5-29.4,25.4-47.6
		c0.8-7.8,0.6-12-1.9-19.4c-3.6-10.5-3.8-19.8-3.4-23.3c2.6-23.3,17-24.8,30.3-23.7c5.7,0.5,11.6,2.4,15,7
		C488.1,233.1,487.2,243.7,488.7,249.6z"/>
	<g>
		<path class="st29" d="M451.7,469.9c0.4,2.5,1.8,5,4,6.3c0.8,0.5,1.8,0.9,2,1.8c0.2,1-0.9,1.8-1.9,2.2c-2.8,1-5.9,0.5-8.8,0
			c-1-0.2-2.1-0.4-3-0.9c-1.6-0.9-2.3-2.8-2.7-4.5c-0.4-1.8-0.4-3.6-0.8-5.4c-0.7-2.8-2.5-5.1-3.7-7.7s-1.8-5.8-0.1-8.2
			c1.4-2,4.1-2.7,6.5-3.3c5.8-1.3,10.6-3.6,9.9,4.3C452.7,459.5,450.8,464.6,451.7,469.9z"/>
		<path class="st30" d="M457.7,478c0.2,1-0.9,1.8-1.9,2.2c-2.8,1-5.9,0.5-8.8,0c-1-0.2-2.1-0.4-3-0.9c-1.6-0.9-2.3-2.8-2.7-4.5
			c-0.4-1.8-0.4-3.6-0.8-5.4c-0.7-2.8-2.5-5.1-3.7-7.7s-1.8-5.8-0.1-8.2c2.1-1.4,3.9,0.3,4.7,3.8c1.5,7.3,1.8,16.6,4.3,19.5
			C448.8,480.1,452.7,480.4,457.7,478z"/>
	</g>
	<path class="st37" d="M491,204.2c-1.1,2.1-2.1,4.5-4.1,5.7c-2.1,1.2-4.7,1-7,0.5c-4.2-0.8-8.1-2.5-12-4.2c-5.3-2.4-10.5-5.1-14.8-9
		c-4.2-4-7.4-9.4-7.4-15.2c-0.1-4.7,1.8-9.1,4-13.2c4.9-9.4,11.6-12.7,21.9-14c5.6-0.7,15.3-5.1,19.1-0.6
		C503.4,169.5,497.4,191.9,491,204.2z"/>
	<path class="st38" d="M569.4,192.3c0.1,0.6-0.6,1.1-1.1,1.5c-0.5,0.4-1.1,0.6-1.7,0.8c-0.7,0.3-1.4,0.5-2.1,0.5
		c-0.7,0-1.4-0.4-1.8-0.9c-0.1-0.1-0.1-0.2-0.1-0.3c0-0.2,0.2-0.3,0.4-0.4c1.4-0.7,3-1.1,4.4-1.9C567.3,191.6,569,190.3,569.4,192.3
		z"/>
	<g>
		<polygon class="st18" points="558.8,185.9 581.4,193.4 579.9,197.1 		"/>
	</g>
	<path class="st38" d="M564.1,200.7c-0.1,0.1-0.1,0.2-0.1,0.4c0,0.1,0.1,0.2,0.1,0.3c0.4,0.4,1.1,0.5,1.6,0.3c0.5-0.2,1-0.6,1.3-1.1
		s0.6-1,1-1.4c0.6-0.7,1.5-1.4,1.5-2.3c0-1-0.7-1.2-1.5-1.1C565.8,196.1,565.1,198.9,564.1,200.7z"/>
	<path class="st37" d="M573.7,219.8c0.8-1.3,1.8-2.5,2.7-3.9c1-1.7,1.8-3.5,2.6-5.3c1.2-2.7,2.3-5.3,3.5-8c0.4-0.8,0.7-1.7,0.7-2.6
		c0-0.7-0.3-1.4-0.6-2.1c-0.9-2.3-1.4-4.7-1.6-7.2c0-0.5,0-1-0.3-1.5c-0.3-0.5-0.9-0.8-1.5-1s-1.2-0.1-1.8,0c-2.1,0.1-4.2,0-6.3-0.3
		c-1.5-0.2-1.3,0.3-1.1,1.5s2.5,1.7,2.5,1.7c0.8,0.3,1.5,0.6,2.4,0.6c0.8,0,1.7-0.3,2.2-0.9c-1,1.3-1.1,3.2-0.4,4.6
		c-0.9,0.4-1.6,1.2-1.9,2.1c-0.2,0.6-0.3,1.4-0.8,1.8c-0.5,0.4-1.3,0.4-1.6,0.9c-0.3-2,0.1-4.1,0.2-6.1c0-1.5-0.1-3-0.8-4.4
		c-0.4-0.8-1.5-2.5-2.5-1.6c-0.8,0.7-0.8,1.6-1.2,2.5c-0.1,0.2-0.2,0.6-0.2,0.6c-0.1,0.4,0.1,1,0.1,1.4c0,0.7-0.1,1.4-0.1,2.2
		c0.1,1.1,0.3,2.3,0.3,3.4c0,0.9-0.3,1.8-0.5,2.6c-0.6,2.5-0.9,5.1-0.7,7.6c0.1,1.6,0.5,3.1,0.8,4.7c0.3,1.2,0.5,2.4,0.8,3.6
		c-0.1,0.3-0.1,0.8,0,1.1c0.1,0.3,0.4,0.6,0.6,0.8c0.6,0.6,1.4,1.1,2.3,1.5c0.5,0.2,1,0.3,1.4,0.1c0.2-0.1,0.3-0.2,0.5-0.3
		c0.2-0.2,0.4-0.3,0.6-0.5"/>
	<g>
		<path class="st39" d="M574.9,197c-0.5-0.1-0.9-0.4-1.3-0.7c-0.2-0.2-0.4-0.4-0.5-0.6c-0.1-0.2-0.3-0.4-0.3-0.7
			c0.1,0.2,0.3,0.4,0.4,0.6c0.2,0.2,0.3,0.4,0.5,0.5C574.1,196.4,574.5,196.7,574.9,197z"/>
	</g>
	<g>
		<path class="st39" d="M574,198.8c-0.4-0.1-0.8-0.3-1.1-0.6c-0.2-0.1-0.3-0.3-0.4-0.5c-0.1-0.2-0.2-0.4-0.2-0.6
			c0.2,0.4,0.4,0.7,0.8,0.9C573.3,198.3,573.7,198.5,574,198.8z"/>
	</g>
	<polygon class="st18" points="593.9,202.5 574,193.6 575.7,191.9 594.9,200.1 	"/>
	<line class="st40" x1="391.4" y1="377.1" x2="490.5" y2="377.1"/>
	<line class="st40" x1="473.3" y1="377.1" x2="418.1" y2="675.1"/>
	<line class="st40" x1="406.1" y1="377.1" x2="322.5" y2="655.3"/>
	<line class="st41" x1="518.9" y1="655.3" x2="484.2" y2="377.1"/>
	<line class="st41" x1="410.4" y1="380.5" x2="387.1" y2="655.3"/>
	<line class="st41" x1="410.8" y1="426.6" x2="487.4" y2="426.6"/>
	<line class="st41" x1="406.5" y1="480.9" x2="494.3" y2="480.9"/>
	<path class="st41" d="M399.2,536c0,0,102.8,0,101.8,0"/>
	<line class="st41" x1="392.3" y1="593.7" x2="508.5" y2="593.7"/>
	<g>
		<path class="st42" d="M461.7,234.9c1.5,2.9,3.6,4.9,5.8,6.5c2.3,1.6,4.8,2.9,7.5,4.2c2.7,1.3,5.4,2.7,8.1,4.2c2.7,1.5,5.4,3,8,4.9
			c-3.3,0.1-6.4-0.5-9.5-1.3c-3.1-0.8-6-2-8.8-3.4c-2.8-1.4-5.7-3.2-8-5.9c-1.1-1.3-2-2.8-2.6-4.4
			C461.6,238.2,461.4,236.5,461.7,234.9z"/>
	</g>
	<path class="st36" d="M530.7,252.5c1.2,0.7,2.4,1.5,3.8,1.5c1.6,0,3-1.1,4.2-2.2c11.9-10.5,21.3-23.8,27.2-38.5
		c0.3-0.8,0.8-1.8,1.7-1.9c0.6-0.1,1.1,0.2,1.5,0.5c2,1.2,3.8,2.7,5.6,4.2c0.7,0.7,1.5,1.4,1.7,2.4c0.3,1.3-0.5,2.5-1.3,3.6
		c-7,10.1-15.1,19.6-20.3,30.8c-3.5,7.6-6.6,16.9-14.5,19.7c-6.1,2.1-12.7-0.6-18.6-3.3c-15.7-7.2-31.5-14.4-47.2-21.6
		c-7.7-3.5-16.4-9.6-10.7-18.8c3.7-5.9,9.3-7.8,15.9-6.1C497.7,227.2,515.2,242.7,530.7,252.5z"/>
	<path class="st43" d="M477,148.2c3.4,1,6.7,2,10.1,3c4.2,1.2,8.9,2.9,10.5,7c1,2.6,0.5,5.5-0.4,8.1c-1,2.6-2.4,5-3.1,7.6
		c-1.2,4.2-1.1,9.1-4.1,12.2c-1.1,1.2-2.6,2-3.4,3.4c-0.8,1.5-0.6,3.3-1.1,4.8c-0.6,2-2.3,3.6-2.9,5.6c-0.5,1.5-0.3,3.2-0.5,4.7
		c-0.4,3.4-2.3,6.4-3.4,9.6c-2.1,6.3-0.4,14.2,5.2,17.9c-3.3,1-7-0.9-9.1-3.6c-2.1-2.7-3.1-6.2-4-9.5c-2.7,1.3-4,4.4-6,6.7
		c-2.1,2.3-5.1,3.8-8.2,4.1c-2.5,0.2-5.1-0.4-7.6,0.3c-2.1,0.6-3.9,2.1-6.1,2.7c-2.2,0.6-4.7,0.2-6.4-1.4s-2.2-4.3-0.9-6.2
		c0.4-0.7,1.1-1.3,1.5-2c1.3-2.4-0.7-5.2-1.4-7.9c-1.2-4.1,0.4-8.3,1.5-12.4c2.3-8.5,2.3-17.5,3.7-26.2c1.4-8.7,4.6-17.7,11.6-23.1
		c8.3-6.4,19.8-6.4,30.2-5.1"/>
	<g>
		<path class="st44" d="M457.8,173.4c-0.5,4.2-1,8.3-1.4,12.4c-0.4,4.1-0.6,8.2-1.1,12.4c-0.5,4.2-1.4,8.5-3.4,12.4
			c-0.3,0.5-0.5,1-0.8,1.4c-0.3,0.5-0.6,0.9-0.9,1.4c-0.7,0.9-1.5,1.7-2.4,2.4c-1,0.6-2.1,1-3.3,1c-1.1,0-2.3-0.4-3-1.2
			c0.9,0.5,2,0.6,2.9,0.4c0.9-0.2,1.8-0.7,2.4-1.3c1.4-1.3,2.2-3.1,3-5c1.5-3.7,2.1-7.7,2.6-11.7c0.3-2,0.5-4.1,0.7-6.2
			c0.3-2.1,0.6-4.2,1-6.2C454.9,181.3,456.1,177.2,457.8,173.4z"/>
	</g>
	<g>
		<path class="st44" d="M490.1,170c-0.2,2.3-0.4,4.4-0.4,6.6c0,2.1,0.2,4.4-0.3,6.8c-0.2,1.2-0.7,2.5-1.4,3.6
			c-0.7,1.1-1.7,2-2.8,2.6c-0.5,0.3-1,0.6-1.6,0.8c-0.5,0.2-1.2,0.5-1.8,0.6c-1.3,0.3-2.9-0.1-3.6-1.4l0.5-0.4
			c0.3,0.4,0.5,0.7,0.7,1.1c-0.4-0.2-0.8-0.4-1.2-0.7l0.5-0.4c1.7,1.1,3.4-0.4,5-1.7c1.5-1.3,2.4-2.8,2.8-4.8c0.4-1.9,0.5-4.2,1-6.4
			C487.9,174.1,488.7,171.9,490.1,170z"/>
	</g>
	<g>
		<path class="st44" d="M479.1,196.4c-0.1,0.8-0.2,1.6-0.3,2.4c-0.1,0.8-0.2,1.6-0.5,2.4c-0.5,1.6-1.4,3.2-2.9,4.4
			c-1.4,1.2-3.3,1.9-5.2,1.7c-0.9-0.1-1.9-0.4-2.6-0.9c-0.7-0.5-1.3-1.2-1.7-1.9c0.8,0.2,1.6,0.5,2.3,0.6c0.7,0.1,1.3,0,2-0.1
			c1.2-0.3,2.4-0.9,3.3-1.7c1-0.8,1.8-1.9,2.7-3.1c0.4-0.6,0.8-1.2,1.2-1.9C477.9,197.6,478.3,196.8,479.1,196.4z"/>
	</g>
	<g>
		<path class="st45" d="M419,334.9c5.1,0.3,10-0.3,15-1.1c5-0.8,9.9-1.8,15-2.3c5.1-0.4,10.2-0.3,15.3,0.1c5.1,0.5,10.1,1.3,15,2.4
			c-5.1-0.2-10.1-0.6-15.1-0.8c-2.5-0.1-5-0.1-7.5-0.1c-2.5,0-5,0.1-7.5,0.4c-4.9,0.4-9.9,1.4-15,1.8
			C429.1,335.8,423.9,336,419,334.9z"/>
	</g>
</g>
</svg>
