<?xml version="1.0" encoding="utf-8"?>
<!-- Generator: Adobe Illustrator 24.0.2, SVG Export Plug-In . SVG Version: 6.00 Build 0)  -->
<svg version="1.1" id="Layer_1" xmlns="http://www.w3.org/2000/svg" xmlns:xlink="http://www.w3.org/1999/xlink" x="0px" y="0px"
	 viewBox="0 0 1119 701" style="enable-background:new 0 0 1119 701;" xml:space="preserve">
<style type="text/css">
	.st0{fill:#ECEDFF;}
	.st1{fill:#948DFD;}
	.st2{fill:#FFFFFF;}
	.st3{fill:none;stroke:#F14942;stroke-miterlimit:10;}
	.st4{fill:#DCDCEA;}
	.st5{fill:#FDCED0;}
	.st6{fill:none;stroke:#0D0F0F;stroke-miterlimit:10;}
	.st7{fill:none;}
	.st8{fill:none;stroke:#FFFFFF;stroke-width:7;stroke-linecap:round;stroke-miterlimit:10;}
	.st9{fill:none;stroke:#BCBBC4;stroke-miterlimit:10;}
	.st10{fill:#B1B0FE;}
	.st11{fill:#7575E0;}
	.st12{fill:none;stroke:#180B86;stroke-miterlimit:10;}
	.st13{fill:#FFFFFF;stroke:#180B86;stroke-miterlimit:10;}
	.st14{fill:#FFFFFF;stroke:#CACAFC;stroke-miterlimit:10;}
	.st15{fill:none;stroke:#B1B0FE;stroke-width:2;stroke-miterlimit:10;}
	.st16{fill:#DCDCF9;}
	.st17{fill:none;stroke:#FFFFFF;stroke-miterlimit:10;}
	.st18{fill:none;stroke:#B1B0FE;stroke-miterlimit:10;}
	.st19{fill:#180B86;}
	.st20{display:none;}
	.st21{display:inline;}
	.st22{fill:none;stroke:#FFFFFF;stroke-width:3;stroke-linecap:round;stroke-miterlimit:10;}
	.st23{display:inline;fill:none;stroke:#180B86;stroke-miterlimit:10;}
	.st24{display:inline;fill:#CACAFC;}
	.st25{display:inline;fill:#FFFFFF;stroke:#CACAFC;stroke-miterlimit:10;}
	.st26{display:inline;fill:#B1B0FE;}
	.st27{display:inline;fill:none;stroke:#B1B0FE;stroke-miterlimit:10;}
	.st28{display:inline;fill:none;stroke:#FFFFFF;stroke-miterlimit:10;}
	.st29{fill:none;stroke:#094459;stroke-width:2;stroke-miterlimit:10;}
	.st30{display:inline;fill:#EFDAC5;}
	.st31{display:inline;fill:#EFB82E;}
	.st32{fill:#C66AAB;}
	.st33{fill:#9B4587;}
	.st34{display:inline;fill:#219BC3;}
	.st35{fill:#0A557F;}
	.st36{display:inline;fill:#0A557F;}
	.st37{fill:#094459;}
	.st38{fill:#EFDAC5;}
	.st39{display:inline;fill:none;stroke:#FF0000;stroke-miterlimit:10;}
	.st40{display:inline;fill:#C66AAB;stroke:#9B4587;stroke-miterlimit:10;}
	.st41{fill:#CACAFC;}
	.st42{fill:#CCB9CF;}
	.st43{fill:#E1D9FE;}
	.st44{fill:#7C80F1;}
	.st45{fill:#4F53DF;}
	.st46{fill:#9E3F06;}
	.st47{fill:#FED1CE;}
	.st48{fill:#FFA600;}
	.st49{fill:#FF6C04;}
	.st50{fill:#2029A7;}
	.st51{fill:none;stroke:#5B67CE;stroke-width:7;stroke-linecap:round;stroke-miterlimit:10;}
	.st52{fill:none;stroke:#828AFE;stroke-width:11;stroke-linecap:round;stroke-miterlimit:10;}
	.st53{fill:#122072;}
	.st54{fill:#A04D8D;}
	.st55{fill:none;stroke:#5B67CE;stroke-width:11;stroke-linecap:round;stroke-miterlimit:10;}
</style>
<ellipse class="st0" cx="831.5" cy="662" rx="151.5" ry="14"/>
<ellipse class="st0" cx="628.5" cy="570" rx="404.5" ry="14"/>
<g>
	<g>
		<g>
			<path class="st1" d="M991.8,551.9c0,9.9-8.5,17.9-19,17.9l-686.3-1c-10.5,0-19-8-19-17.9l0.7-424.2c0-9.9,8.5-17.9,19-17.9
				l686.3,1c10.5,0,19,8,19,17.9L991.8,551.9z"/>
		</g>
	</g>
	<g>
		<g>
			<path class="st2" d="M952.4,541.4c0,9.4-7.6,17-17,17L324,557.4c-9.4,0-16.9-7.6-16.9-17.1l0.7-403.1c0-9.4,7.6-17,17-17
				l611.5,0.9c9.4,0,16.9,7.6,16.9,17L952.4,541.4z"/>
		</g>
	</g>
</g>
<g>
	<path class="st3" d="M398.5,220.2"/>
</g>
<polygon class="st4" points="345,253 345,221 559,221 559.6,439.9 541,440 541,458 330,458 330,253 "/>
<g>
	<path class="st2" d="M793.3,512.9c-0.5,1.6-1.6,2.7-2.5,2.4c-0.9-0.3-1.3-1.8-0.8-3.4c0.5-1.6,1.6-2.7,2.5-2.4
		C793.4,509.8,793.8,511.3,793.3,512.9z"/>
</g>
<g>
	<path class="st2" d="M782.6,507.6c-0.7,1.3-1.9,2.1-2.7,1.7c-0.8-0.4-0.9-1.8-0.2-3.1c0.7-1.3,1.9-2.1,2.7-1.7
		C783.2,504.8,783.3,506.2,782.6,507.6z"/>
</g>
<g>
	<path class="st5" d="M812.4,614.7"/>
</g>
<g>
	<path class="st6" d="M506.8-22"/>
</g>
<g>
	<path class="st6" d="M503.6-88.5"/>
</g>
<g>
	<path class="st7" d="M768,11.6c0.2,0,0.4-0.1,0.6-0.1C768.4,11.5,768.2,11.5,768,11.6z"/>
</g>
<g>
	<circle class="st2" cx="974.7" cy="339.3" r="11.3"/>
	<line class="st8" x1="284.5" y1="361.3" x2="284.5" y2="317.3"/>
</g>
<path class="st9" d="M433.4,172.8c4.8,7.9,22,7.6,31-3.3c9-10.9-12.4-24.3-10.2-2.1c2.2,22.2,29.6,17,36.9,9.9
	c7.2-7,2.5-22.8-4.4-14.9c-7.1,8.2-5.3,19.8,10.7,23.3c9.8,2.2,20.1,4.4,26.8-5.6c10.8-16.1-9.4-23.9-7.8-2
	c1.3,18.6,18,13.5,24.5,8.5"/>
<g>
	<circle class="st10" cx="348" cy="158" r="18"/>
	<circle class="st1" cx="362.4" cy="163.4" r="14.4"/>
	<circle class="st11" cx="375" cy="168.8" r="9"/>
</g>
<path class="st12" d="M431.4,167.8c4.8,7.9,22,7.6,31-3.3c9-10.9-12.4-24.3-10.2-2.1c2.2,22.2,29.6,17,36.9,9.9
	c7.2-7,2.5-22.8-4.4-14.9c-7.1,8.2-5.3,19.8,10.7,23.3c9.8,2.2,20.1,4.4,26.8-5.6c10.8-16.1-9.4-23.9-7.8-2
	c1.3,18.6,18,13.5,24.5,8.5"/>
<g>
	<rect x="334.5" y="252.6" class="st13" width="200.4" height="200.4"/>
	<rect x="344.9" y="221" class="st14" width="214.2" height="214.2"/>
	<path class="st15" d="M398.5,337c12.7,15.9,50.2,10.4,66.8-15.9s-33.9-49.7-22.8-1.8s69.5,28.7,83.3,11.3"/>
</g>
<g>
	<rect x="587" y="234.8" class="st12" width="87.5" height="87.5"/>
	<rect x="597.5" y="221" class="st16" width="87.5" height="87.5"/>
	<path class="st17" d="M619.4,268.4c5.2,6.5,20.5,4.2,27.3-6.5c6.8-10.7-13.8-20.3-9.3-0.7s28.4,11.7,34,4.6"/>
</g>
<g>
	<rect x="725" y="234.8" class="st12" width="87.5" height="87.5"/>
	<rect x="735.5" y="221" class="st10" width="87.5" height="87.5"/>
	<path class="st17" d="M757.4,268.4c5.2,6.5,20.5,4.2,27.3-6.5c6.8-10.7-13.8-20.3-9.3-0.7s28.4,11.7,34,4.6"/>
</g>
<g>
	<rect x="587" y="365.8" class="st12" width="87.5" height="87.5"/>
	<rect x="597.5" y="352" class="st14" width="87.5" height="87.5"/>
	<path class="st18" d="M619.4,399.4c5.2,6.5,20.5,4.2,27.3-6.5c6.8-10.7-13.8-20.3-9.3-0.7s28.4,11.7,34,4.6"/>
</g>
<g>
	<rect x="725" y="365.8" class="st12" width="87.5" height="87.5"/>
	<rect x="735.5" y="352" class="st14" width="87.5" height="87.5"/>
	<path class="st18" d="M757.4,399.4c5.2,6.5,20.5,4.2,27.3-6.5c6.8-10.7-13.8-20.3-9.3-0.7s28.4,11.7,34,4.6"/>
</g>
<g>
	<g>
		<g>
			<polygon class="st19" points="587.5,557.7 587.5,500.3 674,500.3 674,557.7 675,557.7 675,499.3 586.5,499.3 586.5,557.7 			"/>
		</g>
		<g>
			<g>
				<rect x="597.5" y="486" class="st16" width="87.5" height="71.7"/>
			</g>
		</g>
		<g>
			<path class="st2" d="M652.7,539c-1.5,0-2.9-0.1-4.4-0.5c-2.5-0.6-5.5-1.9-7.9-4.7c-3.3,2.1-7.1,3.5-10.9,3.7
				c-4.5,0.3-8.4-1.1-10.5-3.8l0.8-0.6c1.9,2.4,5.4,3.6,9.7,3.4c3.6-0.2,7.3-1.4,10.4-3.5c-1.2-1.7-2.3-3.9-2.9-6.8
				c-1.8-8,0.5-10.6,2.1-11.4c2.2-1.1,5.2-0.3,7.4,2c2.1,2.3,3.4,6.1,0.8,10.3c-1.5,2.4-3.5,4.4-5.8,6.1c1.9,2.2,4.3,3.6,7.3,4.3
				c8.5,1.9,19.2-3,22.4-7.1l0.8,0.6C668.8,534.8,660.6,539,652.7,539z M641.1,515.3c-0.6,0-1.1,0.1-1.6,0.4
				c-2.3,1.2-2.9,5-1.6,10.3c0.6,2.5,1.5,4.7,2.8,6.4c2.2-1.6,4.2-3.6,5.6-5.8c2.9-4.6,0.2-8.1-0.6-9.1
				C644.3,516.1,642.6,515.3,641.1,515.3z"/>
		</g>
	</g>
	<g>
		<g>
			<polygon class="st19" points="462.5,557.7 462.5,500.3 549,500.3 549,557.7 550,557.7 550,499.3 461.5,499.3 461.5,557.7 			"/>
		</g>
		<g>
			<g>
				<rect x="472.5" y="486" class="st14" width="87.5" height="71.7"/>
			</g>
		</g>
		<g>
			<path class="st10" d="M527.7,539c-1.5,0-2.9-0.1-4.4-0.5c-2.5-0.6-5.5-1.9-7.9-4.7c-3.3,2.1-7.1,3.5-10.9,3.7
				c-4.5,0.3-8.4-1.1-10.5-3.8l0.8-0.6c1.9,2.4,5.4,3.6,9.7,3.4c3.6-0.2,7.3-1.4,10.4-3.5c-1.2-1.7-2.3-3.9-2.9-6.8
				c-1.8-8,0.5-10.6,2.1-11.4c2.2-1.1,5.2-0.3,7.4,2c2.1,2.3,3.4,6.1,0.8,10.3c-1.5,2.4-3.5,4.4-5.8,6.1c1.9,2.2,4.3,3.6,7.3,4.3
				c8.5,1.9,19.2-3,22.4-7.1l0.8,0.6C543.8,534.8,535.6,539,527.7,539z M516.1,515.3c-0.6,0-1.1,0.1-1.6,0.4
				c-2.3,1.2-2.9,5-1.6,10.3c0.6,2.5,1.5,4.7,2.8,6.4c2.2-1.6,4.2-3.6,5.6-5.8c2.9-4.6,0.2-8.1-0.6-9.1
				C519.3,516.1,517.6,515.3,516.1,515.3z"/>
		</g>
	</g>
	<g>
		<g>
			<polygon class="st19" points="725.5,557.7 725.5,500.3 812,500.3 812,557.7 813,557.7 813,499.3 724.5,499.3 724.5,557.7 			"/>
		</g>
		<g>
			<g>
				<rect x="735.5" y="486" class="st14" width="87.5" height="71.7"/>
			</g>
		</g>
		<g>
			<path class="st10" d="M790.7,539c-1.5,0-2.9-0.1-4.4-0.5c-2.5-0.6-5.5-1.9-7.9-4.7c-3.3,2.1-7.1,3.5-10.9,3.7
				c-4.5,0.3-8.4-1.1-10.5-3.8l0.8-0.6c1.9,2.4,5.4,3.6,9.7,3.4c3.6-0.2,7.3-1.4,10.4-3.5c-1.2-1.7-2.3-3.9-2.9-6.8
				c-1.8-8,0.5-10.6,2.1-11.4c2.2-1.1,5.2-0.3,7.4,2c2.1,2.3,3.4,6.1,0.8,10.3c-1.5,2.4-3.5,4.4-5.8,6.1c1.9,2.2,4.3,3.6,7.3,4.3
				c8.5,1.9,19.2-3,22.4-7.1l0.8,0.6C806.8,534.8,798.6,539,790.7,539z M779.1,515.3c-0.6,0-1.1,0.1-1.6,0.4
				c-2.3,1.2-2.9,5-1.6,10.3c0.6,2.5,1.5,4.7,2.8,6.4c2.2-1.6,4.2-3.6,5.6-5.8c2.9-4.6,0.2-8.1-0.6-9.1
				C782.3,516.1,780.6,515.3,779.1,515.3z"/>
		</g>
	</g>
	<g>
		<g>
			<polygon class="st19" points="335.5,557.7 335.5,500.3 422,500.3 422,557.7 423,557.7 423,499.3 334.5,499.3 334.5,557.7 			"/>
		</g>
		<g>
			<g>
				<rect x="345.5" y="486" class="st10" width="87.5" height="71.7"/>
			</g>
		</g>
		<g>
			<path class="st2" d="M400.7,539c-1.5,0-2.9-0.1-4.4-0.5c-2.5-0.6-5.5-1.9-7.9-4.7c-3.3,2.1-7.1,3.5-10.9,3.7
				c-4.5,0.3-8.4-1.1-10.5-3.8l0.8-0.6c1.9,2.4,5.4,3.6,9.7,3.4c3.6-0.2,7.3-1.4,10.4-3.5c-1.2-1.7-2.3-3.9-2.9-6.8
				c-1.8-8,0.5-10.6,2.1-11.4c2.2-1.1,5.2-0.3,7.4,2c2.1,2.3,3.4,6.1,0.8,10.3c-1.5,2.4-3.5,4.4-5.8,6.1c1.9,2.2,4.3,3.6,7.3,4.3
				c8.5,1.9,19.2-3,22.4-7.1l0.8,0.6C416.8,534.8,408.6,539,400.7,539z M389.1,515.3c-0.6,0-1.1,0.1-1.6,0.4
				c-2.3,1.2-2.9,5-1.6,10.3c0.6,2.5,1.5,4.7,2.8,6.4c2.2-1.6,4.2-3.6,5.6-5.8c2.9-4.6,0.2-8.1-0.6-9.1
				C392.3,516.1,390.6,515.3,389.1,515.3z"/>
		</g>
	</g>
</g>
<path class="st12" d="M872.1,166.1c5.6,7,22.1,4.6,29.5-7c7.4-11.6-14.9-21.9-10.1-0.8c4.9,21.1,30.6,12.7,36.7,5"/>
<path class="st12" d="M798.1,166.1c5.6,7,22.1,4.6,29.5-7c7.4-11.6-14.9-21.9-10.1-0.8c4.9,21.1,30.6,12.7,36.7,5"/>
<path class="st12" d="M722.1,166.1c5.6,7,22.1,4.6,29.5-7c7.4-11.6-14.9-21.9-10.1-0.8c4.9,21.1,30.6,12.7,36.7,5"/>
<g class="st20">
	<g class="st21">
		<path class="st1" d="M906,611.5c0,8.5-5.3,15.4-12.1,15.4H714.9c-5.5,0-11.7-6.9-11.7-15.4V246.3c0-8.5,6.2-15.4,14.1-15.4h175.7
			c6.6,0,13,6.9,13,15.4V611.5z"/>
		<path class="st2" d="M899.8,601.1c0,7.7-3.7,13.9-9.5,13.9H719c-5,0-9.7-6.2-9.7-13.9V270.9c0-7.7,5.4-13.9,10.8-13.9h168.2
			c5.7,0,11.5,6.2,11.5,13.9V601.1z"/>
	</g>
	<g class="st21">
		<circle class="st2" cx="779.3" cy="245" r="3"/>
		<line class="st22" x1="790.3" y1="245" x2="834.3" y2="245"/>
	</g>
	<g class="st21">
		<g>
			<circle class="st10" cx="737" cy="280" r="10"/>
			<circle class="st1" cx="745" cy="283" r="8"/>
			<circle class="st11" cx="752" cy="286" r="5"/>
		</g>
		<path class="st12" d="M779,284.7c3.2,4,12.6,2.6,16.9-4s-8.5-12.5-5.8-0.4c2.8,12.1,17.5,7.2,21,2.9c3.5-4.4-0.2-12.7-3.5-7.9
			c-3.3,5-1.5,11.3,7.5,12.1c5.5,0.5,11.4,1,14.4-5c4.8-9.6-6.9-12.5-4.5-0.5c2,10.2,10.9,6.2,14.1,3"/>
	</g>
	<rect x="816.5" y="335.5" class="st23" width="54" height="54"/>
	<rect x="823" y="327" class="st24" width="54" height="54"/>
	<rect x="733" y="422" class="st23" width="54" height="54"/>
	<rect x="739.5" y="413.5" class="st24" width="54" height="54"/>
	<rect x="816.5" y="422.5" class="st23" width="54" height="54"/>
	<rect x="823" y="414" class="st25" width="54" height="54"/>
	<rect x="733" y="510" class="st23" width="54" height="54"/>
	<rect x="739.5" y="501.5" class="st25" width="54" height="54"/>
	<rect x="816.5" y="510.5" class="st23" width="54" height="54"/>
	<rect x="823" y="502" class="st26" width="54" height="54"/>
	<g class="st21">
		<rect x="733" y="335" class="st12" width="54" height="54"/>
		<rect x="739.5" y="326.5" class="st10" width="54" height="54"/>
		<path class="st17" d="M753,355.7c3.2,4,12.6,2.6,16.9-4s-8.5-12.5-5.8-0.4c2.8,12.1,17.5,7.2,21,2.9"/>
	</g>
	<path class="st27" d="M835,445.7c3.2,4,12.6,2.6,16.9-4s-8.5-12.5-5.8-0.4c2.8,12.1,17.5,7.2,21,2.9"/>
	<path class="st28" d="M835,357.7c3.2,4,12.6,2.6,16.9-4s-8.5-12.5-5.8-0.4c2.8,12.1,17.5,7.2,21,2.9"/>
	<path class="st28" d="M780.7,449.2c-1.4-4.9-10.6-7.4-17.1-2.9c-6.5,4.5,3,14.9,5.1,2.7c2.2-12.2-13.3-13.5-18.2-10.8"/>
	<path class="st28" d="M865,528.8c-2.4-4.5-11.9-4.9-17.3,0.8c-5.4,5.7,6.1,13.9,5.6,1.5c-0.5-12.4-15.9-10.3-20.1-6.7"/>
	<path class="st27" d="M782,528.8c-2.4-4.5-11.9-4.9-17.3,0.8c-5.4,5.7,6.1,13.9,5.6,1.5c-0.5-12.4-15.9-10.3-20.1-6.7"/>
</g>
<g class="st20">
	<g class="st21">
		<line class="st29" x1="365.5" y1="215.3" x2="452.3" y2="640.8"/>
		<line class="st29" x1="400.4" y1="228.2" x2="496.4" y2="606.2"/>
		<line class="st29" x1="443.5" y1="597.7" x2="488" y2="573"/>
		<line class="st29" x1="433.9" y1="550.6" x2="477" y2="532"/>
		<line class="st29" x1="426" y1="511.9" x2="468" y2="495"/>
		<line class="st29" x1="417.9" y1="472" x2="459" y2="460"/>
		<line class="st29" x1="408.9" y1="427.9" x2="451" y2="424"/>
		<line class="st29" x1="389.8" y1="334.3" x2="433.9" y2="336.4"/>
		<line class="st29" x1="382.8" y1="300.1" x2="426" y2="304"/>
		<line class="st29" x1="374.5" y1="259.4" x2="415.8" y2="262.2"/>
	</g>
	<path class="st30" d="M437.8,182.4c-3.7,1.1-8.3,2.5-8.2,8.5c-2.1,2.3-6.5,3.5-5.4,5c1.1,1.5,0.7,2.5-0.1,3.1
		c0,1.1,1.2,1.7,1.2,1.7l-1.6,0.4c0,0-0.1,1.5-1.4,2.8c-1.3,1.3,1.4,4.2,3.7,5.2c2.2,1,1.5,1.5,1.8,2.4c0.1,0.4-0.3,4.3-1.2,6.1
		c-0.8,1.7,0.7,2.5,0.9,4.9c0.3,3.3-2.7,7-2.7,7l18.6,1.2c0,0-4.3-13.7,6.8-21.4c9-6.3,5.8-13.9,5.5-14.4S437.8,182.4,437.8,182.4z"
		/>
	<path class="st31" d="M438.7,393.6c3,2.6,14.4,19,11.5,23.8c-2.9,4.9-8.6,6.8-11.5,6.8s-13.4,1-13.4,1l4.6-21.3
		C429.9,403.9,432,387.9,438.7,393.6z"/>
	<path class="st31" d="M422.5,395.5c1,3.8,11.5,16.3,8.6,22.9s-17.4,9.5-20.2,8.6c-2.8-0.9-3-12.7-3-12.7s7.9-1.6,6.9-11.2
		c-1-9.6,2.9-13.4,6.7-7.6"/>
	<g class="st21">
		<g>
			<path class="st32" d="M430.5,317.5c1.9,5.7-11.9,35-16.6,46.5c7.6,8.6,12.4,34.4,15.3,42.1c2.9-9.6,9.6-8.6,14.3-4.8
				c1-6.7-10.5-30.6-13.4-35.4s1-10.5,11.5-32.5s9.6-33.5,6.7-43c0,0-30.9-18.1-37.9,8.6c-7,26.7-13.7,50.6-10.8,64
				s10.5,44.9,13.4,49.7c1.9-9.6,9.6-16.3,15.3-7.6"/>
			<path class="st33" d="M430.5,317.5c0.3,1,0.2,2.1,0.1,3.1c-0.1,1-0.4,2-0.6,3.1c-0.5,2-1.1,4-1.8,6c-1.3,3.9-2.8,7.8-4.4,11.6
				c-3.1,7.7-6.5,15.2-9.7,22.9l-0.1-0.3c2.5,2.9,4.1,6.4,5.6,9.8c1.4,3.5,2.6,7.1,3.7,10.7c1.1,3.6,2.1,7.2,3.1,10.8
				c1,3.6,1.9,7.3,3.1,10.8l-0.9,0c0.5-1.5,1.1-3,2-4.4c0.9-1.3,2.2-2.5,3.9-3c1.6-0.5,3.4-0.4,4.9,0.1c1.6,0.5,3,1.4,4.2,2.4
				l-0.6,0.2c0.1-1.1,0-2.4-0.2-3.5c-0.2-1.2-0.5-2.4-0.9-3.5c-0.7-2.3-1.5-4.7-2.4-7c-1.8-4.6-3.7-9.1-5.8-13.5
				c-1.1-2.2-2.1-4.4-3.3-6.6c-0.3-0.5-0.6-1-0.9-1.6c-0.3-0.6-0.5-1.2-0.6-1.8c-0.2-1.3,0-2.5,0.3-3.7c0.6-2.4,1.6-4.7,2.6-6.9
				c1-2.2,2.1-4.5,3.2-6.7c4.2-8.9,8.9-17.6,11.9-27c1.5-4.7,2.5-9.5,2.8-14.4c0.2-4.9-0.4-9.8-1.9-14.5l0.2,0.2
				c-2.9-1.6-6.1-3-9.3-4c-3.2-1-6.5-1.7-9.9-1.8c-3.3-0.1-6.7,0.4-9.6,2c-2.9,1.6-5.2,4.2-6.6,7.2c-1.5,3-2.1,6.3-3,9.6l-2.6,9.9
				c-1.7,6.6-3.4,13.2-4.8,19.8c-1.4,6.6-2.6,13.3-2.9,20.1c-0.1,3.4,0,6.7,0.7,10c0.7,3.3,1.4,6.6,2.2,10
				c1.5,6.6,3.1,13.2,4.8,19.8c0.9,3.3,1.7,6.6,2.7,9.8c0.5,1.6,1,3.3,1.5,4.9c0.5,1.6,1.1,3.2,1.8,4.7l-0.4,0.1
				c0.4-1.9,1-3.8,1.9-5.6c0.9-1.7,2.1-3.4,3.7-4.6c1.5-1.2,3.7-1.9,5.6-1.2c1.9,0.6,3.3,2.2,4.4,3.8l-0.1,0.1
				c-1.1-1.6-2.5-3.1-4.4-3.7c-1.9-0.6-3.9,0.1-5.3,1.3c-1.5,1.2-2.6,2.8-3.5,4.6c-0.9,1.7-1.5,3.6-1.8,5.5l-0.1,0.6l-0.3-0.6
				c-0.9-1.5-1.4-3.2-1.9-4.8c-0.5-1.6-1-3.2-1.5-4.9c-1-3.3-1.9-6.5-2.8-9.8c-1.8-6.6-3.4-13.2-5-19.8c-0.8-3.3-1.6-6.6-2.3-9.9
				c-0.8-3.4-0.9-6.8-0.8-10.3c0.3-6.9,1.5-13.6,2.9-20.3c1.4-6.7,3.1-13.3,4.8-19.9l2.6-9.9l1.3-4.9c0.5-1.7,1.1-3.3,1.8-4.9
				c1.5-3.1,3.9-5.9,7-7.6c3.1-1.7,6.7-2.2,10.1-2.1c3.5,0.1,6.8,0.9,10.1,2c3.3,1.1,6.4,2.4,9.4,4.1l0.1,0.1l0,0.1
				c1.4,4.7,2.1,9.7,1.8,14.7c-0.3,4.9-1.4,9.8-2.9,14.5c-3,9.4-7.8,18.1-12,27c-1.1,2.2-2.1,4.4-3.1,6.7c-1,2.2-2,4.5-2.6,6.9
				c-0.3,1.2-0.4,2.4-0.3,3.6c0.1,0.6,0.3,1.2,0.5,1.7c0.3,0.5,0.6,1.1,0.9,1.6c1.2,2.2,2.3,4.4,3.4,6.6c2.1,4.4,4.1,8.9,5.9,13.5
				c0.9,2.3,1.7,4.6,2.4,7c0.4,1.2,0.7,2.4,0.9,3.6c0.2,1.2,0.4,2.5,0.3,3.8l-0.1,0.7l-0.5-0.4c-1.2-1-2.5-1.7-4-2.2
				c-1.4-0.5-3-0.6-4.4-0.1c-1.4,0.5-2.6,1.5-3.4,2.7c-0.9,1.3-1.4,2.7-1.9,4.2l-0.4,1.3l-0.5-1.3c-1.3-3.6-2.1-7.2-3.1-10.9
				c-1-3.6-1.9-7.2-3-10.8c-1.1-3.6-2.2-7.2-3.6-10.6c-1.4-3.4-3-6.9-5.4-9.7l-0.1-0.1l0.1-0.2c1.6-3.8,3.3-7.6,5-11.4
				c1.7-3.8,3.3-7.6,4.9-11.4c1.6-3.8,3.1-7.7,4.5-11.6c0.7-2,1.3-3.9,1.9-5.9c0.3-1,0.5-2,0.6-3
				C430.6,319.6,430.7,318.5,430.5,317.5L430.5,317.5z"/>
		</g>
		<g>
			<path class="st33" d="M429.3,361.5c-1,0-2-0.2-2.9-0.4c-1-0.2-1.9-0.5-2.8-0.6c-0.9-0.2-1.8-0.3-2.6,0c-0.8,0.3-1.6,0.9-2.3,1.6
				c0.4-0.9,1-1.8,2-2.3c0.5-0.3,1-0.4,1.6-0.4c0.5,0,1.1,0,1.6,0.1c1,0.2,1.9,0.5,2.8,0.9C427.5,360.7,428.4,361,429.3,361.5z"/>
		</g>
		<g>
			<path class="st33" d="M413.9,364c-1-0.1-1.9-0.1-2.9-0.2c-1,0-1.9,0-2.9,0c-1,0-1.9,0-2.9,0c-1,0-1.9,0.1-2.9,0.2
				c0.9-0.5,1.8-0.8,2.8-1c1-0.2,2-0.3,2.9-0.3c1,0,2,0.1,2.9,0.3C412,363.2,413,363.5,413.9,364z"/>
		</g>
		<g>
			<path class="st33" d="M413.9,364.9c-1.8,1.1-3.7,1.9-5.6,2.7c-1,0.4-1.9,0.7-2.9,1c-1,0.4-2,0.6-2.9,1.1c0.7-0.8,1.7-1.3,2.6-1.8
				c0.9-0.5,1.9-0.9,2.9-1.2C409.8,366,411.8,365.3,413.9,364.9z"/>
		</g>
	</g>
	<path class="st30" d="M402.4,178.5c-2.9-1-7.6-1-8.6,4.8c-2.9,0-5.7,0-6.7,11.5c-1,11.5,13.4,8.6,15.3,2.9s4.8-10.5,3.8-12.4
		c-1.9,3.8-3.8,4.8-6.7,3.8c-2.9-1-2.9-6.7,2.9-8.6C408.1,178.5,402.4,178.5,402.4,178.5z"/>
	<path class="st34" d="M397.6,212c-0.7-0.6,0-8.6,1-9.6c1-1,0-7.6-3.8-8.6c-3.8-1-8.6,1.9-14.3,13.4c-5.7,11.5-10.5,16.3,3.8,23.9
		c14.3,7.6,23.9,6.7,25.8,12.4s1.9,48.8,0,57.4c11.5,1,34.2-5.4,40,4.1c7.6-2.9,5-7,5-13c0-7,4.7-30.3,6.7-36.1
		c1.9-5.7,2.3-31.9-15.7-32.9c-10.5-0.6-12.4,0.7-20-5C419.3,219.9,402.4,215.8,397.6,212z"/>
	<g class="st21">
		<path class="st35" d="M397.6,213.9c-1.1,0.2-2.2,0.6-3.3,1c-1.1,0.4-2.1,0.9-3.1,1.4c-1,0.5-2,1.1-2.9,1.7
			c-0.9,0.7-1.7,1.4-2.2,2.5c0.1-1.2,0.9-2.3,1.7-3.1c0.9-0.8,1.9-1.5,2.9-2c1.1-0.5,2.2-1,3.3-1.2
			C395.2,213.9,396.4,213.7,397.6,213.9z"/>
	</g>
	<g class="st21">
		<path class="st35" d="M396.6,212c-2.1,0.4-4.2,0.2-6.1,0.5c-1,0.1-1.9,0.3-2.8,0.7c-0.9,0.4-1.7,0.9-2.5,1.6
			c0.5-0.9,1.2-1.8,2.2-2.3c0.9-0.6,2-0.9,3.1-1C392.5,211.2,394.6,211.6,396.6,212z"/>
	</g>
	<g class="st21">
		<path class="st35" d="M423.4,218.7c1.4,0.8,2.8,1.7,4,2.8c1.3,1,2.4,2.1,3.6,3.3c1.1,1.2,2.2,2.4,3.1,3.8c0.5,0.7,0.9,1.4,1.2,2.1
			c0.2,0.4,0.3,0.8,0.4,1.2c0.1,0.4,0.1,0.8,0.1,1.2c-0.2-0.8-0.5-1.5-1-2.2c-0.4-0.7-0.9-1.3-1.4-1.9c-1-1.2-2.1-2.4-3.2-3.5
			c-1.1-1.2-2.2-2.3-3.4-3.4C425.7,220.9,424.6,219.7,423.4,218.7z"/>
	</g>
	<g class="st21">
		<path class="st35" d="M455.9,254c0.4,3.6,0.9,7.1,1.2,10.7c0.2,3.6,0.3,7.3-0.6,10.8c0.1-3.6-0.1-7.1-0.4-10.7
			C455.9,261.2,455.5,257.6,455.9,254z"/>
	</g>
	<g class="st21">
		<polygon class="st35" points="431,191.4 429.4,191.5 429.6,190.5 		"/>
	</g>
	<g class="st21">
		<path class="st35" d="M432.2,189.8c-0.3-0.3-0.7-0.6-1.2-0.8c-0.2-0.1-0.4-0.2-0.6-0.2c-0.1,0-0.2,0-0.3,0c-0.1,0-0.1,0.1,0,0
			l-0.6-0.8c0.3-0.2,0.6-0.1,0.7-0.1c0.2,0,0.3,0.1,0.4,0.2c0.2,0.1,0.4,0.3,0.6,0.5C431.7,189,432,189.4,432.2,189.8z"/>
	</g>
	<path class="st36" d="M445.2,203.4c-0.4,2.4-0.8,8.8,0.3,9.9c1.1,1.1,2.1-2.1,2.7-1.5c0.6,0.5-0.2,4.8,0.9,3.7s2.1-3.4,2.1-3.4
		l0.7,4.9c0,0-0.1-9.4,3-2c3-6,5-8,7-12c0.7-1.5,3-12.5-1-17c-1.9-1.6-2-5-7-7c-1.5-0.5-4.9-1.9-8-2c-3.1-0.1-6.1-1.3-10,0
		c-3.9,1.3-6.8,2.2-7.4,6.7c-0.5,4.5,1.1,5.3,1.1,5.3s-2.7-2,4.3-4c-1.5,0.4-2.2,4.7,3.2,8.7c0.8-3.2,0-2.6,0.9-2.9
		c0.9-0.3,0.3,3.5,2.2,5.2c1.9,1.6,0.8-1,2-1.4c1.2-0.5,1.3,2.8,1.3,2.4c0.1-0.4,1.4-1.7,1.4-1.7S445.4,202.5,445.2,203.4z"/>
	<g class="st21">
		<path class="st37" d="M447.4,181.2c0.9,0.9,1.8,2,2.4,3.2c0.6,1.2,1,2.5,1.2,3.8c0.2,1.3,0.2,2.7,0.4,3.9c0.2,1.2,0.6,2.5,1.4,3.5
			c-1.1-0.8-1.9-2-2.2-3.4c-0.3-1.3-0.4-2.6-0.6-3.9c-0.2-1.3-0.5-2.5-1-3.7C448.6,183.5,448,182.4,447.4,181.2z"/>
	</g>
	<g class="st21">
		<path class="st37" d="M456.8,189.3c0.6,0.9,1.2,1.8,1.7,2.7c0.5,0.9,0.9,1.9,1.2,3c0.3,1.1,0.4,2.2,0.1,3.3
			c-0.2,1.1-0.9,2.1-1.8,2.7c0.6-0.9,0.9-1.9,1-2.9c0.1-1-0.1-2-0.3-3c-0.2-1-0.6-2-1-2.9C457.4,191.3,456.9,190.3,456.8,189.3z"/>
	</g>
	<g class="st21">
		<path class="st38" d="M444.8,197c1.7-1.2,6.8-1.5,5.4,1.8s-4.5,3.2-5,3.5c-0.5,0.4-2.9,1.7-3.8-1.1"/>
		<path class="st37" d="M444.8,197c0.6-0.5,1.4-0.8,2.2-1c0.8-0.2,1.6-0.2,2.5,0c0.4,0.1,0.9,0.4,1.2,0.8c0.3,0.5,0.3,1,0.2,1.5
			c-0.2,0.9-0.6,1.6-1.2,2.3c-0.6,0.7-1.3,1.2-2.1,1.5c-0.4,0.2-0.8,0.3-1.2,0.4c-0.4,0.1-0.8,0.2-1,0.2c-0.7,0.4-1.6,0.7-2.5,0.5
			c-0.9-0.3-1.3-1.1-1.4-1.9c0.3,0.7,0.8,1.4,1.6,1.4c0.7,0.1,1.4-0.2,1.9-0.6c0.5-0.3,0.9-0.3,1.2-0.4c0.4-0.1,0.7-0.2,1-0.4
			c0.6-0.3,1.2-0.7,1.7-1.3c0.5-0.5,0.8-1.2,1-1.8c0.2-0.6-0.1-1.1-0.7-1.4c-0.6-0.3-1.4-0.3-2.2-0.3
			C446.2,196.5,445.5,196.6,444.8,197z"/>
	</g>
	<g class="st21">
		<path class="st37" d="M448,198.8c-0.1-0.4-0.4-0.7-0.6-0.9c-0.2-0.3-0.5-0.5-0.8-0.7c-0.3-0.2-0.6-0.3-0.8-0.2
			c-0.1,0.1-0.2,0.2-0.3,0.3c-0.1,0.1-0.1,0.3-0.1,0.4c0,0.1,0.1,0.3,0.1,0.6c0,0.3-0.2,0.6-0.4,0.7c-0.3,0.2-0.6,0.4-0.9,0.7
			c-0.3,0.2-0.4,0.5-0.1,0.8c0.2,0.3,0.6,0.4,0.9,0.6c-0.4-0.1-0.8-0.1-1.1-0.4c-0.2-0.1-0.3-0.4-0.3-0.6c0-0.2,0.2-0.4,0.3-0.6
			c0.3-0.3,0.6-0.6,0.9-0.8c0.1-0.1,0.2-0.2,0.2-0.3c0-0.1-0.1-0.3-0.1-0.6c0-0.2,0.1-0.5,0.2-0.7c0.1-0.2,0.2-0.4,0.5-0.5
			c0.5-0.2,1,0.1,1.3,0.3C447.3,197.4,447.9,198,448,198.8z"/>
	</g>
</g>
<g class="st20">
	<path class="st30" d="M794.4,281.7c-1.9,2.2-3.6,4.4-5.3,6.6c-1.1,1.5-2.2,3.1-2.9,4.9c-0.6,1.7-0.7,3.6-0.9,5.4
		c-0.4,4-1.3,7.9-2.4,11.7c-0.2,0.6-0.6,1.4-1.2,1.3c-0.8-0.1-0.8-1.3-0.6-2c-0.3,0.5-0.6,1.1-1.1,1.4c-0.5,0.3-1.2,0.4-1.7,0
		c0.2-0.9,0.4-1.7,0.6-2.6c0.1,0.9-1,1.7-1.8,1.3s-0.7-1.8,0.1-2.1c-0.8,0.2-1.2,1.3-1.9,1.2c-0.7-0.1-0.7-1.1-0.4-1.8
		c0.8-2.6,1.6-5.1,2.4-7.7c0.4-1.3,0.7-3-0.5-3.7c-0.8-0.5-1.8-0.1-2.6,0.2c-2.4,1.1-4.5,2.8-6.2,4.8c-0.1-4.2,3.1-8.3,7.2-9.2
		c2.7-0.6,4.6-3.8,6.3-6c1.5-2,2.7-4.2,4.3-6.1s3.7-3.5,6.2-3.7c0.5,0,1,0,1.5,0.3c0.4,0.3,0.7,0.8,0.9,1.3c0.3,0.8,0.7,1.5,0.7,2.4
		C794.9,280.4,795.2,281.6,794.4,281.7z"/>
	<path class="st39" d="M760.8,227.2c0.4-2.5,2.6-4.3,4.7-5.8c0.2-0.2,0.5-0.5,0.3-0.7"/>
	<path class="st39" d="M755.2,225.2c1.4-2.3,4.5-3.5,7-4.7c0.3,0.1,0.5,0.1,0.8,0.2c-2.6,1-4.7,3.3-5.5,6"/>
	<circle class="st39" cx="776.7" cy="227.2" r="1"/>
	<path class="st34" d="M757.3,189.6c2.9-2.3,7.3-2.8,10.2-0.6c3.7,2.8,3.7,8.2,3.4,12.8c-0.3,3.9-0.6,7.9-0.8,11.8
		c-0.1,1.5-0.2,3-0.7,4.5c-0.6,1.6-1.7,3-2.8,4.4c-1.5,1.8-3.2,3.5-5.2,4.8c-3.9,2.6-8.6,3.4-13.2,4.1c-1.6,0.3-3.4,0.5-4.9-0.2
		c-4.3-2.2-1.7-8,1.4-9.7c3.4-1.9,8-0.4,9.2-5.1c0.9-3.6-1.1-8.3-1.4-12C752.1,199.1,752.9,193.1,757.3,189.6z"/>
	<path class="st39" d="M782.9,302.2c0,2.4-1.2,4.7-1.7,7"/>
	<path class="st30" d="M778.5,227.5c0.2,1.3,0.3,2.9-0.7,3.7c-1.9-0.7-2.5-3.1-2.8-5.1c-0.3-2-0.8-4.5-2.7-5.2
		c-1.7,2.2-4.7,2.9-6.9,4.6c-1.9,1.5-3.1,3.6-4.3,5.7c-0.7-1-1-2.3-0.8-3.4c-0.3,0.7-0.6,1.5-1.1,2c-0.6,0.5-1.6,0.6-2.1,0
		c-0.5-0.7-0.1-1.7,0.4-2.4c-0.7,1-1.7,1.9-2.7,2.5c-0.4-1.1-0.3-2.4,0.3-3.4c0.1,0.6-0.9,0.7-1.2,0.1c-0.2-0.5,0.1-1.1,0.4-1.6
		c1.7-2.7,3.6-5.4,6.4-6.8c1.2-0.5,2.5-0.8,3.6-1.5c2.6-1.5,3.6-4.7,4.4-7.6c0.5-1.9,1.8-4.8,4.3-3.9c1.9,0.6,1.5,2.5,1.7,4.1
		C775.5,215.3,777.5,221.4,778.5,227.5z"/>
	<path class="st39" d="M780.8,301.4c-0.2,2.6-1.4,5-2.2,7.5"/>
	<path class="st39" d="M779.7,298.6c-0.6,3.3-1.6,6.5-3,9.6"/>
	<path class="st40" d="M856,228.4c-0.1,2.7-0.2,5.4-0.2,8.2c0.3-9.2,0.7-18.4,1-27.6c0.1-2.9,0.2-5.8-0.4-8.6
		c-0.6-2.9-1.9-5.5-3.3-8.1c-8.8-15.3-24.9-26.2-42.4-28.9c-2.3-0.3-4.6-0.5-6.9-0.2c-2.7,0.4-5.2,1.7-7.6,2.9
		c-5.1,2.5-10.2,5.1-14.5,8.7c-2.7,2.2-2.1,5.6-0.9,8.9s3.7,6,6.2,8.4c10,9.5,22.1,16.8,30.5,27.7c8.7,11.3,12.8,25.6,21.1,37.1
		c2.4,3.3,5.9,6.7,10,6.1c1.5-0.2,2.9-1,4.1-1.9c5.4-4,8.4-10.5,10.1-17c1.7-6.5,2.2-13.2,4-19.7c0.3-1,1-2.2,1.9-1.8
		c0.9,2.8,2.6,5.3,4.7,7.4c0.4,0.3,0.7,0.7,1.2,0.8c1.3,0.3,2.2-1.4,2.3-2.8c0.6-5.2-2-10.2-4.4-14.9c-1.1-2.1-2.3-4.3-4.1-5.8
		c-1.8-1.5-4.5-2.3-6.7-1.2c-4.1,2.1-3,8.3-5.4,12.2c-0.2-1-0.4-1.9-0.5-2.9"/>
	<path class="st30" d="M813.2,233.5c-2.3,4.3-5.3,8.2-8.8,11.6c-1.9,1.8-4,3.4-6.5,4c-1.1,0.3-2.5,0.2-3.2-0.7
		c-0.3-0.5-0.5-1-0.6-1.6c-0.8-2.4-2.8-4-4.3-6c-1.4-1.9-2.2-4.3-2.8-6.6c-1.5-5.4-2.2-11.3-0.5-16.7c1.3-4.2,4.2-7.9,8.2-9.7
		c2.2-1,4.7-1.4,7.1-1.5c2.2-0.1,4.4,0,6.6,0.6c4.9,1.4,8.8,5.9,9.6,10.9c0.3,2.1,0.1,4.4,0.7,6.5c0.2,0.5,0.4,1,0.4,1.5
		c0,0.5-0.1,1-0.3,1.5c-0.8,2.5-1.8,5.4-4.3,6.3c-0.4,0.2-0.9,0.3-1.3,0.5c-1.2,0.8-1,2.6-0.6,4"/>
	<g class="st21">
		<path class="st38" d="M813.5,228.4c0.4-1.5,1-3,2.3-3.7c0.4-0.2,1-0.3,1.3,0c0.2,0.2,0.3,0.4,0.3,0.7c0.1,0.6,0.1,1.1-0.1,1.7"/>
		<path class="st37" d="M813.5,228.4c0-0.7,0.1-1.4,0.4-2.1c0.2-0.7,0.7-1.4,1.4-1.8c0.3-0.2,0.7-0.4,1.2-0.4c0.2,0,0.5,0,0.7,0.2
			c0.2,0.1,0.4,0.4,0.5,0.6c0.2,0.8,0.1,1.6-0.3,2.2c0-0.7-0.2-1.4-0.4-1.9c-0.1-0.2-0.2-0.2-0.5-0.2c-0.2,0-0.5,0.1-0.7,0.3
			C814.8,225.9,814.3,227.2,813.5,228.4z"/>
	</g>
	<g class="st21">
		<path class="st38" d="M816.3,228.1c0.2-0.3-0.2-0.6-0.5-0.6c-0.7,0.1-1,1-1,1.8c0,0.7,0,1.7-0.7,2c0.1-0.1,0.2-0.3,0.3-0.4"/>
		<path class="st37" d="M816.3,228.1c0-0.3-0.2-0.3-0.4-0.3c-0.1,0-0.3,0.1-0.3,0.2c-0.2,0.2-0.3,0.6-0.3,0.9c0,0.3,0,0.8-0.1,1.3
			c0,0.2-0.2,0.5-0.3,0.7c-0.2,0.2-0.4,0.4-0.7,0.5l-0.7,0.2l0.5-0.4c0.1-0.1,0.3-0.2,0.4-0.3c0,0.2-0.1,0.4-0.1,0.5l-0.2-0.3
			c0.3-0.3,0.3-0.6,0.3-1c0-0.4-0.1-0.8,0-1.3c0.1-0.5,0.3-1.1,0.9-1.4c0.3-0.2,0.6-0.2,0.9,0c0.1,0.1,0.2,0.2,0.3,0.3
			C816.4,227.9,816.4,228.1,816.3,228.1z"/>
	</g>
	<g class="st21">
		<path class="st38" d="M796.3,234.4c2.9-2.3,6.8-3.1,10.3-2.3c-0.1-0.2-0.2-0.4-0.3-0.6"/>
		<path class="st37" d="M796.3,234.4c1.2-1.4,3-2.4,4.8-2.8c1.8-0.4,3.8-0.3,5.6,0.4l-0.1,0.2c-0.1-0.2-0.1-0.4-0.2-0.6
			c0.1,0.2,0.3,0.3,0.4,0.5l0.2,0.2l-0.3,0c-1.8-0.1-3.6,0-5.3,0.3C799.6,232.9,797.9,233.5,796.3,234.4z"/>
	</g>
	<g class="st21">
		<path class="st38" d="M786.4,228.8c-0.2-0.3-0.4-0.6-0.7-0.8c0.5,1.3,1.8,2.1,3,3c1.2,0.8,2.2,1.8,3.1,3c1.3,1.6,0.8,5,0.4,7.1
			c-0.1,0.6-0.2,1.2-0.1,1.8s0.6,1.2,1.1,1.3c0.7,0.1,1.4-0.5,1.9-1c-0.1,0.1-0.2,0.3-0.3,0.4c-0.1-0.1-0.9,0.9-1,0.8
			c1.9,0.2,3.8,0.4,5.7,0.5c-1.7,1.6-5,1.7-6.3-0.2c0.1-0.2,0.3-0.4,0.4-0.5"/>
		<path class="st37" d="M786.4,228.8l-0.7-0.8l0.1-0.1c0.3,0.8,1,1.4,1.8,1.9c0.7,0.5,1.5,1,2.2,1.6c0.7,0.6,1.4,1.2,2,1.9
			c0.3,0.3,0.6,0.8,0.8,1.2c0.2,0.5,0.3,0.9,0.4,1.4c0.2,1.9-0.1,3.8-0.4,5.5c-0.2,0.8,0,1.6,0.5,2c0.2,0.1,0.5,0.2,0.8,0
			c0.3-0.2,0.6-0.5,0.9-0.8l0.8,0.6l-0.3,0.4l-0.7,0.1c0.1,0.1,0.2,0.1,0.3,0.1c0.1,0,0.1,0,0.1,0c0,0,0.1,0,0,0l0,0l-0.1,0.1
			l-0.2,0.2l-0.3,0.2l-0.2,0.1l-0.1,0.1c0,0-0.1,0-0.1,0.1c0,0,0,0-0.1,0c-0.1,0-0.2,0-0.3-0.1l-1.7-1l2,0.2
			c1.9,0.2,3.8,0.4,5.7,0.7l0.8,0.1l-0.6,0.5c-1,0.8-2.2,1.2-3.5,1.2c-1.2,0-2.5-0.5-3.1-1.6l0,0l0,0l0.4-0.5l-0.4,0.6l0,0
			c0.7,0.9,1.9,1.3,3.1,1.2c1.1-0.1,2.2-0.5,3-1.2l0.2,0.6c-1.9-0.1-3.8-0.2-5.7-0.4l0.3-0.8c-0.1-0.1-0.2-0.1-0.3-0.1l-0.1,0
			c0,0-0.1,0,0,0l0,0l0.1-0.1l0.2-0.2l0.2-0.2l0.2-0.1l0.1-0.1c0,0,0.1,0,0.1-0.1c0,0,0,0,0.1,0c0.1,0,0.2,0,0.3,0.1l-0.7,0.1
			l0.3-0.4l0.8,0.6c-0.3,0.3-0.7,0.7-1.2,1c-0.5,0.3-1.3,0.3-1.8,0c-0.5-0.3-0.8-0.9-0.9-1.4c-0.1-0.5,0-1.1,0-1.5
			c0.3-1.8,0.6-3.5,0.5-5.3c-0.1-0.9-0.3-1.6-0.9-2.3c-0.6-0.7-1.2-1.3-1.8-1.9c-0.7-0.6-1.4-1.1-2.1-1.7c-0.7-0.6-1.4-1.3-1.6-2.2
			l-0.1-0.4l0.2,0.3L786.4,228.8z"/>
	</g>
	<g class="st21">
		<path class="st38" d="M798.8,234.5c2.2-0.7,4.6-1,6.9-0.7c0,0.2-0.1,0.4-0.4,0.4c0.5,0.8-1.4,1.9-2.3,1.7c-0.9-0.1-1.5-1-1.6-1.9
			c0.8,0,1.5,0,2.3-0.2c0.2,0.4,0.2,0.9-0.1,1.2s-1,0.1-1-0.3c0-0.4,0.8-0.6,0.9-0.2"/>
		<path class="st37" d="M798.8,234.5c2.1-1,4.5-1.4,6.9-1.2l0.4,0l0,0.4c0.1,0.5-0.3,0.9-0.8,1l0.4-0.7c0.1,0.2,0.2,0.5,0.1,0.7
			c0,0.2-0.1,0.4-0.2,0.5c-0.2,0.3-0.4,0.5-0.7,0.6c-0.5,0.3-1,0.6-1.6,0.6c-0.7,0.1-1.3-0.3-1.7-0.8c-0.4-0.5-0.6-1-0.7-1.6
			l-0.1-0.5l0.5,0c0.7,0,1.4,0,2.2-0.1l0.3,0l0.1,0.2c0.2,0.4,0.2,0.8,0.1,1.2c-0.1,0.2-0.2,0.4-0.4,0.5c-0.2,0.1-0.4,0.1-0.6,0
			c-0.2-0.1-0.4-0.2-0.5-0.4c-0.1-0.2-0.1-0.4,0.1-0.6c0.1-0.1,0.3-0.2,0.5-0.2c0.2,0,0.4,0.1,0.4,0.3c-0.1-0.3-0.6-0.2-0.7,0
			c-0.1,0.2,0.1,0.4,0.3,0.4c0.5,0.1,0.6-0.6,0.3-1l0.4,0.2c-0.8,0.2-1.6,0.3-2.3,0.3l0.5-0.5c0.1,0.4,0.3,0.8,0.5,1.1
			c0.2,0.3,0.6,0.5,0.9,0.4c0.4,0,0.8-0.2,1.1-0.4c0.2-0.1,0.3-0.3,0.4-0.4c0.1-0.1,0.1-0.2,0.1-0.2l0.4-0.7c-0.1,0-0.1,0-0.1,0.1
			l0.4,0.4C803.4,234,801.1,234.1,798.8,234.5z"/>
	</g>
	<g class="st21">
		<path class="st38" d="M789.4,232.5c0-0.1,0.2,0.1,0.1,0.1c-0.1,0.1-0.2,0-0.3-0.1c-0.6-0.5-1.1-1.1-1.7-1.6c0.5,0.6,1,1.2,1.5,1.9
			c-0.2,0.4-0.6,0.6-1,0.5s-0.7-0.5-0.5-0.9c0.1-0.4,0.7-0.5,0.9-0.1"/>
		<path class="st37" d="M789.4,232.5c0-0.1,0.1,0,0.2,0c0,0.1-0.1,0.2-0.2,0.2c-0.2,0-0.3-0.1-0.4-0.2c-0.2-0.1-0.4-0.3-0.6-0.4
			c-0.4-0.3-0.8-0.6-1.2-0.9l0.7-0.6C788.4,231.2,788.9,231.8,789.4,232.5l0.2,0.2l-0.1,0.3c-0.2,0.4-0.6,0.7-1,0.7
			c-0.4,0.1-0.9-0.2-1.1-0.6c-0.2-0.4-0.1-0.9,0.3-1.1c0.3-0.2,0.8-0.1,0.9,0.2c-0.2-0.2-0.5-0.1-0.7,0.1c-0.1,0.2-0.1,0.3,0.1,0.4
			c0.1,0.1,0.2,0.1,0.4,0.1c0.1,0,0.3-0.2,0.3-0.3l0.1,0.5c-0.5-0.6-1-1.2-1.5-1.9l0.7-0.6c0.3,0.4,0.6,0.7,0.9,1.1
			c0.2,0.2,0.3,0.4,0.4,0.6C789.3,232.4,789.3,232.5,789.4,232.5C789.4,232.6,789.5,232.6,789.4,232.5
			C789.5,232.6,789.4,232.5,789.4,232.5z"/>
	</g>
	<path class="st36" d="M795,223.9c-0.4,0.6-0.9,1.2-1.4,1.6c0-0.3,0.1-0.7,0.1-1c-0.4,0.4-0.8,0.8-1.2,1.2c0.1-0.6,0.3-1.3,0.4-1.9
		c-0.5,0.5-0.9,1-1.4,1.4c-1.1-2.5-1.3-5.4-0.4-7.9c-2.2,1.5-3.6,4.1-3.7,6.8c-0.1-1.7-0.1-3.4-0.2-5c-1.1,2-1.4,4.4-0.8,6.6
		c-1.7-1-2.6-2.9-2.9-4.9c-0.3-1.9,0.1-3.9,0.4-5.8c0.5-2.8,1-5.7,2.5-8.2c1.9-2.9,5.1-4.7,8.4-5.6c3.3-0.8,6.9-0.8,10.3-0.6
		c4.4,0.3,9.1,0.9,12.2,4c2.1,2.1,3.2,5,3.9,7.9c1.3,5,1.9,10.2,1.8,15.3c-0.7-1.2-1.4-2.5-2.1-3.7c-0.4,0.2-0.8,0.3-1.2,0.5
		c-0.1,1.1-0.1,2.2-0.2,3.2c-0.4,0.8-1.2,1.4-2.2,1.6c-0.1,0.4-0.3,0.7-0.4,1.1c1-2.2,1.2-4.7,0.8-7.1c-0.1-0.6-0.3-1.2-0.8-1.5
		c-0.9-0.6-2.1,0.3-2.5,1.4c-0.4,1-0.5,2.2-1.2,3c-1.3,0-2.5,1.3-2.4,2.6c-0.3-0.4-0.5-0.8-0.8-1.2c0.4,0.6-1.7,0.7-1.9,0.6
		c-0.9-0.2-1.5-1.3-2-2c-0.9,0.2-1.6,0.8-2.3,1.3c-1.3-2.4-1.8-2.3-4.2-1.5c-2.5,0.8-2.8,0-3.4-2.5c-0.2,0.5-0.5,1.1-0.8,1.6
		c0-0.2-0.1-0.5-0.1-0.8c-0.2,0.4-0.5,0.8-0.7,1.3C794.6,225.2,794.8,224.5,795,223.9z"/>
	<path class="st40" d="M843.6,227.3c-2.8,3.4-5.5,6.8-7.7,10.6c-1.4,2.5-2.6,5.1-4.1,7.5c-1.5,2.6-3.4,5-5.2,7.4
		c-2.6,3.4-5.1,6.7-7.7,10.1c-2,2.7-4.1,5.4-6.4,7.8c-2.7,2.9-5.7,5.6-8.7,8.2c-1.8,1.5-3.6,3-5.5,4.2c-1.2,0.8-2.6,1.5-4.1,1.4
		c-1.6-0.1-3-1-4.3-1.9c-1.4-0.9-2.7-1.9-4.1-2.8c-0.3-0.2-0.6-0.4-0.8-0.8c-0.1-0.3,0-0.6,0.1-0.9c1.5-5.8,5.4-10.6,9.5-14.9
		c4.1-4.3,8.6-8.3,12-13.2c2-2.9,3.6-6,5.6-8.9c2.8-3.9,6.3-7.3,8.8-11.4c2.5-4.1,3.8-8.7,6.4-12.7s7.1-7.3,11.8-6.6
		c1.7,0.3,3.2,1.1,4.6,2.1c1.9,1.4,3.5,3.4,3.9,5.7c0.5,2.3-0.2,4.6-1.3,6.6c-1.1,2-2.7,3.7-4.3,5.4"/>
	<path class="st40" d="M811.1,194.8c-7.8-5.5-15.6-11.1-22.3-18c-3-3.1-5.7-6.4-9.3-8.8s-8.2-3.6-12.1-1.8c-3.5,1.5-5.7,5.2-6.5,8.9
		s-0.2,7.6,0.5,11.4c1.4,7.6,3.6,15,6.5,22.1c0.2,0.4,0.4,0.9,0.7,1.1c0.4,0.2,0.8,0.2,1.2,0.2c2.8-0.2,5.7-0.6,8.4-1.3
		c-0.2-3-0.6-6-1.2-9c2.4,2.3,4.6,4.7,6.7,7.4c5.2-6.3,12.9-10.3,21-10.9c1.6-0.1,3.3-0.1,4.8-0.5s3.1-1.3,3.8-2.8"/>
</g>
<path class="st17" d="M602.7,653.6c4.4,2.7,12.8-1.8,14.5-9.5c1.7-7.7-12.3-8.9-5.6,1.5s18.9,0.9,20.7-4.4"/>
<path class="st17" d="M637.7,728.6c4.4,2.7,12.8-1.8,14.5-9.5c1.7-7.7-12.3-8.9-5.6,1.5s18.9,0.9,20.7-4.4"/>
<path class="st17" d="M608.9,694.4c4.2,2.9,12.9-1.2,14.9-8.8c2.1-7.6-11.8-9.5-5.6,1.3c6.2,10.7,18.9,1.8,20.9-3.4
	c2.1-5.2-4-12.1-5.6-6.5c-1.7,5.8,1.9,11.2,10.7,9.3c5.4-1.2,11.2-2.4,12.3-9c1.8-10.6-10.2-9.9-4.4,0.8c4.9,9.1,12.2,2.7,14.3-1.3"
	/>
<g>
	<g>
		<g>
			<path class="st1" d="M1092.9,420.1c3,8,0.5,16.3-5.8,18.7l-167.5,63.4c-5.1,1.9-13.4-2.3-16.4-10.3L773.9,150.4
				c-3-8,0.4-16.6,7.8-19.4l164.3-62.2c6.1-2.3,14.6,1.8,17.7,9.8L1092.9,420.1z"/>
			<path class="st2" d="M1083.4,412.6c2.7,7.2,1.5,14.4-4,16.4l-160.2,60.7c-4.7,1.8-11.3-2.4-14-9.6L788.4,171.3
				c-2.7-7.2,0.1-15,5.1-16.9l157.3-59.6c5.3-2,12.9,1.8,15.7,9L1083.4,412.6z"/>
		</g>
		<g>
			<circle class="st2" cx="844.7" cy="122.2" r="3"/>
			<line class="st22" x1="855" y1="118.3" x2="896.1" y2="102.8"/>
		</g>
		<g>
			<g>
				<circle class="st10" cx="817.5" cy="170" r="10"/>
				<circle class="st1" cx="826" cy="169.9" r="8"/>
				<circle class="st11" cx="833.6" cy="170.3" r="5"/>
			</g>
			<path class="st12" d="M858.4,159.5c4.4,2.6,12.8-2,14.3-9.7s-12.4-8.7-5.5,1.6c6.9,10.3,18.9,0.6,20.7-4.8
				c1.7-5.3-4.7-11.8-6-6.1c-1.3,5.9,2.6,11.1,11.3,8.6c5.4-1.5,11-3.1,11.7-9.8c1.1-10.7-10.8-9.2-4.4,1.1
				c5.5,8.8,12.4,1.9,14.2-2.2"/>
		</g>
		
			<rect x="919.3" y="182.4" transform="matrix(0.9352 -0.3542 0.3542 0.9352 -12.8259 348.7143)" class="st12" width="54" height="54"/>
		
			<rect x="922.4" y="172.1" transform="matrix(0.9352 -0.3542 0.3542 0.9352 -8.9964 349.1365)" class="st41" width="54" height="54"/>
		
			<rect x="871.8" y="292.9" transform="matrix(0.9352 -0.3542 0.3542 0.9352 -55.0245 339.0683)" class="st12" width="54" height="54"/>
		
			<rect x="874.9" y="282.6" transform="matrix(0.9352 -0.3542 0.3542 0.9352 -51.195 339.4905)" class="st41" width="54" height="54"/>
		
			<rect x="950.1" y="263.8" transform="matrix(0.9352 -0.3542 0.3542 0.9352 -39.6438 364.9003)" class="st12" width="54" height="54"/>
		
			<rect x="953.2" y="253.5" transform="matrix(0.9352 -0.3542 0.3542 0.9352 -35.8143 365.3226)" class="st14" width="54" height="54"/>
		
			<rect x="903" y="375.2" transform="matrix(0.9352 -0.3542 0.3542 0.9352 -82.1506 355.4403)" class="st12" width="54" height="54"/>
		
			<rect x="906.1" y="364.9" transform="matrix(0.9352 -0.3542 0.3542 0.9352 -78.3212 355.8626)" class="st14" width="54" height="54"/>
		
			<rect x="981.3" y="346.1" transform="matrix(0.9352 -0.3542 0.3542 0.9352 -66.7699 381.2724)" class="st12" width="54" height="54"/>
		
			<rect x="984.3" y="335.8" transform="matrix(0.9352 -0.3542 0.3542 0.9352 -62.9405 381.6946)" class="st10" width="54" height="54"/>
		<g>
			
				<rect x="841" y="211.5" transform="matrix(0.9352 -0.3542 0.3542 0.9352 -28.2066 322.8823)" class="st12" width="54" height="54"/>
			
				<rect x="844.1" y="201.3" transform="matrix(0.9352 -0.3542 0.3542 0.9352 -24.3771 323.3045)" class="st10" width="54" height="54"/>
			<path class="st17" d="M859.3,235.1c4.4,2.6,12.8-2,14.3-9.7c1.6-7.7-12.4-8.7-5.5,1.6c6.9,10.3,18.9,0.6,20.7-4.8"/>
		</g>
		<path class="st18" d="M967.8,290.3c4.4,2.6,12.8-2,14.3-9.7c1.6-7.7-12.4-8.7-5.5,1.6c6.9,10.3,18.9,0.6,20.7-4.8"/>
		<path class="st17" d="M936.7,208c4.4,2.6,12.8-2,14.3-9.7c1.6-7.7-12.4-8.7-5.5,1.6c6.9,10.3,18.9,0.6,20.7-4.8"/>
		<path class="st17" d="M918.3,312.7c-3-4.1-12.5-3.1-17,3.3c-4.5,6.5,8,12.9,5.7,0.7c-2.3-12.2-17.2-7.9-20.9-3.7"/>
		<path class="st17" d="M1025.3,357.3c-3.9-3.4-12.9-0.4-15.9,6.9s10.6,10.8,5.7-0.6s-18.5-4.1-21.2,0.9"/>
		<path class="st18" d="M947.7,386.7c-3.9-3.4-12.9-0.4-15.9,6.9c-3,7.3,10.6,10.8,5.7-0.6c-4.9-11.4-18.5-4.1-21.2,0.9"/>
	</g>
	<path class="st42" d="M813.2,286.5c-1.4,4.6-4.6,3.1-4.6,10.1c0,2,2.7,3.1,3,4c0.2,0.8-2,3.5-1.4,4.1c3.2,2.8-20.2,5.8-24.5-4.4
		C772.6,269.7,813.9,284.3,813.2,286.5z"/>
	<path class="st43" d="M926.1,654.1c1.7,0.9,3.4,2,4.4,3.6c1.1,1.6,1.2,4-0.2,5.3c-0.9,0.8-2.1,1.1-3.3,1.3
		c-15.8,2.6-31.9,0.9-47.7-1.5c-1.1-0.2-2.3-0.3-3.3-0.9c-1.2-0.7-2-1.8-2.6-3c-2.4-5.1-0.9-11,0.7-16.4c1.5-4.9,3.3-10.5,8.7-12.4
		c5.1-1.7,7.4,1.7,11,4.6C903.6,642.4,915.2,647.9,926.1,654.1z"/>
	<path class="st44" d="M930.5,657.6c1.1,1.6,1.2,4-0.2,5.3c-0.9,0.8-2.1,1.1-3.3,1.3c-15.8,2.6-31.9,0.9-47.7-1.5
		c-1.1-0.2-2.3-0.3-3.3-0.9c-1.2-0.7-2-1.8-2.6-3C866.6,648.7,931.6,671.7,930.5,657.6z"/>
	<path class="st43" d="M754.8,635.8c5.2,7,12.5,12.4,20.6,15.4c6.5,2.4,14,3.6,18.7,8.7c0.5,0.5,0.9,1.2,0.8,1.9
		c-0.1,0.5-0.5,0.9-1,1.2c-3.4,2.4-7.9,2.5-12.1,2.4c-12-0.2-24.1-0.8-36-1.9c-2.8-0.3-5.7-0.6-7.9-2.3c-2.4-1.8-3.5-5-3.4-8.1
		c0.1-3,1.3-5.9,2.6-8.6c1.5-3,3.4-5.9,6.3-7.5c4.9-2.8,11.2-1.2,16.3,1.2"/>
	<path class="st44" d="M794.1,660c0.5,0.5,0.9,1.2,0.8,1.9c-0.1,0.5-0.5,0.9-1,1.2c-3.4,2.4-7.9,2.5-12.1,2.4
		c-12-0.2-24.1-0.8-36-1.9c-2.8-0.3-5.7-0.6-7.9-2.3c-2.4-1.8-3.5-5-3.4-8.1c0,0,12.2,5.9,28.1,7.5C792.6,663.7,794.1,660,794.1,660
		z"/>
	<path class="st45" d="M775.8,496.7c1.1,7.4,2.7,14.9,1.7,22.4c-0.8,5.8-3,11.2-5.3,16.6c-13.4,31.2-29.9,61.7-35.7,95.2
		c-0.4,2.6-0.6,5.8,1.4,7.4c1.1,0.8,2.5,1,3.8,1.2c4.4,0.5,8.8,1.1,13.2,1.6c1.5,0.2,3.2,0.3,4.4-0.5c1-0.7,1.5-1.9,2-3.1
		c9.5-24.4,20.4-48.3,32.7-71.5c3.8-7.1,7.7-14.2,10.1-21.8c2.5-7.7,13.5-35.6,15.5-43.5c5.1-20.5,6-27.1,11-49
		c1.9-8.5-1-16.2-2.6-24.8c-2.1-10.7-13.5-26.1-24.8-28.4c-10.9-2.2-13.6,9.7-17.2,17.7C774.5,441.9,771.5,468.8,775.8,496.7z"/>
	<path class="st45" d="M897.1,628.7c0.4,1.9,0.8,4,0.2,5.8c-0.9,2.3-3.2,3.8-5.5,4.8c-5.4,2.4-13.1,4.6-19,4.4
		c-10.2-27.3-16.2-51.9-19.1-81c-0.9-9.1-2.5-15.5-6-24c-2.1-5.2-5-11-11-23c-14.1-28.3-21-53.1-25.1-82.3
		c-0.9-6.8-1.3-14.5,3.2-19.6c2.2-2.5,5.3-4,8.4-5c11.1-3.6,26.7-2.7,29.9,10c4,15.8,4.7,33,7.6,49.1c6.4,34.5,15.1,66.9,22.7,102.6
		C886.4,583.8,892.8,609.2,897.1,628.7z"/>
	<path class="st46" d="M900.6,376.7c-1.1,4.3-2.4,7.3-4,7c-1.6-0.3-1.9-4.2-1-8.6c0.8-4.4,3.4-7.7,5-7.4
		C902.3,368,901.6,372.7,900.6,376.7z"/>
	<path class="st47" d="M902.2,369.7c4.4,0.6,11.3-2.8,11.3-5.6s0-7.1,2.8-4.2c2.8,2.8,0,9.9-2.8,11.3c2.8,2.8,20.7,8,20.7,11.1
		c0,3.4-8.5,0-16.5,0.1c4.2,2.8,17.1,9.6,11.3,9.9c-5,0.2-9.9-2.8-14.1-5.6c2.8,4.2,7.4,7.6,10.8,9.3c2.9,1.1,3.2,5.2-5.1,2
		c-5.1-2-9.9-7.1-9.9-7.1s5.9,5.4,8.2,10.2c1.8,3.8-3.4,0-6.8-3.1c-2.9-2.7-8.5-9.9-11.3-12.7C897.9,382.4,890.9,368.3,902.2,369.7z
		"/>
	<path class="st48" d="M775.6,293.7c-3.3-0.1-6.9-0.2-10,1c-5.9,2.3-9.1,7.7-9,14c0.1,6.3,4,14.1,8,19c7.9,9.7,16,14.7,27.1,20.3
		c10.1,5.1,20.5,9.8,30.9,14.4c22.7,10.1,45.2,20.6,70,20.2c1,0,2,0,4,1c-1.1-2.9,1-15,4-16c-16-7-27.7-12.5-42.9-15.5
		c-7.3-1.4-15-2.4-20.8-7c-3.3-2.6-5.8-6.1-8.3-9.4c-7.7-10.1-64-66.1-71.5-30.5c-4,19,25,34.8,31.8,51.4c6.6,16,10.6,32-0.4,50
		c-2.5,4.1-4,13-4,13s17.6-0.4,28,1c15,2,22,4,36,12c4.7,2.7,7,2.7,8,4c1-2,0.9-5.5,0.7-6.6c-3.4-23.9-3.8-35.8,0-58.1
		c-1.7-7.4-24.7-66.4-25.7-69.8c-14-12.5-24.6,0.6-32.7-0.7C791.3,300.4,783.4,295,775.6,293.7"/>
	<path class="st49" d="M794.6,300.7c0,0,2.9,1.8,10,0c4-1,5-2,5-2s7,5,7,7C816.6,308.5,809.7,309.8,794.6,300.7z"/>
	<g>
		<path class="st49" d="M789.1,300.2c7,2.3,13.6,5.7,19.7,9.9c3.1,2.1,6,4.4,8.7,7c1.3,1.3,2.7,2.6,3.9,4l3.7,4
			c2.4,2.7,4.9,5.4,7.2,8.2c1.2,1.4,2.3,2.8,3.5,4.3c1.1,1.5,2.1,2.9,3.2,4.2c1.1,1.3,2.2,2.3,3.6,3.2c1.4,0.9,2.9,1.8,4.6,2.5
			c3.2,1.6,6.6,3,9.9,4.6c-3.7-0.5-7.2-1.1-10.8-2.1c-1.8-0.5-3.6-1.1-5.4-1.9c-1.8-0.8-3.5-2.1-4.9-3.4c-1.4-1.4-2.6-2.8-3.8-4.2
			c-1.1-1.4-2.3-2.7-3.5-4l-7.3-8l-3.6-4.1l-1.8-2c-0.6-0.6-1.2-1.3-1.8-1.9c-2.5-2.5-5.1-4.9-7.8-7.2
			C801,308.6,795.1,304.4,789.1,300.2z"/>
	</g>
	<g>
		<path class="st49" d="M776.1,339.2c6.5,3.6,13,7.1,19.5,10.5c6.5,3.3,13.1,6.5,19.8,9.6c6.7,3.1,13.4,6,20.1,8.8
			c6.8,2.8,13.6,5.5,20.6,8.2c-7.4-0.7-14.8-2.3-21.9-4.5c-7.1-2.2-14.1-4.8-20.9-8c-6.8-3.1-13.4-6.7-19.6-10.7
			C787.4,348.9,781.4,344.5,776.1,339.2z"/>
	</g>
	<g>
		<path class="st50" d="M784.6,419.7c6.2-0.9,12.5-0.8,18.8-0.4c6.3,0.4,12.5,1.4,18.6,2.8c3.1,0.7,6.1,1.6,9.1,2.4
			c1.5,0.5,3,1,4.5,1.5l2.2,0.8l2.2,0.9c1.4,0.6,2.9,1.2,4.3,1.9l4.2,2.1l2.1,1.1c0.7,0.4,1.3,0.8,2,1.2c1.3,0.8,2.7,1.7,3.9,2.6
			c-1.5-0.5-3-1-4.4-1.6c-0.7-0.3-1.5-0.5-2.2-0.8l-2.2-0.7l-4.4-1.5l-4.4-1.4l-2.2-0.7l-2.2-0.6l-4.4-1.2c-3-0.7-5.9-1.6-9-2.2
			c-6-1.4-12-2.6-18.1-3.6C797,421.3,790.8,420.4,784.6,419.7z"/>
	</g>
	<g>
		<path class="st50" d="M806.1,433.2c-0.1,2.7-0.4,5.5-1.4,8.2c-0.9,2.7-2.4,5.2-4.6,7.2c-1.1,0.9-2.3,1.8-3.7,2.3
			c-0.6,0.3-1.3,0.5-2,0.7l-1,0.3c-0.3,0.1-0.7,0.1-1.1,0.1c-2.8,0.4-5.6-0.1-8.3-0.8c2.8-0.1,5.5-0.1,8-0.8
			c2.5-0.6,4.9-1.7,6.8-3.4c1.9-1.7,3.3-3.9,4.5-6.3C804.5,438.4,805.2,435.8,806.1,433.2z"/>
	</g>
	<g>
		<path class="st50" d="M818.1,505.7c0.6-4.2,1.3-8.3,2.1-12.4l2.2-12.4c0.8-4.1,1.5-8.2,2.5-12.3c1-4.1,2.1-8.1,3.4-12.1
			c-0.5,4.2-1.2,8.3-1.9,12.4c-0.7,4.1-1.4,8.3-2.1,12.4c-0.8,4.1-1.6,8.2-2.6,12.3C820.7,497.7,819.5,501.7,818.1,505.7z"/>
	</g>
	<g>
		<path class="st49" d="M794.6,396.7c1.4-2.5,3.2-4.7,5.5-6.6c2.2-1.8,5-3.3,8.2-3.4c1.6,0,3,0.3,4.4,0.6c1.4,0.4,2.8,0.8,4.1,1.4
			c1.3,0.5,2.6,1.2,3.9,1.7c1.3,0.5,2.6,1,3.9,0.3c-0.5,0.5-1.3,0.8-2,0.8c-0.8,0.1-1.5,0-2.2-0.2c-1.4-0.3-2.8-0.8-4.1-1.2
			c-1.3-0.4-2.7-0.8-4-1c-1.3-0.3-2.7-0.5-4-0.5c-2.5,0-5.1,1.2-7.3,2.7C798.7,392.8,796.6,394.6,794.6,396.7z"/>
	</g>
	<g>
		<path class="st49" d="M795.6,384.7c0.6-1.3,1.3-2.5,2.2-3.6c0.9-1.1,1.9-2.1,3.1-2.9c1.1-0.9,2.4-1.6,3.8-2c1.4-0.4,3-0.6,4.3,0.1
			c-1.4,0.2-2.6,0.7-3.7,1.4c-1.1,0.6-2.2,1.4-3.3,2.2c-1.1,0.8-2.1,1.6-3.2,2.5C797.9,383,796.8,383.8,795.6,384.7z"/>
	</g>
	<g>
		<path class="st42" d="M899.2,369.7c-0.6,1.5-1.1,3-1.3,4.6c-0.2,1.5-0.1,3.1,0.6,4.3c0.7,1.2,1.7,2.6,2.6,3.8
			c1,1.3,1.9,2.5,2.9,3.8l6,7.6c2,2.5,4,5.1,6.1,7.5c-2.7-1.8-5-4.1-7.3-6.4c-2.2-2.3-4.3-4.8-6.4-7.4c-1-1.3-2-2.6-2.9-3.9
			c-0.5-0.7-0.9-1.3-1.3-2.1c-0.4-0.7-0.9-1.4-1.2-2.3c-0.6-1.7-0.5-3.5-0.1-5.2C897.5,372.5,898.3,371,899.2,369.7z"/>
	</g>
	<g>
		<path class="st42" d="M912.9,384.3c1.5,1.3,3.1,2.5,4.7,3.7c1.6,1.2,3.3,2.2,5.1,3.1c-1.9-0.7-3.6-1.7-5.4-2.7
			c-1.7-1-3.4-2.1-5-3.3L912.9,384.3z"/>
	</g>
	<g>
		<path class="st42" d="M916.7,381.2l5.9,1.2c2,0.4,3.9,0.8,5.9,1.1c-2-0.1-4-0.4-6-0.6l-6-0.8L916.7,381.2z"/>
	</g>
	<g>
		<path class="st42" d="M909.5,388.8c1.2,1.3,2.4,2.6,3.7,3.8c1.3,1.2,2.5,2.5,4,3.5c-1.5-0.9-2.9-2-4.3-3.2
			c-1.4-1.1-2.7-2.3-4.1-3.5L909.5,388.8z"/>
	</g>
	<g>
		<path class="st49" d="M830.7,301.8c1.8,3.8,3.4,7.7,5,11.6c1.6,3.9,3.1,7.8,4.5,11.7c1.4,3.9,2.9,7.8,4.3,11.8
			c1.4,3.9,2.8,7.9,4.1,11.9c-2.1-3.6-3.9-7.5-5.6-11.3c-1.7-3.8-3.2-7.7-4.7-11.7c-1.4-3.9-2.9-7.9-4.1-11.9
			C832.9,309.9,831.7,305.8,830.7,301.8z"/>
	</g>
	<path class="st47" d="M817.6,261.7c0.2,2.3,3,10.8,3,14c0,3-1.9,8-3,10c-10,18-28.4,3.1-33-7c-3.8-8.2-2.8-2.1-3.3-11.2
		s3-18.9,10.8-23.4c3-1.7,6.5-2.6,9.9-1.9C813.6,244.6,816.6,250.7,817.6,261.7z"/>
	<path class="st19" d="M803.8,230.3c7.2,2.2,13.4,7.5,16.6,14.3c-1.9-2.2-5.5-2.5-7.8-0.7c3.2,3.2,5.7,7.2,7.2,11.5
		c-1.5-0.9-2.9-1.8-4.4-2.7c1.6,2.6,2.3,5.8,1.9,8.8c-3.9-6.5-9.3-12.1-15.8-16.2c-0.9,5.9-4.3,11.4-9.3,14.7c-0.5-2.1-1.5-4-3-5.6
		c-0.4,5.3,0.4,10.7,2.3,15.7c-2.1-1.8-3.9-3.9-5.4-6.3c0.8,4.9,2.1,9.8,3.9,14.4c-3-0.9-5.5-3.3-6.7-6.3c0.7,8,6.1,5.7,6.9,23
		c-1.4-1.5-1.8-1.3-3.8-1.3c3.1,5.1,5.4,8.7,9.8,12.7c-3.1,0.2-6.3-0.9-8.6-2.9c2.8,3.4,5.6,6.8,8.4,10.2
		c-6.1-0.6-11.5-4.2-16.4-8.1c-7.9-6.4-15.5-14.4-16.8-24.5c-0.4-3.2-1.7-7.2-1.4-10.4c0.5-6.3-1.5-13.7-1-20
		c0.6-7.6,5.5-14.5,11.6-19.2c10.9-8.3,28.9,2.6,39.7-5.8"/>
</g>
<g>
	<ellipse class="st0" cx="96" cy="615" rx="83" ry="14"/>
	<g>
		<line class="st51" x1="313.3" y1="140.3" x2="71" y2="613"/>
		<line class="st51" x1="345" y1="172.9" x2="299.1" y2="172.9"/>
		<line class="st51" x1="307.4" y1="244.5" x2="262.5" y2="244.5"/>
		<line class="st51" x1="258.6" y1="338" x2="214.4" y2="338"/>
		<line class="st51" x1="221.9" y1="409.7" x2="179" y2="409.7"/>
		<line class="st51" x1="186.6" y1="481.5" x2="141.7" y2="481.5"/>
		<line class="st51" x1="145.9" y1="563.9" x2="99.8" y2="563.9"/>
		<line class="st52" x1="123" y1="613" x2="361.8" y2="140.3"/>
	</g>
	<g>
		<path class="st53" d="M312.5,168.5c0,1.6-0.4,2.7-0.9,3.7c-0.5,1-1.2,1.8-2,2.4c-0.8,0.6-1.7,1.1-2.8,1.3c-1.1,0.3-2.2,0.4-3.8,0
			c0-1.6,0.4-2.8,0.9-3.7c0.5-1,1.2-1.8,2-2.4c0.8-0.6,1.7-1,2.8-1.3C309.8,168.3,310.9,168.2,312.5,168.5z"/>
	</g>
	<g>
		<path class="st48" d="M349.2,91.6c-6.9,13.1-15.5,25.2-25.5,36c7.8,4.8,15.5,8.5,23.3,13.3c4.4,2.7,5,3,10,4c-2.7,1.9-3.9,7-5,10
			c-1.1-1.1-0.6-0.9-1.7-2c-2.5-2.4-5.8-3.8-9.1-5.1c-7.9-3.1-15.8-6.2-23.7-9.3c-2.5-1-5.1-2.1-6.8-4.2c-2.6-3.3-2-8-0.9-12
			c2.9-10.8,8.8-20.8,16.9-28.5c5.9-5.7,13.7-10.4,21.8-9c1.7,0.3,3.6,1.1,4.1,2.7c0.3,1.1-0.1,2.3-0.6,3.3"/>
		<g>
			<path class="st49" d="M336.8,111.7c-2.1,0.2-3.9,0.2-5.7,0.3c-1.8,0-3.5,0-5.2-0.1c-1.8-0.1-3.5-0.3-5.4-0.6
				c-1.8-0.3-3.7-0.8-5.6-1.8c1.8-1.1,3.6-1.7,5.5-2.1c1.9-0.4,3.8-0.6,5.7-0.5c1.9,0.1,3.9,0.5,5.8,1.2
				C333.8,108.9,335.5,110,336.8,111.7z"/>
		</g>
		<path class="st42" d="M384.5,74c0.5,0.1,1,0.3,1.3,0.6c0.6,0.7,0.4,1.7,0.3,2.6c-0.4,2.3-0.2,4.7,0.7,6.9c0.6,1.5,1.3,3.4,0.1,4.5
			c-0.3,0.3-0.8,0.5-1.1,0.8c-0.3,0.3-0.4,0.9,0,1.2c-5.9-1.7-11.4-4.9-15.8-9.1c-1-1-2-2-2.6-3.3c-1.5-3.3,1.4-7,4.9-7.1
			c1.6,0,3.3,0.7,4.8,1.1C379.6,72.7,382.1,73.4,384.5,74z"/>
		
			<ellipse transform="matrix(0.2478 -0.9688 0.9688 0.2478 -128.4146 437.3251)" class="st54" cx="217.4" cy="301.4" rx="1.9" ry="7.8"/>
		<path class="st32" d="M293.1,97c17.9,9.4,36.8,19.9,46.3,37.7c2.1,4,3.7,9,1.6,13c-1.4,2.8-4.3,4.5-7,6.2
			c-10,6.1-19.4,12.9-28.3,20.6c-10.3,8.9-19.8,18.8-29.2,28.7c-7.7,8-15.6,16.4-19.1,26.9c-0.5,1.6-1.2,3.4-2.8,4
			c-2.9,1-4.7-3.4-4.4-6.5c1-9.3,6.6-17.4,11.9-25.1c7.5-10.7,15-21.4,22.5-32.1c8.5-12.1,18.7-25.3,33.4-27
			c-5.6-7.8-17.6-5.8-26.5-9.3c-6.2-2.4-11.1-8-12.8-14.4c-1.7-6.5,0-13.7,4.2-18.8c1.2-1.4,2.6-2.7,4.3-3.4"/>
		<g>
			<path class="st43" d="M223.7,300c1,4.7,3.1,9.3,4.9,13c1.7,3.6,4,8.6,7.3,10.8c3.5,2.3,6.2,4.9,3.8,8.1c-1.2,1.6-3.2,2.5-5.3,2.8
				c-8.1,1.3-15-5.7-20.3-12.1c-2.4-2.9-4.8-5.7-7.1-8.6c-0.8-1-1.6-2-1.9-3.1c-0.7-2.5,0.3-5.6,2.3-7.3
				C212.5,299.5,218.8,276.8,223.7,300z"/>
			<path class="st44" d="M239.7,331.9c-1.2,1.6-3.2,2.5-5.3,2.8c-8.1,1.3-15-5.7-20.3-12.1c-2.4-2.9-4.8-5.7-7.1-8.6
				c-0.8-1-1.6-2-1.9-3.1c-0.7-2.5,0.3-5.6,2.3-7.3C212.5,299.5,218,334,239.7,331.9z"/>
		</g>
		<path class="st46" d="M431.2,169c-1.9,2.7-5.3,3.7-6.2,3c-2.1-1.8-2.9-3.3-1-6s8-3.7,8.9-3C433.9,163.6,433.1,166.3,431.2,169z"/>
		<path class="st32" d="M234.9,229.1c-5.8,12-8.2,25.3-11.4,38.2c-2.8,11.1-7.7,22.7-13.6,31.7c-0.1,0.2,0,0.5,0.3,0.4
			c4.2-0.7,12.8,0.9,14.8,3.6c0,0,0,0.1,0,0c0.6-3.9,0.6-8,2.4-11.5c9.4-19.2,21.1-37.2,34.7-53.6c7.9-9.5,16.5-18.6,21.3-30
			c6.2-14.8,5-31.5,3.7-47.5c-1-11.8-1.9-23.6-2.9-35.4c-0.6-7.3-1.2-14.9-4.7-21.4c-3.4-6.5-10.4-11.7-17.7-10.8
			c-5.9,0.8-10.7,5.4-13.1,10.8c-2.3,5.4-2.5,11.6-1.9,17.4c1.8,17.4,9.9,33.6,13.4,50.7c1.9,9.1,6,26.1-2,33
			C249,212.9,240.7,217.1,234.9,229.1z"/>
		<path class="st48" d="M327.6,65.6c-16.8,4.5-31.9,13.7-48.6,18.6c-5.8,1.7-11.8,3-17.2,5.7c-5.4,2.7-12.5,8.2-13.8,14.1
			c8-0.3,14.1-1.2,22,0c4.9,0.7,8,3,15,6c1.6,0.7,6,6,21,1c12.5-4.2,14.1-4,26.8-0.5c3.3,0.9,6.5,2.2,9.9,2.6
			c10.8,1.2,20.7-6.6,27.8-14.9c7.7-9.1,11.1-23.1,1.1-28.1C357.6,63,342.6,61.6,327.6,65.6z"/>
		<path class="st47" d="M433.4,176.3c2.1,1.9,4.3,4.3,7.1,4.2c1.5,0,3.2-0.7,4.5,0.1c1,0.6,1.3,1.9,1.9,2.8c1.6,2.5,5.2,3.1,8,2.1
			c2.8-1,5-3.1,7.2-5.1c1.4-1.3,2.8-2.8,3.1-4.7c0.3-2-0.9-4-2.3-5.4c-8.6-8.6-24.3-2.3-34.8-8.5c0,0-13.6,3.6,5.4,14.6"/>
		<g>
			<path class="st54" d="M280.5,108c1.8,3.2,3.2,6.7,3.9,10.4c0.8,3.7,0.9,7.5,0.2,11.1l-0.2,0c0.1-3.7-0.2-7.3-0.9-10.9
				C282.7,115,281.6,111.5,280.5,108z"/>
		</g>
		<g>
			<path class="st54" d="M287.5,166.5c1.2,4,1.6,8.1,1.6,12.3c0,4.1-0.5,8.3-1.3,12.3c0.1-4.1,0.4-8.2,0.3-12.3
				C288.2,174.7,287.9,170.6,287.5,166.5z"/>
		</g>
		<path class="st47" d="M383.7,38.8c6.6-4.2,15.7-3.6,22,1c4.5,3.3,7.5,8.1,10.1,13c2.1,3.9,4.1,8.3,3.3,12.6c-0.5,3-2.3,5.5-4,8
			c-5.9,8.5-12.7,17.6-22.7,20c-2.7,0.6-6,0.6-8-1.4c-1-1-1.3-2.4-2-3.6C375,76,368.4,48.5,383.7,38.8z"/>
		<g>
			<path class="st49" d="M361.8,76c0.9,2.5,1.3,4.9,1.7,7.3c0.3,2.4,0.6,4.7,0.7,7.1c0.1,2.4,0.2,4.7,0.1,7.1
				c-0.1,2.4-0.3,4.8-0.9,7.4c-1.4-2.2-2.3-4.6-3-7c-0.6-2.4-1-4.9-1.1-7.3c-0.1-2.5,0-4.9,0.4-7.4C359.9,80.8,360.6,78.3,361.8,76z
				"/>
		</g>
		<line class="st55" x1="123.5" y1="612.2" x2="362.4" y2="139.5"/>
		<path class="st48" d="M362,75.4c-0.2,12.7-0.3,25.6,2.3,38.1s8.2,24.7,17.9,33.1c12.7,11,30.9,14.3,43.2,25.8
			c0.1-1.8,6-8.9,7.6-9.3c-4-2-7.4-4.6-12.5-8.5c-4-3-6-5-10-8c-5.8-4.4-14.3-8.7-19-14.2c-10.7-12.5-6.8-31.5-11.9-47
			c-1.1-3.2-2.6-6.4-5.2-8.6c-2.6-2.2-6.4-3.2-9.5-1.7"/>
		<g>
			<path class="st47" d="M362.7,149.5c0.4,0.4,0.9,0.8,1.1,1.4c0.2,0.6,0.2,1.4-0.3,1.7c-0.5,0.4-1.2,0-1.7-0.3
				c0.5,0.6,0.9,1.3,1.1,2.1c0.1,0.2,0.1,0.5,0.1,0.8c-0.1,0.5-0.6,0.8-1.1,0.7c-0.5-0.1-0.9-0.4-1.2-0.7c0.4,0.6,0.7,1.3,0.9,2
				c0.1,0.2,0.1,0.4,0.1,0.7c-0.1,0.4-0.6,0.6-1,0.6c-1.5,0.1-2.9-1.1-4.1-2.2c-0.4-0.4-0.8-0.7-1.1-1.3c-0.2-0.5-0.3-1.2,0.1-1.6
				c0.4-0.4,1-0.3,1.5-0.1s1,0.7,1.5,0.8c-0.8-0.6-1.5-1.4-2-2.4c-0.2-0.3-0.3-0.8-0.1-1c0.2-0.3,0.6-0.1,0.9,0.1
				c0.6,0.3,1.2,0.7,1.8,1c-0.7-1-1.4-2.1-1.5-3.3c0-0.2,0-0.5,0.1-0.7c0.3-0.4,0.9-0.1,1.3,0.3c0.3,0.4,0.2,0.5,1.1,1
				c-2-1.6-1.6-5.9,1-4c1,0.7,2,1.9,2.7,2.9C365.5,149.7,364.2,150.1,362.7,149.5z"/>
			<g>
				<polygon class="st42" points="358.8,154.3 360.4,154.8 360.1,155.3 				"/>
			</g>
			<g>
				<polygon class="st42" points="359.9,151.4 361.8,152.2 361.6,152.7 				"/>
			</g>
			<g>
				<path class="st42" d="M360.7,148.8c0.7,0.2,1.4,0.5,2.1,1l-0.3,0.4C362,149.6,361.4,149.1,360.7,148.8z"/>
			</g>
		</g>
		<g>
			<path class="st54" d="M248.4,104.4c3.4-0.8,6.9-1.3,10.5-1.5c3.5-0.2,7.1-0.1,10.7,0.6c3.6,0.7,6.9,2.2,10,3.8
				c3.1,1.6,6.1,3.3,9.4,4.7c-3.5-0.6-6.8-2-10-3.3c-3.2-1.3-6.4-2.6-9.7-3.2c-3.3-0.7-6.8-0.8-10.2-1
				C255.4,104.4,251.9,104.4,248.4,104.4z"/>
		</g>
		<g>
			<path class="st54" d="M313.5,108.5c-1.6,0.7-3.3,1.3-5,1.9l-5,1.8c-1.7,0.5-3.4,1-5.2,1.2c-0.9,0.1-1.8,0.1-2.7,0.1
				c-0.9-0.1-1.7-0.3-2.6-0.3c0.9-0.1,1.8,0.1,2.6,0.1c0.9,0,1.7-0.1,2.6-0.2c1.7-0.3,3.4-0.8,5.1-1.3c1.7-0.5,3.3-1.1,5-1.6
				C310.1,109.5,311.8,109,313.5,108.5z"/>
		</g>
	</g>
	<path class="st19" d="M420.3,53.9c5.6,6.1,1.8,16.1-3.6,20.6c-3-0.8-1.2-0.9-4.3-1.7c-1.5-0.4-3-0.7-4.1-1.7
		c-1.8-1.5-2.2-4.1-3.3-6.2c-1.8-3.4-5.7-5.4-9.5-6s-7.8,0-11.6,0.7c-3.5,0.6-5,3.5-6,6.5c-0.3,0.8-2.2,3.8-3,4
		c-1.6,0.4-7-13-2.5-26.2c-1-1.4-2.1-2.8-3.1-4.2c-0.4-0.5-0.8-1-1.4-1.3c-0.8-0.4-1.7-0.2-2.6,0.1c-6.1,1.7-11.8,4.6-16.8,8.6
		c-3.4,2.7-6.4,5.9-10.2,8c-4.9,2.8-10.9,3.5-16.4,2c-5.4-1.5-10.2-5.2-13-10.1c7.2,2.4,15.1-1.4,20.7-6.7s9.7-11.8,15.5-16.7
		c4.6-3.9,10.2-6.6,16.2-7.8c4.4-0.9,9.3-0.9,13.2,1.3c4,2.2,6.6,7.1,5.2,11.4c-0.6,1.8-1.8,3.3-2.3,5.1s-0.2,4.1,1.5,4.9
		c1.7,0.8,3.6-0.5,5.1-1.7c2.9-2.3,10.2-5.4,19.8-1.6C421,41.7,420.3,53.9,420.3,53.9z"/>
	<g>
		<path class="st54" d="M317.8,142.9c1.4,1,2.7,2,4.2,2.8c1.4,0.8,2.9,1.5,4.5,2.2c-1.8,0.1-3.5-0.5-5-1.4
			C320,145.7,318.6,144.5,317.8,142.9z"/>
	</g>
</g>
<g>
	<path class="st42" d="M459.4,172c2.4,1.2,4.3,3.2,5.4,5.8l-0.9,0.3C463.2,175.6,461.6,173.4,459.4,172z"/>
</g>
<g>
	<path class="st42" d="M456.8,174.7c1.1,0.6,2,1.6,2.8,2.6c0.4,0.5,0.7,1.1,1.1,1.6c0.3,0.5,0.7,1.1,0.9,1.9l-1,0.1
		c0-0.5-0.3-1.1-0.5-1.6c-0.3-0.6-0.6-1.1-0.9-1.7C458.6,176.5,457.9,175.4,456.8,174.7z"/>
</g>
<g>
	<path class="st42" d="M453.2,177.9c1.8,1.5,3.2,3.5,4.1,5.7l-1,0.3C455.8,181.7,454.7,179.6,453.2,177.9z"/>
</g>
<g>
	<path class="st42" d="M449.5,180.2c0.7,0.7,1.3,1.6,1.7,2.5c0.2,0.5,0.4,0.9,0.6,1.4c0.2,0.5,0.3,1.1,0.5,1.2l-0.8,0.6
		c-0.2-0.3-0.3-0.6-0.3-0.9c0-0.3,0-0.5-0.1-0.7c-0.1-0.5-0.2-0.9-0.3-1.4C450.5,182,450.1,181.1,449.5,180.2z"/>
</g>
</svg>
