<?xml version="1.0" encoding="utf-8"?>
<!-- Generator: Adobe Illustrator 24.0.2, SVG Export Plug-In . SVG Version: 6.00 Build 0)  -->
<svg version="1.1" id="Layer_1" xmlns="http://www.w3.org/2000/svg" xmlns:xlink="http://www.w3.org/1999/xlink" x="0px" y="0px"
	 viewBox="0 0 407.5 319.5" enable-background="new 0 0 407.5 319.5" xml:space="preserve">
<g id="Слой_1">
	<g>
		<path fill-rule="evenodd" clip-rule="evenodd" fill="#828282" d="M195.744,163.724c1.484,1.167,2.177,2.361,2.131,2.651
			c-0.032,0.201-1.333,0.227-3.083-0.833c-1.615-0.979-2.541-2.303-2.169-2.817C193,162.205,194.26,162.556,195.744,163.724z"/>
		<path fill="#828282" d="M197.483,166.983c-0.695,0-1.784-0.308-2.95-1.014c-1.327-0.804-2.294-1.866-2.465-2.706
			c-0.082-0.403,0.036-0.675,0.149-0.832c0.119-0.164,0.345-0.37,0.75-0.427c0.752-0.098,1.882,0.379,3.085,1.326l0,0
			c1.378,1.083,2.417,2.484,2.315,3.122l-0.042,0.264l-0.304,0.174C197.891,166.952,197.708,166.983,197.483,166.983z
			 M193.18,162.986c-0.08,0-0.131,0.014-0.153,0.032c-0.029,0.194,0.521,1.186,2.024,2.096c0.951,0.576,1.696,0.781,2.138,0.845
			c-0.264-0.402-0.816-1.104-1.754-1.843l0,0C194.265,163.196,193.497,162.986,193.18,162.986z"/>
	</g>
	<g>
		<g>
			<g>
				<path fill="#828282" d="M207.499,215.377c0.414,1.804,0.773,3.622,1.038,5.457c0.284,1.829,0.39,3.7,0.581,5.514
					c0.061,0.446,0.145,0.891,0.353,1.238c0.188,0.353,0.584,0.552,0.971,0.8c0.775,0.458,1.616,0.802,2.486,1.046
					c1.737,0.48,3.604,0.595,5.374,0.395l0.416-0.047l-0.051,0.414c-0.212,1.715-0.186,3.53,0.653,4.987
					c0.818,1.469,2.386,2.35,4.022,2.846c0.81,0.271,1.686,0.395,2.579,0.655c0.879,0.246,1.736,0.549,2.577,0.888
					c1.679,0.69,3.305,1.485,4.825,2.557c0.385,0.26,0.744,0.59,1.084,0.937c0.315,0.349,0.625,0.701,0.895,1.067
					c0.565,0.723,1.064,1.47,1.567,2.217c0.994,1.497,1.933,3.014,2.892,4.512c0.959,1.495,1.925,2.987,2.984,4.373
					c0.528,0.691,1.087,1.354,1.684,1.914c0.646,0.556,1.312,1.097,2.038,1.521c1.43,0.895,3.051,1.393,4.708,1.461
					c1.661,0.044,3.339-0.3,4.944-0.905c3.22-1.213,6.219-3.122,8.977-5.268c2.781-2.147,5.334-4.625,8.225-6.857
					c2.857-2.237,6.301-4.082,10.047-4.652l-0.335,0.114c0.122-0.058,0.249-0.11,0.377-0.156l0.289-0.074
					c0.199-0.053,0.35-0.057,0.525-0.084c0.332-0.031,0.652-0.046,0.963-0.034c0.627,0.007,1.228,0.09,1.824,0.19
					c1.184,0.225,2.325,0.584,3.403,1.065c2.152,0.965,4.117,2.284,5.793,3.875c3.374,3.172,5.883,7.059,7.837,11.12
					c1.988,4.062,3.367,8.361,4.484,12.69c1.109,4.337,1.871,8.744,2.418,13.165l-0.197,0.032c-0.893-4.36-1.939-8.679-3.233-12.912
					c-0.639-2.119-1.381-4.201-2.175-6.258c-0.848-2.033-1.71-4.059-2.732-5.998c-1.995-3.89-4.515-7.537-7.716-10.388
					c-1.599-1.417-3.369-2.624-5.289-3.456c-0.957-0.42-1.956-0.721-2.959-0.905c-0.5-0.079-1.006-0.146-1.492-0.145
					c-0.245-0.009-0.482,0.008-0.703,0.028c-0.099,0.017-0.229,0.023-0.298,0.046l-0.116,0.025
					c-0.001,0.005-0.004,0.004-0.011-0.002l-0.335,0.114c-3.357,0.471-6.42,2.07-9.205,4.151c-2.801,2.073-5.431,4.525-8.338,6.685
					c-2.905,2.167-6.029,4.082-9.51,5.343c-1.738,0.624-3.62,0.994-5.529,0.913c-1.907-0.101-3.791-0.723-5.37-1.747
					c-0.806-0.491-1.523-1.089-2.217-1.707c-0.696-0.671-1.274-1.389-1.818-2.121c-1.084-1.466-2.034-2.987-2.978-4.507
					c-0.941-1.52-1.857-3.049-2.813-4.538c-0.482-0.739-0.963-1.483-1.487-2.174c-0.535-0.704-1.034-1.333-1.732-1.816
					c-1.379-1.011-2.969-1.816-4.57-2.514c-0.806-0.344-1.627-0.652-2.46-0.904c-0.814-0.257-1.711-0.404-2.59-0.714
					c-0.871-0.295-1.731-0.67-2.509-1.208c-0.773-0.539-1.453-1.25-1.907-2.092c-0.928-1.709-0.885-3.669-0.633-5.446l0.365,0.367
					c-1.904,0.175-3.794,0.014-5.612-0.522c-0.904-0.273-1.78-0.652-2.586-1.151c-0.199-0.133-0.395-0.254-0.595-0.398
					c-0.204-0.154-0.387-0.355-0.516-0.582c-0.258-0.459-0.327-0.95-0.384-1.415c-0.158-1.865-0.223-3.692-0.469-5.525
					c-0.226-1.83-0.547-3.648-0.924-5.456L207.499,215.377z"/>
			</g>
			<g>
				<path fill="#828282" d="M163.766,102.006c-0.26,5.618,0.066,11.247,0.656,16.833c0.616,5.585,1.506,11.14,2.725,16.619
					c1.219,5.476,2.698,10.9,4.668,16.136c1.975,5.212,4.365,10.344,7.794,14.66c0.426,0.54,0.867,1.064,1.343,1.553
					c0.45,0.517,0.957,0.968,1.455,1.429c0.456,0.433,1.122,0.934,1.6,1.515c0.249,0.282,0.48,0.569,0.704,0.857l0.654,0.858
					c0.909,1.211,1.537,2.6,1.997,3.989c0.463,1.396,0.778,2.818,1.011,4.242c0.87,5.709,0.697,11.423,0.329,17.061
					c-0.209,2.82-0.435,5.632-0.71,8.427c-0.252,2.794-0.542,5.58-0.397,8.292c0.088,1.33,0.28,2.709,0.887,3.665
					c0.57,0.959,1.836,1.198,3.203,1.17c1.389-0.021,2.71-0.102,4.006-0.569c1.319-0.464,2.689-0.913,4.068-1.212l0.059,0.191
					c-1.315,0.522-2.574,1.087-3.847,1.72c-1.299,0.674-2.825,0.914-4.238,1.02c-0.727,0.048-1.487,0.075-2.288-0.115
					c-0.797-0.173-1.617-0.674-2.121-1.364c-1.011-1.391-1.181-2.936-1.356-4.374c-0.265-2.911-0.074-5.76,0.09-8.573l0.587-8.412
					c0.336-5.581,0.638-11.194-0.071-16.653c-0.397-2.693-1.024-5.424-2.532-7.557l-0.608-0.834
					c-0.202-0.272-0.409-0.536-0.621-0.785c-0.414-0.517-0.884-0.866-1.444-1.405c-0.528-0.503-1.063-1-1.531-1.552
					c-0.498-0.529-0.954-1.088-1.391-1.661c-3.518-4.583-5.846-9.845-7.769-15.162c-1.902-5.34-3.331-10.824-4.432-16.363
					c-1.108-5.538-1.882-11.136-2.381-16.754c-0.472-5.618-0.678-11.271-0.297-16.899L163.766,102.006z"/>
			</g>
		</g>
	</g>
	<g>
		<g>
			<g>
				<path fill="#828282" d="M203.595,152.119c-0.988,1.034-2.086,1.926-3.138,2.821c-1.059,0.887-2.085,1.76-3.023,2.707
					c-0.942,0.942-1.825,1.936-2.654,2.996c-0.84,1.051-1.621,2.161-2.432,3.272l-0.031,0.049c-0.581,0.726-1.284,1.312-2.022,1.809
					c-0.749,0.483-1.551,0.88-2.401,1.095c1.305-1.14,2.414-2.395,3.189-3.757l-0.031,0.049c0.607-1.286,1.331-2.524,2.165-3.701
					c0.841-1.17,1.825-2.26,2.924-3.213c0.564-0.461,1.138-0.904,1.731-1.312c0.607-0.389,1.218-0.762,1.845-1.094
					C200.978,153.181,202.256,152.617,203.595,152.119z"/>
			</g>
		</g>
	</g>
	<g>
		<g>
			<g>
				<path fill="#828282" d="M202.168,154.022c-0.385,0.73-0.832,1.436-1.185,2.162c-0.357,0.725-0.592,1.477-0.711,2.248
					l-0.966-0.258c0.302-0.818,0.734-1.588,1.252-2.254C201.073,155.25,201.643,154.661,202.168,154.022z"/>
			</g>
		</g>
	</g>
	<g>
		<g>
			<g>
				<path fill="#828282" d="M199.311,162.748c-0.411,0.974-0.659,2.071-0.832,3.164c-0.156,1.097-0.278,2.221-0.118,3.335
					c-0.325-1.085-0.373-2.238-0.381-3.374c0.012-1.142,0.088-2.286,0.384-3.448L199.311,162.748z"/>
			</g>
		</g>
	</g>
	<g>
		<g>
			<g>
				<path fill="#828282" d="M195.506,151.643c-1.273,1.35-2.537,2.605-3.752,3.918c-1.22,1.312-2.389,2.612-3.385,4.171
					c0.109-0.933,0.495-1.82,0.967-2.625c0.473-0.811,1.06-1.542,1.687-2.227c0.642-0.672,1.326-1.301,2.073-1.85
					C193.839,152.478,194.634,151.982,195.506,151.643z"/>
			</g>
		</g>
	</g>
	<g>
		<g>
			<g>
				<path fill="#828282" d="M197.453,138.177c-2.346,1.115-4.643,2.306-6.81,3.695c-2.174,1.371-4.222,2.925-6.074,4.662
					c-1.863,1.736-3.374,3.756-4.847,5.74c-1.486,2.006-2.626,4.184-3.422,6.689l-0.199-0.014c-0.314-2.677,0.558-5.457,1.944-7.764
					c1.373-2.364,3.423-4.191,5.475-5.858c2.073-1.663,4.302-3.095,6.625-4.321c2.348-1.181,4.764-2.193,7.236-3.015
					L197.453,138.177z"/>
			</g>
		</g>
	</g>
	<g>
		<g>
			<g>
				<path fill="#828282" d="M202.168,203.31c0.812-0.564,1.805-0.873,2.819-0.912c1.01-0.059,2.093,0.274,2.852,1.021
					c0.764,0.751,1.079,1.82,1.102,2.818c0.057,1.014-0.183,1.993-0.47,2.93c0.084-0.98,0.221-1.952,0.087-2.9
					c-0.109-0.936-0.412-1.861-1.069-2.491c-0.637-0.643-1.564-0.961-2.504-0.995C204.039,202.742,203.074,202.93,202.168,203.31z"
					/>
			</g>
		</g>
	</g>
	<g>
		<g>
			<g>
				<path fill="#828282" d="M195.244,216.743c0.035-0.932,0.642-1.872,1.463-2.261c0.812-0.408,1.685-0.437,2.497-0.361
					c1.64,0.174,3.135,0.897,4.39,1.852c-1.346-0.82-2.884-1.355-4.416-1.353c-0.753,0.005-1.525,0.135-2.1,0.514
					c-0.574,0.379-0.862,0.973-0.835,1.636L195.244,216.743z"/>
			</g>
		</g>
	</g>
	<g>
		<g>
			<g>
				<path fill="#828282" d="M165.393,83.797c-0.723,4.504-0.675,9.038-0.549,13.546c0.149,4.514,0.625,8.988,1.115,13.461
					c0.516,4.452,1.266,9.015,3.353,13.038c1.033,1.994,2.363,3.857,4.059,5.264c1.686,1.41,3.729,2.3,5.815,2.463
					c2.09,0.177,4.18-0.266,6.179-1.013c0.5-0.186,0.992-0.406,1.484-0.622l1.583-0.706c1.052-0.482,2.128-0.914,3.195-1.367
					c4.299-1.734,8.738-3.226,13.355-4.089c2.306-0.434,4.648-0.74,7.017-0.814c2.365-0.103,4.761,0.055,7.118,0.524
					c2.342,0.485,4.685,1.351,6.631,2.85c1.935,1.48,3.335,3.779,3.401,6.148l-0.297,0.042c-0.286-1.093-0.791-2.092-1.469-2.932
					c-0.678-0.846-1.541-1.506-2.46-2.047c-1.867-1.054-3.999-1.602-6.164-1.817c-4.348-0.47-8.799,0.195-13.148,1.112
					c-4.349,1.001-8.664,2.285-12.917,3.809c-1.059,0.393-2.126,0.766-3.176,1.19l-1.583,0.62c-0.566,0.218-1.134,0.432-1.721,0.604
					c-2.32,0.722-4.886,1.007-7.335,0.466c-2.463-0.497-4.627-1.871-6.308-3.542c-1.69-1.688-2.976-3.669-4.069-5.717
					c-1.095-2.053-1.993-4.196-2.817-6.373c-0.808-2.181-1.528-4.409-2.046-6.683c-1.085-4.545-1.316-9.234-1.168-13.872
					c0.076-2.322,0.301-4.642,0.697-6.936c0.399-2.287,0.946-4.583,1.941-6.7L165.393,83.797z"/>
			</g>
		</g>
	</g>
	<g>
		<g>
			<g>
				<path fill="#828282" d="M214.923,98.187c5.512-2.4,11.822-2.894,17.867-2.025c3.033,0.449,6.018,1.273,8.893,2.408
					c2.862,1.166,5.603,2.665,8.142,4.476c2.524,1.832,4.818,3.995,6.825,6.407c1.016,1.197,1.917,2.489,2.731,3.83
					c0.811,1.342,1.573,2.719,2.191,4.159c2.53,5.759,3.302,12.088,2.918,18.141c-0.387,6.081-1.787,11.946-3.58,17.623
					c-1.883,5.613-3.537,11.264-4.847,17.019c-1.36,5.73-2.503,11.515-3.452,17.196c-0.448,2.843-0.792,5.678-0.791,8.425
					c0.019,2.729,0.343,5.382,1.39,7.502c0.52,1.058,1.158,2.017,1.993,2.852c0.813,0.811,1.876,1.616,2.971,2.275
					c2.204,1.323,4.705,2.176,7.357,2.67c5.335,0.974,11.111,0.53,16.943,0.027c2.931-0.254,5.898-0.546,8.94-0.651
					c3.036-0.108,6.157-0.075,9.328,0.473c3.147,0.548,6.42,1.695,9.097,3.826c2.712,2.08,4.606,4.988,5.822,7.934
					c1.244,2.966,1.914,6.032,2.32,9.069c0.417,3.042,0.526,6.073,0.506,9.083c-0.032,6.023-0.64,11.962-1.477,17.845
					c-0.839,5.884-1.94,11.709-3.216,17.489c-1.266,5.781-2.652,11.528-4.193,17.232l-0.488-0.11
					c1.044-5.811,2.084-11.615,2.968-17.438c0.87-5.824,1.644-11.657,2.184-17.495c0.498-5.836,0.891-11.686,0.655-17.469
					c-0.114-2.887-0.328-5.763-0.802-8.557c-0.466-2.792-1.181-5.519-2.31-7.962c-1.107-2.454-2.673-4.575-4.692-6.055
					c-1.999-1.516-4.483-2.35-7.136-2.75c-5.357-0.768-11.164,0.032-17.03,0.589c-5.882,0.569-12.009,1.197-18.35,0.148
					c-3.153-0.524-6.338-1.587-9.191-3.319c-0.709-0.439-1.407-0.894-2.061-1.411c-0.334-0.241-0.666-0.503-0.995-0.803
					c-0.335-0.28-0.654-0.582-0.959-0.906c-1.234-1.266-2.292-2.774-2.988-4.404c-1.409-3.285-1.615-6.674-1.47-9.813
					c0.181-3.155,0.689-6.178,1.365-9.125c1.314-5.906,3.397-11.491,5.387-17.073c2.049-5.559,4.037-11.135,5.71-16.775
					c1.661-5.595,2.486-11.448,2.187-17.182c-0.278-5.729-1.606-11.303-4.022-16.286c-2.377-4.991-5.857-9.451-10.277-12.849
					c-2.176-1.736-4.571-3.223-7.115-4.421c-2.527-1.237-5.203-2.205-7.963-2.88c-5.512-1.375-11.379-1.678-17.133-0.461
					L214.923,98.187z"/>
			</g>
		</g>
	</g>
	<g>
		<g>
			<g>
				<path fill="#828282" d="M212.893,53.274c6.158-3.362,12.827-5.86,19.743-7.432c6.922-1.538,14.098-2.118,21.231-1.607
					c7.138,0.459,14.202,2.075,20.929,4.58c6.712,2.557,13.053,6.113,18.754,10.513c2.834,2.221,5.507,4.649,7.986,7.263
					c2.456,2.636,4.69,5.475,6.702,8.458c3.977,5.998,6.988,12.627,8.776,19.554c1.802,6.923,2.43,14.097,1.988,21.165
					c-0.212,3.537-0.74,7.042-1.449,10.5c-0.359,1.726-0.802,3.45-1.244,5.118c-0.409,1.688-0.773,3.387-1.106,5.09
					c-0.313,1.707-0.582,3.422-0.799,5.14c-0.188,1.723-0.344,3.446-0.439,5.169c-0.209,3.442-0.17,6.888,0.146,10.259
					c0.319,3.365,0.869,6.681,1.889,9.745c1.009,3.049,2.578,5.857,4.772,7.687c2.161,1.877,4.916,2.568,7.692,2.189
					c0.694-0.094,1.388-0.256,2.072-0.48l2.43-0.864c0.856-0.303,1.736-0.558,2.603-0.839c0.888-0.233,1.761-0.509,2.665-0.702
					c1.794-0.423,3.634-0.724,5.499-0.927c1.874-0.168,3.779-0.217,5.702-0.066c3.833,0.308,7.785,1.546,11.03,3.897
					c3.257,2.34,5.627,5.612,7.241,9.015c1.633,3.423,2.571,7.018,3.189,10.599c1.137,7.187,1.032,14.361,0.328,21.404
					c-1.427,14.093-5.003,27.795-9.983,40.877l-0.474-0.158c1.848-6.731,3.452-13.512,4.608-20.364
					c1.201-6.838,2.055-13.728,2.392-20.608c0.294-6.867,0.164-13.779-1.184-20.355c-0.687-3.267-1.625-6.469-3.1-9.313
					c-1.454-2.847-3.43-5.317-5.907-7.004c-2.458-1.714-5.416-2.617-8.533-2.826c-1.562-0.095-3.155-0.031-4.756,0.136
					c-1.602,0.203-3.209,0.488-4.808,0.893c-0.8,0.189-1.598,0.426-2.398,0.636c-0.794,0.257-1.593,0.484-2.383,0.762l-2.508,0.882
					c-0.977,0.315-1.99,0.548-3.027,0.683c-2.07,0.288-4.251,0.113-6.286-0.549c-2.041-0.645-3.902-1.781-5.422-3.183
					c-3.052-2.85-4.738-6.532-5.739-10.128c-0.982-3.634-1.287-7.308-1.219-10.913c0.075-3.609,0.507-7.154,1.055-10.651
					c0.278-1.749,0.616-3.483,0.986-5.206c0.336-1.729,0.713-3.447,1.107-5.158c0.74-3.427,1.667-6.845,2.345-10.205
					c0.688-3.383,1.036-6.826,1.136-10.265c0.192-6.882-0.848-13.761-2.967-20.243c-4.278-12.99-12.731-24.251-23.367-32.568
					c-5.317-4.178-11.231-7.62-17.53-10.14c-6.276-2.59-12.939-4.212-19.708-5.012c-13.576-1.562-27.542,0.743-40.443,6.005
					L212.893,53.274z"/>
			</g>
		</g>
	</g>
	<g>
		<g>
			<g>
				<path fill="#828282" d="M178,42.5c8.416-11.856,20.333-21.142,33.597-27.295c13.268-6.244,27.879-9.498,42.563-10.104
					c14.697-0.538,29.536,1.7,43.448,6.706c13.886,5.06,26.783,12.981,37.488,23.261c2.674,2.569,5.23,5.266,7.596,8.122
					c2.38,2.842,4.641,5.789,6.706,8.867c1.07,1.514,2.023,3.104,3.024,4.663c0.926,1.603,1.912,3.174,2.768,4.817l1.314,2.446
					l1.237,2.485l2.388,4.878c3.203,6.451,6.51,12.864,9.947,19.233c3.428,6.372,6.926,12.741,10.187,19.277
					c1.627,3.27,3.234,6.559,4.706,9.925c0.761,1.669,1.448,3.379,2.148,5.078c0.649,1.725,1.322,3.438,1.899,5.192
					c0.625,1.734,1.134,3.513,1.681,5.275c0.47,1.788,0.991,3.56,1.368,5.372c0.435,1.796,0.755,3.619,1.075,5.438
					c0.149,0.911,0.251,1.831,0.378,2.746c0.132,0.914,0.238,1.831,0.305,2.752c0.395,3.671,0.43,7.364,0.386,11.036
					c-0.104,1.835-0.139,3.672-0.346,5.495l-0.258,2.736l-0.368,2.72c-1.011,7.246-2.77,14.341-5.015,21.244
					c3.068-14.16,4.641-28.728,2.532-42.861c-0.524-3.524-1.24-7.013-2.172-10.446c-0.425-1.726-0.994-3.416-1.507-5.117
					c-0.593-1.68-1.143-3.371-1.811-5.026c-2.566-6.649-5.694-13.105-9.065-19.466c-6.795-12.695-14.138-25.289-20.525-38.424
					l-2.362-4.908l-1.177-2.389l-1.251-2.35c-0.813-1.579-1.752-3.085-2.632-4.625c-0.953-1.495-1.858-3.022-2.876-4.474
					c-3.947-5.891-8.524-11.349-13.579-16.311c-10.104-9.946-22.356-17.679-35.654-22.727c-13.288-5.105-27.607-7.521-41.901-7.361
					c-14.292,0.186-28.621,2.987-41.854,8.595C199.186,22.578,187.05,31.116,178,42.5z"/>
			</g>
		</g>
	</g>
	<g>
		<g>
			<path fill="#828282" d="M217.897,229.925c0.357-0.593,0.795-1.224,1.48-1.597c0.693-0.363,1.379-0.375,1.977-0.538
				c0.61-0.148,1.182-0.431,1.703-0.811c0.531-0.368,0.99-0.838,1.444-1.312c-0.389,0.526-0.788,1.057-1.286,1.506
				c-0.484,0.458-1.063,0.847-1.705,1.093c-0.64,0.253-1.299,0.376-1.739,0.701c-0.445,0.321-0.733,0.849-0.978,1.405
				L217.897,229.925z"/>
		</g>
	</g>
</g>
<g id="Layer_2_1_">
	<g>
		<g>
			<g>
				<path fill="#828282" d="M151.601,64.002c-5.758,2.467-10.908,5.943-15.409,10.047c-4.483,4.122-8.346,8.858-11.315,14.05
					c-3.005,5.165-5.062,10.813-5.976,16.583c-0.916,5.776-0.615,11.672,0.826,17.344c1.4,5.734,3.603,11.225,7.621,15.559
					c1.967,2.201,4.387,4.058,6.925,5.863c2.549,1.791,5.25,3.528,7.75,5.6c2.508,2.059,4.728,4.538,6.462,7.315
					c0.844,1.393,1.577,2.884,2.171,4.433c0.551,1.558,1.01,3.165,1.24,4.786c0.54,3.24,0.62,6.482,0.584,9.687
					c-0.029,3.212-0.231,6.395-0.488,9.564c-0.521,6.338-1.272,12.625-2.273,18.855c-0.94,6.236-2.137,12.475-3.188,18.61
					c-1.054,6.12-2.046,12.231-1.89,17.919c0.038,2.851,0.516,5.54,1.358,8.08c0.905,2.516,2.215,4.901,3.973,7.104
					c1.751,2.198,3.813,4.278,6.087,6.2c2.268,1.936,4.724,3.676,7.31,5.51c2.556,1.817,5.139,3.629,7.71,5.523
					c2.574,1.883,5.114,3.902,7.515,6.185c2.378,2.285,4.655,4.926,6.134,8.116c1.464,3.193,1.981,6.784,1.606,10.112
					c-0.352,3.344-1.309,6.48-2.546,9.436c-1.224,2.966-2.71,5.776-4.306,8.504l-0.628-0.309c1.163-2.917,2.224-5.864,3.051-8.841
					c0.819-2.973,1.402-5.997,1.366-8.94c0.015-2.944-0.688-5.732-2.083-8.147c-1.436-2.401-3.445-4.501-5.758-6.375
					c-4.658-3.724-10.07-6.9-15.399-10.241c-5.325-3.296-11.03-6.939-15.558-12.206c-2.285-2.607-4.199-5.721-5.468-9.103
					c-1.261-3.384-1.817-6.978-1.891-10.406c-0.059-3.445,0.242-6.775,0.757-9.99c0.499-3.221,1.131-6.358,1.786-9.461l4.055-18.394
					c1.284-6.129,2.724-12.222,3.927-18.335c0.599-3.056,1.137-6.119,1.492-9.181c0.355-3.059,0.547-6.136,0.243-9.129
					c-0.127-1.504-0.464-2.954-0.878-4.382c-0.455-1.416-1.123-2.749-1.87-4.065c-1.535-2.592-3.559-4.877-5.995-6.702
					c-4.813-3.721-10.897-5.914-16.055-10.287c-2.569-2.151-4.837-4.768-6.603-7.663c-1.79-2.893-3.123-5.991-4.089-9.187
					c-2.002-6.423-2.289-13.396-1.073-20c1.197-6.628,3.915-12.859,7.544-18.356c3.673-5.479,8.279-10.262,13.556-14.054
					c5.261-3.784,11.213-6.674,17.487-7.903L151.601,64.002z"/>
			</g>
		</g>
	</g>
</g>
</svg>
