<?xml version="1.0" encoding="utf-8"?>
<!-- Generator: Adobe Illustrator 24.0.2, SVG Export Plug-In . SVG Version: 6.00 Build 0)  -->
<svg version="1.1" id="Слой_1" xmlns="http://www.w3.org/2000/svg" xmlns:xlink="http://www.w3.org/1999/xlink" x="0px" y="0px"
	 viewBox="0 0 153.5 119.7" style="enable-background:new 0 0 153.5 119.7;" xml:space="preserve">
<style type="text/css">
	.st0{fill:#FFFFFF;stroke:#0D0F0F;stroke-miterlimit:10;}
	.st1{fill:#FFFFFF;}
	.st2{fill:#FFFFFF;stroke:#FFFFFF;stroke-miterlimit:10;}
	.st3{fill:none;}
</style>
<path class="st0" d="M17,78.2"/>
<g>
	<path class="st1" d="M78.6,65.8L69,66.3c0,0-1.8,21.8-12.6,34.8c0.8-0.7,1.6-1.3,2.4-2.1c2.8-2.6,5.2-5.6,7.2-8.9
		c2-3.2,6.1-11.2,7.1-19.4l0.3,0c-0.1,0.4-1.2,13.2-11.1,25c-0.8,1-1.7,1.9-2.5,2.7c-0.9,0.9-1.8,1.7-2.8,2.5
		c-0.4,0.3-0.8,0.6-1.2,0.9c-5,5.7-11.1,8.6-18.8,9.1v0.5C15.1,111.1,5.7,92.9,5.7,92.9h4.1c4,6.1,10.9,12.3,20.8,14.2
		c5.9,0.7,21.2,3.6,32.3-19.4c-7.1,16.2-33.5,28.2-52.3,3.7c-0.6,0-6.7,0.1-7.3,0.2c6.4,12.5,19.5,20.4,33.5,20c0,0.6,0,3.5,0,3.5
		C77.4,112.3,78.6,65.8,78.6,65.8z"/>
	<path class="st1" d="M105.7,8.2c0.2,0,0.4-0.1,0.6-0.1C106.1,8.1,105.9,8.2,105.7,8.2z"/>
	<path class="st1" d="M85.7,17.1c-2.7,2.2-6.6,5.4-12.5,16.1c-3,7.6-3.4,13.5-3.4,13.5l9.1-0.5c0,0,3.3-26.8,21.6-36.2
		c0.5-0.3,1-0.5,1.6-0.7c-4.6,1.3-11.3,3.6-16,7.4L85.7,17.1z"/>
	<path class="st1" d="M116.4,3.9c-7.3-0.8-18.5,0-28.7,8.7C80.9,18.4,76.7,25.3,74,31.3c5.4-9.4,9-12.3,11.5-14.4l0.4-0.3
		c6.2-5.1,16.3-7.6,19.8-8.4c0.2,0,0.4-0.1,0.6-0.1c0.4-0.1,0.6-0.1,0.6-0.1v0c3.2-0.6,6.9-0.7,11.1-0.2c9.3,1.4,18.7,9,23.4,15.9
		c0,0-14.6-14.7-31.6-11.4c20.8-0.2,28.3,15.1,28.3,15.1l9.6-0.4C147.7,26.9,139.4,6.4,116.4,3.9z"/>
	<path class="st2" d="M78.2,46.3"/>
	<path class="st1" d="M99.1,45.1l-42.5,2.1l0,8.8l42.5-2.1L99.1,45.1z M62.7,51.2l28.5,1.4l-0.1,1.2l-30.8-1.5l0.1-1.2l0,0l0,0
		l35.7-1.8l0,0.3L62.7,51.2z"/>
</g>
<path class="st0" d="M13.7,11.7"/>
<g>
	<g>
		<path class="st1" d="M4.4,72"/>
		<path class="st1" d="M8.5,72l-4.1-0.3L6,8.3l25.5,0.1c3.1,0.3,6.2,1.3,8.8,2.9c2.7,1.6,5.1,3.8,6.7,6.4c1.2,2,2.8,4.9,3.2,7.9
			c0.2,1.6,1.8,9.8-3.8,17.5c5.6-9.6,3.4-17.2,3.2-18.3c-2.2-9.1-9.9-13.2-11.8-14c-1.9-0.8-4-1.4-6.1-1.6C29.7,9.1,7.6,9.6,7.6,9.6
			l2.1,62.8l1.1-59.4c0,0,10.1,0.1,19.3,0.1c8,0,15,7,15.7,15.4c0.9,10.3-7.7,19.2-14.6,19.5c-9.3,0.4-14.5,0.7-14.5,0.7l0,8.5
			l15.6-0.6c4.2,0,11.8-2.9,17.1-9.1c-1.5,1.4-6.8,5.3-17.8,5.3c-0.2,0-0.3,0-0.5,0c-4.2,0-11.1-0.1-11.1-0.1l0-0.3
			c0.1,0,6.9,0,11.1,0.1c0.2,0,0.3,0,0.5,0c13,0,18.2-5.6,18.2-5.6c3.3-3.9,5.6-9.1,5.6-15.7c0-20.6-15.8-26.9-26.7-26.9
			c-6.3,0-26.7,0-26.7,0l1.2,68L8.5,72z"/>
		<path class="st1" d="M49.5,47.4c0.3-0.3,0.5-0.5,0.5-0.5l0,0C49.8,47.1,49.6,47.2,49.5,47.4z"/>
	</g>
</g>
<polygon class="st1" points="34.6,31.4 27.3,35.6 19.9,39.9 19.9,31.4 19.9,22.9 27.3,27.1 "/>
<g>
	<rect x="-98.4" y="12.4" class="st3" width="91.6" height="39.6"/>
	<text transform="matrix(1 0 0 1 -46.3729 28.7459)"><tspan x="0" y="0" class="st1" style="font-family:'MyriadPro-Regular'; font-size:23px;">Play</tspan><tspan x="-20.9" y="20" class="st1" style="font-family:'MyriadPro-Regular'; font-size:23px;">Frame</tspan></text>
</g>
<g>
	<rect x="-97.6" y="56.6" class="st3" width="91.6" height="23.5"/>
	<text transform="matrix(1 0 0 1 -85.7777 72.8973)" class="st1" style="font-family:'MyriadPro-Bold'; font-size:23px;">STUDIO</text>
</g>
<path class="st3" d="M278.1,111.8c0.2,0,0.4-0.1,0.6-0.1C278.5,111.7,278.3,111.7,278.1,111.8z"/>
</svg>
