<?xml version="1.0" encoding="utf-8"?>
<!-- Generator: Adobe Illustrator 24.0.2, SVG Export Plug-In . SVG Version: 6.00 Build 0)  -->
<svg version="1.1" id="Слой_1" xmlns="http://www.w3.org/2000/svg" xmlns:xlink="http://www.w3.org/1999/xlink" x="0px" y="0px"
	 viewBox="0 0 321 114.6" style="enable-background:new 0 0 321 114.6;" xml:space="preserve">
<style type="text/css">
	.st0{fill:none;stroke:#0D0F0F;stroke-miterlimit:10;}
	.st1{fill:#219BC3;}
	.st2{fill:none;}
	.st3{fill:none;stroke:#FFFFFF;stroke-miterlimit:10;}
	.st4{fill:#EFB82E;}
	.st5{fill:#C66AAB;}
	.st6{fill:#FFFFFF;}
	.st7{enable-background:new    ;}
</style>
<g>
	<path class="st0" d="M15.4,75.4"/>
</g>
<g>
	<g>
		<path class="st1" d="M77,63l-9.6,0.5c0,0-1.8,21.8-12.6,34.8c0.8-0.7,1.6-1.3,2.4-2.1c2.8-2.6,5.2-5.6,7.2-8.9
			c2-3.2,6.1-11.2,7.1-19.4h0.3c-0.1,0.4-1.2,13.2-11.1,25c-0.8,1-1.7,1.9-2.5,2.7c-0.9,0.9-1.8,1.7-2.8,2.5
			c-0.4,0.3-0.8,0.6-1.2,0.9c-5,5.7-11.1,8.6-18.8,9.1v0.5C13.7,108.1,4.3,90,4.3,90h4.1c4,6.1,10.9,12.3,20.8,14.2
			c5.9,0.7,21.2,3.6,32.3-19.4C54.4,101,28,113,9.2,88.5c-0.6,0-6.7,0.1-7.3,0.2c6.4,12.5,19.5,20.4,33.5,20c0,0.6,0,3.5,0,3.5
			C75.9,109.5,77,63,77,63z"/>
	</g>
	<g>
		<path class="st2" d="M104.2,5.4c0.2,0,0.4-0.1,0.6-0.1C104.6,5.3,104.4,5.4,104.2,5.4z"/>
	</g>
	<g>
		<path class="st1" d="M84.2,14.3c-2.7,2.2-6.6,5.4-12.5,16.1c-3,7.6-3.4,13.5-3.4,13.5l9.1-0.5c0,0,3.3-26.8,21.6-36.2
			c0.5-0.3,1-0.5,1.6-0.7c-4.6,1.3-11.4,3.6-16,7.4L84.2,14.3z"/>
	</g>
	<g>
		<path class="st1" d="M114.9,1.1c-7.3-0.8-18.5,0-28.7,8.7c-6.8,5.8-11.1,12.7-13.7,18.7c5.4-9.4,9-12.3,11.5-14.4l0.4-0.3
			c6.2-5.1,16.3-7.6,19.8-8.4c0.2,0,0.4-0.1,0.6-0.1c0.4-0.1,0.6-0.1,0.6-0.1l0,0c3.2-0.6,6.9-0.7,11.1-0.2
			c9.3,1.4,18.7,9,23.4,15.9c0,0-14.6-14.7-31.6-11.4c20.8-0.2,28.3,15.1,28.3,15.1l9.6-0.4C146.2,24.1,137.9,3.6,114.9,1.1z"/>
	</g>
	<g>
		<path class="st3" d="M76.7,43.5"/>
	</g>
	<g>
		<path class="st4" d="M97.6,42.3l-42.5,2v8.8L97.6,51V42.3z M61.2,48.4l28.5,1.4L89.6,51l-30.8-1.5l0.1-1.2l0,0l0,0l35.7-1.8v0.3
			L61.2,48.4z"/>
	</g>
</g>
<g>
	<path class="st0" d="M12.2,8.9"/>
</g>
<g>
	<g>
		<g>
			<path class="st5" d="M2.9,69.2"/>
		</g>
		<g>
			<path class="st5" d="M6.9,69.2l-4.1-0.3L4.4,5.5l25.5,0.1c3.1,0.3,6.2,1.3,8.8,2.9c2.7,1.6,5.1,3.8,6.7,6.4
				c1.2,2,2.8,4.9,3.2,7.9c0.2,1.6,1.8,9.8-3.8,17.5c5.6-9.6,3.4-17.2,3.2-18.3c-2.2-9.1-9.9-13.2-11.8-14s-4-1.4-6.1-1.6
				c-2-0.1-24,0.4-24,0.4l2.1,62.8l1.1-59.4c0,0,10.1,0.1,19.3,0.1c8,0,15,7,15.7,15.4c0.9,10.3-7.7,19.2-14.6,19.5
				c-9.3,0.4-14.5,0.7-14.5,0.7v8.5l15.7-0.6c4.2,0,11.8-2.9,17.1-9.1c-1.5,1.4-6.8,5.3-17.8,5.3c-0.2,0-0.3,0-0.5,0
				c-4.2,0-11.1-0.1-11.1-0.1v-0.3c0.1,0,6.9,0,11.1,0.1c0.2,0,0.3,0,0.5,0c13,0,18.2-5.6,18.2-5.6C51.7,40.2,54,35,54,28.4
				C54,7.8,38.2,1.5,27.3,1.5c-6.3,0-26.7,0-26.7,0l1.2,68L6.9,69.2z"/>
		</g>
		<g>
			<path class="st5" d="M48,44.6c0.3-0.3,0.5-0.5,0.5-0.5l0,0C48.3,44.3,48.1,44.4,48,44.6z"/>
		</g>
	</g>
</g>
<g>
	<polygon class="st4" points="33.1,28.6 25.7,32.8 18.4,37.1 18.4,28.6 18.4,20.1 25.8,24.3 	"/>
</g>
<g>
	<g>
		<rect x="104.8" y="6.7" class="st2" width="169.2" height="73.1"/>
	</g>
	<g>
		<path class="st6" d="M165.4,8.6c1.8-0.3,4.1-0.6,7.1-0.6c3.7,0,6.3,0.8,8,2.4c1.6,1.4,2.5,3.4,2.5,6s-0.8,4.6-2.2,6.1
			c-2,2.1-5.1,3.1-8.8,3.1c-1.1,0-2.1,0-3-0.3v11.5h-3.7L165.4,8.6L165.4,8.6z M169.1,22.4c0.8,0.2,1.8,0.3,3.1,0.3
			c4.5,0,7.2-2.2,7.2-6.1c0-3.8-2.7-5.6-6.8-5.6c-1.6,0-2.8,0.1-3.5,0.3V22.4z"/>
		<path class="st6" d="M187.7,6.8h3.7V37h-3.7V6.8z"/>
		<path class="st6" d="M209.1,36.9l-0.3-2.6h-0.1c-1.1,1.6-3.4,3.1-6.3,3.1c-4.2,0-6.3-2.9-6.3-5.9c0-5,4.4-7.7,12.4-7.6v-0.4
			c0-1.7-0.5-4.8-4.7-4.8c-1.9,0-3.9,0.6-5.4,1.5l-0.8-2.5c1.7-1.1,4.2-1.8,6.8-1.8c6.3,0,7.8,4.3,7.8,8.4V32c0,1.8,0.1,3.5,0.3,4.9
			H209.1z M208.6,26.4c-4.1-0.1-8.7,0.6-8.7,4.6c0,2.4,1.6,3.6,3.5,3.6c2.7,0,4.4-1.7,5-3.4c0.1-0.4,0.2-0.8,0.2-1.2V26.4z"/>
		<path class="st6" d="M219.2,16.4l4.5,12.1c0.5,1.4,1,3,1.3,4.2h0.1c0.4-1.2,0.8-2.8,1.3-4.3l4.1-12.1h4L228.9,31
			c-2.7,7.1-4.5,10.7-7.1,12.9c-1.8,1.6-3.7,2.3-4.6,2.4l-0.9-3.1c0.9-0.3,2.2-0.9,3.3-1.8c1-0.8,2.3-2.3,3.1-4.2
			c0.2-0.4,0.3-0.7,0.3-0.9s-0.1-0.5-0.3-1l-7.6-18.9C215.1,16.4,219.2,16.4,219.2,16.4z"/>
	</g>
	<g class="st7">
		<path class="st6" d="M165.4,45.2h15.4v3.1h-11.7v9.5H180v3.1h-10.8v13h-3.7V45.2H165.4z"/>
		<path class="st6" d="M184.9,59.7c0-2.4,0-4.5-0.2-6.4h3.3l0.1,4h0.2c0.9-2.8,3.2-4.5,5.7-4.5c0.4,0,0.7,0,1.1,0.1v3.5
			c-0.4-0.1-0.8-0.1-1.3-0.1c-2.6,0-4.5,2-5,4.8c-0.1,0.5-0.2,1.1-0.2,1.7v11h-3.7L184.9,59.7L184.9,59.7z"/>
		<path class="st6" d="M210,73.9l-0.3-2.6h-0.1c-1.1,1.6-3.4,3.1-6.3,3.1c-4.2,0-6.3-2.9-6.3-5.9c0-5,4.4-7.7,12.4-7.6v-0.4
			c0-1.7-0.5-4.8-4.7-4.8c-1.9,0-3.9,0.6-5.4,1.5l-0.8-2.5c1.7-1.1,4.2-1.8,6.8-1.8c6.3,0,7.8,4.3,7.8,8.4V69c0,1.8,0.1,3.5,0.3,4.9
			H210z M209.4,63.4c-4.1-0.1-8.7,0.6-8.7,4.6c0,2.4,1.6,3.6,3.5,3.6c2.7,0,4.4-1.7,5-3.4c0.1-0.4,0.2-0.8,0.2-1.2V63.4z"/>
		<path class="st6" d="M219.1,58.9c0-2.1,0-3.9-0.2-5.6h3.3l0.2,3.3h0.1c1.1-2,3.1-3.8,6.5-3.8c2.8,0,4.9,1.7,5.8,4.1h0.1
			c0.6-1.1,1.4-2,2.3-2.7c1.2-0.9,2.6-1.4,4.5-1.4c2.7,0,6.8,1.8,6.8,8.9v12.1h-3.7V62.2c0-4-1.4-6.3-4.5-6.3
			c-2.1,0-3.8,1.6-4.4,3.4c-0.2,0.5-0.3,1.2-0.3,1.9v12.7h-3.7V61.5c0-3.3-1.4-5.6-4.3-5.6c-2.3,0-4,1.9-4.6,3.7
			c-0.2,0.6-0.3,1.2-0.3,1.8v12.4H219L219.1,58.9L219.1,58.9z"/>
		<path class="st6" d="M256.6,64.3c0.1,5.1,3.3,7.1,7.1,7.1c2.7,0,4.3-0.5,5.7-1.1L270,73c-1.3,0.6-3.6,1.3-6.8,1.3
			c-6.3,0-10.1-4.2-10.1-10.4s3.7-11.1,9.6-11.1c6.7,0,8.5,5.9,8.5,9.7c0,0.8-0.1,1.4-0.1,1.7L256.6,64.3L256.6,64.3z M267.5,61.6
			c0-2.4-1-6.1-5.2-6.1c-3.8,0-5.4,3.5-5.7,6.1H267.5z"/>
	</g>
</g>
<g>
	<g>
		<rect x="142.1" y="83.4" class="st2" width="169.2" height="43.4"/>
	</g>
	<g>
		<path class="st6" d="M166.9,106.8c1.7,0.9,4.4,1.8,7.2,1.8c3,0,4.5-1.2,4.5-3.1c0-1.8-1.4-2.8-4.8-4c-4.8-1.7-7.9-4.3-7.9-8.5
			c0-4.9,4.1-8.6,10.8-8.6c3.2,0,5.6,0.7,7.3,1.4l-1.4,5.2c-1.1-0.6-3.2-1.4-6-1.4s-4.2,1.3-4.2,2.8c0,1.8,1.6,2.6,5.3,4
			c5.1,1.9,7.4,4.5,7.4,8.5c0,4.8-3.7,8.9-11.6,8.9c-3.3,0-6.5-0.8-8.1-1.7L166.9,106.8z"/>
		<path class="st6" d="M195.2,90.3h-7.7v-5.4h22v5.4h-7.8v23.2h-6.5V90.3z"/>
		<path class="st6" d="M219.4,84.8v16.5c0,4.9,1.9,7.4,5.2,7.4c3.4,0,5.3-2.4,5.3-7.4V84.8h6.5v16.1c0,8.8-4.5,13-11.9,13
			c-7.2,0-11.5-4-11.5-13.1v-16H219.4z"/>
		<path class="st6" d="M241.9,85.2c2.4-0.4,5.5-0.6,8.8-0.6c5.4,0,9,1,11.7,3.1c3,2.2,4.8,5.7,4.8,10.8c0,5.5-2,9.3-4.8,11.6
			c-3,2.5-7.6,3.7-13.2,3.7c-3.4,0-5.7-0.2-7.3-0.4V85.2z M248.4,108.6c0.6,0.1,1.4,0.1,2.3,0.1c5.9,0,9.7-3.2,9.7-10
			c0-5.9-3.4-9.1-9-9.1c-1.4,0-2.4,0.1-2.9,0.3v18.7C248.5,108.6,248.4,108.6,248.4,108.6z"/>
		<path class="st6" d="M278,84.8v28.6h-6.5V84.8H278z"/>
		<path class="st6" d="M309.8,98.8c0,9.4-5.7,15.1-14.1,15.1c-8.5,0-13.5-6.4-13.5-14.6c0-8.6,5.5-15,13.9-15
			C305,84.4,309.8,90.9,309.8,98.8z M289.1,99.2c0,5.6,2.6,9.6,7,9.6s6.9-4.2,6.9-9.7c0-5.1-2.5-9.6-6.9-9.6
			C291.6,89.5,289.1,93.7,289.1,99.2z"/>
	</g>
</g>
<g>
	<path class="st2" d="M276.6,109c0.2,0,0.4-0.1,0.6-0.1C277,108.9,276.8,108.9,276.6,109z"/>
</g>
</svg>
