<?xml version="1.0" encoding="utf-8"?>
<!-- Generator: Adobe Illustrator 24.0.2, SVG Export Plug-In . SVG Version: 6.00 Build 0)  -->
<svg version="1.1" id="Layer_1" xmlns="http://www.w3.org/2000/svg" xmlns:xlink="http://www.w3.org/1999/xlink" x="0px" y="0px"
	 viewBox="0 0 605 430" enable-background="new 0 0 605 430" xml:space="preserve">
<path fill="#828282" d="M383.119,109.97c-0.6-4.3-2.1-7.1-4.5-8.3c-3.2-1.6-7.9-0.6-14.2,2.8c-6.1,3.3-9.4,2.5-11.1,1.3
	c-2.5-1.8-3.3-5.6-2.4-10.9c0.4-2.3,0.3-3.9-0.5-4.5c-1.4-1.1-5.4,0.4-8.9,1.8c-0.9,0.3-1.7,0.7-2.6,1c-4.2,1.6-8,1.2-9.4-1
	c-0.5-0.8-1.3-2.8,1.5-5.7c0.9-0.9,1-1.4,0.9-1.5c-0.7-0.9-5.4-0.8-8.6,1.1l-0.9-1.5c3.3-2,9.3-2.7,10.8-0.7c0.6,0.7,0.8,2-1,3.8
	c-1.3,1.3-1.8,2.6-1.3,3.5c0.8,1.2,3.6,1.7,7.3,0.3c0.8-0.3,1.7-0.7,2.5-1c4.3-1.7,8.4-3.4,10.6-1.6c1.3,1.1,1.6,3.1,1.1,6.2
	c-0.8,4.5-0.2,7.8,1.7,9.2c1.9,1.4,5.2,0.9,9.3-1.4c6.8-3.7,12.2-4.7,15.9-2.8c2.9,1.5,4.8,4.7,5.5,9.6L383.119,109.97z"/>
<g>
	<path fill="#828282" d="M362.419,206.97l-43.7-19.7l19.7-43.7l43.7,19.7L362.419,206.97z M319.819,186.77l42.2,19l19-42.2l-42.2-19
		L319.819,186.77z"/>
	<path fill="#828282" d="M264.919,245.87l-43.7-19.7l19.7-43.7l43.7,19.7L264.919,245.87z M222.419,225.67l42.2,19l19-42.2l-42.2-19
		L222.419,225.67z"/>
	<path fill="#828282" d="M331.219,276.17l-43.7-19.7l19.7-43.7l43.7,19.7L331.219,276.17z M288.619,255.97l42.2,19l19-42.2l-42.2-19
		L288.619,255.97z"/>
	<path fill="#828282" d="M233.419,315.87l-43.7-19.7l19.7-43.7l43.7,19.7L233.419,315.87z M190.819,295.67l42.2,19l19-42.2l-42.2-19
		L190.819,295.67z"/>
	<path fill="#828282" d="M299.619,346.17l-43.7-19.7l19.7-43.7l43.7,19.7L299.619,346.17z M257.119,325.97l42.2,19l19-42.2l-42.2-19
		L257.119,325.97z"/>
	<path fill="#828282" d="M296.119,176.67l-43.7-19.7l19.7-43.7l43.7,19.7L296.119,176.67z M253.519,156.47l42.2,19l19-42.2
		l-42.2-18.9L253.519,156.47z"/>
	<path fill="#828282" d="M280.519,109.27l-19.4,43l43,19.4l19.4-43L280.519,109.27z M304.119,144.27c-1.2-0.6-3.2-0.2-5.7,1.2
		c-2.9,1.6-4.5,1.1-5.4,0.5s-1.8-2.1-1.2-5.2c0.2-1,0-1.4,0-1.5c-0.4-0.3-2.3,0.5-3.4,0.9c-0.4,0.1-0.8,0.3-1.1,0.4
		c-2.1,0.8-3.9,0.5-4.7-0.6c-0.2-0.3-0.8-1.6,0.7-3.1l0,0c-0.7-0.1-1.9,0.1-2.8,0.6l-0.9-1.5c1.5-0.9,4.4-1.4,5.3-0.2
		c0.2,0.3,0.7,1.2-0.5,2.3c-0.4,0.4-0.6,0.8-0.5,0.9c0.2,0.2,1.1,0.5,2.6-0.1c0.4-0.1,0.7-0.3,1.1-0.4c2-0.8,3.9-1.6,5.1-0.6
		c1.1,0.9,0.7,2.6,0.6,3.1c-0.3,1.8-0.1,3,0.5,3.5s1.9,0.2,3.5-0.6c3.1-1.7,5.6-2.1,7.3-1.2c1.4,0.7,2.3,2.2,2.7,4.5l-1.7,0.2
		C305.619,145.77,305.019,144.77,304.119,144.27z"/>
	<path fill="#828282" d="M346.819,139.67l-19.4,43l43,19.4l19.4-43L346.819,139.67z M369.619,173.97c-1.2-0.6-3.2-0.2-5.7,1.2
		c-2.9,1.6-4.5,1.1-5.4,0.5s-1.8-2.1-1.2-5.2c0.2-1,0-1.4,0-1.5c-0.4-0.3-2.3,0.5-3.4,0.9c-0.4,0.1-0.8,0.3-1.1,0.4
		c-2.1,0.8-3.9,0.5-4.7-0.6c-0.2-0.3-0.8-1.6,0.7-3.1l0,0c-0.7-0.1-1.9,0.1-2.8,0.6l-0.9-1.5c1.5-0.9,4.4-1.4,5.3-0.2
		c0.2,0.3,0.7,1.2-0.5,2.3c-0.4,0.4-0.6,0.8-0.5,0.9c0.2,0.2,1.1,0.5,2.6-0.1c0.4-0.1,0.7-0.3,1.1-0.4c2-0.8,3.9-1.6,5.1-0.6
		c1.1,0.9,0.7,2.6,0.6,3.1c-0.3,1.8-0.1,3,0.5,3.5s1.9,0.2,3.5-0.6c3.1-1.7,5.6-2.1,7.3-1.2c1.4,0.7,2.3,2.2,2.7,4.5l-1.7,0.2
		C371.019,175.47,370.519,174.37,369.619,173.97z"/>
	<path fill="#828282" d="M249.419,178.47l-19.4,43l43,19.4l19.4-43L249.419,178.47z M271.919,213.17c-1.2-0.6-3.2-0.2-5.7,1.2
		c-2.9,1.6-4.5,1.1-5.4,0.5s-1.8-2.1-1.2-5.2c0.2-1,0-1.4,0-1.5c-0.4-0.3-2.3,0.5-3.4,0.9c-0.4,0.1-0.8,0.3-1.1,0.4
		c-2.1,0.8-3.9,0.5-4.7-0.6c-0.2-0.3-0.8-1.6,0.7-3.1l0,0c-0.7-0.1-1.9,0.1-2.8,0.6l-0.9-1.5c1.5-0.9,4.4-1.4,5.3-0.2
		c0.2,0.3,0.7,1.2-0.5,2.3c-0.4,0.4-0.6,0.8-0.5,0.9c0.2,0.2,1.1,0.5,2.6-0.1c0.4-0.1,0.7-0.3,1.1-0.4c2-0.8,3.9-1.6,5.1-0.6
		c1.1,0.9,0.7,2.6,0.6,3.1c-0.3,1.8-0.1,3,0.5,3.5s1.9,0.2,3.5-0.6c3.1-1.7,5.6-2.1,7.3-1.2c1.4,0.7,2.3,2.2,2.7,4.5l-1.7,0.2
		C273.319,214.77,272.719,213.67,271.919,213.17z"/>
	<path fill="#828282" d="M315.819,209.47l-19,42.2l42.2,19l19-42.2L315.819,209.47z M337.319,242.87c-1.2-0.6-3.2-0.2-5.7,1.2
		c-2.9,1.6-4.5,1.1-5.4,0.5s-1.8-2.1-1.2-5.2c0.2-1,0-1.4,0-1.5c-0.4-0.3-2.3,0.5-3.4,0.9c-0.4,0.1-0.8,0.3-1.1,0.4
		c-2.1,0.8-3.9,0.5-4.7-0.6c-0.2-0.3-0.8-1.6,0.7-3.1l0,0c-0.7-0.1-1.9,0.1-2.8,0.6l-0.9-1.5c1.5-0.9,4.4-1.4,5.3-0.2
		c0.2,0.3,0.7,1.2-0.5,2.3c-0.4,0.4-0.6,0.8-0.5,0.9c0.2,0.2,1.1,0.5,2.6-0.1c0.4-0.1,0.7-0.3,1.1-0.4c2-0.8,3.9-1.6,5.1-0.6
		c1.1,0.9,0.7,2.6,0.6,3.1c-0.3,1.8-0.1,3,0.5,3.5s1.9,0.2,3.5-0.6c3.1-1.7,5.6-2.1,7.3-1.2c1.4,0.7,2.3,2.2,2.7,4.5l-1.7,0.2
		C338.819,244.37,338.219,243.27,337.319,242.87z"/>
	<path fill="#828282" d="M218.019,249.07l-19,42.2l42.2,19l19-42.2L218.019,249.07z M239.619,283.87c-1.2-0.6-3.2-0.2-5.7,1.2
		c-2.9,1.6-4.5,1.1-5.4,0.5s-1.8-2.1-1.2-5.2c0.2-1,0-1.4,0-1.5c-0.4-0.3-2.3,0.5-3.4,0.9c-0.4,0.1-0.8,0.3-1.1,0.4
		c-2.1,0.8-3.9,0.5-4.7-0.6c-0.2-0.3-0.8-1.6,0.7-3.1l0,0c-0.7-0.1-1.9,0.1-2.8,0.6l-0.9-1.5c1.5-0.9,4.4-1.4,5.3-0.2
		c0.2,0.3,0.7,1.2-0.5,2.3c-0.4,0.4-0.6,0.8-0.5,0.9c0.2,0.2,1.1,0.5,2.6-0.1c0.4-0.1,0.7-0.3,1.1-0.4c2-0.8,3.9-1.6,5.1-0.6
		c1.1,0.9,0.7,2.6,0.6,3.1c-0.3,1.8-0.1,3,0.5,3.5s1.9,0.2,3.5-0.6c3.1-1.7,5.6-2.1,7.3-1.2c1.4,0.7,2.3,2.2,2.7,4.5l-1.7,0.2
		C241.019,285.37,240.519,284.27,239.619,283.87z"/>
	<path fill="#828282" d="M284.019,278.87l-19.4,43l43,19.4l19.4-43L284.019,278.87z M306.719,316.77c-0.2-1.7-0.8-2.8-1.7-3.2
		c-1.2-0.6-3.2-0.2-5.7,1.2c-2.9,1.6-4.5,1.1-5.4,0.5s-1.8-2.1-1.2-5.2c0.2-1,0-1.4,0-1.5c-0.4-0.3-2.3,0.5-3.4,0.9
		c-0.4,0.1-0.8,0.3-1.1,0.4c-2.1,0.8-3.9,0.5-4.7-0.6c-0.2-0.3-0.8-1.6,0.7-3.1l0,0c-0.7-0.1-1.9,0.1-2.8,0.6l-0.9-1.5
		c1.5-0.9,4.4-1.4,5.3-0.2c0.2,0.3,0.7,1.2-0.5,2.3c-0.4,0.4-0.6,0.8-0.5,0.9c0.2,0.2,1.1,0.5,2.6-0.1c0.4-0.1,0.7-0.3,1.1-0.4
		c2-0.8,3.9-1.6,5.1-0.6c1.1,0.9,0.7,2.6,0.6,3.1c-0.3,1.8-0.1,3,0.5,3.5s1.9,0.2,3.5-0.6c3.1-1.7,5.6-2.1,7.3-1.2
		c1.4,0.7,2.3,2.2,2.7,4.5L306.719,316.77z"/>
</g>
<path fill="#828282" d="M436.919,88.27l-139.7-63c-6.3-2.8-13.7,0.4-16.8,7.2l-130.9,290.5c-3.1,6.8-0.6,14.5,3.8,16.5l142.4,64.2
	c5.4,2.4,12.1-1.2,15.1-7.9l130.9-290.5C444.819,98.37,442.119,90.57,436.919,88.27z M349.019,62.17c0.3-0.7,1.1-1,1.7-0.7l35,15.8
	c0.7,0.3,1,1.1,0.7,1.7c-0.2,0.5-0.7,0.8-1.2,0.8c-0.2,0-0.4,0-0.5-0.1l-35-15.8C349.019,63.57,348.719,62.87,349.019,62.17z
	 M339.119,57.67c0.6-1.3,2.1-1.9,3.5-1.3c1.3,0.6,1.9,2.1,1.3,3.5c-0.6,1.3-2.1,1.9-3.5,1.3
	C339.019,60.57,338.519,58.97,339.119,57.67z M427.919,122.57l-118.3,262.6c-2.8,6.1-7.9,9.8-12.6,7.7l-136.2-61.4
	c-4-1.8-5.5-8.4-2.7-14.6l118.4-262.6c2.8-6.1,9.3-9.2,13.6-7.2l133.7,60.3C428.319,109.37,430.719,116.47,427.919,122.57z"/>
<path fill="#828282" d="M307.407,77.882c0.069-0.395,0.112-0.798,0.112-1.212c0-2.654-1.477-4.963-3.654-6.149
	c-0.473-4.358-4.162-7.751-8.646-7.751c-4.805,0-8.7,3.895-8.7,8.7c0,4.542,3.481,8.266,7.92,8.661
	c1.205,2.112,3.474,3.539,6.08,3.539c0.216,0,0.428-0.013,0.639-0.032c0.742,1.382,2.183,2.332,3.861,2.332c2.43,0,4.4-1.97,4.4-4.4
	C309.419,80.022,308.616,78.667,307.407,77.882z M294.552,80.149c2.428-0.3,4.671-1.277,6.366-2.902
	c1.711-1.605,2.791-3.815,3.082-6.247c0.145,1.218-0.013,2.494-0.471,3.667c-0.446,1.179-1.182,2.246-2.094,3.123
	C299.608,79.541,296.996,80.458,294.552,80.149z M305.373,81.958c-1.14,1.038-2.803,1.607-4.373,1.447
	c0.78-0.082,1.533-0.257,2.222-0.549c0.686-0.295,1.318-0.685,1.849-1.171c1.076-0.964,1.734-2.272,1.899-3.685
	C307.147,79.421,306.519,80.925,305.373,81.958z"/>
</svg>
