<?xml version="1.0" encoding="utf-8"?>
<!-- Generator: Adobe Illustrator 24.0.2, SVG Export Plug-In . SVG Version: 6.00 Build 0)  -->
<svg version="1.1" id="Layer_1" xmlns="http://www.w3.org/2000/svg" xmlns:xlink="http://www.w3.org/1999/xlink" x="0px" y="0px"
	 viewBox="0 0 1920 811" style="enable-background:new 0 0 1920 811;" xml:space="preserve">
<style type="text/css">
	.st0{fill:none;stroke:#180B86;stroke-miterlimit:10;}
	.st1{fill:#B1B0FE;}
	.st2{fill:none;stroke:#FFFFFF;stroke-miterlimit:10;}
	.st3{fill:#FFFFFF;stroke:#AFB3BF;stroke-miterlimit:10;}
	.st4{fill:#F0F0FF;}
	.st5{fill:#CCB9CF;}
	.st6{fill:#E1D9FE;}
	.st7{fill:#7C80F1;}
	.st8{fill:#4F53DF;}
	.st9{fill:#9E3F06;}
	.st10{fill:#FED1CE;}
	.st11{fill:#FFA600;}
	.st12{fill:#FF6C04;}
	.st13{fill:#2029A7;}
	.st14{fill:#180B86;}
	.st15{fill:none;}
	.st16{fill:none;stroke:#CACAFC;stroke-miterlimit:10;}
	.st17{fill:#E3E3FC;}
	.st18{fill:#FFFFFF;stroke:#AFB3BF;stroke-width:0.5;stroke-miterlimit:10;}
	.st19{fill:#3C46BF;}
	.st20{fill:#EABFBE;}
	.st21{fill:#24242D;}
	.st22{fill:#D1860D;}
</style>
<g>
	
		<rect x="1557" y="519" transform="matrix(0.2296 -0.9733 0.9733 0.2296 689.0995 1961.3232)" class="st0" width="52.9" height="52.9"/>
	
		<rect x="1566.5" y="514.7" transform="matrix(0.2296 -0.9733 0.9733 0.2296 700.6349 1967.3284)" class="st1" width="52.9" height="52.9"/>
	<path class="st2" d="M1587.8,553.5c-3.1-4,0.4-12.6,7.6-15.2c7.3-2.5,10,11-0.9,5.6c-10.9-5.4-3-18.3,2-20.7"/>
</g>
<image style="overflow:visible;" width="1589" height="1023" xlink:href="B55D0805.jpg"  transform="matrix(1.2102 0 0 1.2102 2229 -497)">
</image>
<image style="overflow:visible;" width="1294" height="613" xlink:href="B55D0807.jpg"  transform="matrix(1.6151 0 0 1.6151 -1045 -1487)">
</image>
<path class="st3" d="M-433.9,679.7l-0.6,0.3c-54.4,24.9-31.4,88.9,32,88.9h1911c67.7,0,91-69,31.8-94.2l-13.5-5.7L-433.9,679.7z"/>
<g>
	<path class="st3" d="M527.7,754.6H310.4c-7.3,0-13.1-5.9-13.1-13.1v-1.2c0-7.3,5.9-13.1,13.1-13.1h217.3c7.3,0,13.1,5.9,13.1,13.1
		v1.2C540.8,748.7,534.9,754.6,527.7,754.6z"/>
	<path class="st3" d="M54.4,755.1H-46.6c-7.3,0-13.1-5.9-13.1-13.1v-1.2c0-7.3,5.9-13.1,13.1-13.1H54.4V755.1z"/>
	<path class="st3" d="M54.4,755.1h100.9c7.3,0,13.1-5.9,13.1-13.1v-1.2c0-7.3-5.9-13.1-13.1-13.1H54.4V755.1z"/>
	<ellipse class="st3" cx="522.2" cy="740.4" rx="9.6" ry="7.4"/>
</g>
<path class="st3" d="M-158.2,570h1437.8c12.1,0,23.9,2.4,34.4,6.9l228.7,98.9c12.9,5.6,10,20.4-4.6,22.8l-15.8,2.6
	c-1.8,0.3-3.6,0.4-5.5,0.4H-412l-14.1-4.3c-12.5-3.8-13.6-17.1-1.8-22l236.1-98.7C-181.5,572.3-169.9,570-158.2,570z"/>
<path class="st4" d="M1277.6,570c12.1,0,23.9,2.4,34.4,6.9l228.7,98.5c12.9,5.6,10,20.3-4.6,22.7l-15.8,2.6
	c-1.8,0.3-3.6,0.4-5.5,0.4H-414l-14.1-4.3C-440.6,693,1277.6,570,1277.6,570z"/>
<image style="overflow:visible;" width="1920" height="1200" xlink:href="B55D0802.jpg"  transform="matrix(0.4755 0 0 0.4755 1097 -1028)">
</image>
<g>
	<path class="st5" d="M1629.3,523.3c0.5,1.6,1.6,1.1,1.6,3.5c0,0.7-1,1.1-1,1.4c-0.1,0.3,0.7,1.2,0.5,1.4c-1.1,1,7.1,2,8.6-1.5
		C1643.5,517.4,1629.1,522.6,1629.3,523.3z"/>
	<path class="st6" d="M1589.8,651.8c-0.6,0.3-1.2,0.7-1.6,1.2s-0.4,1.4,0.1,1.8c0.3,0.3,0.7,0.4,1.2,0.4c5.5,0.9,11.2,0.3,16.7-0.5
		c0.4-0.1,0.8-0.1,1.1-0.3c0.4-0.2,0.7-0.6,0.9-1.1c0.8-1.8,0.3-3.8-0.3-5.7c-0.5-1.7-1.2-3.7-3-4.3c-1.8-0.6-2.6,0.6-3.8,1.6
		C1597.7,647.7,1593.6,649.7,1589.8,651.8z"/>
	<path class="st7" d="M1588.3,653.1c-0.4,0.6-0.4,1.4,0.1,1.8c0.3,0.3,0.7,0.4,1.2,0.4c5.5,0.9,11.2,0.3,16.7-0.5
		c0.4-0.1,0.8-0.1,1.1-0.3c0.4-0.2,0.7-0.6,0.9-1.1C1610.6,649.9,1587.9,658,1588.3,653.1z"/>
	<path class="st6" d="M1649.7,645.4c-1.8,2.4-4.4,4.3-7.2,5.4c-2.3,0.8-4.9,1.3-6.5,3c-0.2,0.2-0.3,0.4-0.3,0.6
		c0,0.2,0.2,0.3,0.3,0.4c1.2,0.8,2.8,0.9,4.2,0.8c4.2-0.1,8.4-0.3,12.6-0.7c1-0.1,2-0.2,2.8-0.8c0.8-0.6,1.2-1.8,1.2-2.8
		c0-1.1-0.4-2.1-0.9-3c-0.5-1-1.2-2.1-2.2-2.6c-1.7-1-3.9-0.4-5.7,0.4"/>
	<path class="st7" d="M1636,653.9c-0.2,0.2-0.3,0.4-0.3,0.6c0,0.2,0.2,0.3,0.3,0.4c1.2,0.8,2.8,0.9,4.2,0.8
		c4.2-0.1,8.4-0.3,12.6-0.7c1-0.1,2-0.2,2.8-0.8c0.8-0.6,1.2-1.8,1.2-2.8c0,0-4.3,2.1-9.8,2.6C1636.5,655.2,1636,653.9,1636,653.9z"
		/>
	<path class="st8" d="M1642.4,596.8c-0.4,2.6-0.9,5.2-0.6,7.8c0.3,2,1,3.9,1.8,5.8c4.7,10.9,10.5,21.6,12.5,33.3
		c0.2,0.9,0.2,2-0.5,2.6c-0.4,0.3-0.9,0.4-1.3,0.4c-1.5,0.2-3.1,0.4-4.6,0.6c-0.5,0.1-1.1,0.1-1.6-0.2c-0.4-0.2-0.5-0.7-0.7-1.1
		c-3.3-8.5-7.1-16.9-11.4-25c-1.3-2.5-2.7-5-3.5-7.6c-0.9-2.7-4.7-12.4-5.4-15.2c-1.8-7.2-2.1-9.5-3.8-17.1c-0.7-3,0.3-5.7,0.9-8.7
		c0.7-3.7,4.7-9.1,8.7-9.9c3.8-0.8,4.8,3.4,6,6.2C1642.8,577.7,1643.9,587.1,1642.4,596.8z"/>
	<path class="st8" d="M1600,642.9c-0.1,0.7-0.3,1.4-0.1,2c0.3,0.8,1.1,1.3,1.9,1.7c1.9,0.8,4.6,1.6,6.6,1.5
		c3.6-9.5,5.7-18.2,6.7-28.3c0.3-3.2,0.9-5.4,2.1-8.4c0.8-1.8,1.7-3.8,3.8-8c4.9-9.9,7.4-18.6,8.8-28.8c0.3-2.4,0.5-5.1-1.1-6.9
		c-0.8-0.9-1.8-1.4-3-1.8c-3.9-1.3-9.3-1-10.4,3.5c-1.4,5.5-1.6,11.6-2.7,17.2c-2.2,12-5.3,23.4-8,35.9
		C1603.7,627.3,1601.5,636.1,1600,642.9z"/>
	<path class="st9" d="M1598.7,554.8c0.4,1.5,0.8,2.6,1.4,2.4c0.6-0.1,0.7-1.5,0.4-3s-1.2-2.7-1.8-2.6
		C1598.2,551.8,1598.4,553.4,1598.7,554.8z"/>
	<path class="st10" d="M1598.2,552.4c-1.5,0.2-3.9-1-3.9-2s0-2.5-1-1.5c-1,1,0,3.5,1,3.9c-1,1-7.2,2.8-7.2,3.9c0,1.2,3,0,5.8,0.1
		c-1.5,1-6,3.4-3.9,3.5c1.8,0.1,3.5-1,4.9-2c-1,1.5-2.6,2.7-3.8,3.2c-1,0.4-1.1,1.8,1.8,0.7c1.8-0.7,3.5-2.5,3.5-2.5
		s-2.1,1.9-2.9,3.6c-0.6,1.3,1.2,0,2.4-1.1c1-1,3-3.5,3.9-4.4C1599.7,556.9,1602.2,551.9,1598.2,552.4z"/>
	<path class="st11" d="M1642.4,525.8c1.2,0,2.4-0.1,3.5,0.3c2.1,0.8,3.2,2.7,3.1,4.9c-0.1,2.2-1.4,4.9-2.8,6.6
		c-2.8,3.4-5.6,5.1-9.5,7.1c-3.5,1.8-7.2,3.4-10.8,5c-7.9,3.5-15.8,7.2-24.5,7.1c-0.3,0-0.7,0-1.4,0.3c0.4-1-0.3-5.2-1.4-5.6
		c5.6-2.4,9.7-4.4,15-5.4c2.5-0.5,5.2-0.9,7.3-2.4c1.2-0.9,2-2.1,2.9-3.3c2.7-3.5,22.4-23.1,25-10.7c1.4,6.6-8.7,12.2-11.1,18
		c-2.3,5.6-3.7,11.2,0.1,17.5c0.9,1.4,1.4,4.5,1.4,4.5s-6.1-0.1-9.8,0.3c-5.2,0.7-7.7,1.4-12.6,4.2c-1.6,0.9-2.5,1-2.8,1.4
		c-0.3-0.7-0.3-1.9-0.2-2.3c1.2-8.4,0.1-14.5,3.1-22.5c0.6-2.6,5.5-21,5.9-22.2c4.9-4.4,8.6,0.2,11.4-0.2
		C1637,528.2,1639.7,526.3,1642.4,525.8"/>
	<g>
		<path class="st12" d="M1637.7,528.1c-1.1,0.7-2.2,1.3-3.2,2.1c-1.1,0.7-2.1,1.5-3,2.3c-1,0.8-1.9,1.6-2.8,2.5
			c-0.9,0.9-1.7,1.9-2.6,2.8c-1.7,1.9-3.4,3.7-5,5.7c-0.9,1-2.1,1.8-3.3,2.1c-1.3,0.4-2.5,0.5-3.8,0.6c2.5-0.6,5.1-1.2,6.5-3.3
			c0.8-1,1.5-2.1,2.4-3c0.8-1,1.7-1.9,2.5-2.9c0.9-0.9,1.7-1.9,2.6-2.8c0.9-0.9,1.9-1.7,3-2.5c1.1-0.7,2.1-1.4,3.3-2.1
			C1635.4,529.1,1636.5,528.6,1637.7,528.1z"/>
	</g>
	<path class="st12" d="M1635.8,528.3c0,0-1,0.6-3.5,0c-1.4-0.3-1.7-0.7-1.7-0.7s-2.4,1.7-2.4,2.4
		C1628.1,531,1630.5,531.5,1635.8,528.3z"/>
	<g>
		<path class="st12" d="M1642.3,541.7c-1.9,1.7-4.1,3.2-6.3,4.6c-2.2,1.4-4.5,2.6-6.9,3.7c-2.4,1.1-4.8,2-7.3,2.8
			c-2.5,0.8-5,1.5-7.6,1.8c1.2-0.4,2.5-0.8,3.7-1.2c1.2-0.4,2.4-0.9,3.6-1.3c2.4-1,4.8-1.9,7.1-3c2.3-1.1,4.6-2.2,6.9-3.4
			c1.1-0.6,2.3-1.2,3.4-1.9C1640.1,543.1,1641.2,542.4,1642.3,541.7z"/>
	</g>
	<g>
		<path class="st13" d="M1639.3,569.9c-2.2,0.8-4.2,1.4-6.3,2c-2.1,0.5-4.1,1-6.2,1.5c-2.1,0.5-4.1,0.9-6.2,1.4
			c-2.1,0.4-4.2,0.9-6.5,1.1c1.6-1.7,3.4-3.1,5.4-4.1c2-1,4.2-1.8,6.3-2.3c2.2-0.5,4.4-0.8,6.7-0.7
			C1634.8,568.8,1637.1,569,1639.3,569.9z"/>
	</g>
	<g>
		<path class="st13" d="M1631.8,574.6c0.6,0.9,1,1.7,1.5,2.5c0.5,0.7,0.9,1.4,1.5,1.9c0.6,0.5,1.2,0.9,2,1.2
			c0.8,0.3,1.7,0.5,2.7,0.8c-0.9,0.5-1.9,0.8-3,0.8c-1.1,0-2.2-0.5-3.1-1.2c-0.9-0.8-1.4-1.8-1.6-2.8
			C1631.5,576.6,1631.5,575.6,1631.8,574.6z"/>
	</g>
	<g>
		<path class="st13" d="M1627.6,600c-0.8-1.3-1.3-2.7-1.7-4.1c-0.4-1.4-0.8-2.9-1.1-4.3c-0.3-1.4-0.4-2.9-0.6-4.3
			c-0.1-1.5-0.2-2.9-0.2-4.4c0.7,1.3,1.3,2.7,1.7,4.1c0.4,1.4,0.8,2.9,1,4.3c0.3,1.4,0.4,2.9,0.6,4.3
			C1627.5,597,1627.6,598.4,1627.6,600z"/>
	</g>
	<g>
		<path class="st12" d="M1635.8,561.8c-0.7-0.7-1.5-1.3-2.3-1.8c-0.8-0.5-1.7-0.9-2.5-0.9c-0.8,0-1.8,0.3-2.7,0.5
			c-0.5,0.1-0.9,0.3-1.5,0.4c-0.5,0.1-1.1,0.1-1.5-0.3c0.5,0.2,0.9,0,1.4-0.2c0.4-0.2,0.9-0.4,1.3-0.6c0.9-0.4,1.9-0.7,3-0.7
			c1.1,0,2.2,0.6,2.9,1.3C1634.7,560.1,1635.4,560.9,1635.8,561.8z"/>
	</g>
	<g>
		<path class="st12" d="M1635.5,557.6c-0.9-0.5-1.6-1.1-2.4-1.6c-0.4-0.3-0.7-0.5-1.1-0.8c-0.4-0.2-0.8-0.5-1.3-0.6
			c0.5-0.3,1.1-0.3,1.6-0.1c0.5,0.1,1,0.4,1.4,0.7c0.4,0.3,0.8,0.7,1.1,1.1C1635,556.7,1635.3,557.1,1635.5,557.6z"/>
	</g>
	<g>
		<path class="st5" d="M1599.2,552.4c0.5,0.4,0.8,0.9,1.1,1.5c0.2,0.6,0.4,1.3,0.1,2.1c-0.3,0.7-0.6,1.2-0.9,1.7
			c-0.3,0.5-0.6,1-1,1.4c-0.7,0.9-1.5,1.7-2.3,2.5c-0.9,0.7-1.8,1.5-2.9,1.9c0.6-1,1.1-2,1.8-2.9c0.6-0.9,1.3-1.8,2-2.7l2-2.5
			C1599.5,554.7,1599.4,553.6,1599.2,552.4z"/>
	</g>
	<g>
		<path class="st5" d="M1594.9,558c-0.6,0.4-1.2,0.7-1.9,1.1c-0.6,0.3-1.3,0.6-2,0.8c1.2-0.7,2.2-1.7,3.2-2.6L1594.9,558z"/>
	</g>
	<g>
		<polygon class="st5" points="1593.2,557.1 1589,557.2 1593.1,556.1 		"/>
	</g>
	<g>
		<path class="st5" d="M1596.1,559.6c-1,0.8-2,1.5-3.2,2.1c0.9-0.8,1.7-1.8,2.4-2.8L1596.1,559.6z"/>
	</g>
	<g>
		<path class="st12" d="M1623.2,528.7c-0.2,2.9-0.8,5.8-1.5,8.6c-0.4,1.4-0.8,2.8-1.3,4.2c-0.5,1.4-1.1,2.7-1.9,4
			c0.4-1.4,0.7-2.8,1.1-4.2l1.1-4.2C1621.4,534.2,1622.2,531.4,1623.2,528.7z"/>
	</g>
	<path class="st10" d="M1627.8,514.6c-0.1,0.8-1,3.8-1,4.9c0,1,0.7,2.8,1,3.5c3.5,6.3,9.9,1.1,11.5-2.4c1.3-2.9,1-0.7,1.2-3.9
		c0.2-3.2-1-6.6-3.8-8.2c-1-0.6-2.3-0.9-3.5-0.7C1629.2,508.7,1628.1,510.8,1627.8,514.6z"/>
	<path class="st14" d="M1632.6,503.7c-2.5,0.8-4.7,2.6-5.8,5c0.7-0.8,1.9-0.9,2.7-0.3c-1.1,1.1-2,2.5-2.5,4c0.5-0.3,1-0.6,1.5-1
		c-0.6,0.9-0.8,2-0.7,3.1c1.4-2.3,3.3-4.2,5.5-5.7c0.3,2.1,1.5,4,3.2,5.1c0.2-0.7,0.5-1.4,1-1.9c0.1,1.9-0.2,3.7-0.8,5.5
		c0.7-0.6,1.4-1.4,1.9-2.2c-0.3,1.7-0.7,3.4-1.3,5c1.1-0.3,1.9-1.2,2.3-2.2c-0.2,2.8-2.1,2-2.4,8c0.5-0.5,0.6-0.5,1.3-0.4
		c-1.1,1.8-1.9,3.1-3.4,4.4c1.1,0.1,2.2-0.3,3-1c-1,1.2-2,2.4-2.9,3.6c2.1-0.2,4-1.5,5.7-2.8c2.8-2.2,5.4-5,5.9-8.6
		c0.2-1.1,0.6-2.5,0.5-3.6c-0.2-2.2,0.5-4.8,0.3-7c-0.2-2.7-1.9-5.1-4-6.7c-3.8-2.9-10.1,0.9-13.9-2"/>
</g>
<g>
	<g>
		<g>
			<path class="st3" d="M1147.5,519.1L999.6,659.1c-1.9,1.8-5.2,2.7-8.5,2.5l-25.4-1.8l173.2-149.8l7.4,3.8
				C1148.8,515.1,1149.3,517.4,1147.5,519.1z"/>
			<path class="st3" d="M989.4,655l150.9-142.7c1.2-1.2-0.5-2.7-2.6-2.2l-146.1,28.2c-3.5,0.7-6.6,2.1-8.7,4L860,653.5l119.4,4.7
				C983.4,658.3,987.2,657.1,989.4,655z"/>
			<path class="st3" d="M1028.3,536l47.9-9.2c0.8-0.1,1.4,0.4,0.9,0.8l-50.4,43.7c-0.8,0.7-2.1,1.2-3.5,1.3l-40.4,3.7
				c-0.8,0.1-1.3-0.5-0.9-0.9L1026,537C1026.6,536.5,1027.4,536.2,1028.3,536z"/>
			<polygon class="st3" points="940.1,587.2 1056,576.7 981.5,646.2 875.7,645.2 			"/>
			<line class="st3" x1="929.9" y1="596.1" x2="1045.8" y2="586.3"/>
			<line class="st3" x1="919.1" y1="606.1" x2="1034.4" y2="596.8"/>
			<line class="st3" x1="907" y1="617" x2="1022.4" y2="608.4"/>
			<line class="st3" x1="896.2" y1="626.7" x2="1010.9" y2="618.9"/>
			<line class="st3" x1="884.8" y1="637.1" x2="998.3" y2="630.6"/>
			<line class="st3" x1="1032.5" y1="578.9" x2="958.9" y2="642.2"/>
			<line class="st3" x1="1002.7" y1="581.6" x2="936.4" y2="638.5"/>
			<line class="st3" x1="968.6" y1="584.5" x2="905.5" y2="644"/>
			<path class="st3" d="M864.1,509.8l126.2,149.9c1.2,1.4-0.5,3.2-3.1,3.2l-119.5,0c-6,0-11.4-2.1-14.2-5.4L734.3,512.2
				c-1.4-1.7,0.5-3.8,3.6-3.9l109.7-4.2C854.4,503.8,860.9,506,864.1,509.8z"/>
		</g>
		<line class="st15" x1="364.5" y1="50.5" x2="857.5" y2="664.5"/>
		<line class="st15" x1="1716.5" y1="-12.5" x2="995.4" y2="662"/>
	</g>
	<g>
		
			<rect x="919.9" y="521.9" transform="matrix(-0.9352 -0.3542 0.3542 -0.9352 1610.2345 1357.2866)" class="st16" width="18.9" height="18.9"/>
		
			<rect x="918.8" y="518.3" transform="matrix(-0.9352 -0.3542 0.3542 -0.9352 1609.4281 1349.9724)" class="st17" width="18.9" height="18.9"/>
		<path class="st2" d="M932.7,530.8c-1.5,0.9-4.5-0.7-5-3.4c-0.6-2.7,4.3-3,1.9,0.6c-2.4,3.6-6.6,0.2-7.2-1.7"/>
	</g>
	<g>
		
			<rect x="773.9" y="416.9" transform="matrix(-0.9352 -0.3542 0.3542 -0.9352 1364.8848 1102.3846)" class="st16" width="18.9" height="18.9"/>
		
			<rect x="772.8" y="413.3" transform="matrix(-0.9352 -0.3542 0.3542 -0.9352 1364.0782 1095.0703)" class="st17" width="18.9" height="18.9"/>
		<path class="st2" d="M786.7,425.8c-1.5,0.9-4.5-0.7-5-3.4c-0.6-2.7,4.3-3,1.9,0.6s-6.6,0.2-7.2-1.7"/>
	</g>
	<g>
		
			<rect x="1253.9" y="375.9" transform="matrix(-0.9352 -0.3542 0.3542 -0.9352 2308.2937 1193.04)" class="st16" width="18.9" height="18.9"/>
		
			<rect x="1252.8" y="372.3" transform="matrix(-0.9352 -0.3542 0.3542 -0.9352 2307.4873 1185.7258)" class="st17" width="18.9" height="18.9"/>
		<path class="st2" d="M1266.7,384.8c-1.5,0.9-4.5-0.7-5-3.4s4.3-3,1.9,0.6c-2.4,3.6-6.6,0.2-7.2-1.7"/>
	</g>
	<g>
		
			<rect x="915.9" y="341.9" transform="matrix(-0.9352 -0.3542 0.3542 -0.9352 1666.243 1007.5369)" class="st16" width="18.9" height="18.9"/>
		
			<rect x="914.8" y="338.3" transform="matrix(-0.9352 -0.3542 0.3542 -0.9352 1665.4366 1000.2227)" class="st17" width="18.9" height="18.9"/>
		<path class="st2" d="M928.7,350.8c-1.5,0.9-4.5-0.7-5-3.4c-0.6-2.7,4.3-3,1.9,0.6s-6.6,0.2-7.2-1.7"/>
	</g>
	<g>
		
			<rect x="1031.3" y="364.7" transform="matrix(-0.9352 -0.3542 0.3542 -0.9352 1887.1801 1100.7797)" class="st16" width="26" height="26"/>
		
			<rect x="1029.8" y="359.8" transform="matrix(-0.9352 -0.3542 0.3542 -0.9352 1886.0691 1090.703)" class="st17" width="26" height="26"/>
		<path class="st2" d="M1049,377c-2.1,1.3-6.1-1-6.9-4.7c-0.8-3.7,6-4.2,2.7,0.8c-3.3,5-9.1,0.3-9.9-2.3"/>
	</g>
	<g>
		
			<rect x="1128.5" y="464" transform="matrix(-0.9352 -0.3542 0.3542 -0.9352 2033.0089 1317.0408)" class="st16" width="17" height="17"/>
		
			<rect x="1127.5" y="460.7" transform="matrix(-0.9352 -0.3542 0.3542 -0.9352 2032.2814 1310.4423)" class="st17" width="17" height="17"/>
		<path class="st2" d="M1140.1,472c-1.4,0.8-4-0.6-4.5-3.1c-0.5-2.4,3.9-2.7,1.7,0.5c-2.2,3.3-6,0.2-6.5-1.5"/>
	</g>
	<g>
		
			<rect x="885.3" y="445.5" transform="matrix(-0.9349 0.3549 -0.3549 -0.9349 1885.5049 557.8224)" class="st16" width="12.6" height="12.6"/>
		
			<rect x="883.2" y="444.2" transform="matrix(-0.9349 0.3549 -0.3549 -0.9349 1880.9426 556.0331)" class="st17" width="12.6" height="12.6"/>
		<path class="st2" d="M893.1,450.1c-0.4,1.1-2.5,1.6-4,0.5c-1.5-1.1,0.8-3.4,1.2-0.6c0.4,2.9-3.2,3-4.3,2.4"/>
	</g>
	<g>
		
			<rect x="1011.6" y="479.8" transform="matrix(-0.9349 0.3549 -0.3549 -0.9349 2146.7683 582.5715)" class="st16" width="16.7" height="16.7"/>
		
			<rect x="1008.8" y="478.1" transform="matrix(-0.9349 0.3549 -0.3549 -0.9349 2140.7058 580.1938)" class="st17" width="16.7" height="16.7"/>
		<path class="st2" d="M1021.9,485.8c-0.5,1.5-3.4,2.1-5.3,0.7c-1.9-1.5,1.1-4.6,1.6-0.8c0.5,3.8-4.3,4-5.8,3.1"/>
	</g>
	<g>
		
			<rect x="658.3" y="397.5" transform="matrix(-0.9349 0.3549 -0.3549 -0.9349 1429.246 545.5062)" class="st16" width="12.6" height="12.6"/>
		
			<rect x="656.2" y="396.2" transform="matrix(-0.9349 0.3549 -0.3549 -0.9349 1424.6836 543.7169)" class="st17" width="12.6" height="12.6"/>
		<path class="st2" d="M666.1,402.1c-0.4,1.1-2.5,1.6-4,0.5c-1.5-1.1,0.8-3.4,1.2-0.6c0.4,2.9-3.2,3-4.3,2.4"/>
	</g>
	<g>
		
			<rect x="752.3" y="279.5" transform="matrix(-0.9349 0.3549 -0.3549 -0.9349 1569.2507 283.8275)" class="st16" width="12.6" height="12.6"/>
		
			<rect x="750.2" y="278.2" transform="matrix(-0.9349 0.3549 -0.3549 -0.9349 1564.6884 282.0382)" class="st17" width="12.6" height="12.6"/>
		<path class="st2" d="M760.1,284.1c-0.4,1.1-2.5,1.6-4,0.5c-1.5-1.1,0.8-3.4,1.2-0.6c0.4,2.9-3.2,3-4.3,2.4"/>
	</g>
	<g>
		
			<rect x="1024.3" y="277.5" transform="matrix(-0.9349 0.3549 -0.3549 -0.9349 2094.8362 183.4283)" class="st16" width="12.6" height="12.6"/>
		
			<rect x="1022.2" y="276.2" transform="matrix(-0.9349 0.3549 -0.3549 -0.9349 2090.2739 181.639)" class="st17" width="12.6" height="12.6"/>
		<path class="st2" d="M1032.1,282.1c-0.4,1.1-2.5,1.6-4,0.5s0.8-3.4,1.2-0.6s-3.2,3-4.3,2.4"/>
	</g>
</g>
<image style="overflow:visible;" width="1920" height="1080" xlink:href="B55D0803.jpg"  transform="matrix(1 0 0 1 2423 -1923)">
</image>
<g>
	<path class="st3" d="M504.1,590.7c-1.1-0.9-2.3-1.7-3.7-1.9c-1.5-0.2-3,0.6-3.9,1.8c-0.9,1.2-1.2,2.8-0.9,4.3
		c-0.1-0.3-0.9,1-0.9,1.3c-1.2-4.8,1.6-10.1,6-12.2c4.4-2.1,10-1,13.7,2.2L504.1,590.7z"/>
	<path class="st3" d="M476,606.2c12.1-11.3,27.4-19.8,43.7-22.6c13.9-2.4,28.3,0.4,41.6,5.2c18.5,6.7,35.5,17.5,49.4,31.3
		c7,7,13.6,15.4,14.2,25.3c0.1,1.7,0,3.5-0.9,5c-0.8,1.4-2.1,2.3-3.5,3.2c-15.5,10.2-34,15.8-52.6,16.1c-21.3,0.3-42-6.3-62.3-12.8
		c-5.9-1.9-11.9-3.8-17.8-5.7c-7.2-2.3-14.8-4.9-19.2-11c-5.9-8.1-4.3-20.3,2-28.2C472,610.5,474.6,607.6,476,606.2z"/>
	<path class="st3" d="M476,605.7c12.2-11,27.4-19.3,43.8-22.1c13.9-2.4,28.3,0.2,41.5,4.8c18.4,6.4,35.4,16.8,49.2,30.1
		c7,6.7,13.5,14.9,14.1,24.5c0.1,1.7,0,3.4-0.9,4.9c-0.8,1.3-2.2,2.3-3.5,3.1c-15.6,9.9-34.1,15.5-52.6,15.8
		c-21.3,0.4-41.9-5.9-62.2-12.1c-5.9-1.8-11.9-3.6-17.8-5.5c-7.1-2.2-14.8-4.7-19.1-10.6c-5.9-7.9-4.2-19.7,2.1-27.3
		C471.9,609.9,474.5,607,476,605.7z"/>
	<path class="st18" d="M480.2,620.8c11.6-1.3,23.4,0.7,34.8,3.1c1.4,0.3,2.9,0.7,3.7,1.9c0.7,1.2,0.4,2.8-0.5,3.8
		c-0.9,1-2.3,1.5-3.7,1.6s-2.7-0.2-4.1-0.4c-6.1-1.2-12.3-2.2-18.5-2.4c-2.9-0.1-5.9,0-8.8-0.3c-1.2-0.1-2.5-0.3-3.5-0.8
		c-1.1-0.6-2-1.6-2-2.9c0-1.4,1-2.6,2.2-3.2c1.2-0.6,2.7-0.7,4-0.8"/>
	<path class="st3" d="M479.2,621.8c11.6-1.3,23.4,0.7,34.8,3.1c1.4,0.3,2.9,0.7,3.7,1.9c0.7,1.2,0.4,2.8-0.5,3.8
		c-0.9,1-2.3,1.5-3.7,1.6s-2.7-0.2-4.1-0.4c-6.1-1.2-12.3-2.2-18.5-2.4c-2.9-0.1-5.9,0-8.8-0.3c-1.2-0.1-2.5-0.3-3.5-0.8
		c-1.1-0.6-2-1.6-2-2.9c0-1.4,1-2.6,2.2-3.2c1.2-0.6,2.7-0.7,4-0.8"/>
	<path class="st3" d="M496.1,621.9c-0.4,1.1-1.3,3.6,0,7.7"/>
</g>
<g>
	<g>
		<g>
			<path class="st6" d="M595.9,624.1c1.1,0.2,2.1,0.1,3.2,0.2c2.8,0.3,5.5,1.7,8.3,1.3c1.3-0.2,2.7-1.1,2.7-2.4
				c0-1.2-1.2-2.1-2.4-2.3s-2.4-0.1-3.6-0.4c-3.6-0.8-7.4-9-11.5-6.1C588.5,617.5,591.6,623.4,595.9,624.1z"/>
		</g>
		<g>
			<path class="st6" d="M581.9,609.9c0.8,0.9,1.3,2.1,1.5,3.3c0.1,1.3-0.1,2.7,0.5,3.8c0.6,1.2,2,1.7,3.3,2c2.1,0.5,4.4,0.7,6.6,0.6
				c1.2-0.1,2.8-0.5,2.9-1.7c0.1-0.7-0.3-1.3-0.8-1.8c-1.7-1.8-4.4-2.2-6.6-3.6c-1.2-0.8-2.2-1.8-3.5-2.3c-1.3-0.5-2.5-0.1-3.1,1.2
				c0.1,0,0.2,0,0.2,0"/>
		</g>
		<g>
			<path class="st19" d="M547.6,584.7c5.1-5.4,10.4-10.5,16.1-15.2c1.5-1.3,3.4-2.6,5.3-2.1c1.9,0.5,3,2.6,3.7,4.4
				c5.2,12.7,10.4,25.3,15.6,38c-1,1.1-2.3,2-3.7,2.5c-0.9,0.4-2,0.6-2.9,0.2c-0.5-0.2-1-0.7-1.4-1.1c-7.5-8.2-12.2-18.8-13.3-29.9
				c-3.9,3.4-3.9,9.6-7,13.8c-0.7,0.9-1.6,1.8-2.7,2.2c-1.1,0.4-2.3,0.4-3.5,0.2c-3.7-0.8-6.8-4.2-7.2-7.9c-0.4-3.8,1.9-7.7,5.4-9.2
				"/>
		</g>
		<g>
			<path class="st8" d="M574.7,575.8c2.7-0.3,5.5-0.5,8.2-0.1c1.2,0.2,2.5,0.6,3.5,1.3c0.9,0.7,1.5,1.8,2,2.8
				c5.6,11.4,4.6,25.4,11,36.4c-3.3-0.1-6.7,0.8-9.5,2.6c-2.9-6.6-5.4-13.3-7.6-20.1c-1.3-3.9-2.4-8.2-1.2-12.1
				c-1.1,3.4-9.6,6.5-12.5,7.5c-4.4,1.5-10.3,2.7-14.9,1.4c-4.4-1.3-5.5-6.2-3.9-10.1c1.3-3,4.3-4.1,7.1-5.1
				C562.7,578.2,568.6,576.5,574.7,575.8z"/>
		</g>
		<g>
			<path class="st11" d="M530.5,571.6c4,1.3,7.1,4.3,10.5,6.8s7.5,4.7,11.6,3.7c0.7-0.2,1.4-0.4,2.1-0.2c0.7,0.2,1.1,0.8,1.5,1.4
				c2.9,4,5.9,8.7,4.6,13.4c-0.1,0.4-0.3,0.9-0.6,1.2c-0.4,0.4-1,0.5-1.5,0.5c-8.9,0.9-17.1-4.6-25.8-6.3c-2.5-0.5-5.1-0.6-7.5-1.2
				c-2.5-0.6-4.8-1.6-7-3C506.5,580,521,568.6,530.5,571.6z"/>
		</g>
		<g>
			<path class="st20" d="M509,580.9c2,1.1,3.9,2.2,5.9,3.4c0.3,0.2,0.6,0.4,1,0.4c4,0.8,4.6-8.4-0.1-9.4c-1.5-0.3-5.1-0.7-6.5-0.3
				C506.4,575.9,506.6,579.5,509,580.9z"/>
		</g>
		<g>
			<path class="st11" d="M522,570.3c1.4,0.3,2.7,0.5,4.1,0.5c2.2-0.1,4.3-0.8,6.4-1.5c1.1-0.4,2.4-1,2.4-2.2c0-1-1-1.7-1.9-2.1
				c-4-1.9-8.2-3.2-12.5-3.9c-3.1-0.5-9.9-1.9-12.7,0.2C502,565.6,519.8,569.8,522,570.3z"/>
		</g>
		<g>
			<path class="st10" d="M499,568c1.6-0.7,3.8,0.2,5.2,1.2c1.4,0.9,3.9,0.4,5.4,1.2c1.5,0.8,4.3,3.5,4.3,6.4c0,4-8.9,7-10.8,7.3
				c-1.2,0.2-2.5-0.1-3.7-0.5c-1.8-0.7-3.6-1.8-4.6-3.5c-1.3-2-1.4-4.7-0.6-6.9C495.1,570.8,496.9,569,499,568"/>
		</g>
		<g>
			<path class="st14" d="M500,569c-1.4-0.3-2.7,4.1-2.7,5.5c1,0.1,1.8,0.7,2.4,1.5c-0.9,0-1.6,0.8-1.6,1.6c1.6,0.5,3,1.5,4.1,2.7
				c-1.1-0.6,8.1,0.4,7.9,1.7s-10,1-14,6s-2.9,4.9-6,7c-1.7,1.1-4.3,1.9-6,3c-1.6,1.1-3.1,2.6-5,3s-0.4-0.4-1.6-1.9
				c-0.5-0.6-1.1-1.5-0.6-2c2.2-2,0.9-4.7,1.2-5c2.4-3.1,3.8-2.7,5.1-6.4c1.8-5.4,2.2-12.4,6.1-16.9
				C492.9,564.4,497.9,565.2,500,569z"/>
		</g>
		<path class="st21" d="M496,554.7c-0.9-0.2-1.8-0.3-2.6,0.1c-0.7,0.4-1.1,1.2-1.4,1.9c-0.9,1.9-1.7,4.3-0.4,5.9
			c0.3,0.4,0.7,0.8,0.9,1.3c0.2,0.6,0,1.3,0.2,1.9c0.3,0.7,1.1,1,1.8,1.2c1.6,0.6,3.3,1.1,4.9,1.7c2.6,0.9,6.6,2.5,9,0.4
			c1.6-1.5,3.3-5.8,2.6-8C509.6,556.4,499.9,555.4,496,554.7z"/>
		<path class="st21" d="M510,549c0.2-0.7,0.5-1.4,0.3-2.1c-0.3-0.9-1.2-1.4-2-1.7c-1.9-0.7-4.3-0.7-5.6,0.8c-0.5,0.7-0.8,1.5-1,2.3
			c-0.6,2.2-1.3,4.4-1.9,6.6c-0.1,0.4-0.2,0.7-0.1,1.1c0.1,0.5,0.5,0.8,0.9,1.1c2,1.4,6.3,3.9,7.6,0.5c0.3-0.8-0.1-2.2,0.1-3.2
			C508.5,552.6,509.4,550.7,510,549z"/>
		<g>
			<path class="st22" d="M524.1,586.8c10.4-3.9,18.9-12.6,22.5-23.1c0.4-1.1,0.7-2.5-0.1-3.5c-0.4-0.4-0.9-0.7-1.4-0.9
				c-8.3-3.8-18.1-4-26.5-0.5c0.1,2.1-0.5,4.3-1.8,5.9c5.1,1.9,10.5,3,15.9,3.1c-4.4,0.2-8.3,2.6-11.9,5.1c-1.9,1.4-3.8,2.8-5,4.8
				c-1.2,2-1.8,4.6-0.8,6.7c1.2,2.6,4.5,3.8,7.4,3.5c2.9-0.3,5.5-1.8,8.1-3.2"/>
		</g>
		<g>
			<path class="st10" d="M521.3,558.6c-1.4,0.1-2.6-0.7-3.7-1.6c-1-0.9-1.9-1.9-3.1-2.6c-1.6-0.9-3.6-0.9-5.3-0.1s-2.9,2.4-3.2,4.2
				c0,0.1,0,0.3,0,0.4c0.2,0.3,0.7,0.2,1-0.1c0.7-0.5,1.4-1,2.2-1.5c-0.9,0.5-1.6,1.4-1.9,2.3c0.2,0.1,0.4,0.3,0.6,0.4
				c0.7-0.5,1.4-0.9,2.2-1.1c-0.6,0.2-1,0.7-1.2,1.3c1.1,0,2.2,0,3.3,0.1c-0.2,0.7-1.1,0.8-1.8,1c-1.2,0.3-2.4,1-3.2,1.9
				c1.2,0.5,2.5,0.7,3.8,0.4c0.7-0.1,1.4-0.4,2.1-0.5c1.5-0.3,3.1,0,4.7,0c1.6,0,3.3-0.4,4.2-1.8c-2-1.7-4-3.3-5.9-5"/>
		</g>
	</g>
</g>
</svg>
